<svg width="105" height="20" viewBox="0 0 105 20" fill="none" xmlns="http://www.w3.org/2000/svg">
<path fill-rule="evenodd" clip-rule="evenodd" d="M101.794 13.3255C101.793 11.4252 100.83 10.1229 99.3674 9.80074C97.8888 9.47509 96.446 10.0687 95.7891 11.2731C95.0034 12.714 95.2467 14.6291 96.367 15.6177C97.4164 16.5438 98.633 16.7237 99.9083 16.1788C101.263 15.5998 101.748 14.4542 101.794 13.3255ZM96.9338 19.5341C96.867 19.3654 96.6945 19.4186 96.5738 19.386C93.9443 18.677 92.1641 16.6224 91.9173 13.9567C91.7127 11.7447 92.2292 9.75585 93.9271 8.1737C95.8464 6.38512 98.949 6.11399 100.89 7.55786C101.136 7.74104 101.359 7.95424 101.691 8.23715C101.691 7.89674 101.708 7.6373 101.686 7.38104C101.659 7.05354 101.768 6.93782 102.124 6.9452C103.082 6.96539 104.041 6.94284 105 6.9373V19.2269C104.216 19.2253 103.432 19.223 102.648 19.2223C101.714 19.2215 101.714 19.2221 101.696 18.2875C101.694 18.192 101.732 18.0815 101.589 17.9872C100.866 18.8289 99.8797 19.2471 98.8194 19.5341H96.9338Z" fill="white"/>
<mask id="mask0_2004_2045" style="mask-type:alpha" maskUnits="userSpaceOnUse" x="0" y="6" width="14" height="14">
<path d="M0 6.63379H13.0585V19.6172H0V6.63379Z" fill="white"/>
</mask>
<g mask="url(#mask0_2004_2045)">
<path fill-rule="evenodd" clip-rule="evenodd" d="M3.43885 13.0952C3.42552 15.0689 4.78583 16.5226 6.65021 16.527C8.51271 16.5313 9.86542 15.1258 9.8824 13.1687C9.89958 11.1874 8.54719 9.74085 6.67292 9.73579C4.82344 9.73086 3.45198 11.1553 3.43885 13.0952ZM0 11.997C0.236146 11.5961 0.255208 11.1288 0.405625 10.6998C1.45865 7.69734 4.60729 6.00044 7.57417 6.85446C8.42427 7.09914 9.10677 7.60819 9.78135 8.31585C9.78135 7.92357 9.80323 7.63746 9.77563 7.35608C9.74312 7.02472 9.88146 6.95319 10.1914 6.96123C10.9719 6.98154 11.7548 6.99762 12.5338 6.9568C13.0001 6.93238 13.0605 7.11676 13.0586 7.51615C13.0433 10.6224 13.0501 13.7286 13.0501 16.835C13.0501 17.5215 13.0376 18.2082 13.0558 18.8943C13.0636 19.1908 13.0043 19.3221 12.6619 19.3117C11.8295 19.2865 10.9956 19.2929 10.1629 19.3093C9.87938 19.315 9.74875 19.2518 9.77583 18.9447C9.80125 18.6576 9.78135 18.3666 9.78135 17.9991C9.47771 18.2607 9.2275 18.4822 8.97083 18.6963C8.3624 19.2036 7.60844 19.3899 6.87354 19.6173H4.99896C4.93958 19.4457 4.76667 19.4891 4.64917 19.4576C2.40792 18.8588 1.01531 17.4123 0.305313 15.2618C0.195937 14.9303 0.227917 14.5571 0 14.2625V11.997Z" fill="white"/>
</g>
<mask id="mask1_2004_2045" style="mask-type:alpha" maskUnits="userSpaceOnUse" x="69" y="6" width="13" height="14">
<path d="M69.3027 6.64844H81.8834V19.0173H69.3027V6.64844Z" fill="white"/>
</mask>
<g mask="url(#mask1_2004_2045)">
<path fill-rule="evenodd" clip-rule="evenodd" d="M74.3667 19.0173C74.3205 18.8906 74.1916 18.9198 74.0914 18.8982C70.9064 18.213 69.3851 16.549 69.3241 13.5811C69.2795 11.4028 69.3209 9.22304 69.3068 7.04402C69.3047 6.72991 69.4155 6.64421 69.7485 6.65095C70.6501 6.66918 71.553 6.67442 72.4541 6.64904C72.8366 6.63837 72.9094 6.76868 72.9074 7.0835C72.8941 9.0614 72.8984 11.0394 72.903 13.0172C72.9037 13.352 72.8982 13.6919 72.9563 14.0203C73.1829 15.2995 74.2123 16.0308 75.6966 15.9937C77.1321 15.9579 78.1137 15.1723 78.2428 13.8856C78.404 12.2808 78.2808 10.6696 78.3085 9.0614C78.3203 8.37427 78.3143 7.68694 78.3084 6.99971C78.3066 6.79185 78.3312 6.64954 78.6279 6.65317C79.6033 6.66495 80.5791 6.66254 81.5546 6.65377C81.8026 6.65156 81.8681 6.74713 81.8669 6.95449C81.8535 9.33452 81.9407 11.7188 81.812 14.0934C81.6667 16.7775 79.892 18.4475 76.9694 18.9144C76.8688 18.9305 76.7412 18.8927 76.6872 19.0173H74.3667Z" fill="white"/>
</g>
<mask id="mask2_2004_2045" style="mask-type:alpha" maskUnits="userSpaceOnUse" x="33" y="0" width="12" height="19">
<path d="M33.6008 0.453613H44.5834V18.9235H33.6008V0.453613Z" fill="white"/>
</mask>
<g mask="url(#mask2_2004_2045)">
<path fill-rule="evenodd" clip-rule="evenodd" d="M42.5154 0.453613C43.0266 0.698224 43.6106 0.723237 44.1245 0.972136C44.4985 1.15325 44.6941 1.3265 44.5178 1.78519C44.2866 2.38661 44.1378 3.01927 43.978 3.64438C43.8955 3.96719 43.8015 4.10563 43.4329 3.91104C42.8883 3.62376 42.2852 3.50472 41.6631 3.51881C40.8998 3.53626 40.4328 3.94198 40.3039 4.67703C40.2031 5.2512 40.2573 5.83046 40.2351 6.40708C40.2242 6.68793 40.3907 6.69508 40.602 6.69406C41.5466 6.68987 42.4918 6.70886 43.4357 6.68415C43.8109 6.67435 43.969 6.74929 43.9484 7.15265C43.9139 7.83095 43.9181 8.51292 43.9473 9.19162C43.9631 9.5618 43.8236 9.64429 43.4687 9.63572C42.542 9.61326 41.6139 9.64644 40.6876 9.61938C40.3061 9.60826 40.229 9.73638 40.2307 10.0815C40.2443 12.852 40.2279 15.6227 40.2492 18.3932C40.2524 18.8212 40.1373 18.9417 39.7001 18.9214C38.9147 18.885 38.1253 18.8901 37.3394 18.92C36.9523 18.9347 36.8404 18.8374 36.8431 18.4474C36.862 15.677 36.8416 12.9062 36.865 10.1358C36.8688 9.69626 36.7371 9.59968 36.3127 9.61785C35.527 9.65124 34.7386 9.61826 33.9516 9.62867C33.669 9.63235 33.5276 9.60519 33.6389 9.26768C33.8837 8.52527 34.1077 7.7751 34.305 7.01942C34.3784 6.73816 34.5214 6.68058 34.7843 6.68793C35.3087 6.70263 35.8365 6.66047 36.3578 6.70212C36.7964 6.73714 36.8752 6.56777 36.8616 6.18891C36.8333 5.39147 36.8251 4.59118 37.0019 3.80323C37.3726 2.15027 38.3407 1.03564 40.0584 0.592662C40.1515 0.56867 40.2768 0.584903 40.3109 0.453613H42.5154Z" fill="white"/>
</g>
<mask id="mask3_2004_2045" style="mask-type:alpha" maskUnits="userSpaceOnUse" x="45" y="6" width="13" height="14">
<path d="M45.1951 6.64648H57.739V19.0174H45.1951V6.64648Z" fill="white"/>
</mask>
<g mask="url(#mask3_2004_2045)">
<path fill-rule="evenodd" clip-rule="evenodd" d="M50.2225 19.0174C49.9256 18.7941 49.5407 18.8219 49.1993 18.7304C46.865 18.1054 45.3114 16.3879 45.2468 14.1692C45.1775 11.7907 45.2189 9.40958 45.1951 7.02975C45.1919 6.6962 45.3463 6.64736 45.6567 6.65269C46.5033 6.6672 47.3512 6.68079 48.1965 6.64826C48.6455 6.63104 48.7896 6.73417 48.7835 7.1654C48.7566 9.10947 48.771 11.054 48.7727 12.9984C48.7729 13.2665 48.7682 13.5359 48.7942 13.8024C48.9248 15.1366 49.9046 15.9629 51.3813 15.9949C52.8888 16.0276 53.8851 15.2818 54.1129 13.9569C54.2477 13.1728 54.1732 12.3842 54.1802 11.5978C54.1935 10.0894 54.1948 8.58055 54.1758 7.07224C54.1715 6.74071 54.2739 6.64101 54.6378 6.65038C55.5208 6.67294 56.4053 6.67475 57.2881 6.64967C57.6665 6.6389 57.741 6.76226 57.7391 7.08C57.7247 9.25892 57.751 11.4381 57.7258 13.617C57.6923 16.5007 56.0642 18.2917 52.9803 18.8985C52.868 18.9207 52.7093 18.8593 52.6535 19.0174H50.2225Z" fill="white"/>
</g>
<mask id="mask4_2004_2045" style="mask-type:alpha" maskUnits="userSpaceOnUse" x="57" y="2" width="13" height="18">
<path d="M57.7766 2.58691H69.2747V19.001H57.7766V2.58691Z" fill="white"/>
</mask>
<g mask="url(#mask4_2004_2045)">
<path fill-rule="evenodd" clip-rule="evenodd" d="M63.938 19.0011C63.8879 18.8447 63.7339 18.8856 63.6251 18.8567C61.7017 18.3479 60.6424 17.1741 60.4036 15.2476C60.1968 13.5783 60.3416 11.9009 60.3092 10.2274C60.2903 9.24955 60.3057 9.25692 59.3251 9.24603C58.8488 9.24073 58.2298 9.44091 57.9347 9.16705C57.6365 8.89029 57.8533 8.2856 57.8445 7.82516C57.835 7.32715 57.6665 6.65978 57.9267 6.3743C58.2266 6.04544 58.9299 6.28038 59.4573 6.2697C60.3054 6.25247 60.3058 6.26503 60.3058 5.46753C60.3058 4.65581 60.3189 3.84378 60.2992 3.03258C60.2913 2.714 60.3565 2.57587 60.7288 2.5876C61.6008 2.6151 62.4744 2.6124 63.3465 2.58833C63.6901 2.57888 63.7629 2.69698 63.7567 3.00301C63.7383 3.90075 63.7749 4.80005 63.7396 5.69676C63.7222 6.13687 63.8207 6.29232 64.3142 6.27789C65.6131 6.23991 66.9141 6.27416 68.2141 6.2588C68.5461 6.25486 68.6902 6.32075 68.6757 6.68147C68.6465 7.40581 68.65 8.13243 68.6746 8.85708C68.6858 9.18511 68.571 9.26035 68.2493 9.2563C66.8959 9.2397 65.5421 9.26149 64.1888 9.24115C63.833 9.23575 63.7378 9.33807 63.7426 9.67555C63.7613 10.9879 63.7485 12.3007 63.7525 13.6132C63.753 13.8024 63.7743 13.9924 63.7977 14.1806C63.9548 15.4359 64.8241 16.0675 66.1111 15.8612C66.6981 15.7672 67.2395 15.5438 67.7457 15.2542C68.0222 15.096 68.1325 15.1551 68.2536 15.4228C68.5532 16.0854 68.8695 16.7418 69.2064 17.3872C69.3343 17.6324 69.2825 17.742 69.051 17.8751C68.3128 18.2997 67.5493 18.6545 66.7092 18.8492C66.5703 18.8814 66.3753 18.8152 66.2903 19.0011H63.938Z" fill="white"/>
</g>
<mask id="mask5_2004_2045" style="mask-type:alpha" maskUnits="userSpaceOnUse" x="23" y="6" width="12" height="14">
<path d="M23.1443 6.6543H34.5591V19.5127H23.1443V6.6543Z" fill="white"/>
</mask>
<g mask="url(#mask5_2004_2045)">
<path fill-rule="evenodd" clip-rule="evenodd" d="M27.2264 19.5127C26.6596 19.2858 26.039 19.2801 25.4571 19.108C24.73 18.8932 24.0261 18.6378 23.3706 18.2595C23.1517 18.1332 23.0732 18.0343 23.2174 17.7873C23.58 17.1656 23.9244 16.5331 24.2436 15.8897C24.3859 15.6028 24.5116 15.6316 24.7557 15.7697C26.355 16.6747 28.0791 16.9423 29.9027 16.6663C30.1507 16.6288 30.381 16.5461 30.5914 16.4185C30.8934 16.2354 31.0799 15.9834 31.0728 15.6218C31.0654 15.2464 30.8316 15.035 30.5094 14.8896C29.7932 14.5663 29.0132 14.5138 28.2472 14.4079C27.3905 14.2897 26.544 14.1421 25.7455 13.8C24.4432 13.2422 23.6514 12.3203 23.5696 10.9177C23.4886 9.52872 23.9716 8.36827 25.2007 7.57916C26.5772 6.69527 28.1404 6.59466 29.7288 6.67789C30.6816 6.72789 31.6195 6.88248 32.5329 7.16313C32.7687 7.23562 32.879 7.30545 32.7829 7.58785C32.5578 8.24875 32.372 8.92263 32.1916 9.59661C32.1126 9.89168 32.0002 9.96223 31.6803 9.85559C30.7081 9.53179 29.7074 9.33906 28.6686 9.39867C28.2766 9.42116 27.8988 9.49038 27.5592 9.69262C27.2312 9.8878 27.0664 10.1674 27.0892 10.5448C27.111 10.9036 27.3596 11.0949 27.6619 11.2129C28.3723 11.4901 29.1369 11.5331 29.884 11.6453C30.7394 11.7739 31.5789 11.9438 32.3826 12.2706C35.4222 13.5069 34.8712 16.9951 33.1987 18.244C32.335 18.8889 31.3543 19.2187 30.3011 19.403C30.1907 19.4223 30.0442 19.3604 29.9809 19.5127H27.2264Z" fill="white"/>
</g>
<path fill-rule="evenodd" clip-rule="evenodd" d="M86.461 8.23155C87.7262 6.58762 89.2997 6.4311 91.0227 6.78949C91.349 6.85742 91.3985 6.9951 91.3128 7.29937C91.0917 8.08521 90.8737 8.87285 90.6867 9.66816C90.6179 9.96095 90.5128 9.99945 90.2593 9.92104C89.6267 9.72551 88.9806 9.65919 88.3281 9.81208C87.3865 10.0329 86.8415 10.6718 86.6511 11.6452C86.581 12.0033 86.5615 12.3774 86.5598 12.7445C86.5512 14.6561 86.5384 16.5681 86.5682 18.4792C86.5755 18.9442 86.4407 19.0347 86.0374 19.0156C85.3065 18.9811 84.5729 18.9972 83.8406 19.0105C83.594 19.015 83.4741 18.9765 83.4749 18.6655C83.4846 14.8757 83.4842 11.0859 83.4753 7.29615C83.4747 6.99883 83.5731 6.93211 83.8337 6.93765C84.5819 6.95327 85.331 6.96154 86.0785 6.93473C86.4102 6.92283 86.4921 7.05214 86.4653 7.3671C86.4441 7.61554 86.461 7.86751 86.461 8.23155Z" fill="white"/>
<path fill-rule="evenodd" clip-rule="evenodd" d="M18.2234 8.20928C19.4986 6.58169 21.0709 6.42719 22.7867 6.79796C23.0699 6.85913 23.1559 6.95538 23.0654 7.2679C22.8385 8.05166 22.6369 8.84389 22.4427 9.63753C22.3755 9.91286 22.2966 10.0337 21.9952 9.91931C21.5746 9.75977 21.1262 9.72904 20.678 9.7373C19.2874 9.763 18.3631 10.6778 18.3384 12.1537C18.3028 14.2657 18.311 16.379 18.3283 18.4914C18.3317 18.9076 18.2329 19.0354 17.8328 19.0161C17.1023 18.9809 16.3689 18.9938 15.6372 19.0122C15.3432 19.0195 15.2238 18.955 15.2249 18.6054C15.237 14.8494 15.2353 11.0934 15.2271 7.33743C15.2264 7.03237 15.3097 6.92978 15.6047 6.93784C16.3363 6.9577 17.0693 6.96122 17.8005 6.93663C18.1289 6.92555 18.269 7.01605 18.2283 7.37896C18.2023 7.61025 18.2234 7.84738 18.2234 8.20928Z" fill="white"/>
</svg>
