<svg width="61" height="32" viewBox="0 0 61 32" fill="none" xmlns="http://www.w3.org/2000/svg">
<mask id="mask0_2004_2076" style="mask-type:alpha" maskUnits="userSpaceOnUse" x="0" y="0" width="20" height="20">
<path d="M0.901855 0.0214844H19.9483V19.8565H0.901855V0.0214844Z" fill="white"/>
</mask>
<g mask="url(#mask0_2004_2076)">
<path fill-rule="evenodd" clip-rule="evenodd" d="M4.06326 0.0214844C4.57615 0.232552 4.76787 0.631554 4.76557 1.16083C4.75968 2.47113 4.76332 3.78147 4.76392 5.09176C4.76417 5.5669 4.84562 5.64566 5.33429 5.64571C8.89292 5.64591 12.4515 5.64541 16.0102 5.64601C18.0438 5.64635 19.5791 6.93218 19.9225 8.92446C19.9448 9.0534 19.9456 9.18695 19.9457 9.31841C19.9471 11.6012 19.9511 13.8839 19.9453 16.1666C19.9406 18.0517 18.3362 19.708 16.4372 19.8258C15.8716 19.8608 15.3074 19.8532 14.7428 19.854C11.816 19.8578 8.88932 19.8554 5.96263 19.8565C5.79578 19.8565 5.63033 19.8507 5.46673 19.8167C5.03295 19.7264 4.70914 19.3673 4.70135 18.9278C4.68961 18.2605 4.68746 17.5926 4.70175 16.9254C4.71288 16.406 5.12134 16.0308 5.66764 16.0291C7.43861 16.0236 9.20959 16.026 10.9806 16.0256C12.4855 16.0253 13.9904 16.0263 15.4953 16.025C15.999 16.0246 16.0851 15.9363 16.0852 15.4332C16.0854 13.6285 16.0856 11.8237 16.085 10.0189C16.0849 9.54479 16.0177 9.47955 15.5351 9.47955C12.1261 9.4793 8.71718 9.4793 5.30827 9.47955C4.83109 9.4796 4.76412 9.54622 4.76392 10.025C4.76332 11.6237 4.76472 13.2225 4.76202 14.8212C4.76177 14.9769 4.75229 15.135 4.72392 15.2877C4.63912 15.7434 4.26073 16.0563 3.79174 16.0597C3.15156 16.0644 2.51132 16.0639 1.87109 16.0602C1.30223 16.0569 0.904303 15.6591 0.904153 15.0897C0.902805 10.3841 0.904403 5.67855 0.901856 0.972948C0.901606 0.49568 1.16559 0.214323 1.56836 0.0214844H4.06326Z" fill="white"/>
</g>
<path fill-rule="evenodd" clip-rule="evenodd" d="M41.721 0C42.2334 0.232106 42.396 0.631718 42.3945 1.17968C42.3813 5.78583 42.385 10.392 42.3898 14.9982C42.3903 15.4451 42.2417 15.785 41.8241 15.986C41.6931 16.0491 41.5548 16.0669 41.4116 16.0668C40.7871 16.0663 40.1625 16.0718 39.5381 16.0652C38.9449 16.059 38.5592 15.672 38.5579 15.0791C38.5542 13.4281 38.5566 11.7771 38.5555 10.1262C38.5554 10.0193 38.5555 9.9106 38.5378 9.80566C38.5014 9.59033 38.3746 9.46906 38.1443 9.4716C38.0278 9.47284 37.9112 9.4706 37.7946 9.4706C34.4471 9.4705 31.0997 9.47045 27.7522 9.4706C27.2601 9.47065 27.1814 9.54686 27.1813 10.0259C27.1808 11.8502 27.1807 13.6745 27.1814 15.4988C27.1816 15.9329 27.2836 16.034 27.7294 16.0342C31.0019 16.0352 34.2744 16.0342 37.547 16.0357C38.072 16.036 38.4365 16.2973 38.5524 16.7528C38.5766 16.8474 38.583 16.9485 38.5834 17.0466C38.5861 17.641 38.5876 18.2353 38.5839 18.8297C38.5804 19.3986 38.2602 19.7594 37.6927 19.8375C37.5695 19.8545 37.4439 19.861 37.3195 19.861C34.022 19.8622 30.7245 19.859 27.4269 19.8634C26.0323 19.8653 24.8678 19.3956 24.0326 18.255C23.5711 17.6247 23.3214 16.9135 23.3206 16.1283C23.3183 13.8748 23.3143 11.6212 23.3215 9.36765C23.3273 7.53452 24.7686 5.92669 26.6011 5.68407C26.8496 5.65117 27.0977 5.63917 27.3478 5.63922C30.8784 5.64001 34.4091 5.63981 37.9398 5.63971C38.4691 5.63966 38.5555 5.55343 38.5559 5.01757C38.5568 3.73806 38.5727 2.45825 38.5485 1.17924C38.5381 0.630626 38.709 0.231312 39.2224 0H41.721Z" fill="white"/>
<mask id="mask1_2004_2076" style="mask-type:alpha" maskUnits="userSpaceOnUse" x="45" y="5" width="16" height="12">
<path d="M45.2754 5.67871H60.4858V16.0361H45.2754V5.67871Z" fill="white"/>
</mask>
<g mask="url(#mask1_2004_2076)">
<path fill-rule="evenodd" clip-rule="evenodd" d="M60.4858 8.78923C60.2533 9.30291 59.8458 9.48704 59.2866 9.48516C56.0893 9.47446 52.8921 9.48043 49.6948 9.48107C49.1882 9.48117 49.1246 9.54483 49.1244 10.0515C49.1238 11.6432 49.1236 13.2349 49.1237 14.8266C49.1237 14.9745 49.1197 15.1211 49.0858 15.2667C48.9773 15.7318 48.6312 16.0235 48.1465 16.0299C47.5237 16.0382 46.9008 16.0378 46.278 16.0306C45.6969 16.0239 45.286 15.6233 45.2845 15.0497C45.2795 13.1298 45.2645 11.2097 45.2891 9.29009C45.3115 7.54561 46.7397 5.99383 48.5073 5.73312C48.7378 5.69915 48.9683 5.68283 49.2016 5.68298C52.5733 5.6846 55.9449 5.68948 59.3165 5.67872C59.8708 5.67696 60.2615 5.87337 60.4858 6.37683V8.78923Z" fill="white"/>
</g>
<mask id="mask2_2004_2076" style="mask-type:alpha" maskUnits="userSpaceOnUse" x="56" y="16" width="5" height="4">
<path d="M56.7109 16.0977H60.4864V19.8574H56.7109V16.0977Z" fill="white"/>
</mask>
<g mask="url(#mask2_2004_2076)">
<path fill-rule="evenodd" clip-rule="evenodd" d="M60.4864 19.1757C60.2776 19.6723 59.8837 19.8635 59.3615 19.8572C58.8491 19.851 58.3364 19.8623 57.8242 19.8538C57.1631 19.8428 56.7705 19.5171 56.7364 18.8921C56.7026 18.2735 56.7017 17.65 56.738 17.0316C56.7738 16.4219 57.1498 16.1108 57.7668 16.1064C58.2955 16.1027 58.8252 16.1248 59.3527 16.0998C59.8869 16.0746 60.2671 16.266 60.4864 16.7542V19.1757Z" fill="white"/>
</g>
<mask id="mask3_2004_2076" style="mask-type:alpha" maskUnits="userSpaceOnUse" x="59" y="27" width="2" height="5">
<path d="M59.5754 27.9248H60.477V31.6402H59.5754V27.9248Z" fill="white"/>
</mask>
<g mask="url(#mask3_2004_2076)">
<path fill-rule="evenodd" clip-rule="evenodd" d="M60.477 31.6121C59.5756 31.6783 59.5756 31.6783 59.5756 31.0207C59.5756 30.105 59.5751 29.1893 59.5758 28.2736C59.5762 27.9275 59.5793 27.9254 60.0328 27.9248C60.1808 27.9246 60.3289 27.9284 60.477 27.9302V31.6121Z" fill="white"/>
</g>
<path fill-rule="evenodd" clip-rule="evenodd" d="M2.14139 28.5582C1.57293 28.5534 1.57293 28.5534 1.57396 29.1201C1.57411 29.1849 1.57524 29.2497 1.57602 29.3144C1.57706 29.4009 1.61801 29.4562 1.70778 29.4544C1.99199 29.449 2.27855 29.4911 2.56006 29.426C2.83075 29.3634 2.93531 29.2232 2.91781 28.9613C2.90193 28.7234 2.7456 28.5756 2.48351 28.5594C2.36985 28.5524 2.25545 28.5582 2.14139 28.5582ZM2.12497 31.0684C2.24739 31.0684 2.36995 31.0729 2.49221 31.0676C2.85493 31.0522 3.02218 30.8937 3.02165 30.5716C3.02115 30.2543 2.85026 30.0927 2.48833 30.0762C2.33352 30.0691 2.17821 30.0728 2.02316 30.0739C1.52047 30.0773 1.57637 30.0234 1.5744 30.5128C1.57219 31.0696 1.57386 31.0696 2.12497 31.0684ZM3.12921 29.7383C3.6228 29.9525 3.81803 30.3192 3.75048 30.8071C3.67545 31.3489 3.32085 31.6625 2.76762 31.6788C2.21981 31.695 1.6711 31.6808 1.1228 31.6859C0.969115 31.6873 0.901369 31.6337 0.901858 31.474C0.905351 30.3602 0.904466 29.2464 0.902303 28.1326C0.902057 27.9995 0.935832 27.9081 1.09015 27.9103C1.6215 27.9177 2.15368 27.878 2.6841 27.9331C3.12154 27.9787 3.4964 28.1428 3.60854 28.6021C3.72137 29.0643 3.61818 29.4778 3.12921 29.7383Z" fill="white"/>
<path fill-rule="evenodd" clip-rule="evenodd" d="M10.1288 29.3632C10.1288 30.0185 10.1316 30.674 10.1261 31.3293C10.1252 31.4414 10.1861 31.6021 10.0409 31.6512C9.88633 31.7034 9.7136 31.6945 9.5531 31.6487C9.48162 31.6284 9.48832 31.5443 9.48827 31.481C9.48723 30.3545 9.48827 29.2281 9.48657 28.1017C9.48634 27.9658 9.55182 27.9206 9.67369 27.9094C9.95667 27.8832 10.1695 27.9334 10.3367 28.228C10.7013 28.8708 11.1112 29.4862 11.5047 30.1114C11.5409 30.1689 11.5598 30.2461 11.6403 30.2715C11.7005 30.1912 11.6719 30.0994 11.6724 30.0151C11.6753 29.4154 11.6722 28.8157 11.6749 28.216C11.6763 27.9254 11.699 27.9085 12.0189 27.909C12.3266 27.9095 12.3422 27.9213 12.3426 28.2061C12.3438 29.2596 12.3361 30.3132 12.3481 31.3665C12.351 31.6194 12.2622 31.6715 12.0339 31.6831C11.7464 31.6977 11.5809 31.5976 11.4301 31.3432C11.0295 30.667 10.5965 30.0112 10.1764 29.3473C10.1605 29.3526 10.1447 29.3579 10.1288 29.3632Z" fill="white"/>
<path fill-rule="evenodd" clip-rule="evenodd" d="M31.1665 29.1022C31.1665 29.2073 31.1735 29.313 31.165 29.4173C31.1505 29.5933 31.2188 29.67 31.3989 29.6613C31.6234 29.6504 31.8487 29.6582 32.0736 29.6508C32.244 29.6452 32.385 29.5762 32.4737 29.422C32.705 29.0198 32.4631 28.5707 32.0055 28.5535C31.9092 28.5498 31.8126 28.5499 31.7162 28.5512C31.0736 28.5596 31.177 28.4695 31.1665 29.1022ZM30.4747 29.7989C30.4748 29.2729 30.4816 28.7468 30.4716 28.2211C30.4674 27.9982 30.5339 27.8923 30.7729 27.9045C31.2942 27.9309 31.8186 27.8635 32.3381 27.9459C32.8194 28.0223 33.1617 28.3675 33.2357 28.8362C33.329 29.4268 33.1391 29.8796 32.6787 30.1127C32.5386 30.1836 32.528 30.2391 32.608 30.3646C32.8378 30.7256 33.0552 31.0946 33.281 31.4582C33.3747 31.6091 33.3453 31.6536 33.1636 31.6757C32.7683 31.7239 32.4915 31.6228 32.3267 31.2222C32.2142 30.9486 32.0313 30.7039 31.8754 30.4489C31.7948 30.3172 31.3354 30.2373 31.2186 30.331C31.1523 30.3842 31.1676 30.4631 31.1672 30.5342C31.1654 30.8416 31.1617 31.1491 31.1672 31.4565C31.1699 31.6122 31.1063 31.6821 30.9525 31.6696C30.9366 31.6683 30.9204 31.6696 30.9043 31.67C30.4751 31.6794 30.4749 31.6794 30.4747 31.2553C30.4744 30.7698 30.4746 30.2843 30.4747 29.7989Z" fill="white"/>
<path fill-rule="evenodd" clip-rule="evenodd" d="M14.553 29.8095C14.553 30.1588 14.5528 30.5081 14.5531 30.8574C14.5532 30.9577 14.5504 31.0662 14.7066 31.065C14.991 31.0627 15.2762 31.0923 15.5595 31.0401C15.9222 30.9732 16.1415 30.7721 16.2289 30.4508C16.3378 30.0505 16.3339 29.6412 16.2601 29.2414C16.1701 28.7537 15.894 28.5653 15.3543 28.5547C15.1939 28.5516 15.0324 28.563 14.8732 28.5503C14.6361 28.5313 14.5331 28.6009 14.5476 28.835C14.5677 29.1588 14.5526 29.4846 14.553 29.8095ZM13.7827 29.7952C13.7825 29.2667 13.7893 28.7382 13.7792 28.2098C13.7751 27.9957 13.8481 27.8929 14.0996 27.9042C14.6069 27.9269 15.1158 27.8772 15.623 27.9383C16.4359 28.0363 16.8945 28.4178 17.0497 29.1482C17.1511 29.6254 17.1403 30.1019 17.0075 30.5739C16.8124 31.267 16.2647 31.6676 15.4812 31.681C15.0085 31.6891 14.5352 31.6765 14.0626 31.6866C13.8514 31.6912 13.7781 31.6154 13.7804 31.4295C13.7872 30.8848 13.7829 30.34 13.7827 29.7952Z" fill="white"/>
<path fill-rule="evenodd" clip-rule="evenodd" d="M26.9552 29.815C26.9552 30.1472 26.9552 30.4794 26.9552 30.8116C26.9552 30.8278 26.9567 30.8441 26.9558 30.8602C26.9482 30.998 27.0064 31.0738 27.1728 31.069C27.3875 31.0627 27.6035 31.077 27.8172 31.0622C28.2378 31.0332 28.4963 30.8456 28.6132 30.479C28.7604 30.0177 28.7579 29.5509 28.6141 29.0892C28.5127 28.764 28.2442 28.5783 27.8659 28.5605C27.6515 28.5505 27.4359 28.5621 27.2215 28.5521C27.0244 28.543 26.9485 28.6167 26.953 28.7942C26.9614 29.1343 26.9554 29.4747 26.9552 29.815ZM26.1834 29.8048C26.1835 29.253 26.1856 28.7012 26.1821 28.1495C26.1812 28.0096 26.2123 27.9079 26.3977 27.9096C26.8996 27.9145 27.4056 27.8822 27.9025 27.9293C28.9105 28.0249 29.3527 28.4236 29.4823 29.3294C29.5445 29.7637 29.5296 30.2036 29.3938 30.6326C29.193 31.267 28.6482 31.6619 27.9181 31.6791C27.4342 31.6906 26.9495 31.6742 26.4656 31.6866C26.2333 31.6925 26.1594 31.6023 26.1832 31.4113C26.1842 31.4033 26.1832 31.3951 26.1832 31.387C26.1832 30.8596 26.1832 30.3322 26.1834 29.8048Z" fill="white"/>
<path fill-rule="evenodd" clip-rule="evenodd" d="M52.6612 29.6498C52.8068 29.6498 52.9531 29.6588 53.0978 29.6475C53.271 29.6339 53.4204 29.5501 53.4727 29.3825C53.5924 28.9995 53.5203 28.5499 52.9572 28.5551C52.8682 28.5559 52.7792 28.5539 52.6901 28.5538C52.1248 28.5535 52.1209 28.5535 52.1257 29.1168C52.1311 29.7304 52.0345 29.6557 52.6612 29.6498ZM51.4585 29.7929C51.4584 29.2427 51.4596 28.6924 51.4576 28.1422C51.4571 28.0154 51.4781 27.9112 51.6358 27.9139C52.1951 27.9232 52.7565 27.8659 53.3133 27.9495C53.8082 28.0238 54.1448 28.3613 54.2176 28.8358C54.3105 29.4411 54.1283 29.8856 53.6619 30.1108C53.4942 30.1918 53.5189 30.2582 53.5957 30.3794C53.821 30.7352 54.0361 31.0973 54.2616 31.4529C54.3696 31.6232 54.3197 31.6587 54.1326 31.678C53.7457 31.7181 53.4654 31.6301 53.3084 31.232C53.2118 30.9868 53.0416 30.7704 52.904 30.5414C52.7781 30.3318 52.4353 30.2221 52.2124 30.3161C52.1129 30.3581 52.1262 30.4431 52.1257 30.5218C52.1239 30.8212 52.1169 31.1208 52.1272 31.4199C52.1336 31.6064 52.0703 31.6948 51.8761 31.6735C51.8119 31.6664 51.7459 31.6674 51.6815 31.6729C51.5105 31.6876 51.4546 31.6074 51.4563 31.4436C51.4621 30.8934 51.4585 30.3432 51.4585 29.7929Z" fill="white"/>
<path fill-rule="evenodd" clip-rule="evenodd" d="M44.0769 29.6091C44.4838 29.1215 44.8914 28.6346 45.2971 28.1459C45.4518 27.9595 45.9171 27.8394 46.1314 27.9395C46.2664 28.0025 46.1667 28.0705 46.1235 28.1237C45.8025 28.5193 45.4873 28.9208 45.1504 29.3016C45.0093 29.4611 45.0227 29.5756 45.1256 29.7421C45.47 30.2992 45.8023 30.8642 46.1361 31.4282C46.259 31.6358 46.2379 31.6387 46.0015 31.6737C45.5985 31.7333 45.3435 31.5923 45.1695 31.2051C45.0227 30.8783 44.8014 30.5877 44.6318 30.2706C44.5281 30.0766 44.4636 30.1126 44.3328 30.2484C44.1038 30.4863 43.9773 30.7453 44.0245 31.0869C44.0419 31.2132 44.0249 31.3442 44.0264 31.473C44.0277 31.5994 43.9785 31.6727 43.8467 31.667C43.8389 31.6667 43.831 31.6671 43.8231 31.6676C43.3498 31.6999 43.3487 31.6989 43.3487 31.2186C43.3486 30.22 43.3478 29.2214 43.3492 28.2229C43.3496 27.9366 43.3642 27.933 43.6958 27.9252C43.8989 27.9205 44.0433 27.9365 44.0322 28.2146C44.0139 28.6718 44.0272 29.1304 44.0272 29.5884C44.0438 29.5953 44.0604 29.6022 44.0769 29.6091Z" fill="white"/>
<path fill-rule="evenodd" clip-rule="evenodd" d="M55.7515 29.7967C55.7515 29.2607 55.7571 28.7246 55.7486 28.1887C55.7453 27.9795 55.8357 27.9018 56.072 27.9046C56.8016 27.9134 57.5316 27.9174 58.261 27.9035C58.5701 27.8976 58.5586 28.0546 58.5642 28.2472C58.57 28.4509 58.5261 28.5674 58.2533 28.5591C57.7704 28.5444 57.2864 28.5607 56.8031 28.5529C56.6062 28.5497 56.5244 28.6057 56.5298 28.7901C56.5514 29.5374 56.4133 29.4024 57.2108 29.4161C57.4843 29.4208 57.7582 29.42 58.0318 29.4169C58.1951 29.415 58.2796 29.4619 58.2883 29.6252C58.3109 30.0501 58.3033 30.0642 57.8244 30.0646C57.4778 30.0649 57.131 30.0703 56.7846 30.0629C56.5955 30.0588 56.5341 30.1255 56.5291 30.2926C56.5057 31.0691 56.501 31.0689 57.3684 31.069C57.6968 31.0691 58.0256 31.0778 58.3535 31.0671C58.6235 31.0582 58.6121 31.2128 58.6092 31.3734C58.6064 31.5277 58.6385 31.6888 58.3619 31.6862C57.5776 31.6787 56.793 31.6792 56.0085 31.6868C55.7896 31.6889 55.7497 31.5888 55.7505 31.4291C55.7533 30.885 55.7516 30.3409 55.7515 29.7967Z" fill="white"/>
<path fill-rule="evenodd" clip-rule="evenodd" d="M18.5511 29.7983C18.5511 29.2541 18.5559 28.7098 18.5485 28.1656C18.546 27.9778 18.6099 27.9033 18.7892 27.9049C19.4189 27.9109 20.0489 27.9147 20.6784 27.9034C20.9226 27.8991 20.9239 28.0468 20.9255 28.2333C20.9272 28.4253 20.9129 28.5657 20.6732 28.5576C20.2665 28.5439 19.859 28.5611 19.4522 28.5513C19.27 28.5468 19.2098 28.619 19.2139 28.8076C19.2298 29.5289 19.1278 29.4023 19.785 29.4146C20.0153 29.4189 20.2459 29.4225 20.4761 29.4142C20.7002 29.4062 20.6958 29.5614 20.6914 29.7234C20.6872 29.8815 20.7293 30.0663 20.482 30.0629C20.1364 30.0582 19.7907 30.0683 19.4453 30.0606C19.2787 30.0569 19.205 30.1183 19.2146 30.3004C19.2239 30.4786 19.2246 30.6582 19.2144 30.8363C19.2036 31.0238 19.2853 31.0724 19.4483 31.0691C19.8552 31.0611 20.2628 31.0795 20.6692 31.0619C20.9 31.0519 20.9367 31.1641 20.9327 31.3684C20.929 31.5579 20.9256 31.6927 20.6813 31.6866C20.0519 31.671 19.4218 31.6768 18.7922 31.6843C18.6145 31.6864 18.5457 31.6227 18.5484 31.4311C18.5562 30.887 18.5512 30.3426 18.5511 29.7983Z" fill="white"/>
<path fill-rule="evenodd" clip-rule="evenodd" d="M47.6446 29.7905C47.6444 29.2627 47.6518 28.7346 47.6409 28.207C47.6363 27.9905 47.6963 27.9004 47.9132 27.9043C48.5275 27.9154 49.1422 27.918 49.7562 27.9035C50.0121 27.8974 50.0172 28.0451 50.0191 28.2432C50.0211 28.4431 49.9907 28.5678 49.7575 28.5592C49.3509 28.5444 48.9435 28.5609 48.5366 28.553C48.3684 28.5498 48.3035 28.6138 48.3068 28.7938C48.3198 29.5342 48.2264 29.4031 48.8642 29.4157C49.0868 29.4201 49.3103 29.4282 49.5321 29.4135C49.7705 29.3977 49.7897 29.5414 49.7869 29.735C49.7843 29.9191 49.7879 30.0763 49.5415 30.0667C49.2041 30.0536 48.8658 30.0684 48.5279 30.0622C48.3733 30.0595 48.3005 30.1172 48.3074 30.2883C48.3149 30.4747 48.3154 30.6621 48.3072 30.8485C48.2995 31.0226 48.3756 31.0721 48.5292 31.0697C48.9514 31.0631 49.3742 31.0777 49.7962 31.0642C50.0359 31.0565 50.0222 31.2094 50.0249 31.3798C50.0277 31.5587 50.0204 31.6914 49.7882 31.6867C49.151 31.6738 48.5133 31.677 47.8761 31.6854C47.6883 31.6879 47.64 31.6038 47.6422 31.4228C47.6489 30.8788 47.6446 30.3346 47.6446 29.7905Z" fill="white"/>
<path fill-rule="evenodd" clip-rule="evenodd" d="M35.4528 29.2645C35.4528 29.6245 35.4484 29.9845 35.4541 30.3445C35.4584 30.6097 35.5135 30.8655 35.7686 31C36.0597 31.1536 36.3677 31.1537 36.6529 30.9857C36.9016 30.8391 36.9373 30.5729 36.9399 30.313C36.9468 29.6091 36.9533 28.9049 36.9372 28.2013C36.9311 27.9359 37.0509 27.8974 37.2661 27.9041C37.5932 27.9143 37.6236 27.9239 37.6198 28.2015C37.6091 28.9849 37.6544 29.7689 37.5904 30.5517C37.5436 31.1248 37.2326 31.497 36.6793 31.6314C36.3902 31.7016 36.0952 31.7003 35.808 31.6544C35.1408 31.5479 34.8022 31.1294 34.7763 30.3448C34.752 29.6096 34.7717 28.873 34.7677 28.137C34.7668 27.9752 34.8308 27.8981 34.9927 27.9071C35.0557 27.9106 35.1196 27.9127 35.1822 27.9063C35.3887 27.8853 35.4624 27.9763 35.4553 28.1847C35.443 28.5442 35.4519 28.9045 35.4519 29.2645H35.4528Z" fill="white"/>
<path fill-rule="evenodd" clip-rule="evenodd" d="M8.05338 29.3344C8.05338 29.7024 8.05986 30.0704 8.05204 30.4382C8.03624 31.1818 7.55133 31.6666 6.81219 31.6822C6.62886 31.6861 6.44242 31.6949 6.26212 31.6689C5.6106 31.5746 5.21472 31.1285 5.20166 30.4515C5.18692 29.6839 5.19983 28.9159 5.19498 28.148C5.19388 27.9855 5.25529 27.9088 5.41897 27.9168C5.48269 27.9199 5.54727 27.9219 5.61051 27.9156C5.81721 27.8949 5.89303 27.9832 5.89048 28.1921C5.88199 28.8879 5.88655 29.5838 5.88876 30.2797C5.88914 30.4069 5.87925 30.5362 5.92169 30.6602C6.04322 31.0147 6.29823 31.1311 6.70286 31.111C7.12745 31.0898 7.34785 30.8752 7.355 30.4915C7.36892 29.748 7.3611 29.004 7.36705 28.2602C7.36796 28.1472 7.31875 27.9917 7.46419 27.9433C7.63003 27.8883 7.81316 27.8904 7.98232 27.9475C8.07547 27.9789 8.053 28.0817 8.05343 28.1587C8.05554 28.5506 8.05439 28.9425 8.05439 29.3344H8.05338Z" fill="white"/>
<path fill-rule="evenodd" clip-rule="evenodd" d="M23.6916 31.6838C23.2982 31.7032 22.9391 31.6253 22.5766 31.5628C22.2551 31.5074 22.3876 31.3101 22.4068 31.1427C22.4278 30.9605 22.5323 30.934 22.7064 30.9698C23.0662 31.0437 23.4304 31.0956 23.8012 31.0868C23.9546 31.0831 24.1028 31.0584 24.2358 30.9866C24.5511 30.8163 24.5509 30.4515 24.2367 30.2803C24.083 30.1965 23.9123 30.1542 23.7424 30.1106C23.4508 30.0358 23.1649 29.9484 22.9091 29.7889C22.5005 29.5341 22.3424 29.1701 22.4173 28.7237C22.4874 28.3061 22.7902 28.0865 23.2017 27.9806C23.8065 27.825 24.3964 27.9297 24.9842 28.0717C25.0646 28.0911 25.1105 28.1251 25.1088 28.2188C25.1023 28.5678 24.97 28.6752 24.6155 28.6059C24.2857 28.5415 23.9526 28.5189 23.6167 28.5405C23.3877 28.5552 23.2034 28.6443 23.1525 28.8703C23.1009 29.0996 23.2655 29.2219 23.4563 29.3078C23.6994 29.4173 23.9664 29.4592 24.2226 29.532C24.6801 29.6623 25.0906 29.8559 25.1975 30.3545C25.3502 31.0667 24.8557 31.6334 24.0469 31.6828C23.9218 31.6903 23.7957 31.6838 23.6916 31.6838Z" fill="white"/>
<path fill-rule="evenodd" clip-rule="evenodd" d="M39.0593 29.8577C39.0634 29.5787 39.0639 29.3828 39.1 29.186C39.2526 28.3539 39.7034 27.9469 40.5474 27.9065C40.9502 27.8873 41.3449 27.9574 41.7358 28.0502C41.8862 28.0859 41.9615 28.1677 41.8905 28.3217C41.8291 28.4549 41.9029 28.7139 41.605 28.6413C41.2913 28.5648 40.9735 28.5215 40.6486 28.5333C40.2035 28.5494 39.927 28.7606 39.8188 29.195C39.7197 29.5928 39.7217 29.9949 39.821 30.392C39.9605 30.9501 40.3619 31.1706 41.034 31.0664C41.22 31.0376 41.4082 31.012 41.589 30.9616C41.8384 30.8922 41.834 31.0785 41.8773 31.2242C41.9198 31.3675 41.9612 31.4934 41.7456 31.5478C41.2211 31.68 40.6937 31.7369 40.1603 31.6335C39.6894 31.5422 39.378 31.249 39.2112 30.801C39.0883 30.471 39.0423 30.1279 39.0593 29.8577Z" fill="white"/>
</svg>
