<svg width="52" height="60" viewBox="0 0 52 60" fill="none" xmlns="http://www.w3.org/2000/svg">
<path fill-rule="evenodd" clip-rule="evenodd" d="M50.7553 45.5145L48.2596 43.0195C47.2992 42.0591 46.7598 40.7565 46.7599 39.3984V21.0396C46.7599 9.72878 37.5907 0.55957 26.2799 0.55957C14.9691 0.55957 5.79993 9.72878 5.79993 21.0396V39.3984C5.80025 40.7566 5.26089 42.0593 4.30054 43.0197L1.80454 45.5147C1.08454 46.2348 0.680013 47.2113 0.679932 48.2296V51.7596H16.4019C17.551 56.2773 21.6185 59.4398 26.2801 59.4398C30.9416 59.4398 35.0092 56.2773 36.1582 51.7596H51.8799V48.2296C51.8799 47.2112 51.4754 46.2346 50.7553 45.5145ZM26.2799 56.8795C23.0362 56.869 20.1498 54.8188 19.0717 51.7595H33.4878C32.4098 54.8188 29.5236 56.869 26.2799 56.8795ZM3.23997 49.1995H49.32V48.2295C49.3207 47.89 49.1858 47.5642 48.9452 47.3246L46.4494 44.8296C45.0045 43.3921 44.1945 41.4365 44.2 39.3983V21.0395C44.2 11.1426 36.1769 3.11951 26.28 3.11951C16.383 3.11951 8.35997 11.1426 8.35997 21.0395V39.3983C8.36548 41.4364 7.5556 43.3921 6.11075 44.8296L3.61501 47.3246C3.37432 47.5641 3.23931 47.8899 3.23997 48.2295V49.1995Z" fill="#30CEC2" fill-opacity="0.4"/>
</svg>
