<svg width="136" height="16" viewBox="0 0 136 16" fill="none" xmlns="http://www.w3.org/2000/svg">
<path fill-rule="evenodd" clip-rule="evenodd" d="M2.51005 0V15.8214H30.3618V15.1922H31.0575V15.8214H31.5996V15.1922H32.3423V15.8214H32.8844V15.1922H34.1692V14.4775H34.8743V15.1922H35.3757V14.4775H36.1403V15.202H36.6636V14.4877H37.2903V13.8319H37.9738V13.1995H38.6563V13.8319H39.1799V13.1995H39.9414V13.8319H40.4835V13.1995H41.0977V9.94572H40.496V8.57888H39.9539V9.94572H39.1921V8.57888H38.6691V9.94572H37.986V8.57888H37.3029V7.96313H33.4895V7.24842H34.1692V6.53403H34.8743V7.24842H35.3757V6.53403H36.1403V7.24842H36.6636V6.53403H37.2903V5.25305H37.9738V2.63144H37.2903V1.28754H33.4767V0.632463H29.6787V0H2.51005ZM17.7301 3.98157H22.0702V4.63697H22.7502V5.26615H22.0702V5.89829H17.7301V3.98157ZM16.4453 5.89829H17.0501V3.98812H16.4453V5.89829ZM15.217 3.98812H15.7591V5.89829H15.2198L15.217 3.98812ZM24.7401 5.26615H25.2634V4.63697H24.7401V5.26615ZM23.4334 5.26615H23.9755V4.63697H23.4334V5.26615ZM24.7338 9.95556V9.30015H25.2571V9.95556H25.8588V11.2267H25.2571V11.8824H24.7338V11.2267H23.9692V11.8824H23.4271V11.2267H22.744V11.8824H17.7301V9.30015H22.744V9.95556H23.4271V9.30015H23.9692V9.95556H24.7338ZM16.4453 11.8824H17.0501V9.31949H16.4453V11.8824ZM15.217 9.31949H15.7591V11.8824H15.2198L15.217 9.31949ZM1.22557 15.8345H1.82723V0H1.22557V15.8345ZM0 15.8345H0.54212V0H0V15.8345ZM39.9414 5.26615H40.4835V2.64455H39.9414V5.26615ZM38.6563 5.26615H39.1796V2.64455H38.6563V5.26615Z" fill="white"/>
<path fill-rule="evenodd" clip-rule="evenodd" d="M85.4042 11.8562H86.0058V0H85.4042V11.8562ZM84.2009 11.8562H84.7211V0H84.2009V11.8562ZM67.7019 0V10.647H67.0755V11.3024H66.3328V10.647H65.7907V11.3024H65.1076V10.647H64.5059V11.3024H63.2023V10.647H62.5975V11.3024H61.9144V10.647H61.3723V11.3024H60.6296V10.647H60.0026V0H44.2598L44.2658 11.8562H44.8925V13.2195H45.4973V13.8519H46.0986V13.2195H46.7821V13.8519H47.2991V13.2195H48.0606V13.8519H48.6623V14.563H49.289V15.1955H49.9157V14.563H50.5829V15.1955H51.1065V14.563H51.868V15.1955H56.2864V15.8509H71.4093V15.1955H75.8372V14.563H76.6018V15.1955H77.1251V14.563H77.8051V15.1955H78.4318V14.563H79.0304V13.8519H79.632V13.2195H80.3963V13.8519H80.9387V13.2195H81.6156V13.8519H82.2173V13.2195H82.8189V11.8562H83.4457V0H67.7019ZM42.9747 11.8562H43.4949V0H42.9747V11.8562ZM41.6868 11.8562H42.2916V0H41.6868V11.8562Z" fill="white"/>
<path fill-rule="evenodd" clip-rule="evenodd" d="M119.621 0V0.714388H118.856V0H118.317V0.714388H117.634V0H105.027V0.714388H104.344V0H103.717V0.714388H103.034V0H102.514L102.523 0.714388H98.0235V1.33702H97.4215V1.99209H96.7384V1.33702H96.1371V1.99209H95.4539V1.33702H94.9115V1.99209H94.2284V2.70648H93.627V3.336H92.9436V2.70648H92.3168V3.336H91.6369V2.70648H91.1135V3.336H90.4304V3.98812H89.8037V5.35136H89.1174V3.98812H88.5157V5.35136H87.8326V3.98812H87.2905V5.35136H86.6077V10.5946H87.2905V11.8562H87.8326V10.5946H88.5157V11.8562H89.1174V10.5946H89.7946V11.8562H90.421V12.5605H91.1041V13.8421H91.6278V12.5605H92.3074V13.8421H92.9345V12.5605H93.6173V13.8421H94.9024V14.5532H95.4442V13.8421H96.1274V14.5532H96.729V13.8421H97.4121V14.5532H98.0141V15.1857H102.511V15.8411H103.031V15.1857H103.714V15.8411H104.341V15.1857H105.024V15.8411H117.634V15.1857H118.314V15.8411H118.856V15.1857H119.621V15.8411H120.14V15.1857H121.447V14.5532H122.131V15.1857H122.651V14.5532H123.415V15.1857H123.958V14.5532H124.559V13.8421H125.323V15.1857H125.844V13.8421H126.527V15.1857H127.154V13.8421H127.837V15.8345H135.968V6.67855H112.613V10.5847H117.032V11.2988H108.737V10.6434H108.217V11.2988H107.452V10.6434H106.911V11.2988H106.231V10.6434H105.544V9.93229H104.942V5.87896H105.544V5.24649H106.231V4.61698H106.911V5.24649H107.452V4.61698H108.217V5.24649H108.737V4.61698H113.917V5.24649H114.438V4.61698H115.121V5.24649H115.747V4.61698H116.43V5.24649H117.032V5.87896H120.767V5.24649H124.562V4.61698H129.04V3.90292H129.723V4.61698H130.266V3.90292H131.03V4.61698H131.55V3.90292H132.857V3.336H132.174V2.71664H131.547V2.00225H131.027V2.71664H130.262V2.00225H129.72V2.71664H129.037V2.00225H128.354V1.34652H124.559V0.714388H120.14V0H119.621ZM103.717 9.87003H104.344V5.9576H103.717V9.87003ZM102.514 9.87003H103.034V5.9576H102.514V9.87003ZM134.825 3.336L134.838 3.90292H135.367V3.336H134.825ZM133.54 3.90292H134.06V3.336H133.54V3.90292ZM111.329 6.67855L111.335 10.5847H111.931V6.67855H111.329ZM110.103 10.5847H110.646V6.67822H110.103V10.5847Z" fill="white"/>
</svg>
