<svg width="137" height="28" viewBox="0 0 137 28" fill="none" xmlns="http://www.w3.org/2000/svg">
<g clip-path="url(#clip0_2004_1562)">
<mask id="mask0_2004_1562" style="mask-type:alpha" maskUnits="userSpaceOnUse" x="47" y="15" width="10" height="12">
<path d="M47.2737 15.0908H56.6595V26.7697H47.2737V15.0908Z" fill="white"/>
</mask>
<g mask="url(#mask0_2004_1562)">
<path fill-rule="evenodd" clip-rule="evenodd" d="M53.9481 22.3721C53.9656 21.1279 53.1606 20.1915 52.0343 20.1467C50.9462 20.1033 50.0737 21.0542 50.0546 22.3046C50.0337 23.6451 50.7418 24.4492 51.9611 24.4696C53.1809 24.4902 53.9292 23.7001 53.9481 22.3721ZM50.2674 26.7147C47.9368 25.4436 47.1228 23.9277 47.2962 21.8248C47.5151 19.1649 50.1215 16.7728 53.8316 18.6923C54.0548 17.8783 53.9717 17.0739 53.9228 16.2995C53.8566 15.2497 54.4075 15.0913 55.3361 15.0908C56.2434 15.0904 56.6752 15.3009 56.659 16.2642C56.6101 19.1767 56.6441 22.0904 56.642 25.0039C56.6408 26.4587 55.6299 27.2495 54.4236 26.4543C53.3954 25.7758 53.0162 26.4527 52.3693 26.7147H50.2674Z" fill="white"/>
</g>
<path fill-rule="evenodd" clip-rule="evenodd" d="M78.9736 22.4514C78.2759 22.4964 77.4406 22.4211 77.3663 23.3838C77.3134 24.0732 77.841 24.3035 78.4914 24.3016C79.3051 24.2991 80.0882 24.1386 80.1935 23.2363C80.2868 22.4378 79.5578 22.5043 78.9736 22.4514ZM76.5823 26.1061C76.2345 25.8807 75.8542 25.6892 75.5447 25.4244C74.0614 24.1549 74.5226 21.8938 76.4127 21.1267C77.4051 20.724 78.4424 20.7813 79.4817 20.8964C79.7005 20.9207 79.9666 21.0494 80.1033 20.8017C80.2592 20.5189 80.026 20.3063 79.8195 20.1594C78.991 19.5706 78.0065 19.6965 77.158 19.9358C76.1171 20.2297 75.9064 19.7762 75.657 19.0293C75.3472 18.1015 76.0141 17.9772 76.6549 17.8254C77.1749 17.7022 77.7092 17.5953 78.2424 17.565C81.4831 17.3792 82.8718 18.6156 82.8829 21.6663C82.886 22.5709 82.8855 23.4756 82.8829 24.3802C82.8785 25.8913 82.1504 26.4844 80.6885 25.8752C79.8866 25.5412 79.4559 25.7738 78.8991 26.1061H76.5823Z" fill="white"/>
<path fill-rule="evenodd" clip-rule="evenodd" d="M60.854 24.3099C61.6949 24.2616 62.4708 23.9304 62.4888 23.1056C62.5065 22.2854 61.6255 22.4917 61.0539 22.4654C60.3042 22.4307 59.574 22.6076 59.5278 23.4274C59.4845 24.1967 60.1918 24.2788 60.854 24.3099ZM58.9326 26.1045C57.6741 25.5702 56.7968 24.7671 56.858 23.3762C56.9171 22.0314 57.9427 21.0885 59.6076 20.8833C60.2532 20.8036 60.921 20.8873 61.5788 20.8826C61.8513 20.8809 62.2438 21.222 62.3713 20.7935C62.4888 20.3989 62.1501 20.1057 61.7666 19.9729C60.9369 19.686 60.047 19.6972 59.2482 19.9474C58.1887 20.2788 58.1151 19.65 57.8661 19.017C57.5674 18.2571 58.0305 18.0243 58.6497 17.8796C59.4385 17.695 60.231 17.5401 61.0574 17.5471C63.7337 17.5699 65.0445 18.7756 65.0681 21.2828C65.0787 22.369 65.0751 23.4555 65.0702 24.5419C65.0642 25.8815 64.3228 26.4877 63.0564 25.8681C62.1426 25.421 61.6736 25.8321 61.0315 26.1045H58.9326Z" fill="white"/>
<path fill-rule="evenodd" clip-rule="evenodd" d="M85.8972 26.1116C85.4131 25.9201 84.913 25.7581 84.4471 25.5309C83.3745 25.0072 83.3416 24.7348 84.0453 23.8024C84.3813 23.3572 84.6905 23.2965 85.1724 23.5684C85.7563 23.8982 86.3811 24.1568 87.0858 24.1132C87.4119 24.0932 87.8325 24.1708 87.9319 23.7588C88.0331 23.3408 87.6389 23.2205 87.3274 23.1072C86.7318 22.8907 86.1135 22.7285 85.5303 22.4864C84.2781 21.9664 83.7606 21.2078 83.8248 20.0778C83.8922 18.8881 84.6263 18.0386 85.924 17.7025C86.9727 17.4305 88.0189 17.5177 89.0002 17.9431C89.4723 18.1479 90.3473 18.1683 89.9594 19.063C89.6438 19.7914 89.2695 20.518 88.2388 19.849C88.148 19.7903 88.0331 19.7522 87.9242 19.7355C87.386 19.6542 86.6013 19.3257 86.4016 19.8987C86.1546 20.6089 87.0829 20.5546 87.5296 20.7796C87.9254 20.9792 88.3689 21.0884 88.7779 21.2656C89.7308 21.6789 90.4162 22.3181 90.4201 23.3947C90.4239 24.4541 89.945 25.273 88.9492 25.7783C88.7511 25.8787 88.5645 25.9998 88.3725 26.1116H85.8972Z" fill="white"/>
<path fill-rule="evenodd" clip-rule="evenodd" d="M4.11011 25.8885C13.4728 25.1147 17.3778 19.6273 17.5659 14.0468C17.7753 7.83692 14.1743 2.32422 4.33092 1.28021C4.72727 1.01158 5.13236 1.09751 5.50436 1.09751C9.7473 1.09773 13.9928 1.02673 18.2323 1.14254C22.2873 1.25315 26.072 2.16923 29.1659 4.88802C34.8923 9.91974 34.4646 21.5389 24.5845 25.0023C22.5637 25.7108 20.482 26.1039 18.3134 26.0991C14.2237 26.0903 10.1335 26.1095 6.0434 26.1061C5.48023 26.1056 4.90351 26.1667 4.11011 25.8885Z" fill="white"/>
<mask id="mask1_2004_1562" style="mask-type:alpha" maskUnits="userSpaceOnUse" x="0" y="7" width="11" height="14">
<path d="M0 7.03516H10.0541V20.0017H0V7.03516Z" fill="white"/>
</mask>
<g mask="url(#mask1_2004_1562)">
<path fill-rule="evenodd" clip-rule="evenodd" d="M0.00998383 13.4383C0.00953709 11.6623 0.0298637 9.88589 0.000378934 8.11036C-0.0127999 7.31406 0.316894 6.9976 1.12773 7.03867C2.63904 7.11553 4.16198 6.90098 5.65118 7.39685C8.51835 8.35127 10.1865 10.6721 10.046 13.6113C9.89275 16.8176 8.16923 18.9766 5.17809 19.7092C3.75611 20.0575 2.30756 20.0054 0.860352 19.9892C0.153387 19.9813 0.00551643 19.5627 0.00775013 18.9836C0.014898 17.1351 0.0104306 15.2867 0.00998383 13.4383Z" fill="white"/>
</g>
<path fill-rule="evenodd" clip-rule="evenodd" d="M87.6468 5.06883C86.9642 6.1179 86.2602 7.15417 85.6064 8.22074C85.1116 9.02758 84.7313 8.94788 84.2693 8.19201C83.6157 7.12296 82.9114 6.0849 82.2253 5.0282C81.7958 5.24798 81.9494 5.58158 81.9465 5.8384C81.9282 7.43097 81.9137 9.02443 81.9427 10.6168C81.9575 11.4366 81.5157 11.6328 80.8226 11.6075C80.1891 11.5846 79.4701 11.6652 79.4666 10.7243C79.4547 7.57577 79.4614 4.42722 79.4663 1.27891C79.4672 0.857753 79.6657 0.609686 80.1088 0.514051C81.4154 0.232534 82.1675 0.543909 82.8845 1.70477C83.3514 2.4611 83.8251 3.21316 84.2958 3.96746C84.9697 5.04728 84.976 5.05132 85.6291 4.0173C86.2223 3.07778 86.7858 2.11942 87.3886 1.18619C87.8069 0.538746 89.485 0.21682 90.0956 0.633707C90.4245 0.858202 90.4026 1.20662 90.4033 1.53461C90.4089 4.53498 90.3855 7.53581 90.4198 10.536C90.4305 11.4943 89.9065 11.6115 89.1472 11.617C88.3397 11.6225 87.8935 11.3673 87.9093 10.4713C87.9401 8.69824 87.9184 6.92428 87.9184 5.15055C87.8279 5.12338 87.7374 5.09599 87.6468 5.06883Z" fill="white"/>
<path fill-rule="evenodd" clip-rule="evenodd" d="M49.8228 6.25308H49.8297C49.8297 6.9889 49.824 7.72473 49.8324 8.46056C49.8362 8.77941 49.871 9.08187 50.2478 9.25343C51.9834 10.0437 54.4376 8.83965 54.7488 7.03743C55.1213 4.87891 53.8654 3.40363 51.5184 3.2425C49.9528 3.13523 49.8294 3.23888 49.8233 4.67627C49.821 5.2018 49.8228 5.72733 49.8228 6.25308ZM47.2769 6.34439C47.2759 4.94127 47.3021 3.53773 47.2657 2.13525C47.2457 1.36388 47.5858 1.04886 48.4016 1.07802C49.9793 1.13442 51.5664 0.956478 53.1336 1.28023C55.8195 1.83492 57.6382 4.00174 57.5358 6.54894C57.4361 9.02717 55.4638 11.0542 52.7931 11.4543C51.2936 11.6791 49.7865 11.6014 48.2806 11.6146C47.5737 11.621 47.2594 11.3304 47.2703 10.6589C47.2939 9.22108 47.2775 7.78263 47.2769 6.34439Z" fill="white"/>
<path fill-rule="evenodd" clip-rule="evenodd" d="M96.8577 6.86969C98.2859 6.87934 98.3294 6.83983 97.8048 5.64183C97.5596 5.082 97.4551 4.11947 96.9128 4.11296C96.2999 4.10578 96.2695 5.07235 96.0216 5.62275C95.4939 6.79337 95.5597 6.86093 96.8577 6.86969ZM101.932 11.4619C100.523 11.7454 99.9977 11.1636 99.7643 10.2807C99.5222 9.36491 98.9616 9.00688 98.0008 9.11215C97.5445 9.16221 97.0695 9.17321 96.6167 9.11081C95.1632 8.91035 94.1874 9.30228 93.802 10.8101C93.6236 11.5086 91.8962 11.8588 91.3065 11.4294C90.96 11.1771 91.1412 10.8954 91.2559 10.6338C92.6468 7.46027 94.0527 4.29254 95.435 1.11537C95.7168 0.46755 96.2429 0.404698 96.8493 0.418615C97.4639 0.432532 98.0998 0.351498 98.4126 1.06644C99.8153 4.27548 101.247 7.47307 102.628 10.6909C103.1 11.793 102.059 11.3966 101.932 11.4619Z" fill="white"/>
<path fill-rule="evenodd" clip-rule="evenodd" d="M131.108 3.56525C130.645 4.64273 130.324 5.37916 130.014 6.12028C129.805 6.61958 129.957 6.8918 130.553 6.8728C130.894 6.86185 131.236 6.86364 131.577 6.87191C132.203 6.88711 132.415 6.63344 132.17 6.0615C131.857 5.32999 131.546 4.59692 131.108 3.56525ZM131.386 0.441185C132.118 0.301051 132.5 0.783808 132.815 1.52381C134.035 4.3875 135.327 7.2228 136.542 10.0881C136.716 10.4982 137.453 11.0397 136.587 11.4708C135.855 11.8354 134.577 11.4695 134.235 10.9076C133.878 10.3223 133.912 9.34425 133.115 9.21507C131.765 8.99604 130.362 8.98956 129.003 9.23652C128.456 9.33598 128.409 9.95842 128.214 10.3866C127.724 11.4603 127.148 11.7442 125.957 11.5247C125.407 11.4235 125.227 11.1662 125.445 10.6734C126.872 7.45368 128.301 4.23507 129.73 1.01647C130.027 0.349103 130.652 0.476498 131.386 0.441185Z" fill="white"/>
<path fill-rule="evenodd" clip-rule="evenodd" d="M63.3308 3.56089C62.8939 4.59671 62.572 5.33706 62.2721 6.08526C62.18 6.31454 62.0243 6.65622 62.3633 6.75852C63.0228 6.95752 63.7883 7.04322 64.3708 6.7417C64.8824 6.47697 64.3555 5.95715 64.2259 5.58002C64.025 4.9947 63.7279 4.43989 63.3308 3.56089ZM68.2214 11.4974C67.088 11.6711 66.496 11.2973 66.2808 10.4461C66.0006 9.33695 65.2652 8.96745 64.1484 9.10902C63.8462 9.1476 63.5294 9.14693 63.2267 9.10946C61.7369 8.9255 60.6073 9.21895 60.2005 10.8549C60.0427 11.4887 58.4064 11.827 57.7839 11.475C57.3968 11.2562 57.5585 10.9684 57.6747 10.7035C59.0814 7.49708 60.5021 4.29653 61.9 1.08701C62.2131 0.368422 62.8282 0.427202 63.4456 0.418003C64.0449 0.409029 64.5869 0.446271 64.8699 1.09755C66.2658 4.3082 67.7119 7.49887 69.07 10.7241C69.5326 11.823 68.4665 11.3985 68.2214 11.4974Z" fill="white"/>
<path fill-rule="evenodd" clip-rule="evenodd" d="M102.758 5.8013C102.65 3.81534 103.701 2.15659 105.735 1.14086C107.908 0.0552486 110.116 0.220288 112.217 1.43776C112.737 1.73883 113.261 2.10736 112.653 2.70863C112.144 3.21144 111.865 4.2342 110.687 3.42526C109.355 2.5115 107.765 2.57347 106.721 3.38724C105.462 4.36825 105.049 5.98151 105.687 7.42708C106.492 9.25351 108.736 9.85697 110.632 8.75619C111.576 8.20855 112.413 8.44171 112.928 9.36844C113.222 9.89608 112.782 10.0985 112.468 10.3275C110.446 11.7996 108.216 11.9816 105.941 11.025C103.704 10.0846 102.719 8.3281 102.758 5.8013Z" fill="white"/>
<path fill-rule="evenodd" clip-rule="evenodd" d="M69.2409 18.482C69.9432 17.9563 70.5632 17.5635 71.3988 17.5479C73.3202 17.5118 74.5073 18.4208 74.6163 20.2587C74.7139 21.9077 74.6307 23.5658 74.6545 25.2197C74.6687 26.2088 73.9418 26.0803 73.2956 26.0908C72.6218 26.1017 71.9476 26.1489 71.9717 25.1807C72.0028 23.9318 71.9822 22.6814 71.9668 21.4318C71.9566 20.622 71.7004 19.9648 70.7028 19.8926C69.7106 19.8207 69.2669 20.4307 69.2005 21.2253C69.0968 22.4677 69.0755 23.7224 69.1256 24.968C69.1655 25.9613 68.6427 26.1017 67.7778 26.1113C66.8723 26.1215 66.4245 25.8847 66.4458 24.9359C66.4908 22.9151 66.4509 20.8927 66.4639 18.871C66.4671 18.3786 66.3303 17.7101 67.1026 17.6635C67.8697 17.6174 68.8505 17.2191 69.2409 18.482Z" fill="white"/>
<path fill-rule="evenodd" clip-rule="evenodd" d="M69.8875 5.96551C69.8863 4.62764 69.9215 3.28843 69.8745 1.95215C69.8416 1.00994 69.9676 0.409467 71.2141 0.417063C72.4162 0.42458 72.5046 1.02122 72.4914 1.90365C72.4616 3.87288 72.5333 5.8446 72.4628 7.81203C72.4234 8.90673 72.8645 9.26516 73.9509 9.19861C74.9891 9.13478 76.0351 9.20493 77.0773 9.18666C77.9275 9.17177 78.0997 9.6369 78.0897 10.3332C78.0799 11.0138 78.0708 11.6192 77.1017 11.6129C75.0557 11.5996 73.0092 11.5996 70.9632 11.6171C70.1738 11.6237 69.8633 11.2926 69.8793 10.5365C69.911 9.01342 69.8887 7.48924 69.8875 5.96551Z" fill="white"/>
<path fill-rule="evenodd" clip-rule="evenodd" d="M125.336 4.78853C125.336 5.90047 125.378 7.01397 125.326 8.12366C125.25 9.73896 124.345 10.9693 122.851 11.3841C121.137 11.8601 119.513 11.6331 118.125 10.4561C117.53 9.95206 117.923 9.49961 118.314 9.14138C118.675 8.81052 118.897 8.03707 119.664 8.5871C119.847 8.71899 120.032 8.85426 120.233 8.95946C121.528 9.63846 122.514 9.18871 122.694 7.76072C122.805 6.88319 122.75 5.98526 122.756 5.09652C122.765 3.87332 122.791 2.64946 122.753 1.42761C122.722 0.41572 123.392 0.430525 124.123 0.417739C124.879 0.40428 125.386 0.566012 125.354 1.45341C125.314 2.56399 125.344 3.6766 125.344 4.78853H125.336Z" fill="white"/>
<path fill-rule="evenodd" clip-rule="evenodd" d="M116.431 6.0936C116.432 7.5435 116.386 8.99521 116.448 10.4429C116.49 11.4371 115.953 11.627 115.053 11.6166C114.216 11.6071 113.698 11.4538 113.71 10.5081C113.75 7.49744 113.748 4.4854 113.713 1.4745C113.702 0.492238 114.305 0.427883 115.103 0.417496C115.946 0.406206 116.475 0.578948 116.444 1.52124C116.395 3.04408 116.431 4.5694 116.431 6.0936Z" fill="white"/>
</g>
<defs>
<clipPath id="clip0_2004_1562">
<rect width="137" height="28" fill="white"/>
</clipPath>
</defs>
</svg>
