<svg width="96" height="30" viewBox="0 0 96 30" fill="none" xmlns="http://www.w3.org/2000/svg">
<path fill-rule="evenodd" clip-rule="evenodd" d="M18.6693 23.5187V0H12.1055V8.14974C11.4667 7.46524 10.7347 6.95188 9.90957 6.60963C9.08443 6.26738 8.16615 6.09626 7.15469 6.09626C5.07854 6.09626 3.36708 6.84492 2.02024 8.34225C0.673407 9.83958 0 12 0 14.8235C0 17.3476 0.609527 19.492 1.8286 21.2567C3.04767 23.0214 4.81237 23.9038 7.12275 23.9038C8.27262 23.9038 9.316 23.6578 10.2529 23.1658C10.9556 22.7915 11.7328 22.0695 12.5846 21V23.5187H18.6693ZM11.3069 11.9598C11.8712 12.6176 12.1534 13.6149 12.1534 14.9518C12.1534 16.4278 11.8765 17.4919 11.3229 18.1443C10.7693 18.7967 10.0772 19.1229 9.24676 19.1229C8.46953 19.1229 7.81742 18.7994 7.2904 18.1523C6.76337 17.5053 6.49987 16.4866 6.49987 15.0962C6.49987 13.6096 6.75539 12.5507 7.26644 11.9197C7.77749 11.2887 8.41098 10.9732 9.16691 10.9732C10.0293 10.9732 10.7426 11.3021 11.3069 11.9598ZM40.5006 23.5191H34.4319V20.7598C33.5269 21.8935 32.614 22.7009 31.693 23.1822C30.7721 23.6635 29.6409 23.9042 28.2993 23.9042C26.5107 23.9042 25.1079 23.3667 24.0912 22.2919C23.0744 21.217 22.566 19.5619 22.566 17.3266V6.48168H29.0979V15.8507C29.0979 16.9202 29.2948 17.6795 29.6888 18.1287C30.0827 18.5779 30.6363 18.8025 31.3497 18.8025C32.1269 18.8025 32.763 18.5031 33.2581 17.9042C33.7532 17.3052 34.0007 16.2304 34.0007 14.6795V6.48168H40.5006V23.5191ZM50.5619 6.48089H44.4932V23.5183H51.0091V14.8231C51.0091 13.529 51.2486 12.5985 51.7278 12.0317C52.2069 11.4648 52.8191 11.1814 53.5643 11.1814C54.0222 11.1814 54.4214 11.3124 54.7621 11.5745C55.1028 11.8365 55.3424 12.1814 55.4808 12.6092C55.566 12.8766 55.6085 13.3846 55.6085 14.1333V23.5183H62.1244V14.7269C62.1244 13.4969 62.3587 12.6039 62.8271 12.0477C63.2956 11.4916 63.9131 11.2135 64.6797 11.2135C65.3291 11.2135 65.8721 11.5076 66.3086 12.0959C66.6068 12.4702 66.7558 13.0424 66.7558 13.8124V23.5183H73.2717V12.8178C73.2717 10.5076 72.7606 8.80977 71.7385 7.7242C70.7164 6.63863 69.2951 6.09586 67.4745 6.09586C66.2394 6.09586 65.2014 6.29639 64.3603 6.69746C63.5192 7.09854 62.5876 7.85521 61.5655 8.96752C61.0651 8.01564 60.4209 7.29907 59.6331 6.81778C58.8452 6.3365 57.7752 6.09586 56.423 6.09586C55.1667 6.09586 54.094 6.31511 53.205 6.75361C52.316 7.19212 51.435 7.93008 50.5619 8.96752V6.48089ZM77.1844 29.9996V6.48089H83.2691V8.9996C84.1102 7.94077 84.8821 7.2242 85.5848 6.84987C86.5323 6.34719 87.581 6.09586 88.7309 6.09586C90.9987 6.09586 92.7528 6.96751 93.9931 8.71083C95.2335 10.4542 95.8537 12.6092 95.8537 15.1761C95.8537 18.0103 95.1776 20.1734 93.8254 21.6654C92.4733 23.1574 90.7645 23.9034 88.699 23.9034C87.6982 23.9034 86.7852 23.7322 85.9601 23.39C85.1349 23.0477 84.3976 22.5397 83.7482 21.8659V29.9996H77.1844ZM84.5467 18.0485C83.9824 17.3961 83.7003 16.3961 83.7003 15.0485C83.7003 13.5833 83.9771 12.5244 84.5307 11.872C85.0844 11.2196 85.7764 10.8934 86.6068 10.8934C87.3734 10.8934 88.0229 11.217 88.5552 11.864C89.0876 12.5111 89.3537 13.5244 89.3537 14.9041C89.3537 16.4015 89.0982 17.4629 88.5872 18.0886C88.0761 18.7143 87.4426 19.0271 86.6867 19.0271C85.8243 19.0271 85.111 18.7009 84.5467 18.0485Z" fill="white"/>
<path fill-rule="evenodd" clip-rule="evenodd" d="M56.035 0V0.629537H56.5577V0H56.035ZM28.279 4.05131V4.45883H28.764V0.000375317H28.2442V1.60007C28.1532 1.46828 28.0351 1.36133 27.8899 1.27922C27.7447 1.1971 27.5792 1.15605 27.3933 1.15605C27.1397 1.15605 26.9103 1.22599 26.7051 1.36589C26.4999 1.50579 26.3459 1.70702 26.2433 1.96958C26.1407 2.23214 26.0894 2.5246 26.0894 2.84698C26.0894 3.17746 26.1461 3.46992 26.2593 3.72437C26.3726 3.97883 26.5323 4.17701 26.7385 4.31894C26.9446 4.46086 27.1707 4.53182 27.4165 4.53182C27.796 4.53182 28.0835 4.37165 28.279 4.05131ZM24.9917 3.98403V4.45846H25.4593V1.22866H24.9366V2.95913C24.9366 3.23487 24.908 3.44522 24.8509 3.59019C24.7938 3.73515 24.6965 3.84971 24.5591 3.93385C24.4216 4.01799 24.2745 4.06006 24.1177 4.06006C23.9608 4.06006 23.8292 4.019 23.7227 3.93689C23.6162 3.85477 23.5466 3.74174 23.5136 3.59779C23.4923 3.49844 23.4817 3.30583 23.4817 3.01995V1.22866H22.959V3.2298C22.959 3.46296 22.9696 3.63327 22.9909 3.74073C23.0219 3.9009 23.0756 4.03623 23.1521 4.14673C23.2286 4.25723 23.3457 4.34898 23.5035 4.42197C23.6613 4.49496 23.8311 4.53145 24.0131 4.53145C24.4255 4.53145 24.7517 4.34898 24.9917 3.98403ZM26.6267 2.84739C26.6267 3.261 26.71 3.57019 26.8764 3.77497C27.0429 3.97975 27.2394 4.08213 27.4659 4.08213C27.6944 4.08213 27.8885 3.98431 28.0482 3.78865C28.2079 3.593 28.2878 3.29445 28.2878 2.89301C28.2878 2.45101 28.2065 2.12662 28.0438 1.91981C27.8812 1.71301 27.6808 1.6096 27.4427 1.6096C27.2104 1.6096 27.0163 1.70895 26.8605 1.90765C26.7046 2.10634 26.6267 2.41959 26.6267 2.84739ZM29.58 1.22921V4.45901H30.1027V2.76808C30.1027 2.53694 30.1317 2.32406 30.1898 2.12942C30.2285 2.00168 30.2934 1.90183 30.3844 1.82985C30.4753 1.75788 30.5779 1.72189 30.6922 1.72189C30.8199 1.72189 30.9477 1.76143 31.0755 1.8405L31.2555 1.33261C31.0736 1.21502 30.8945 1.15622 30.7183 1.15622C30.5963 1.15622 30.4845 1.19271 30.3829 1.2657C30.2813 1.33869 30.1704 1.48974 30.0504 1.71885V1.22921H29.58ZM33.5874 4.45846V3.98403C33.3474 4.34898 33.0212 4.53145 32.6088 4.53145C32.4268 4.53145 32.2569 4.49496 32.0992 4.42197C31.9414 4.34898 31.8242 4.25723 31.7478 4.14673C31.6713 4.03623 31.6176 3.9009 31.5866 3.74073C31.5653 3.63327 31.5547 3.46296 31.5547 3.2298V1.22866H32.0774V3.01995C32.0774 3.30583 32.088 3.49844 32.1093 3.59779C32.1422 3.74174 32.2119 3.85477 32.3184 3.93689C32.4249 4.019 32.5565 4.06006 32.7133 4.06006C32.8702 4.06006 33.0173 4.01799 33.1547 3.93385C33.2922 3.84971 33.3895 3.73515 33.4466 3.59019C33.5037 3.44522 33.5323 3.23487 33.5323 2.95913V1.22866H34.055V4.45846H33.5874ZM35.2863 4.80571L34.7781 4.72664C34.7704 5.07537 34.8797 5.3364 35.1062 5.50976C35.3328 5.68311 35.6299 5.76978 35.9978 5.76978C36.3075 5.76978 36.5684 5.70896 36.7804 5.58731C36.9924 5.46566 37.1472 5.29991 37.245 5.09006C37.3428 4.88022 37.3917 4.52389 37.3917 4.02107V1.22921H36.9096V1.61849C36.6734 1.31031 36.3733 1.15622 36.0094 1.15622C35.7364 1.15622 35.4988 1.22718 35.2965 1.36911C35.0941 1.51103 34.9398 1.71226 34.8333 1.97279C34.7268 2.23333 34.6736 2.51768 34.6736 2.82586C34.6736 3.27394 34.7897 3.65815 35.022 3.97849C35.2544 4.29884 35.5825 4.45901 36.0065 4.45901C36.3472 4.45901 36.6318 4.3181 36.8602 4.03627C36.8622 4.39312 36.8496 4.62729 36.8225 4.7388C36.776 4.92128 36.687 5.0632 36.5553 5.16458C36.4237 5.26595 36.2369 5.31664 35.9949 5.31664C35.7703 5.31664 35.5931 5.26595 35.4634 5.16458C35.3666 5.08956 35.3076 4.96994 35.2863 4.80571ZM35.2108 2.78656C35.2108 3.21031 35.2911 3.5195 35.4518 3.71414C35.6125 3.90878 35.8138 4.0061 36.0558 4.0061C36.2959 4.0061 36.4972 3.90929 36.6599 3.71566C36.8225 3.52204 36.9038 3.21842 36.9038 2.80481C36.9038 2.40945 36.8201 2.11141 36.6526 1.91069C36.4851 1.70996 36.2833 1.6096 36.0471 1.6096C35.8148 1.6096 35.6173 1.70844 35.4547 1.90612C35.2921 2.10381 35.2108 2.39728 35.2108 2.78656ZM39.6349 4.42555C39.814 4.35459 40.0003 4.23294 40.1939 4.0606C40.2094 4.21267 40.2443 4.34547 40.2985 4.45901H40.8444C40.7786 4.33533 40.7345 4.20608 40.7123 4.07125C40.69 3.93642 40.6789 3.61456 40.6789 3.10566V2.37576C40.6789 2.13246 40.6702 1.96418 40.6527 1.87091C40.6218 1.72088 40.5676 1.59669 40.4901 1.49836C40.4127 1.40003 40.2917 1.31842 40.1271 1.25354C39.9626 1.18866 39.7487 1.15622 39.4854 1.15622C39.2201 1.15622 38.9869 1.19423 38.7855 1.27027C38.5842 1.3463 38.4303 1.45477 38.3238 1.59568C38.2173 1.73659 38.1408 1.9216 38.0944 2.15071L38.6055 2.2237C38.6616 1.99459 38.7482 1.83492 38.8654 1.7447C38.9825 1.65448 39.164 1.60936 39.4099 1.60936C39.6732 1.60936 39.8716 1.6712 40.0052 1.79488C40.1039 1.88612 40.1533 2.04325 40.1533 2.26627C40.1533 2.28655 40.1523 2.33419 40.1504 2.40921C39.951 2.4822 39.6402 2.54505 39.2182 2.59777C39.011 2.62413 38.8562 2.6515 38.7536 2.67988C38.6142 2.72043 38.4888 2.78024 38.3775 2.85931C38.2662 2.93839 38.1762 3.04331 38.1074 3.17408C38.0387 3.30486 38.0043 3.44931 38.0043 3.60746C38.0043 3.87712 38.0953 4.09862 38.2773 4.27197C38.4593 4.44532 38.7197 4.532 39.0585 4.532C39.2637 4.532 39.4558 4.49652 39.6349 4.42555ZM40.1504 2.83789C39.9606 2.91899 39.6761 2.98793 39.2966 3.0447C39.0817 3.07714 38.9298 3.11363 38.8407 3.15418C38.7516 3.19473 38.6829 3.25403 38.6345 3.33209C38.5861 3.41015 38.5619 3.49683 38.5619 3.59212C38.5619 3.7381 38.6147 3.85975 38.7202 3.95707C38.8257 4.05439 38.9801 4.10305 39.1834 4.10305C39.3847 4.10305 39.5638 4.05692 39.7206 3.96467C39.8774 3.87242 39.9926 3.74621 40.0662 3.58604C40.1223 3.46236 40.1504 3.27989 40.1504 3.03861V2.83789ZM43.1414 1.22921V4.45901H43.6642V2.78328C43.6642 2.4893 43.6922 2.26425 43.7484 2.10813C43.8045 1.95201 43.895 1.8334 44.0199 1.7523C44.1448 1.6712 44.2808 1.63065 44.4279 1.63065C44.6215 1.63065 44.7609 1.69148 44.8461 1.81313C44.9312 1.93478 44.9738 2.11725 44.9738 2.36055V4.45901H45.4965V2.58256C45.4965 2.25005 45.5682 2.00827 45.7114 1.85723C45.8547 1.70618 46.0347 1.63065 46.2516 1.63065C46.3716 1.63065 46.4761 1.66005 46.5652 1.71885C46.6543 1.77765 46.7157 1.8552 46.7496 1.9515C46.7835 2.04781 46.8004 2.20545 46.8004 2.42442V4.45901H47.3202V2.24194C47.3202 1.87294 47.238 1.59974 47.0734 1.42233C46.9088 1.24492 46.6736 1.15622 46.3677 1.15622C45.9767 1.15622 45.6592 1.34477 45.4152 1.72189C45.3552 1.54347 45.2521 1.40459 45.106 1.30524C44.9598 1.20589 44.7725 1.15622 44.5441 1.15622C44.3388 1.15622 44.1559 1.20437 43.9952 1.30068C43.8345 1.39699 43.7058 1.52421 43.609 1.68235V1.22921H43.1414ZM48.084 4.45883V0.000375317H48.6067V4.45883H48.084ZM50.8703 4.42555C51.0494 4.35459 51.2357 4.23294 51.4293 4.0606C51.4448 4.21267 51.4797 4.34547 51.5339 4.45901H52.0798C52.014 4.33533 51.9699 4.20608 51.9477 4.07125C51.9254 3.93642 51.9143 3.61456 51.9143 3.10566V2.37576C51.9143 2.13246 51.9056 1.96418 51.8881 1.87091C51.8572 1.72088 51.803 1.59669 51.7255 1.49836C51.6481 1.40003 51.5271 1.31842 51.3625 1.25354C51.198 1.18866 50.9841 1.15622 50.7208 1.15622C50.4555 1.15622 50.2222 1.19423 50.0209 1.27027C49.8196 1.3463 49.6657 1.45477 49.5592 1.59568C49.4527 1.73659 49.3762 1.9216 49.3298 2.15071L49.8409 2.2237C49.897 1.99459 49.9836 1.83492 50.1008 1.7447C50.2179 1.65448 50.3994 1.60936 50.6453 1.60936C50.9085 1.60936 51.107 1.6712 51.2406 1.79488C51.3393 1.88612 51.3887 2.04325 51.3887 2.26627C51.3887 2.28655 51.3877 2.33419 51.3858 2.40921C51.1864 2.4822 50.8756 2.54505 50.4536 2.59777C50.2464 2.62413 50.0916 2.6515 49.989 2.67988C49.8496 2.72043 49.7242 2.78024 49.6129 2.85931C49.5016 2.93839 49.4116 3.04331 49.3428 3.17408C49.2741 3.30486 49.2397 3.44931 49.2397 3.60746C49.2397 3.87712 49.3307 4.09862 49.5127 4.27197C49.6947 4.44532 49.9551 4.532 50.2939 4.532C50.4991 4.532 50.6912 4.49652 50.8703 4.42555ZM51.3857 2.83789C51.196 2.91899 50.9114 2.98793 50.532 3.0447C50.3171 3.07714 50.1651 3.11363 50.076 3.15418C49.987 3.19473 49.9183 3.25403 49.8699 3.33209C49.8215 3.41015 49.7973 3.49683 49.7973 3.59212C49.7973 3.7381 49.85 3.85975 49.9555 3.95707C50.061 4.05439 50.2154 4.10305 50.4187 4.10305C50.6201 4.10305 50.7991 4.05692 50.9559 3.96467C51.1128 3.87242 51.2279 3.74621 51.3015 3.58604C51.3577 3.46236 51.3857 3.27989 51.3857 3.03861V2.83789ZM54.7253 4.05131V4.45883H55.2102V0.000375317H54.6904V1.60007C54.5994 1.46828 54.4813 1.36133 54.3361 1.27922C54.1909 1.1971 54.0254 1.15605 53.8396 1.15605C53.5859 1.15605 53.3565 1.22599 53.1513 1.36589C52.9461 1.50579 52.7922 1.70702 52.6896 1.96958C52.587 2.23214 52.5357 2.5246 52.5357 2.84698C52.5357 3.17746 52.5923 3.46992 52.7056 3.72437C52.8188 3.97883 52.9785 4.17701 53.1847 4.31894C53.3909 4.46086 53.6169 4.53182 53.8628 4.53182C54.2422 4.53182 54.5297 4.37165 54.7253 4.05131ZM53.0729 2.84739C53.0729 3.261 53.1562 3.57019 53.3226 3.77497C53.4891 3.97975 53.6856 4.08213 53.9121 4.08213C54.1406 4.08213 54.3347 3.98431 54.4944 3.78865C54.6541 3.593 54.734 3.29445 54.734 2.89301C54.734 2.45101 54.6527 2.12662 54.49 1.91981C54.3274 1.71301 54.127 1.6096 53.8889 1.6096C53.6566 1.6096 53.4625 1.70895 53.3067 1.90765C53.1508 2.10634 53.0729 2.41959 53.0729 2.84739ZM56.035 4.45846V1.22866H56.5577V4.45846H56.035ZM57.3533 0.000375317V4.45883H57.8761V2.69187C57.8761 2.43844 57.9051 2.23974 57.9632 2.09579C58.0213 1.95184 58.1185 1.83779 58.255 1.75365C58.3915 1.66951 58.5372 1.62744 58.6921 1.62744C58.8992 1.62744 59.0594 1.68978 59.1727 1.81448C59.2859 1.93917 59.3426 2.13837 59.3426 2.41208V4.45883H59.8653V2.41208C59.8653 2.09579 59.829 1.85452 59.7564 1.68826C59.6838 1.52201 59.5633 1.39174 59.3948 1.29746C59.2264 1.20319 59.028 1.15605 58.7995 1.15605C58.4278 1.15605 58.12 1.30405 57.8761 1.60007V0.000375317H57.3533ZM62.3133 5.69679V1.22921H62.7896V1.6489C62.9018 1.48467 63.0286 1.3615 63.17 1.27939C63.3113 1.19728 63.4826 1.15622 63.684 1.15622C63.9473 1.15622 64.1796 1.22718 64.3809 1.36911C64.5823 1.51103 64.7342 1.71124 64.8368 1.96975C64.9394 2.22826 64.9907 2.5116 64.9907 2.81978C64.9907 3.15026 64.9341 3.44779 64.8209 3.71238C64.7076 3.97697 64.5431 4.17972 64.3272 4.32063C64.1113 4.46154 63.8843 4.532 63.6462 4.532C63.472 4.532 63.3157 4.49347 63.1772 4.41643C63.0388 4.33938 62.9251 4.24207 62.836 4.12447V5.69679H62.3133ZM63.0277 3.784C62.867 3.58531 62.7866 3.27814 62.7866 2.86251C62.7866 2.44687 62.8723 2.13007 63.0436 1.91212C63.215 1.69416 63.4119 1.58518 63.6346 1.58518C63.8592 1.58518 64.0523 1.68757 64.2139 1.89235C64.3756 2.09713 64.4564 2.4053 64.4564 2.81689C64.4564 3.24875 64.3736 3.56757 64.2081 3.77336C64.0426 3.97915 63.8437 4.08204 63.6113 4.08204C63.3829 4.08204 63.1883 3.9827 63.0277 3.784ZM65.6151 4.45901V1.22921H66.0856V1.71885C66.2056 1.48974 66.3164 1.33869 66.4181 1.2657C66.5197 1.19271 66.6315 1.15622 66.7535 1.15622C66.9297 1.15622 67.1087 1.21502 67.2907 1.33261L67.1107 1.8405C66.9829 1.76143 66.8551 1.72189 66.7274 1.72189C66.6131 1.72189 66.5105 1.75788 66.4195 1.82985C66.3285 1.90183 66.2637 2.00168 66.225 2.12942C66.1669 2.32406 66.1379 2.53694 66.1379 2.76808V4.45901H65.6151ZM67.8831 1.51509C67.5656 1.80299 67.4069 2.24599 67.4069 2.84411C67.4069 3.38951 67.5399 3.80717 67.8061 4.0971C68.0723 4.38703 68.4213 4.532 68.853 4.532C69.1221 4.532 69.3704 4.4661 69.5979 4.33432C69.8254 4.20253 69.9986 4.01752 70.1177 3.77929C70.2368 3.54106 70.2963 3.21413 70.2963 2.79849C70.2963 2.28553 70.1617 1.88358 69.8926 1.59264C69.6235 1.30169 69.277 1.15622 68.853 1.15622C68.4716 1.15622 68.1483 1.27584 67.8831 1.51509ZM67.9441 2.84435C67.9441 3.25796 68.0302 3.56766 68.2025 3.77345C68.3748 3.97924 68.5917 4.08213 68.853 4.08213C69.1124 4.08213 69.3283 3.97873 69.5006 3.77193C69.6729 3.56512 69.759 3.24985 69.759 2.8261C69.759 2.42668 69.6724 2.12408 69.4991 1.91829C69.3259 1.7125 69.1105 1.6096 68.853 1.6096C68.5917 1.6096 68.3748 1.71199 68.2025 1.91677C68.0302 2.12155 67.9441 2.43074 67.9441 2.84435ZM71.3213 4.80571L70.8131 4.72664C70.8054 5.07537 70.9148 5.3364 71.1413 5.50976C71.3678 5.68311 71.665 5.76978 72.0328 5.76978C72.3425 5.76978 72.6034 5.70896 72.8154 5.58731C73.0274 5.46566 73.1823 5.29991 73.28 5.09006C73.3778 4.88022 73.4267 4.52389 73.4267 4.02107V1.22921H72.9446V1.61849C72.7084 1.31031 72.4084 1.15622 72.0444 1.15622C71.7714 1.15622 71.5338 1.22718 71.3315 1.36911C71.1292 1.51103 70.9748 1.71226 70.8683 1.97279C70.7618 2.23333 70.7086 2.51768 70.7086 2.82586C70.7086 3.27394 70.8247 3.65815 71.0571 3.97849C71.2894 4.29884 71.6175 4.45901 72.0415 4.45901C72.3822 4.45901 72.6668 4.3181 72.8953 4.03627C72.8972 4.39312 72.8846 4.62729 72.8575 4.7388C72.8111 4.92128 72.722 5.0632 72.5904 5.16458C72.4587 5.26595 72.2719 5.31664 72.0299 5.31664C71.8053 5.31664 71.6282 5.26595 71.4985 5.16458C71.4017 5.08956 71.3426 4.96994 71.3213 4.80571ZM71.2459 2.78656C71.2459 3.21031 71.3263 3.5195 71.4869 3.71414C71.6476 3.90878 71.849 4.0061 72.091 4.0061C72.331 4.0061 72.5324 3.90929 72.695 3.71566C72.8576 3.52204 72.9389 3.21842 72.9389 2.80481C72.9389 2.40945 72.8552 2.11141 72.6877 1.91069C72.5203 1.70996 72.3184 1.6096 72.0823 1.6096C71.8499 1.6096 71.6525 1.70844 71.4898 1.90612C71.3272 2.10381 71.2459 2.39728 71.2459 2.78656ZM74.2108 1.22921V4.45901H74.7335V2.76808C74.7335 2.53694 74.7625 2.32406 74.8206 2.12942C74.8593 2.00168 74.9242 1.90183 75.0152 1.82985C75.1062 1.75788 75.2088 1.72189 75.323 1.72189C75.4508 1.72189 75.5785 1.76143 75.7063 1.8405L75.8863 1.33261C75.7044 1.21502 75.5253 1.15622 75.3491 1.15622C75.2271 1.15622 75.1153 1.19271 75.0137 1.2657C74.9121 1.33869 74.8012 1.48974 74.6812 1.71885V1.22921H74.2108ZM78.2096 4.0606C78.016 4.23294 77.8296 4.35459 77.6505 4.42555C77.4715 4.49652 77.2793 4.532 77.0741 4.532C76.7353 4.532 76.4749 4.44532 76.293 4.27197C76.111 4.09862 76.02 3.87712 76.02 3.60746C76.02 3.44931 76.0543 3.30486 76.1231 3.17408C76.1918 3.04331 76.2818 2.93839 76.3931 2.85931C76.5045 2.78024 76.6298 2.72043 76.7692 2.67988C76.8718 2.6515 77.0267 2.62413 77.2338 2.59777C77.6559 2.54505 77.9666 2.4822 78.166 2.40921C78.1679 2.33419 78.1689 2.28655 78.1689 2.26627C78.1689 2.04325 78.1195 1.88612 78.0208 1.79488C77.8872 1.6712 77.6888 1.60936 77.4255 1.60936C77.1796 1.60936 76.9981 1.65448 76.881 1.7447C76.7639 1.83492 76.6772 1.99459 76.6211 2.2237L76.11 2.15071C76.1565 1.9216 76.2329 1.73659 76.3394 1.59568C76.4459 1.45477 76.5998 1.3463 76.8011 1.27027C77.0025 1.19423 77.2358 1.15622 77.501 1.15622C77.7643 1.15622 77.9782 1.18866 78.1428 1.25354C78.3073 1.31842 78.4283 1.40003 78.5058 1.49836C78.5832 1.59669 78.6374 1.72088 78.6684 1.87091C78.6858 1.96418 78.6945 2.13246 78.6945 2.37576V3.10566C78.6945 3.61456 78.7057 3.93642 78.7279 4.07125C78.7502 4.20608 78.7942 4.33533 78.86 4.45901H78.3141C78.2599 4.34547 78.225 4.21267 78.2096 4.0606ZM77.3123 3.0447C77.6917 2.98793 77.9763 2.91899 78.166 2.83789V3.03861C78.166 3.27989 78.1379 3.46236 78.0818 3.58604C78.0082 3.74621 77.893 3.87242 77.7362 3.96467C77.5794 4.05692 77.4003 4.10305 77.199 4.10305C76.9957 4.10305 76.8413 4.05439 76.7358 3.95707C76.6303 3.85975 76.5776 3.7381 76.5776 3.59212C76.5776 3.49683 76.6018 3.41015 76.6502 3.33209C76.6986 3.25403 76.7673 3.19473 76.8563 3.15418C76.9454 3.11363 77.0974 3.07714 77.3123 3.0447ZM79.5047 4.45901V1.22921H79.9722V1.68235C80.069 1.52421 80.1978 1.39699 80.3585 1.30068C80.5192 1.20437 80.7021 1.15622 80.9073 1.15622C81.1358 1.15622 81.3231 1.20589 81.4692 1.30524C81.6154 1.40459 81.7185 1.54347 81.7785 1.72189C82.0224 1.34477 82.3399 1.15622 82.731 1.15622C83.0369 1.15622 83.2721 1.24492 83.4367 1.42233C83.6012 1.59974 83.6835 1.87294 83.6835 2.24194V4.45901H83.1637V2.42442C83.1637 2.20545 83.1467 2.04781 83.1129 1.9515C83.079 1.8552 83.0175 1.77765 82.9285 1.71885C82.8394 1.66005 82.7349 1.63065 82.6148 1.63065C82.398 1.63065 82.218 1.70618 82.0747 1.85723C81.9314 2.00827 81.8598 2.25005 81.8598 2.58256V4.45901H81.3371V2.36055C81.3371 2.11725 81.2945 1.93478 81.2093 1.81313C81.1241 1.69148 80.9848 1.63065 80.7912 1.63065C80.644 1.63065 80.508 1.6712 80.3832 1.7523C80.2583 1.8334 80.1678 1.95201 80.1116 2.10813C80.0555 2.26425 80.0274 2.4893 80.0274 2.78328V4.45901H79.5047ZM87.1102 3.48885L86.57 3.4189C86.4907 3.65004 86.3832 3.81832 86.2477 3.92375C86.1122 4.02918 85.9486 4.08189 85.7569 4.08189C85.4994 4.08189 85.2846 3.98762 85.1123 3.79906C84.94 3.6105 84.8441 3.33882 84.8248 2.98401H87.1247C87.1266 2.91913 87.1276 2.87047 87.1276 2.83803C87.1276 2.30479 86.9969 1.89119 86.7356 1.5972C86.4742 1.30321 86.1374 1.15622 85.725 1.15622C85.2991 1.15622 84.9525 1.30625 84.6854 1.60632C84.4182 1.90639 84.2846 2.32811 84.2846 2.87148C84.2846 3.3966 84.4168 3.80463 84.681 4.09558C84.9453 4.38653 85.3029 4.532 85.754 4.532C86.1122 4.532 86.4064 4.44076 86.6368 4.25829C86.8672 4.07581 87.025 3.81933 87.1102 3.48885ZM84.8538 2.53393H86.5758C86.5526 2.26224 86.4868 2.05848 86.3784 1.92264C86.2119 1.71178 85.996 1.60635 85.7308 1.60635C85.4907 1.60635 85.2889 1.69049 85.1253 1.85877C84.9617 2.02705 84.8712 2.2521 84.8538 2.53393ZM87.7607 1.22921V4.45901H88.2834V2.76808C88.2834 2.53694 88.3124 2.32406 88.3705 2.12942C88.4092 2.00168 88.4741 1.90183 88.565 1.82985C88.656 1.75788 88.7586 1.72189 88.8729 1.72189C89.0006 1.72189 89.1284 1.76143 89.2562 1.8405L89.4362 1.33261C89.2542 1.21502 89.0752 1.15622 88.899 1.15622C88.777 1.15622 88.6652 1.19271 88.5636 1.2657C88.462 1.33869 88.3511 1.48974 88.2311 1.71885V1.22921H87.7607ZM91.7594 4.0606C91.5658 4.23294 91.3795 4.35459 91.2004 4.42555C91.0213 4.49652 90.8292 4.532 90.6239 4.532C90.2851 4.532 90.0248 4.44532 89.8428 4.27197C89.6608 4.09862 89.5698 3.87712 89.5698 3.60746C89.5698 3.44931 89.6042 3.30486 89.6729 3.17408C89.7416 3.04331 89.8316 2.93839 89.943 2.85931C90.0543 2.78024 90.1796 2.72043 90.319 2.67988C90.4216 2.6515 90.5765 2.62413 90.7837 2.59777C91.2057 2.54505 91.5164 2.4822 91.7158 2.40921C91.7178 2.33419 91.7187 2.28655 91.7187 2.26627C91.7187 2.04325 91.6694 1.88612 91.5706 1.79488C91.437 1.6712 91.2386 1.60936 90.9753 1.60936C90.7295 1.60936 90.548 1.65448 90.4308 1.7447C90.3137 1.83492 90.2271 1.99459 90.1709 2.2237L89.6598 2.15071C89.7063 1.9216 89.7828 1.73659 89.8892 1.59568C89.9957 1.45477 90.1496 1.3463 90.351 1.27027C90.5523 1.19423 90.7856 1.15622 91.0508 1.15622C91.3141 1.15622 91.528 1.18866 91.6926 1.25354C91.8572 1.31842 91.9781 1.40003 92.0556 1.49836C92.133 1.59669 92.1872 1.72088 92.2182 1.87091C92.2356 1.96418 92.2443 2.13246 92.2443 2.37576V3.10566C92.2443 3.61456 92.2555 3.93642 92.2777 4.07125C92.3 4.20608 92.344 4.33533 92.4099 4.45901H91.8639C91.8097 4.34547 91.7749 4.21267 91.7594 4.0606ZM90.862 3.0447C91.2415 2.98793 91.5261 2.91899 91.7158 2.83789V3.03861C91.7158 3.27989 91.6877 3.46236 91.6316 3.58604C91.558 3.74621 91.4428 3.87242 91.286 3.96467C91.1292 4.05692 90.9501 4.10305 90.7488 4.10305C90.5455 4.10305 90.3911 4.05439 90.2856 3.95707C90.1801 3.85975 90.1273 3.7381 90.1273 3.59212C90.1273 3.49683 90.1515 3.41015 90.1999 3.33209C90.2483 3.25403 90.3171 3.19473 90.4061 3.15418C90.4952 3.11363 90.6471 3.07714 90.862 3.0447Z" fill="white"/>
</svg>
