<svg width="87" height="31" viewBox="0 0 87 31" fill="none" xmlns="http://www.w3.org/2000/svg">
<g clip-path="url(#clip0_2004_2186)">
<path fill-rule="evenodd" clip-rule="evenodd" d="M47.4137 29.4231H45.2142C45.2142 29.2265 45.2143 29.0393 45.2142 28.8521C45.2132 26.2822 45.2165 23.7124 45.2057 21.1426C45.2044 20.805 45.1621 20.4601 45.0862 20.1317C44.8659 19.1792 44.099 18.6837 43.1509 18.7463C41.8825 18.8302 40.9171 19.5248 40.0005 20.3255C39.8659 20.4432 39.806 20.7208 39.8049 20.9249C39.7922 23.5436 39.7965 26.1622 39.7965 28.7809V29.4409C39.1287 29.4409 38.4925 29.4568 37.8591 29.4203C37.7816 29.4159 37.6607 29.1311 37.659 28.9749C37.6432 27.5764 37.6574 26.1775 37.6472 24.7788C37.6376 23.4954 37.6172 22.212 37.5863 20.929C37.5458 19.2449 36.5569 18.4561 34.9637 18.8327C33.9407 19.0743 33.0964 19.6597 32.3466 20.3899C32.2164 20.5167 32.1795 20.7982 32.1787 21.0086C32.1677 23.611 32.1715 26.2134 32.1715 28.8157V29.4453C31.5072 29.4453 30.8998 29.4559 30.2937 29.4335C30.2031 29.4302 30.0889 29.2858 30.0389 29.1797C29.995 29.087 30.0247 28.9564 30.0247 28.8426C30.0244 25.1342 30.0311 21.4257 30.016 17.7174C30.0142 17.2544 30.0923 17.0118 30.6035 17.083C30.9733 17.1346 31.45 16.9734 31.6996 17.1621C31.9329 17.3386 31.9288 17.8516 32.0318 18.2156C32.0534 18.2921 32.0864 18.3653 32.1392 18.5076C32.336 18.3644 32.5086 18.237 32.6831 18.1125C33.8556 17.2757 35.1103 16.7128 36.576 16.773C37.7631 16.8217 38.6275 17.3813 39.211 18.4378C39.2647 18.5349 39.3155 18.6337 39.3934 18.7805C39.5592 18.6457 39.7027 18.5284 39.8467 18.4118C41.1668 17.3428 42.5926 16.6293 44.3399 16.7917C45.8758 16.9344 47.0799 18.0278 47.3117 19.6203C47.3769 20.0675 47.4079 20.524 47.4094 20.9764C47.4183 23.5787 47.4137 26.1811 47.4137 28.7835V29.4231Z" fill="white"/>
<path fill-rule="evenodd" clip-rule="evenodd" d="M0 8.58719C0.406826 5.63056 1.78392 3.34629 4.24736 1.86245C7.38936 -0.030079 10.6179 0.0059523 13.7284 1.95537C16.1189 3.45351 17.4348 5.71653 17.835 8.55224C17.4973 8.66131 17.3573 8.6288 17.2969 8.27338C16.6682 4.56529 13.9695 1.80918 10.3022 1.11793C9.08872 0.88921 7.88525 0.991527 6.69744 1.3114C6.60203 1.33715 6.51738 1.40442 6.42783 1.50253C9.32827 0.937284 11.9268 1.50125 14.1281 3.5567C15.5282 4.86392 16.3658 6.54554 16.6513 8.58112C16.5044 8.5915 16.3613 8.60158 16.2227 8.61137C15.1431 2.59717 9.34027 0.815581 6.11815 2.3006C9.04039 1.70892 11.6093 2.33232 13.6608 4.60044C14.666 5.71183 15.2853 7.03314 15.4704 8.55439C15.0589 8.73856 14.9863 8.47802 14.9181 8.18967C14.2633 5.4181 12.5814 3.63405 9.90334 2.82511C8.67661 2.45452 7.44489 2.5117 6.22077 2.85948C6.1292 2.88552 6.04205 2.92988 5.95634 2.97296C5.93645 2.98285 5.93097 3.0224 5.88965 3.11062C8.51154 2.53412 10.7973 3.07576 12.6525 5.0805C13.5763 6.0787 14.2782 7.61415 14.2495 8.55341C13.9164 8.71261 13.8292 8.53089 13.7502 8.22805C13.1251 5.8306 11.6411 4.26764 9.29694 3.57952C8.23001 3.2663 7.15289 3.28588 6.0874 3.61995C5.95634 3.66108 5.83047 3.71855 5.70565 3.82283C7.38138 3.49424 8.9788 3.62084 10.4471 4.55912C11.9007 5.4882 12.7802 6.81911 13.1411 8.53549C12.7871 8.69166 12.6643 8.58601 12.5679 8.25645C11.9399 6.10778 10.5461 4.75876 8.39355 4.26783C7.43404 4.0489 6.47933 4.12625 5.56181 4.55883C6.9808 4.31229 8.34377 4.4145 9.59346 5.19143C10.8386 5.96552 11.6214 7.08503 11.9541 8.54195C11.6272 8.70977 11.4812 8.59297 11.3762 8.28376C10.6903 6.26287 9.2882 5.15011 7.20122 4.95595C6.60501 4.90054 6.01188 4.98405 5.45813 5.30011C7.05921 5.0476 8.4856 5.36297 9.65284 6.54858C10.2037 7.10824 10.5937 7.76571 10.7534 8.56017C10.3802 8.71653 10.2628 8.52717 10.1446 8.22825C9.40609 6.35951 7.4275 5.33144 5.63359 5.86839C5.52107 5.90207 5.41595 5.96092 5.31199 6.05941C6.51949 5.89238 7.6141 6.10671 8.5395 6.93102C9.0255 7.36408 9.38447 7.89055 9.55704 8.54205C9.19989 8.732 9.06643 8.54166 8.92432 8.26212C8.28372 7.00299 7.08121 6.37351 5.71113 6.56464C5.56229 6.58539 5.4196 6.65295 5.25856 6.76065C6.66285 6.72394 7.74334 7.2083 8.36174 8.5492C7.99297 8.71614 7.82136 8.54362 7.64975 8.29385C7.10927 7.50782 6.33943 7.25021 5.43027 7.34802C5.36935 7.35458 5.30901 7.38386 5.25309 7.41216C5.22907 7.4244 5.21696 7.46111 5.17968 7.51536C5.54432 7.60945 5.9228 7.64685 6.24248 7.80635C6.56744 7.96849 6.83437 8.25077 7.21256 8.54793C6.35807 8.80543 5.85996 7.72753 5.04737 8.2726C5.25376 8.38148 5.41394 8.46598 5.64358 8.58719H0Z" fill="white"/>
<path fill-rule="evenodd" clip-rule="evenodd" d="M5.13446 12.6947C5.55088 13.0346 6.01747 13.0261 6.46954 12.9467C7.49023 12.7677 8.26782 12.2014 8.7362 11.2288C8.86954 10.952 9.00278 10.796 9.35471 10.9688C9.07332 11.8818 8.52233 12.5509 7.73362 13.0199C6.95556 13.4826 6.11026 13.5449 5.23253 13.4539C5.75881 13.818 6.34808 13.8288 6.91859 13.7324C8.33807 13.4923 9.35508 12.678 9.92305 11.2853C9.94143 11.2403 9.94766 11.1769 9.98038 11.1534C10.1044 11.0642 10.2371 10.9879 10.3664 10.9067C10.3864 11.0458 10.4573 11.2031 10.4184 11.3211C10.0724 12.3684 9.42496 13.1689 8.49451 13.6988C7.6644 14.1716 6.77865 14.3967 5.82444 14.2073C5.66102 14.1748 5.49185 14.1731 5.32532 14.1571C5.31589 14.202 5.30637 14.2468 5.29703 14.2917C5.66017 14.3759 6.02011 14.5075 6.38731 14.5368C8.55279 14.7092 10.3933 13.4409 11.113 11.2971C11.2098 11.0088 11.3002 10.7644 11.6929 10.9672C11.3785 12.4332 10.5952 13.5469 9.37461 14.3163C8.15494 15.0849 6.83023 15.2397 5.43876 14.8747C5.43207 14.9336 5.42547 14.9925 5.41886 15.0514C5.87254 15.1452 6.32262 15.2889 6.78054 15.325C9.51945 15.5412 11.6911 13.6348 12.2986 11.2635C12.3798 10.9461 12.4903 10.7957 12.8533 10.9774C12.5102 12.6977 11.6434 14.0342 10.2115 14.9541C8.78203 15.8724 7.2327 16.0716 5.5953 15.6261C5.59049 15.6862 5.58558 15.7461 5.58078 15.8062C6.04114 15.9091 6.49755 16.0715 6.96254 16.105C10.1404 16.3347 12.6463 14.4518 13.4819 11.2561C13.5184 11.1164 13.7064 11.0196 13.8238 10.9027C13.8655 11.0533 13.9666 11.2164 13.94 11.3525C13.4195 14.0049 11.1357 16.2374 8.55619 16.5323C7.76115 16.6231 6.94283 16.4925 6.13506 16.4623C6.01757 16.4578 5.90035 16.4475 5.78295 16.4399C5.77503 16.4815 5.76711 16.523 5.75909 16.5646C6.20334 16.6722 6.64249 16.8281 7.09267 16.8796C10.9307 17.3191 13.8917 14.6702 14.6032 11.3873C14.6606 11.1223 14.6622 10.7939 15.1533 10.9379C14.8332 13.191 13.7537 14.9349 11.9422 16.186C10.1192 17.4451 8.11845 17.701 5.99984 17.1743C5.99258 17.2291 5.98532 17.2839 5.97806 17.3386C6.47445 17.4527 6.96565 17.6207 7.46788 17.6722C11.3319 18.0682 14.6985 15.6333 15.6816 11.7549C15.7254 11.5817 15.7826 11.4086 15.7981 11.232C15.8289 10.8845 15.9966 10.83 16.319 10.959C15.9532 13.4511 14.7942 15.4188 12.7895 16.8193C10.8048 18.2062 8.6105 18.5037 6.27981 17.9731C6.27821 18.0237 6.27661 18.0742 6.275 18.1248C6.58119 18.207 6.88342 18.3135 7.19404 18.3676C11.8874 19.1832 16.0544 16.1431 16.9608 11.2622C16.9863 11.1249 17.159 11.0171 17.2631 10.8955C17.3105 11.0497 17.4229 11.2177 17.3959 11.3559C16.6032 15.3975 14.2764 17.9208 10.4133 18.8303C5.80539 19.9151 0.938916 16.5145 0.0913586 11.6725C0.0689155 11.5443 0.0318561 11.4189 0.0112046 11.2906C-0.0288724 11.0407 0.0306302 10.881 0.319656 10.8818C1.99761 10.8868 3.67566 10.8842 5.48883 10.8842C5.24328 11.0282 5.11154 11.1055 4.93794 11.2074C5.29364 11.5492 5.61038 11.3511 5.90912 11.2308C6.20805 11.1102 6.49161 10.9484 6.82477 10.8923C6.48416 11.7073 5.78927 11.8715 5.04289 11.957C5.4845 12.3155 5.95533 12.2515 6.34299 12.051C6.77677 11.8266 7.16405 11.4773 7.51814 11.1244C7.71542 10.9278 7.858 10.8218 8.16154 10.9872C7.52418 12.2998 6.50038 12.791 5.13446 12.6947Z" fill="white"/>
<path fill-rule="evenodd" clip-rule="evenodd" d="M51.7908 23.1489C51.7835 24.5064 52.004 25.6632 52.6787 26.7019C53.8327 28.4787 56.6491 28.4369 57.7373 26.7669C58.2978 25.9068 58.558 24.9606 58.6373 23.9477C58.7422 22.6086 58.5928 21.3094 57.9026 20.1427C56.6508 18.0263 53.6554 18.0852 52.4727 20.2398C51.9564 21.1805 51.7825 22.2084 51.7908 23.1489ZM55.2393 16.7707C58.3644 16.6866 60.4684 19.0363 60.8209 22.0551C60.9839 23.4508 60.9107 24.8077 60.4525 26.1368C59.5027 28.8922 57.1308 30.1644 54.4224 29.8552C51.8152 29.5576 49.9747 27.5076 49.6524 24.4565C49.5061 23.0707 49.6037 21.7288 50.086 20.4319C50.9656 18.0662 52.8052 16.7706 55.2393 16.7707Z" fill="white"/>
<path fill-rule="evenodd" clip-rule="evenodd" d="M19.8023 22.0647H20.3497C21.7425 22.0647 23.1355 22.0647 24.5283 22.0647C25.4179 22.0647 25.44 22.06 25.2591 21.1814C25.0291 20.0648 24.5191 19.1365 23.3717 18.7604C21.5092 18.1497 19.62 19.8562 19.8023 22.0647ZM26.7336 27.1258C26.9491 27.6528 27.146 28.134 27.3545 28.6437C26.5479 29.2514 25.6428 29.5723 24.686 29.7518C22.9176 30.0836 21.2375 29.9046 19.7556 28.7662C18.3947 27.7208 17.774 26.2428 17.5159 24.5938C17.2762 23.063 17.3959 21.5478 17.9876 20.1038C18.6369 18.5188 19.7131 17.3606 21.3968 16.9375C24.2204 16.2281 26.7332 17.8019 27.4253 20.738C27.6517 21.6991 27.7006 22.7034 27.8399 23.7586C27.5208 23.7733 27.3339 23.7892 27.147 23.7894C24.8801 23.7911 22.6134 23.7897 20.3466 23.7911C19.7606 23.7915 19.7074 23.8594 19.8049 24.4505C20.125 26.3928 21.131 27.5893 22.8121 27.9399C24.03 28.1939 25.1815 27.9001 26.28 27.3536C26.4092 27.2893 26.538 27.2241 26.7336 27.1258Z" fill="white"/>
<path fill-rule="evenodd" clip-rule="evenodd" d="M78.3 28.8262C78.5428 28.2798 78.78 27.7461 79.0303 27.1829C79.4204 27.3727 79.7825 27.5662 80.1576 27.7279C81.1552 28.1582 82.1846 28.2678 83.2292 27.9517C83.8717 27.7572 84.3921 27.3794 84.5206 26.6435C84.6507 25.8978 84.3515 25.3032 83.7525 24.9148C83.2031 24.5585 82.6076 24.2779 82.0295 23.9698C81.564 23.7216 81.0766 23.5122 80.6294 23.2331C79.3481 22.4335 78.8024 21.2182 79.026 19.7155C79.2495 18.2132 80.1714 17.2708 81.6012 16.9559C83.3785 16.5645 85.1068 16.7882 86.7518 17.6097C86.8222 17.6449 86.8843 17.6977 87.0001 17.7759C86.7958 18.2489 86.6046 18.7296 86.3725 19.1881C86.3374 19.2575 86.0954 19.2718 85.9764 19.2296C85.0727 18.909 84.1672 18.5896 83.196 18.6378C82.8201 18.6564 82.431 18.7171 82.0782 18.8466C81.0422 19.2269 80.8017 20.473 81.6476 21.2C82.0922 21.5821 82.6357 21.8491 83.1539 22.1301C83.7723 22.4654 84.4281 22.7284 85.0376 23.0787C86.4586 23.8953 86.973 25.1886 86.7741 26.818C86.6089 28.1711 85.6167 29.227 84.1015 29.6212C82.2712 30.0975 80.4815 29.9846 78.7608 29.1297C78.6608 29.0799 78.5612 29.028 78.4648 28.9712C78.4244 28.9476 78.3924 28.9087 78.3 28.8262Z" fill="white"/>
<path fill-rule="evenodd" clip-rule="evenodd" d="M72.645 17.2307C72.0928 18.6435 71.5782 19.9688 71.0571 21.2911C69.9937 23.9882 68.9199 26.6808 67.8693 29.3833C67.7245 29.7558 67.5575 29.911 67.1544 29.9004C65.9873 29.8701 65.9903 29.8901 65.5759 28.7679C64.2252 25.11 62.8714 21.4533 61.52 17.7957C61.4589 17.6305 61.4094 17.4605 61.335 17.2334C62.0331 17.2334 62.6759 17.2133 63.3156 17.251C63.4382 17.2582 63.604 17.4715 63.6571 17.6252C64.6579 20.5216 65.6444 23.4235 66.6354 26.3237C66.6908 26.4857 66.7594 26.643 66.877 26.9428C67.286 25.858 67.6434 24.9161 67.9963 23.9723C68.782 21.8705 69.5737 19.7708 70.3415 17.6616C70.464 17.3251 70.623 17.2058 70.9582 17.2233C71.4906 17.251 72.0252 17.2307 72.645 17.2307Z" fill="white"/>
<path fill-rule="evenodd" clip-rule="evenodd" d="M74.385 16.8023C74.5096 16.7889 74.6027 16.7706 74.696 16.7702C75.3039 16.7676 75.9119 16.7688 76.56 16.7688V29.4478H74.385V16.8023Z" fill="white"/>
<path fill-rule="evenodd" clip-rule="evenodd" d="M76.995 12.8979C76.9982 13.8319 76.3671 14.5037 75.4852 14.5048C74.6084 14.506 73.9484 13.8219 73.95 12.9139C73.9515 12.0345 74.6082 11.3441 75.4516 11.3351C76.3599 11.3254 76.9917 11.9652 76.995 12.8979Z" fill="white"/>
</g>
<defs>
<clipPath id="clip0_2004_2186">
<rect width="87" height="30" fill="white" transform="translate(0 0.4375)"/>
</clipPath>
</defs>
</svg>
