<svg width="136" height="41" viewBox="0 0 136 41" fill="none" xmlns="http://www.w3.org/2000/svg">
<path d="M135.128 19.7881C135.057 19.2823 135.289 18.7416 134.897 18.0953C133.221 18.0953 131.471 18.0347 129.726 18.1143C128.288 18.18 126.522 20.0346 126.488 21.8201C126.385 27.2357 126.45 32.6543 126.45 38.1549H130.052V28.4213C130.052 26.5593 130.099 24.6955 130.034 22.8358C129.998 21.7883 130.349 21.4041 131.363 21.4643C132.56 21.5354 133.764 21.4809 134.964 21.4809C135.107 20.9731 135.324 20.4652 134.964 19.9574" stroke="white" stroke-width="1.6"/>
<path d="M28.2086 23.4287H16.958V37.9975C17.9714 38.2998 19.0991 38.0228 20.3749 38.1552V26.9752C21.8153 26.9752 23.0957 26.9944 24.3751 26.9708C26.4402 26.9329 27.8286 25.7484 28.3753 23.5976" stroke="white" stroke-width="1.6"/>
<path d="M51.4179 30.9591C51.0796 31.6624 51.22 32.1268 52.0795 32.1044C52.9626 32.0813 53.8619 32.2684 54.8933 31.8877C54.8933 29.0921 54.9029 26.2321 54.8893 23.3722C54.882 21.7578 54.5937 21.2789 56.8795 21.3854C57.8735 21.4316 58.8714 21.393 59.9408 21.393V18.0943C58.1515 18.0943 56.437 18.0366 54.7288 18.1121C53.3078 18.1752 51.547 19.8331 51.4341 21.2294C51.1766 24.4139 51.1028 27.6054 51.4179 30.7942" stroke="white" stroke-width="1.6"/>
<path d="M85.2891 26.9158C87.1823 26.4322 88.7904 25.5947 89.4914 23.4287H79.525C79.3186 24.9551 79.2615 26.3482 80.7577 27.4448C81.6614 28.1074 82.4353 29.0054 83.0985 29.9187C84.6067 31.9943 86.5809 32.4911 88.9627 31.8973" stroke="white" stroke-width="1.6"/>
<path d="M100.909 28.1612C99.9139 25.0785 98.8765 22.0084 97.9463 18.9063C97.608 17.7776 96.7872 18.1892 96.1502 18.0732C94.3945 22.7143 92.6498 27.3269 90.8347 32.1248C91.8372 32.1248 92.7254 32.1123 93.6128 32.1298C94.0967 32.1393 94.3152 32.0429 94.4777 31.4745C94.8641 30.1219 95.4186 28.8149 95.9452 27.5049C96.1047 27.1082 96.0102 26.5233 96.762 26.486C97.4674 26.4509 97.5258 27.0346 97.5556 27.3391C97.6591 28.3918 98.3463 28.3475 99.0848 28.329C99.6373 28.3151 100.19 28.3264 100.743 28.3264" stroke="white" stroke-width="1.6"/>
<path d="M102.252 31.7815C102.195 31.6304 102.102 31.4823 102.086 31.3279C101.924 29.8296 101.013 29.2933 99.3285 29.4933C98.3134 29.6139 97.2642 29.5154 96.2075 29.5154C96.6981 31.7947 98.6456 32.529 102.252 31.9325" stroke="white" stroke-width="1.6"/>
<path d="M110.643 37.7246C112.153 38.4169 113.308 38.2557 113.557 37.2344C113.665 36.7927 113.841 36.1548 113.259 35.8007C112.591 35.3944 111.904 35.4266 111.126 35.5964C110.354 35.765 110.303 36.1725 110.312 36.7596C110.326 37.6709 110.316 38.5826 110.316 39.4939" stroke="white" stroke-width="1.6"/>
<path d="M15.6149 15.3965V8.24534C10.581 8.0311 5.69999 8.47886 0.8396 8.0332" stroke="white" stroke-width="1.6"/>
<path d="M49.6735 37.1791C50.5638 36.8211 51.5422 37.1726 52.5532 36.952C52.4894 35.6602 51.6838 35.3897 50.6517 35.4997C49.9153 35.5783 49.0263 35.7773 49.2229 36.7099C49.4054 37.5753 49.913 38.344 51.1401 38.1138C51.5055 38.0454 51.8969 38.1033 52.2766 38.1033" stroke="white" stroke-width="1.6"/>
<path d="M97.8102 37.0193C98.8141 36.9211 99.8683 37.2534 100.909 36.7452C100.516 35.4349 99.6637 35.3559 98.4725 35.5666C97.2615 35.7811 97.5922 36.4043 97.5912 37.1773C97.5905 38.0251 98.1936 38.0172 98.6517 38.0965C99.2982 38.209 99.9833 38.1249 100.652 38.1249" stroke="white" stroke-width="1.6"/>
<path d="M10.5779 8.70215V22.7593" stroke="white" stroke-width="1.6"/>
<path d="M95.0476 37.9745C95.5882 37.6497 96.3678 37.48 96.1786 36.559C96.0202 35.7864 95.3721 35.5716 94.7187 35.4931C93.9625 35.4022 93.3184 35.7097 92.9373 36.3932C92.7672 36.6989 92.8309 37.2414 93.2464 37.4281C93.7451 37.6532 94.1091 38.2007 94.7191 38.152" stroke="white" stroke-width="1.6"/>
<path d="M41.136 35.4775C41.1945 35.9253 41.3387 36.3793 41.2941 36.8196C41.1889 37.8542 41.8604 38.1826 42.8888 38.1533C43.852 38.1262 44.6196 37.8659 44.4769 36.8199C44.4169 36.3781 44.4671 35.9253 44.4671 35.4775" stroke="white" stroke-width="1.6"/>
<path d="M91.5037 38.1551C91.5037 37.787 91.4964 37.4188 91.5053 37.051C91.5318 35.969 90.9587 35.4747 89.913 35.4776C88.8659 35.4804 88.047 35.7536 88.1583 37.0513C88.1898 37.4169 88.1631 37.787 88.1631 38.1551" stroke="white" stroke-width="1.6"/>
<path d="M34.4199 34.8086C34.7642 35.3652 34.4153 35.9281 34.4432 36.4773C34.4989 37.5682 35.0499 38.2231 36.1836 38.15C37.1883 38.0854 37.825 37.6587 37.7752 36.4784C37.7512 35.9225 37.771 35.3652 37.771 34.8086" stroke="white" stroke-width="1.6"/>
<path d="M74.0649 35.4775C74.0649 35.9246 74.1089 36.3755 74.0558 36.8181C73.9461 37.7277 74.6532 38.0382 75.4572 38.1372C76.2185 38.231 77.0314 37.9586 77.1394 37.2601C77.2276 36.6917 77.6542 36.0736 77.189 35.4775" stroke="white" stroke-width="1.6"/>
<path d="M118.307 36.2785C117.168 35.2494 116.35 35.2089 115.113 36.1748C115.903 37.2147 117.603 36.3788 118.37 37.4632C117.2 38.3772 116.21 38.3772 115.012 37.5132" stroke="white" stroke-width="1.6"/>
<path d="M65.3372 34.8086C65.3372 35.3159 65.2761 35.8358 65.351 36.3283C65.4724 37.1303 65.9304 37.4861 66.6569 37.4861C67.3838 37.4861 67.8414 37.1303 67.9628 36.3283C68.0377 35.8358 67.9767 35.3159 67.9767 34.8086" stroke="white" stroke-width="1.6"/>
<path d="M84.1187 26.7754C86.0888 28.3702 87.6624 30.3861 89.4915 32.1305" stroke="white" stroke-width="1.6"/>
<path d="M20.3161 1.33887C19.4101 1.81459 19.6851 2.55579 19.6795 3.21315C19.6576 5.71209 19.6705 8.21136 19.6705 10.7103" stroke="white" stroke-width="1.6"/>
<path d="M48.5236 35.9494C46.7324 35.0081 45.8531 35.4723 45.8382 37.3673C45.836 37.6298 45.8379 37.8926 45.8379 38.1551" stroke="white" stroke-width="1.6"/>
<path d="M80.7606 35.8104C78.7076 35.0204 78.0742 35.5731 78.0742 38.1551" stroke="white" stroke-width="1.6"/>
<path d="M104.938 35.796C102.693 35.0754 102.252 35.4626 102.252 38.1551" stroke="white" stroke-width="1.6"/>
<path d="M56.4221 35.4926C56.8969 35.4926 57.3749 35.5261 57.8458 35.4858C58.9125 35.3946 59.1828 36.0725 59.2623 36.8889C59.3465 37.7569 58.6574 38.0121 58.0012 38.1064C57.2618 38.2124 56.4794 38.205 55.9113 37.4561C56.455 35.8306 58.0399 37.0186 58.9543 36.4229" stroke="white" stroke-width="1.6"/>
<path d="M26.3607 10.376H15.615" stroke="white" stroke-width="1.6"/>
<path d="M38.4516 34.1387C38.4516 34.7473 38.4574 35.3555 38.4505 35.9642C38.4292 37.836 38.7366 38.1653 40.4643 38.1548" stroke="white" stroke-width="1.6"/>
<path d="M59.9613 34.1387C59.9613 34.7473 59.9827 35.3567 59.9573 35.9643C59.88 37.8111 60.0012 37.9513 61.9556 38.155" stroke="white" stroke-width="1.6"/>
<path d="M33.0766 34.1387C31.2918 34.2062 30.9432 34.4833 31.1249 36.1425C31.2013 36.8384 30.9942 37.4857 31.0855 38.155" stroke="white" stroke-width="1.6"/>
<path d="M12.7601 4.0166C12.84 5.3555 11.9562 6.69403 12.7601 8.03293" stroke="white" stroke-width="1.6"/>
<path d="M23.6742 4.15625C22.3473 4.93006 20.9853 4.27741 19.6445 4.49094" stroke="white" stroke-width="1.6"/>
<path d="M106.318 34.1387C106.318 34.7473 106.375 35.3611 106.307 35.9632C106.152 37.3506 106.689 38.1539 108.296 38.155" stroke="white" stroke-width="1.6"/>
<path d="M86.1335 34.1584C84.4722 33.9967 83.9204 34.8461 84.1796 36.1505C84.3185 36.851 84.0427 37.489 84.143 38.155" stroke="white" stroke-width="1.6"/>
<path d="M94.9875 38.1553C95.502 38.6745 95.84 39.3135 95.1351 39.8675C94.53 40.3434 93.8629 40.3039 93.5211 39.315" stroke="white" stroke-width="1.6"/>
<path d="M67.798 37.4854C68.3724 38.8885 67.7078 39.5201 65.9852 39.4927" stroke="white" stroke-width="1.6"/>
<path d="M6.88403 16.4004H10.2421" stroke="white" stroke-width="1.6"/>
<path d="M23.5144 10.71C22.4197 11.3385 24.2438 12.0882 23.1786 12.7181" stroke="white" stroke-width="1.6"/>
<path d="M70.7901 35.4784C70.0724 35.7101 69.3131 35.8508 69.3442 36.8923C69.3629 37.5012 69.6537 37.8231 70.1589 37.9814C70.8798 38.2075 71.5236 38.2952 72.2544 37.7233C72.7482 37.3373 72.7275 36.9774 72.6755 36.5798C72.5455 35.5861 71.7736 35.4658 70.9486 35.4784" stroke="white" stroke-width="1.6"/>
<path d="M74.5727 23.4287C73.7962 23.6317 74.107 24.2781 74.1012 24.7385C74.0717 27.1397 74.0876 29.5413 74.0876 31.9624C75.1516 32.2794 76.2457 32.0109 77.4026 32.1308V23.4287H74.7344" stroke="white" stroke-width="1.6"/>
<path d="M119.768 18.0732C118.55 19.042 119.748 20.2692 119.042 21.4202H124.415V18.0732H119.937" stroke="white" stroke-width="1.6"/>
<path d="M114.967 18.0732C114.336 18.3698 114.352 18.9923 114.35 19.5593C114.336 23.5222 114.34 27.485 114.349 31.4479C114.349 31.613 114.448 31.7778 114.516 31.9881C115.539 32.1807 116.58 32.1807 117.699 31.9703V18.0732H115.123" stroke="white" stroke-width="1.6"/>
<path d="M74.7008 18.0854C73.5138 19.076 74.6813 20.3309 74.0446 21.4202H89.4915C88.5699 19.0736 87.1044 18.045 84.9076 18.0738C81.5607 18.1177 78.2129 18.0854 74.8654 18.0854" stroke="white" stroke-width="1.6"/>
<path d="M61.3111 18.0732C60.4921 18.6156 60.6132 19.4436 60.6259 20.2217C60.6711 22.9763 60.7098 25.7312 60.8022 28.4845C60.8699 30.4809 62.6395 32.0783 64.7613 32.1167C65.9685 32.1385 67.1764 32.1305 68.384 32.1186C71.0392 32.0925 72.6791 30.5331 72.6926 27.989C72.7095 24.738 72.6967 21.4869 72.6967 18.1559H69.074V28.5675H64.4163V18.0732H61.4837" stroke="white" stroke-width="1.6"/>
<path d="M44.9607 18.0732C44.1679 19.1216 44.9191 20.2513 44.4939 21.4202H49.8667V18.0732H45.1329" stroke="white" stroke-width="1.6"/>
<path d="M31.6242 18.0732C30.7981 18.2783 31.1274 18.931 31.1226 19.3959C31.094 22.3168 31.1497 25.2386 31.0926 28.1585C31.0579 29.9484 32.7496 32.1061 35.0648 32.1252C36.269 32.1351 37.4732 32.1279 38.6774 32.1269C41.5045 32.1236 43.1481 30.5453 43.1498 27.8281C43.1515 24.6308 43.1501 21.4332 43.1501 18.1559H39.3655V28.6548C38.0526 28.6548 36.9024 28.6389 35.7529 28.6591C34.5711 28.6799 34.7242 27.8738 34.7228 27.1668C34.7176 24.5766 34.731 21.9861 34.7097 19.3959C34.7063 19.0133 34.901 18.5838 34.4049 18.0732H31.7962" stroke="white" stroke-width="1.6"/>
<path d="M17.6812 18.0732C16.4675 19.042 17.6613 20.2692 16.958 21.4202H30.3901V18.0732H17.8495" stroke="white" stroke-width="1.6"/>
</svg>
