<svg width="66" height="74" viewBox="0 0 66 74" fill="none" xmlns="http://www.w3.org/2000/svg">
<path fill-rule="evenodd" clip-rule="evenodd" d="M0.827148 0V4.38795H3.01406V2.17488H5.21509V0H0.827148Z" fill="white"/>
<path fill-rule="evenodd" clip-rule="evenodd" d="M65.1282 73.1325C63.9543 73.1249 62.7804 73.117 61.6067 73.1097C61.4061 73.1084 61.2054 73.1097 60.9755 73.1097V71.0296H63.0798V68.8545H65.1282V73.1325Z" fill="white"/>
<path fill-rule="evenodd" clip-rule="evenodd" d="M65.1281 4.47038H63.0901V2.3142H60.9221V0.192383H65.1281V4.47038Z" fill="white"/>
<mask id="mask0_2004_1458" style="mask-type:alpha" maskUnits="userSpaceOnUse" x="26" y="0" width="5" height="3">
<path d="M26.5603 0.192383H30.839V2.32665H26.5603V0.192383Z" fill="white"/>
</mask>
<g mask="url(#mask0_2004_1458)">
<path fill-rule="evenodd" clip-rule="evenodd" d="M26.5714 2.32672C26.5682 1.61527 26.5652 0.903829 26.5618 0.192383H30.839V2.31519H26.5603L26.5714 2.32672Z" fill="white"/>
</g>
<mask id="mask1_2004_1458" style="mask-type:alpha" maskUnits="userSpaceOnUse" x="0" y="0" width="66" height="74">
<path d="M0.827148 73.1324H65.1282V0.192383H0.827148V73.1324Z" fill="white"/>
</mask>
<g mask="url(#mask1_2004_1458)">
<path fill-rule="evenodd" clip-rule="evenodd" d="M43.7422 2.27739H48.0192V0.192383H43.7422V2.27739Z" fill="white"/>
<path fill-rule="evenodd" clip-rule="evenodd" d="M39.3935 0.192383C39.3987 0.809346 39.4119 1.42631 39.3997 2.04278C39.3982 2.13186 39.2739 2.29408 39.2046 2.29506C37.89 2.31028 36.5748 2.30611 35.1875 2.30611V0.192383H39.3935Z" fill="white"/>
<path fill-rule="evenodd" clip-rule="evenodd" d="M52.3677 2.27862H56.5737V0.192383H52.3677V2.27862Z" fill="white"/>
<path fill-rule="evenodd" clip-rule="evenodd" d="M22.2132 0.192383C22.2194 0.809346 22.2336 1.42631 22.2223 2.04303C22.2206 2.13186 22.0956 2.29408 22.026 2.29506C20.7109 2.31003 19.3955 2.30611 18.0074 2.30611V0.192383H22.2132Z" fill="white"/>
<path fill-rule="evenodd" clip-rule="evenodd" d="M9.45288 2.27862H13.6589V0.192383H9.45288V2.27862Z" fill="white"/>
<path fill-rule="evenodd" clip-rule="evenodd" d="M65.1282 30.2096H63.0759V25.9307L63.0643 25.942L65.1282 25.9316V30.2096Z" fill="white"/>
<path fill-rule="evenodd" clip-rule="evenodd" d="M65.1282 55.9489H63.0779V51.692L65.1282 51.6709V55.9489Z" fill="white"/>
<path fill-rule="evenodd" clip-rule="evenodd" d="M65.1281 47.3932C64.4423 47.3896 63.7567 47.3859 63.0712 47.3824V43.1152H65.1281V47.3932Z" fill="white"/>
<path fill-rule="evenodd" clip-rule="evenodd" d="M63.1138 13.0259H65.1282V8.81934H63.1138V13.0259Z" fill="white"/>
<path fill-rule="evenodd" clip-rule="evenodd" d="M65.1281 21.5828C64.5352 21.5875 63.942 21.6007 63.3495 21.5877C63.2603 21.5858 63.0979 21.4621 63.0972 21.3934C63.0822 20.0784 63.0862 18.7635 63.0862 17.376H65.1281V21.5828Z" fill="white"/>
<path fill-rule="evenodd" clip-rule="evenodd" d="M63.1134 38.7654H65.1281V34.5586H63.1134V38.7654Z" fill="white"/>
<path fill-rule="evenodd" clip-rule="evenodd" d="M63.1138 64.5047H65.1282V60.2979H63.1138V64.5047Z" fill="white"/>
<path fill-rule="evenodd" clip-rule="evenodd" d="M18.3512 56.0698C18.121 56.0698 17.9068 56.0507 17.6993 56.0799C17.6216 56.0904 17.5023 56.2127 17.5003 56.2868C17.4843 56.8912 17.4856 57.4961 17.4996 58.1008C17.5013 58.1732 17.6057 58.2959 17.6735 58.3045C17.8867 58.3313 18.1051 58.3143 18.39 58.3143C18.1338 57.732 17.9132 57.2306 17.7039 56.7552C17.9419 56.5157 18.5123 56.7003 18.3512 56.0698ZM47.6268 58.3178C47.895 58.3178 48.0974 58.3462 48.2846 58.306C48.3809 58.2854 48.5179 58.1445 48.5211 58.0537C48.5425 57.4738 48.5391 56.8927 48.5236 56.3123C48.5214 56.2303 48.416 56.0917 48.345 56.0823C48.1185 56.0524 47.8852 56.0713 47.6717 56.0713C47.4961 56.7192 48.1392 56.4949 48.3084 56.7702C48.0922 57.2608 47.8751 57.7536 47.6268 58.3178ZM17.6288 62.6888C17.6288 62.9735 17.6401 63.2589 17.6256 63.5431C17.6096 63.8528 17.8201 63.8106 18.0061 63.8081C18.1864 63.8057 18.3988 63.866 18.391 63.5497C18.3772 63.0041 18.3767 62.4576 18.3915 61.9121C18.3998 61.6041 18.2004 61.6409 18.0124 61.6431C17.8292 61.6453 17.6118 61.5947 17.6263 61.9054C17.6383 62.1661 17.6288 62.4277 17.6288 62.6888ZM48.3954 62.7234C48.3954 62.4385 48.3959 62.1538 48.3951 61.8689C48.3939 61.5771 48.1708 61.6475 48.0082 61.6455C47.8429 61.6436 47.6292 61.5844 47.6317 61.8777C47.6363 62.4473 47.6341 63.0169 47.6327 63.5865C47.6322 63.8859 47.8579 63.8027 48.0168 63.8054C48.1807 63.8084 48.399 63.8714 48.3959 63.5777C48.3931 63.293 48.3956 63.0081 48.3954 62.7234ZM48.3023 51.4019C48.3023 51.0453 48.3111 50.6887 48.2956 50.3331C48.2922 50.2484 48.2195 50.11 48.1583 50.098C48.0606 50.0784 47.8962 50.1103 47.8491 50.1802C47.7476 50.3306 47.6516 50.5172 47.644 50.6929C47.6187 51.262 47.6418 51.8328 47.6305 52.4029C47.6263 52.6262 47.7177 52.6915 47.9262 52.6878C48.1335 52.6839 48.3106 52.6807 48.304 52.3995C48.2964 52.0669 48.3023 51.7344 48.3023 51.4019ZM17.7174 50.1272C17.7174 50.9076 17.7074 51.6976 17.7228 52.4868C17.7287 52.7659 17.9763 52.6645 18.1362 52.6819C18.3146 52.7013 18.3912 52.6216 18.389 52.4355C18.3824 51.8438 18.3988 51.2514 18.3824 50.66C18.3706 50.2443 18.1348 50.0548 17.7174 50.1272ZM17.7496 49.4813C17.5897 49.1851 17.5718 48.8349 17.2227 48.8182C16.5848 48.788 15.9439 48.8017 15.3051 48.8199C15.2228 48.8221 15.0882 48.9509 15.0734 49.0373C15.0064 49.4322 15.0597 49.4796 15.4704 49.481C15.7784 49.4823 16.0862 49.4813 16.3942 49.4813H17.7496ZM48.2998 49.481C49.1025 49.481 49.8716 49.4732 50.6407 49.4857C50.89 49.4899 50.9674 49.4049 50.9694 49.1583C50.9718 48.8992 50.8945 48.7951 50.6255 48.8037C50.1278 48.8192 49.6297 48.8076 49.1318 48.8076C48.5496 48.8076 48.5081 48.839 48.2998 49.481ZM15.9575 59.9993C15.9575 59.7142 15.9783 59.427 15.9462 59.1456C15.9351 59.0501 15.8057 58.9323 15.704 58.8925C15.5902 58.8484 15.4345 58.8489 15.3195 58.8911C15.2181 58.9284 15.0776 59.0471 15.0742 59.1348C15.0523 59.7039 15.054 60.2744 15.0734 60.8438C15.0764 60.9275 15.1999 61.0411 15.2928 61.0787C15.395 61.1201 15.5269 61.0841 15.645 61.0914C15.8683 61.1059 15.9732 61.0193 15.9611 60.7827C15.9476 60.5223 15.958 60.2605 15.9575 59.9993ZM50.9618 60.0116C50.9618 59.7267 50.9532 59.4413 50.9645 59.1566C50.9731 58.9534 50.8824 58.8756 50.6918 58.88C50.5732 58.8827 50.4543 58.8827 50.3356 58.88C50.1448 58.8754 50.0598 58.9541 50.0632 59.1566C50.0726 59.7149 50.0556 60.2737 50.078 60.831C50.0816 60.9201 50.2199 61.036 50.3216 61.0796C50.4221 61.1226 50.5555 61.0845 50.6739 61.0912C50.8866 61.1029 50.9743 61.0107 50.9645 60.7954C50.9532 60.5348 50.962 60.273 50.9618 60.0116ZM50.962 65.6133C50.962 65.2936 50.9502 64.9733 50.965 64.6543C50.9804 64.3267 50.7544 64.3645 50.5592 64.3721C50.3781 64.3792 50.13 64.2899 50.134 64.631C50.1413 65.2938 50.1438 65.9574 50.1332 66.6203C50.1273 66.9685 50.374 66.8699 50.5533 66.8748C50.7412 66.8802 50.9785 66.9459 50.9645 66.608C50.951 66.2769 50.9618 65.9449 50.962 65.6133ZM15.8889 65.6305C15.8889 65.3105 15.8737 64.99 15.8931 64.6715C15.912 64.3561 15.7123 64.3578 15.503 64.3708C15.3107 64.3829 15.0525 64.2849 15.0594 64.6494C15.0715 65.3005 15.0732 65.9523 15.0589 66.6033C15.0506 66.9742 15.309 66.8642 15.4991 66.8765C15.7027 66.8895 15.9125 66.9143 15.8929 66.5894C15.8737 66.2708 15.8889 65.9501 15.8889 65.6305ZM49.9935 55.4725C50.2276 55.4725 50.4152 55.4583 50.5999 55.4759C50.8711 55.5017 50.9839 55.4141 50.9679 55.1235C50.9453 54.7105 50.9625 54.2957 50.9625 53.8815C50.9625 53.2091 50.8792 53.1337 50.2086 53.2498C50.1273 53.2638 50.0048 53.3845 50.0028 53.4584C49.9868 54.1075 49.9935 54.7571 49.9935 55.4725ZM16.0329 54.3534V53.8918C16.0329 53.2032 15.9695 53.1413 15.2915 53.2505C15.2051 53.2643 15.0761 53.4007 15.0734 53.4834C15.0547 54.0746 15.0592 54.6668 15.0697 55.2582C15.071 55.3284 15.1417 55.4406 15.2034 55.4602C15.7813 55.6426 16.0329 55.4526 16.0329 54.8504V54.3534ZM35.6358 7.66572H35.09C33.9429 7.66548 33.9429 7.66548 34.0362 8.82505C34.0372 8.83683 34.0323 8.85376 34.0385 8.85989C34.1175 8.93941 34.1937 9.07954 34.2784 9.08518C34.6562 9.10997 35.0372 9.10751 35.4155 9.0869C35.4921 9.08297 35.6223 8.96223 35.626 8.88984C35.6471 8.50135 35.6358 8.11139 35.6358 7.66572ZM40.7052 37.9489C40.6745 37.9278 40.6438 37.907 40.6131 37.8861C40.3002 38.3507 39.9654 38.7536 39.3506 38.3247V40.391C39.4115 40.4016 39.4373 40.4146 39.4567 40.4082C39.8168 40.2926 40.1769 40.1768 40.5355 40.0568C40.9022 39.9341 41.1553 39.2818 40.8865 39.0022C40.6822 38.7892 40.719 38.5875 40.7067 38.3642C40.6991 38.2262 40.7052 38.0873 40.7052 37.9489ZM19.0773 38.4098V40.4985C19.5744 40.3449 20.036 40.204 20.4956 40.0573C20.5479 40.0406 20.6285 39.992 20.6297 39.9559C20.6398 39.6378 20.7434 39.2557 20.6046 39.0182C20.4632 38.776 20.4659 38.5654 20.4464 38.3303C20.4352 38.1968 20.432 38.0626 20.4194 37.8196C20.1706 38.0864 20.0281 38.347 19.8142 38.4368C19.6125 38.5217 19.3354 38.4265 19.0773 38.4098ZM45.6722 37.8949C45.6406 37.9089 45.6086 37.9227 45.5769 37.9364C45.5769 38.0837 45.5816 38.2314 45.5757 38.3784C45.5688 38.5418 45.6157 38.7679 45.5281 38.857C45.2114 39.1787 45.4212 39.5505 45.3745 39.8931C45.3681 39.9392 45.4416 40.0278 45.4949 40.0452C45.97 40.2006 46.4487 40.3446 46.9417 40.4965V38.4493C46.6685 38.4493 46.3939 38.5212 46.1947 38.4294C45.983 38.3325 45.8432 38.0797 45.6722 37.8949ZM26.6605 40.4504V38.4125C26.3778 38.4277 26.1027 38.5171 25.8998 38.4326C25.6913 38.346 25.553 38.0896 25.3135 37.8314C25.3012 38.0864 25.2965 38.2248 25.2874 38.3632C25.2764 38.5274 25.3253 38.76 25.2361 38.8427C24.9634 39.0965 25.0777 39.3966 25.0769 39.6754C25.0764 39.7794 25.1938 39.9387 25.2953 39.979C25.722 40.1483 26.1629 40.2823 26.6605 40.4504ZM50.4995 52.6765C50.513 52.6463 50.5262 52.6164 50.5395 52.5865C50.441 52.4795 50.3541 52.3575 50.2411 52.2689C50.0156 52.0924 49.9419 51.8787 49.9502 51.5921C49.9696 50.9233 49.9554 50.9135 50.6451 50.8936C50.894 50.8863 50.9866 50.7937 50.9645 50.552C50.9514 50.405 50.9623 50.2558 50.9623 50.0798C50.2981 50.0798 49.6948 50.0715 49.0922 50.0901C49.0131 50.0926 48.8731 50.2322 48.8714 50.311C48.8542 51.0222 48.8562 51.7339 48.8689 52.4449C48.8702 52.5229 48.9694 52.6643 49.0276 52.6662C49.5177 52.6841 50.0087 52.6765 50.4995 52.6765ZM15.4166 52.6768C16.0036 52.6768 16.4964 52.6844 16.9879 52.6665C17.0473 52.6645 17.1493 52.5241 17.1508 52.4463C17.1638 51.7341 17.1635 51.0215 17.1515 50.309C17.1503 50.233 17.0503 50.0943 16.9936 50.0931C16.3583 50.0774 15.7226 50.083 15.0953 50.083C15.0034 50.8769 15.0034 50.8769 15.7086 50.8897C15.7325 50.8902 15.7565 50.8921 15.7799 50.8899C15.9921 50.8688 16.0579 50.9589 16.0722 51.1751C16.1048 51.6799 16.0761 52.1442 15.5959 52.4522C15.5504 52.4814 15.5237 52.5403 15.4166 52.6768ZM47.6359 55.4455H49.3939C49.3939 54.7564 49.4005 54.0938 49.3833 53.4317C49.3813 53.3659 49.2347 53.2528 49.1512 53.2493C48.7243 53.2307 48.2959 53.2307 47.8692 53.2498C47.7889 53.2535 47.6479 53.372 47.6462 53.4402C47.629 54.1016 47.6359 54.764 47.6359 55.4455ZM18.3863 55.4573C18.3863 54.7662 18.3917 54.1149 18.3784 53.464C18.377 53.3904 18.2728 53.2577 18.2129 53.2557C17.6956 53.239 17.1778 53.2461 16.6632 53.2461V55.4573H18.3863ZM15.0621 56.0895C15.0621 56.5022 15.057 56.8691 15.0638 57.2358C15.0705 57.5769 14.9602 58.0618 15.1373 58.2208C15.3414 58.4039 15.8037 58.3126 16.1542 58.3168C16.9019 58.3256 16.9019 58.3195 16.9019 57.5681V56.0895H15.0621ZM49.4676 58.892C48.8857 58.892 48.3335 58.8857 47.782 58.9024C47.7299 58.9041 47.6408 59.0501 47.639 59.1303C47.6268 59.6987 47.6236 60.2678 47.6422 60.8357C47.6449 60.9218 47.7732 61.0728 47.8488 61.0762C48.3214 61.098 48.7957 61.0946 49.2691 61.0779C49.3371 61.0755 49.4572 60.9589 49.4587 60.8931C49.473 60.2438 49.4676 59.5937 49.4676 58.892ZM18.3873 59.9814C18.3873 59.7083 18.3787 59.4344 18.3902 59.1617C18.3988 58.9662 18.3286 58.8771 18.1286 58.8793C17.6892 58.8839 17.2495 58.8842 16.8101 58.8781C16.6165 58.8756 16.5278 58.9544 16.5293 59.1512C16.5337 59.7095 16.5205 60.2683 16.5433 60.8259C16.5467 60.9167 16.6946 61.0723 16.7828 61.0774C17.2326 61.1029 17.6855 61.1022 18.1358 61.0777C18.2234 61.0728 18.3652 60.9277 18.3757 60.8355C18.4074 60.554 18.387 60.2666 18.3873 59.9814ZM50.9603 56.0693C50.3752 56.0693 49.8542 56.0575 49.3347 56.0809C49.2497 56.0848 49.1048 56.2399 49.1013 56.3295C49.0797 56.8981 49.091 57.4674 49.089 58.0368C49.0885 58.2199 49.1509 58.3247 49.3575 58.321C49.808 58.3131 50.259 58.3296 50.7088 58.3082C50.7957 58.304 50.947 58.1759 50.9492 58.1013C50.9681 57.4409 50.9603 56.7798 50.9603 56.0693ZM17.0321 62.7263C17.0321 62.4655 17.0238 62.2044 17.0348 61.944C17.0432 61.7403 16.9832 61.6355 16.7582 61.6399C16.2842 61.6492 15.8098 61.6465 15.336 61.6411C15.1442 61.6387 15.057 61.7074 15.0602 61.9106C15.0685 62.4557 15.052 63.0017 15.0737 63.546C15.0773 63.6363 15.2193 63.7922 15.3031 63.7961C15.7998 63.8201 16.2982 63.8042 16.7958 63.8098C16.9889 63.812 17.0375 63.7146 17.0336 63.5443C17.027 63.2719 17.0316 62.999 17.0321 62.7263ZM50.962 62.7249C50.962 62.4642 50.9541 62.2031 50.9645 61.9427C50.9728 61.7361 50.9026 61.6365 50.6822 61.6404C50.2084 61.6483 49.7343 61.6478 49.2605 61.6406C49.064 61.6377 48.9873 61.7126 48.9905 61.9126C48.9994 62.4576 48.9999 63.0029 48.9905 63.548C48.9871 63.7541 49.0738 63.8145 49.2654 63.8113C49.7274 63.8037 50.19 63.8015 50.6518 63.8123C50.8773 63.8177 50.978 63.7433 50.965 63.507C50.951 63.2469 50.962 62.9857 50.962 62.7249ZM16.4834 64.3735V66.1655C16.4834 66.8787 16.4834 66.8861 17.1893 66.8738C17.3787 66.8703 17.6474 66.8735 17.7408 66.7599C17.996 66.448 18.2495 66.098 18.3657 65.7206C18.4688 65.3854 18.4006 64.9922 18.3775 64.6268C18.3721 64.5385 18.2487 64.3878 18.1751 64.3848C17.6337 64.364 17.0911 64.3735 16.4834 64.3735ZM49.5395 65.645C49.5395 65.3252 49.528 65.0047 49.5432 64.6857C49.5543 64.4575 49.4752 64.3544 49.2433 64.3679C49.1016 64.3762 48.9586 64.3637 48.8169 64.3691C48.4408 64.3831 47.907 64.2602 47.7304 64.4565C47.5305 64.6788 47.6435 65.1893 47.6356 65.5746C47.6329 65.7118 47.6405 65.8683 47.7027 65.9842C48.0303 66.5947 48.4393 67.0866 49.2462 66.8784C49.2575 66.8757 49.2701 66.8767 49.2819 66.878C49.4889 66.901 49.5476 66.796 49.5417 66.6046C49.5322 66.285 49.5393 65.9648 49.5395 65.645ZM27.3513 56.3869C27.3849 56.4055 27.4188 56.4244 27.4527 56.4433C28.3129 54.9314 29.5686 53.9041 31.1842 53.3038H27.3513V56.3869ZM34.8323 53.3089C36.4634 53.8999 37.7016 54.9515 38.5795 56.4517L38.6657 56.3911V53.3089H34.8323ZM27.111 56.9501C24.2093 55.8494 21.3624 55.9557 18.4878 57.0875C18.599 57.329 18.6948 57.5371 18.7904 57.7438C19.5889 57.452 20.3241 57.0669 21.1028 56.9317C21.8979 56.7935 22.738 56.94 23.5542 56.89C24.5618 56.8279 25.4994 56.9989 26.4026 57.4505C26.8875 57.693 26.9037 57.6613 27.0793 57.1337C27.0941 57.0897 27.0958 57.0412 27.111 56.9501ZM38.9079 56.954C39.0752 57.6728 39.075 57.6724 39.7097 57.4147C39.929 57.3258 40.1567 57.2544 40.368 57.1491C40.7708 56.9484 41.1889 56.8848 41.6384 56.8937C42.659 56.9138 43.6804 56.8942 44.7015 56.9052C44.8968 56.9074 45.1002 56.9518 45.2846 57.0186C45.9267 57.251 46.5619 57.5018 47.2288 57.757C47.3335 57.5148 47.4236 57.3064 47.5211 57.0809C44.6276 55.9552 41.7784 55.847 38.9079 56.954ZM18.3153 67.0414C19.7081 67.5452 20.9237 68.4636 22.4862 68.239C22.8237 68.1907 23.1769 68.2034 23.5179 68.2375C24.4935 68.3342 25.3931 68.1217 26.2484 67.6571C26.5864 67.4736 26.9472 67.332 27.2965 67.1717C26.9949 66.5152 26.9668 66.4738 26.4245 66.8419C25.5512 67.4343 24.6181 67.6854 23.5744 67.5597C23.387 67.5371 23.1924 67.5374 23.005 67.5595C21.5864 67.7273 20.2794 67.4296 19.0989 66.6217C18.7911 66.4109 18.6074 66.5025 18.4585 66.7987C18.4276 66.8608 18.3883 66.9187 18.3153 67.0414ZM38.6901 67.1813C39.8531 67.5845 40.8263 68.4007 42.1321 68.2417C42.6234 68.1818 43.1316 68.1968 43.6263 68.2397C44.5173 68.317 45.3342 68.1219 46.1247 67.7232C46.6268 67.4696 47.1542 67.2659 47.6705 67.0399C47.3679 66.405 47.3369 66.3582 46.812 66.6944C45.6673 67.4277 44.4392 67.7106 43.0972 67.5592C42.9096 67.5381 42.7153 67.5369 42.5281 67.5595C41.4092 67.6954 40.3921 67.4466 39.4898 66.7665C39.1916 66.5417 38.9838 66.5957 38.8301 66.9261C38.8006 66.9894 38.763 67.049 38.6901 67.1813ZM33.3322 52.6341H35.5422V50.1014H33.3322V52.6341ZM30.4288 50.0801C30.4288 50.9024 30.4247 51.6934 30.4369 52.4841C30.4379 52.543 30.5531 52.6498 30.617 52.651C31.2453 52.6642 31.8742 52.667 32.5022 52.6503C32.5735 52.6483 32.6995 52.5096 32.7012 52.4323C32.7167 51.7206 32.7162 51.0082 32.7015 50.2968C32.6997 50.2231 32.5747 50.0914 32.5045 50.0896C31.8302 50.0737 31.1557 50.0801 30.4288 50.0801ZM27.5036 41.4176C27.4729 41.3825 27.4608 41.3557 27.4414 41.3489C27.2528 41.2799 27.057 41.2271 26.8742 41.1457C25.5923 40.5748 24.2553 40.4057 22.8559 40.4578C21.8107 40.4968 20.7773 40.4791 19.7835 40.8821C19.274 41.0887 18.7368 41.2276 18.2094 41.3982C18.5005 42.0969 18.5199 42.1371 19.1225 41.8478C20.373 41.2473 21.6773 41.0188 23.0517 41.141C23.1342 41.1483 23.2184 41.1493 23.3007 41.1407C24.4884 41.0205 25.5977 41.2566 26.6591 41.8073C27.2164 42.0964 27.2363 42.0581 27.4991 41.4681C27.5038 41.4578 27.5014 41.4448 27.5036 41.4176ZM38.5117 41.3965C38.7384 42.0537 38.7846 42.1037 39.3429 41.8156C40.4149 41.2622 41.5328 41.021 42.7347 41.1371C43.0638 41.169 43.4011 41.1655 43.7312 41.1373C44.5895 41.0647 45.4018 41.2109 46.181 41.5749C46.4165 41.6848 46.6651 41.7673 46.908 41.8613C47.4919 42.0868 47.4924 42.0868 47.7643 41.5268C47.7788 41.4971 47.7786 41.4603 47.7847 41.4284C45.18 40.2283 41.4254 39.9699 38.5117 41.3965ZM38.4567 48.8852C38.7549 49.5721 38.821 49.63 39.437 49.3205C40.45 48.8113 41.5028 48.6771 42.6288 48.6785C44.0982 48.6805 45.5401 48.6928 46.8736 49.4153C46.8837 49.4207 46.8967 49.4209 46.9078 49.4248C47.4511 49.6059 47.7459 49.4221 47.8289 48.8857C47.3254 48.7448 46.8172 48.6334 46.3303 48.4604C45.3787 48.1224 44.4097 47.9796 43.4001 48.0336C42.7369 48.0692 42.0705 48.036 41.4053 48.0434C41.2292 48.0454 41.0455 48.0572 40.8787 48.1087C40.0781 48.3561 39.2825 48.6189 38.4567 48.8852ZM18.1738 48.8992C18.3713 49.51 18.5843 49.6212 19.1787 49.4057C19.2789 49.3694 19.3797 49.3323 19.4755 49.2859C20.443 48.8169 21.454 48.5926 22.5348 48.695C22.8999 48.7296 23.273 48.7266 23.6385 48.6955C24.5837 48.6145 25.4749 48.7772 26.3174 49.2135C26.422 49.2678 26.5353 49.3058 26.6453 49.3502C27.2368 49.5897 27.3493 49.5308 27.5215 48.9161C25.9701 48.2245 24.3552 47.8893 22.6523 48.0356C22.2632 48.0689 21.8682 48.028 21.4771 48.0451C21.243 48.0554 21.0053 48.0896 20.78 48.1516C19.9159 48.3904 19.0564 48.6447 18.1738 48.8992ZM10.5837 51.4426C9.10103 51.4426 7.61813 51.4384 6.13547 51.4485C5.97335 51.4497 5.66017 51.3339 5.69014 51.6114C5.70979 51.7943 5.97999 51.9587 6.15611 52.1104C6.20401 52.1518 6.31675 52.1192 6.39978 52.1192C9.17546 52.1194 11.9511 52.1194 14.7271 52.1194C14.8101 52.1194 14.9206 52.1521 14.9712 52.1111C15.1525 51.9643 15.435 51.8063 15.4554 51.6271C15.491 51.312 15.1623 51.4509 14.9965 51.4497C13.5257 51.4374 12.0546 51.4426 10.5837 51.4426ZM10.5832 40.4602C9.74018 40.4602 8.89765 40.46 8.05462 40.4602C7.35407 40.4602 6.65376 40.4563 5.95346 40.4654C5.86085 40.4666 5.7174 40.5105 5.69063 40.5741C5.66041 40.6455 5.71396 40.777 5.76923 40.8553C5.91293 41.0593 6.10624 41.1452 6.37448 41.1442C9.17571 41.1341 11.9777 41.138 14.7791 41.1376C14.8622 41.1376 14.9776 41.168 15.0223 41.1255C15.1921 40.965 15.3385 40.78 15.4939 40.604C15.3409 40.5562 15.1881 40.4673 15.0349 40.4664C13.551 40.4558 12.0671 40.4602 10.5832 40.4602ZM55.4367 51.4426C54.4989 51.4426 53.5611 51.4426 52.6232 51.4426C52.018 51.4426 51.4125 51.4382 50.807 51.448C50.7147 51.4495 50.5685 51.4968 50.5454 51.5592C50.5189 51.6321 50.5815 51.7575 50.638 51.837C50.7829 52.0409 50.9748 52.1268 51.2433 52.1258C54.045 52.1155 56.8467 52.1194 59.6482 52.1192C59.7312 52.1192 59.8447 52.1504 59.8918 52.1084C60.0591 51.9594 60.3146 51.7955 60.3315 51.6178C60.3588 51.3351 60.0508 51.4495 59.8884 51.4482C58.4048 51.4384 56.9206 51.4426 55.4367 51.4426ZM55.4697 40.4602C54.6269 40.4602 53.7836 40.46 52.9404 40.4602C52.228 40.4602 51.5157 40.4565 50.8031 40.4654C50.7102 40.4664 50.5648 40.5115 50.5402 40.5738C50.5125 40.6453 50.5729 40.7731 50.6297 40.8517C50.7753 41.0526 50.9645 41.1454 51.2342 41.1444C54.0364 41.1339 56.8391 41.138 59.6415 41.1378C59.7246 41.1378 59.8378 41.1687 59.8852 41.1268C60.053 40.9783 60.3087 40.8161 60.3274 40.6376C60.3576 40.3505 60.0486 40.4671 59.8872 40.4659C58.4148 40.456 56.9423 40.4602 55.4697 40.4602ZM37.9969 49.4496C37.8569 48.897 37.7819 48.8336 37.2759 48.8334C34.4283 48.8327 31.5806 48.8327 28.7335 48.8334C28.2402 48.8336 28.1533 48.9085 28.0214 49.4496H37.9969ZM29.8577 51.367C29.8577 51.0585 29.844 50.7493 29.8617 50.4418C29.8774 50.1731 29.8032 50.0587 29.5075 50.0722C28.9867 50.096 28.464 50.0781 27.942 50.0788C27.5475 50.0796 27.3355 50.2688 27.3262 50.6723C27.3125 51.2534 27.3137 51.835 27.3324 52.4159C27.3353 52.5001 27.4675 52.6493 27.5431 52.6515C28.2306 52.6699 28.9187 52.6714 29.6062 52.6508C29.6922 52.6481 29.8373 52.4922 29.8452 52.3982C29.8742 52.0566 29.8567 51.7111 29.8577 51.367ZM36.1669 50.0811C36.1669 50.9032 36.1598 51.6615 36.177 52.4193C36.1789 52.5018 36.3184 52.6493 36.3975 52.6515C37.0851 52.6704 37.7736 52.6704 38.4611 52.653C38.5432 52.6508 38.6886 52.5123 38.6913 52.4333C38.7107 51.8407 38.7343 51.2441 38.6834 50.6553C38.6662 50.4546 38.4515 50.1193 38.3051 50.1071C37.6132 50.0487 36.9134 50.0811 36.1669 50.0811ZM6.01315 68.2785H15.07C14.8354 67.558 14.7308 67.4792 14.0585 67.4765C11.7438 67.4677 9.42896 67.4561 7.11409 67.4473C6.43711 67.4449 6.28777 67.557 6.01315 68.2785ZM60.024 68.2842C59.7808 67.7232 59.5089 67.4117 58.8499 67.4282C56.5379 67.4866 54.2238 67.4674 51.9104 67.4768C51.3147 67.479 51.1195 67.6387 50.9576 68.2842H60.024ZM27.9717 43.8709C27.9717 44.7866 27.9658 45.5888 27.984 46.3903C27.9855 46.4505 28.1592 46.5543 28.2547 46.557C28.8234 46.5729 29.3923 46.5651 29.9614 46.5651C30.2758 46.5653 30.5902 46.5651 30.9009 46.5651V43.8785C29.9199 44.4214 28.9698 44.4086 27.9717 43.8709ZM34.4757 43.8687C33.475 44.4118 32.5239 44.4052 31.5526 43.8849V46.5344H34.4757V43.8687ZM35.1143 46.5638C36.0446 46.5638 36.9323 46.5599 37.8198 46.5665C38.0502 46.5682 38.0563 46.4306 38.0558 46.2647C38.0539 45.6016 38.0566 44.9382 38.0536 44.2746C38.0531 44.175 38.032 44.0754 38.0096 43.881C37.0354 44.4131 36.0863 44.4076 35.1143 43.8871V46.5638ZM45.4185 41.9202C45.3885 42.021 45.3696 42.0547 45.3696 42.0883C45.3664 43.8439 45.363 45.5996 45.3691 47.3555C45.3694 47.4422 45.4367 47.5835 45.5037 47.6058C45.9916 47.7686 46.4878 47.9072 47.0471 48.0731V42.5357C46.5443 42.3457 45.997 42.1388 45.4185 41.9202ZM20.6405 41.904C20.0195 42.1396 19.4639 42.3504 18.9837 42.5325V48.0687C19.4617 47.9291 19.8636 47.7955 20.274 47.6974C20.5624 47.6287 20.6717 47.4979 20.6685 47.1862C20.652 45.5731 20.6611 43.9598 20.6602 42.3467C20.6599 42.2299 20.6501 42.1133 20.6405 41.904ZM39.2978 47.9946C39.764 47.85 40.1533 47.7136 40.5512 47.6115C40.8556 47.5332 40.9533 47.3727 40.9504 47.0583C40.9349 45.4578 40.9443 43.8569 40.9418 42.2561C40.9415 42.1194 40.9199 41.9827 40.9042 41.8002C40.2864 42.0591 39.7173 42.2974 39.2076 42.5109C39.2447 42.8115 39.2933 43.0297 39.2943 43.2478C39.3012 44.6828 39.2978 46.1174 39.2978 47.5523V47.9946ZM25.127 41.8107C25.0939 41.9108 25.073 41.944 25.073 41.9773C25.0693 43.7345 25.0651 45.4916 25.071 47.249C25.0713 47.3344 25.1432 47.4711 25.2137 47.4969C25.6967 47.6733 26.1877 47.8265 26.7276 48.0039V47.5489C26.7276 46.1955 26.7237 44.8418 26.7303 43.4881C26.732 43.1759 26.7706 42.8643 26.7959 42.5006C26.2788 42.2868 25.7158 42.0542 25.127 41.8107ZM41.3161 37.4387C41.31 37.5384 41.2908 37.6333 41.3004 37.7254C41.3699 38.398 41.4387 39.0712 41.5294 39.7412C41.5387 39.8109 41.6888 39.9115 41.7745 39.9125C42.6883 39.925 43.6023 39.925 44.516 39.9127C44.5996 39.9115 44.745 39.8104 44.7543 39.7412C44.8015 39.3961 44.8 39.0717 44.9597 38.7178C45.1223 38.3575 44.9958 37.8665 44.9958 37.3904C44.8631 37.4483 44.7786 37.4657 44.7197 37.5143C44.4731 37.7165 44.2672 37.6927 44.0479 37.4576C43.8946 37.2932 43.6988 37.1685 43.4382 36.9585C43.4382 37.4822 43.4279 37.8827 43.4421 38.2822C43.4507 38.5151 43.3397 38.5585 43.1405 38.559C42.9047 38.5595 42.87 38.4245 42.872 38.2366C42.8757 37.8424 42.873 37.4483 42.873 37.0542C42.5512 37.2105 42.3284 37.384 42.1191 37.572C41.7988 37.8589 41.6303 37.3828 41.3161 37.4387ZM47.1102 50.1186C46.5585 49.9122 45.9989 49.7029 45.364 49.4653V49.9495C45.364 51.6605 45.3578 53.3715 45.3662 55.0823C45.3706 55.912 45.2326 55.7277 46.0346 55.9807C46.3519 56.0809 46.6708 56.1761 47.0414 56.2895V55.7829C47.0414 54.1078 47.039 52.4323 47.0444 50.7572C47.0449 50.5491 47.0861 50.341 47.1102 50.1186ZM18.9144 50.1159C18.938 50.3787 18.9795 50.6318 18.9802 50.8853C18.9861 52.5246 18.9832 54.164 18.9832 55.8035V56.2885C19.4642 56.1434 19.8866 56.0038 20.3163 55.8912C20.5793 55.8224 20.6658 55.686 20.6641 55.4131C20.6528 53.5718 20.6589 51.7302 20.6567 49.8889C20.6565 49.7677 20.6341 49.6464 20.6172 49.4771C20.0004 49.7085 19.4401 49.9188 18.9144 50.1159ZM25.1288 49.3672C25.0924 49.4589 25.0688 49.4911 25.0688 49.5232C25.0646 51.5059 25.0602 53.4886 25.0666 55.4715C25.0669 55.5557 25.1462 55.6897 25.2191 55.7159C25.6947 55.8858 26.1788 56.0325 26.7264 56.208V55.739C26.7264 54.1598 26.7227 52.5803 26.7296 51.0014C26.7308 50.7012 26.7745 50.4011 26.803 50.0469C26.2845 49.8366 25.7193 49.6072 25.1288 49.3672ZM21.0456 37.3376C21.0205 37.5327 21.0161 37.6144 20.9989 37.6935C20.8454 38.4069 21.2765 39.0513 21.2494 39.7527C21.2475 39.8055 21.4133 39.9122 21.5019 39.9134C22.4155 39.9252 23.3295 39.9274 24.2425 39.9095C24.3322 39.9078 24.4798 39.7662 24.496 39.6717C24.5483 39.3608 24.552 39.0651 24.6812 38.7436C24.834 38.362 24.7168 37.8721 24.7168 37.3842C24.579 37.4402 24.4884 37.4527 24.4334 37.5035C24.1516 37.7629 23.934 37.6414 23.708 37.4161C23.5636 37.2723 23.3904 37.1575 23.1362 36.9545C23.1362 37.3251 23.1791 37.5904 23.1244 37.8333C23.0686 38.0795 23.397 38.5455 22.85 38.5406C22.3398 38.536 22.6469 38.0918 22.5958 37.854C22.542 37.6022 22.5837 37.3298 22.5837 37.0051C22.0473 37.2539 21.7437 38.0586 21.0456 37.3376ZM39.2066 50.0516C39.2437 50.3751 39.2941 50.6165 39.2953 50.858C39.3022 52.4831 39.2987 54.1085 39.2987 55.7339V56.2028C39.7708 56.0536 40.1808 55.9059 40.6006 55.7979C40.8865 55.7245 40.9632 55.5709 40.9617 55.2906C40.9514 53.4518 40.957 51.6129 40.9548 49.774C40.9546 49.6506 40.9312 49.5272 40.9138 49.3568C40.2987 49.6072 39.7345 49.8369 39.2066 50.0516ZM33.0444 39.6685C31.2392 39.6685 29.4338 39.6783 27.6286 39.6602C27.2776 39.6567 27.2525 39.8121 27.2532 40.0862C27.2542 40.3584 27.2754 40.5164 27.6276 40.5149C31.2144 40.5022 34.8014 40.5022 38.3882 40.5147C38.7362 40.5162 38.7669 40.363 38.7667 40.0872C38.7664 39.8123 38.7387 39.657 38.3891 39.6604C36.6078 39.6781 34.826 39.6685 33.0444 39.6685ZM17.813 44.1301C17.0682 44.6511 16.3797 44.6351 15.6337 44.1534V46.3464C15.0783 46.4156 15.0685 46.4154 15.0651 46.6478C15.0582 47.0986 15.0498 47.5504 15.0746 47.9997C15.0796 48.0891 15.2296 48.2422 15.3151 48.2437C16.252 48.2616 17.1893 48.2525 18.1264 48.2574C18.3261 48.2584 18.3988 48.1767 18.3934 47.9799C18.3834 47.636 18.391 47.2917 18.391 46.9477C18.391 46.4502 18.3907 46.4507 17.9009 46.3727C17.8808 46.3695 17.8636 46.3469 17.813 46.3098V44.1301ZM50.374 44.2705C50.3423 44.2398 50.3106 44.2091 50.2786 44.1784C49.6061 44.7215 48.9277 44.5674 48.2077 44.1694V46.3567C48.1011 46.3756 48.0313 46.4028 47.965 46.3967C47.682 46.3702 47.5892 46.5013 47.5995 46.7719C47.615 47.1744 47.6071 47.5779 47.6051 47.9811C47.6044 48.171 47.6842 48.2589 47.883 48.2577C48.8193 48.253 49.7557 48.2537 50.6918 48.2569C50.8859 48.2574 50.9684 48.1791 50.9645 47.9801C50.9559 47.5654 50.9512 47.1499 50.9662 46.7356C50.9755 46.4851 50.9087 46.3454 50.6324 46.3795C50.4219 46.4055 50.3651 46.2897 50.3732 46.1029C50.3808 45.9373 50.3742 45.7712 50.374 45.6053V44.2705ZM32.9997 48.2125C34.698 48.2125 36.3963 48.215 38.0946 48.2115C38.7952 48.21 38.6937 48.2827 38.7004 47.6044C38.7045 47.1555 38.693 47.1641 38.2413 47.1653C34.809 47.1737 31.3767 47.1796 27.945 47.1764C27.322 47.1756 27.3427 47.1553 27.3154 47.76C27.2994 48.1126 27.3906 48.2262 27.7622 48.2218C29.5077 48.2012 31.2537 48.2125 32.9997 48.2125ZM44.7737 41.7378C43.7632 41.7378 42.804 41.7472 41.8452 41.7319C41.5679 41.7278 41.5077 41.8321 41.5092 42.0858C41.5178 43.7607 41.5205 45.4357 41.5075 47.1106C41.5053 47.4176 41.6178 47.492 41.9017 47.4871C42.733 47.4723 43.5647 47.4706 44.3959 47.4878C44.6897 47.4939 44.783 47.4053 44.7799 47.1072C44.7654 45.8004 44.7737 44.4935 44.7737 43.1867V41.7378ZM24.5085 44.6082C24.5085 43.7652 24.5007 42.9222 24.5134 42.0794C24.5176 41.8173 24.4358 41.728 24.1681 41.7324C23.3017 41.7469 22.4351 41.7469 21.5688 41.7322C21.3057 41.7278 21.2133 41.8105 21.2145 42.0736C21.2222 43.7593 21.2212 45.4452 21.2155 47.131C21.2148 47.382 21.2912 47.4912 21.5636 47.4868C22.4297 47.4728 23.2966 47.4741 24.1629 47.4863C24.4262 47.49 24.5169 47.3995 24.5132 47.1369C24.5014 46.2941 24.5085 45.4509 24.5085 44.6082ZM26.3577 17.93C26.2859 18.482 26.6519 18.9566 27.1334 18.9568C31.05 18.9598 34.9672 18.9598 38.8839 18.9568C39.3859 18.9566 39.7704 18.4371 39.6446 17.93H26.3577ZM39.6795 31.7003H26.3645C26.2705 32.2574 26.6537 32.7222 27.1918 32.7224C31.0616 32.7236 34.9311 32.7234 38.8008 32.7227C39.3486 32.7227 39.7301 32.2959 39.6795 31.7003ZM45.3917 57.6773V66.7484C45.9439 66.4652 46.4487 66.2149 46.9414 65.9427C47.0058 65.9069 47.0363 65.7594 47.0365 65.6634C47.0417 63.2996 47.0417 60.9356 47.0363 58.5718C47.036 58.4771 47.0009 58.3239 46.939 58.2972C46.4443 58.0829 45.9395 57.893 45.3917 57.6773ZM20.6353 57.6802C20.1645 57.8586 19.7631 58.026 19.3512 58.1617C19.076 58.2523 18.9731 58.3924 18.9756 58.6977C18.9908 60.8234 19.0159 62.9502 18.9643 65.0747C18.9483 65.7346 19.1276 66.1123 19.7486 66.3133C20.0416 66.408 20.3106 66.5766 20.6353 66.7337V57.6802ZM25.0858 66.8949C25.4112 66.7194 25.6579 66.5447 25.9317 66.4468C26.5824 66.2144 26.7644 65.7986 26.747 65.1036C26.6917 62.931 26.7288 60.7562 26.7212 58.5821C26.7207 58.4437 26.6849 58.2223 26.5979 58.1811C26.1219 57.9543 25.6247 57.7717 25.0858 57.5543V66.8949ZM40.928 57.5573C40.4328 57.7563 39.9902 57.9435 39.5402 58.1107C39.3525 58.1804 39.2948 58.2883 39.2953 58.4822C39.3005 60.9034 39.2978 63.3247 39.3022 65.7461C39.3024 65.8438 39.3223 65.993 39.3854 66.0308C39.8755 66.3243 40.3786 66.5962 40.928 66.903V57.5573ZM44.7644 49.2962C43.7754 49.2962 42.8162 49.3046 41.857 49.2911C41.5917 49.2874 41.5097 49.3728 41.5109 49.6366C41.5198 51.5351 41.5212 53.4339 41.5097 55.3326C41.508 55.6305 41.6293 55.6892 41.8912 55.6855C42.7096 55.674 43.5291 55.6607 44.3468 55.6907C44.7199 55.7044 44.8086 55.5743 44.8059 55.2268C44.7929 53.3997 44.8007 51.5722 44.7985 49.7446C44.7983 49.6062 44.7779 49.4675 44.7644 49.2962ZM24.5061 52.4903C24.5061 51.54 24.4994 50.59 24.5102 49.6401C24.5132 49.3807 24.4319 49.2867 24.1639 49.2911C23.2973 49.3053 22.4302 49.3046 21.5638 49.2913C21.3049 49.2872 21.2055 49.362 21.2067 49.631C21.2143 51.5309 21.2136 53.4309 21.2074 55.3309C21.2064 55.5854 21.2846 55.6902 21.5548 55.6862C22.4214 55.673 23.2885 55.67 24.1548 55.6872C24.4547 55.6934 24.5127 55.5657 24.51 55.3044C24.5002 54.3664 24.5063 53.4282 24.5061 52.4903ZM57.1201 37.2461V38.7141C56.5527 38.8174 56.534 38.8034 56.5335 38.3089C56.533 37.9857 56.5335 37.6623 56.5335 37.302C56.1152 37.4439 55.7701 37.6562 55.4286 37.6498C55.0791 37.6434 54.7335 37.4225 54.3319 37.2755V38.7369H53.7367V37.2201C52.9897 37.7808 52.2909 37.7077 51.5596 37.2235C51.5596 38.0883 51.5697 38.8344 51.5542 39.5802C51.5488 39.8401 51.6537 39.9039 51.8878 39.9034C54.2631 39.899 56.6386 39.8982 59.0139 39.9041C59.2787 39.9046 59.3664 39.8008 59.3615 39.5434C59.3497 38.9021 59.3596 38.2606 59.3554 37.6191C59.3549 37.5204 59.3261 37.4218 59.3062 37.2944C58.9194 37.4262 58.5745 37.6414 58.2353 37.6328C57.8816 37.624 57.5335 37.3995 57.1201 37.2461ZM6.66015 37.2743C6.66015 37.6112 6.65327 37.8822 6.66163 38.1526C6.67931 38.7166 6.7051 39.28 6.7277 39.8438C7.2821 39.8631 7.8365 39.8963 8.39115 39.899C9.94725 39.9066 11.5033 39.9017 13.0597 39.9017C13.4041 39.9017 13.7497 39.886 14.0928 39.9058C14.3933 39.9233 14.4802 39.806 14.4716 39.5142C14.4524 38.8731 14.4669 38.2312 14.465 37.5896C14.4645 37.5011 14.4466 37.413 14.4326 37.2888C14.0567 37.4269 13.716 37.6483 13.3734 37.6512C13.0251 37.6544 12.675 37.4424 12.2665 37.3047V38.7652C12.0489 38.7541 11.8787 38.7453 11.6723 38.7347V37.2169C10.9359 37.7065 10.2359 37.7749 9.50314 37.2866C9.4577 37.6697 9.45892 37.9956 9.45745 38.3212C9.45548 38.7973 9.41888 38.8243 8.89028 38.6977V37.2461C8.47368 37.4019 8.12365 37.6321 7.77067 37.637C7.42187 37.6417 7.06987 37.4184 6.66015 37.2743ZM32.9798 39.0611C33.7992 39.0611 34.6189 39.0538 35.4383 39.0653C35.6938 39.069 35.8029 38.9983 35.7898 38.7237C35.7697 38.2969 35.7864 37.8684 35.783 37.4409C35.7707 36.0308 34.7432 34.8729 33.3426 34.6889C31.9803 34.5097 30.619 35.4151 30.3311 36.7847C30.2014 37.4017 30.2702 38.0586 30.2309 38.6965C30.2137 38.9774 30.3117 39.0712 30.5922 39.066C31.3878 39.0518 32.1837 39.0611 32.9798 39.0611ZM41.5171 62.2242C41.5171 63.6957 41.5208 65.1674 41.5129 66.6389C41.5117 66.8878 41.5736 67.01 41.8487 67.0066C42.7266 66.9958 43.605 66.997 44.4829 67.0058C44.7374 67.0085 44.8093 66.8949 44.8091 66.6613C44.8054 63.718 44.8047 60.7746 44.8101 57.8314C44.8106 57.5671 44.7121 57.4873 44.4522 57.4915C43.5979 57.5055 42.7433 57.5087 41.8892 57.4905C41.5849 57.4839 41.5092 57.5941 41.5117 57.8805C41.523 59.3284 41.5171 60.7763 41.5171 62.2242ZM21.2072 62.222C21.2072 63.682 21.2119 65.1422 21.2028 66.6021C21.2013 66.8804 21.2706 67.0134 21.5793 67.008C22.4334 66.9931 23.2882 66.9953 24.1425 67.007C24.426 67.011 24.508 66.8983 24.5073 66.6269C24.5007 63.707 24.4994 60.7869 24.5088 57.8667C24.5098 57.5619 24.3997 57.4858 24.1138 57.4912C23.2833 57.5067 22.4518 57.5121 21.6218 57.489C21.2873 57.4797 21.1978 57.5916 21.201 57.9131C21.215 59.3492 21.2069 60.7856 21.2072 62.222ZM38.748 43.0802C38.4346 42.531 38.1298 42.0399 37.8701 41.5258C37.7134 41.2158 37.5095 41.1233 37.1703 41.125C34.4993 41.1385 31.828 41.1535 29.1574 41.1162C28.5637 41.1081 28.2127 41.2659 27.9798 41.8119C27.7971 42.2404 27.5276 42.6324 27.2722 43.0837C27.7929 43.2491 28.2613 43.371 28.7084 43.5467C29.2188 43.7475 29.7118 43.7703 30.2092 43.5384C30.8884 43.2221 31.5627 43.21 32.2463 43.5301C32.7422 43.7622 33.2519 43.7713 33.7506 43.5369C34.445 43.211 35.1296 43.2113 35.8223 43.5421C36.3052 43.7723 36.7893 43.749 37.2889 43.5539C37.7461 43.3752 38.2233 43.2481 38.748 43.0802ZM33.01 33.3232C31.2163 33.3232 29.4227 33.3256 27.6291 33.3202C27.4001 33.3195 27.2523 33.3328 27.2545 33.6336C27.2663 35.3324 27.2633 37.0313 27.2565 38.7301C27.2555 38.9765 27.3424 39.0692 27.5883 39.0643C28.1346 39.0535 28.6819 39.0476 29.2274 39.0668C29.5234 39.0771 29.6222 38.9716 29.62 38.6788C29.6158 38.0734 29.5841 37.4596 29.6691 36.8642C29.8801 35.3868 31.2898 34.1632 32.7218 34.0751C34.6349 33.9576 36.0158 35.2573 36.2887 36.6564C36.4189 37.3229 36.3762 38.025 36.3919 38.7117C36.398 38.9701 36.4852 39.0719 36.7485 39.0651C37.271 39.0513 37.7945 39.0444 38.3162 39.0675C38.6537 39.0822 38.7706 38.9745 38.7674 38.6263C38.752 36.9989 38.7502 35.3711 38.7685 33.7436C38.7726 33.3872 38.6505 33.3134 38.3194 33.3161C36.5498 33.3313 34.7798 33.3232 33.01 33.3232ZM14.4667 41.7432C14.3166 41.728 14.2233 41.7099 14.1297 41.7099C11.7677 41.7081 9.40562 41.714 7.04383 41.7022C6.70461 41.7005 6.66187 41.8522 6.66261 42.1349C6.66973 44.9009 6.67292 47.6672 6.6594 50.4332C6.65794 50.7964 6.77093 50.8985 7.12735 50.8964C9.42994 50.8828 11.7328 50.8831 14.0354 50.8964C14.3761 50.8985 14.476 50.8028 14.4743 50.4573C14.4606 47.6795 14.4667 44.9014 14.4667 42.1234V41.7432ZM51.5564 41.7359V42.1457C51.5564 44.9132 51.5648 47.6805 51.5468 50.4477C51.5442 50.8293 51.6739 50.8975 52.0143 50.8958C54.3061 50.8836 56.5981 50.8816 58.8899 50.8973C59.2564 50.8997 59.3524 50.7812 59.351 50.4291C59.3389 47.6736 59.3379 44.9181 59.352 42.1626C59.3539 41.8021 59.2461 41.6983 58.8894 41.7005C56.5976 41.7145 54.3058 41.7074 52.0141 41.7089C51.8738 41.7089 51.7335 41.7248 51.5564 41.7359ZM27.3893 17.252H38.6397C38.3778 16.6112 38.1474 16.0151 37.8935 15.4291C36.9799 13.3237 35.722 11.4878 33.796 10.164C33.6341 10.0528 33.5157 9.78117 33.499 9.57429C33.4565 9.05524 33.475 8.53031 33.4877 8.00807C33.4941 7.74205 33.389 7.63652 33.1301 7.66401C33.0478 7.67284 32.9631 7.67284 32.8808 7.66401C32.6162 7.63579 32.5244 7.75285 32.5317 8.01396C32.546 8.50037 32.5165 8.98849 32.542 9.47416C32.5607 9.82608 32.4013 10.0288 32.1446 10.2457C31.476 10.8107 30.7862 11.366 30.2024 12.0132C28.8523 13.5104 28.1127 15.3547 27.3893 17.252ZM33.0122 66.8773C34.5442 66.8773 36.076 66.8775 37.608 66.8773C38.2351 66.8773 38.7018 66.4163 38.7021 65.7878C38.7033 63.6142 38.7068 61.4404 38.6964 59.2668C38.695 58.9259 38.6581 58.5782 38.5834 58.2456C37.8917 55.1616 35.1082 53.2891 31.9798 53.7919C29.5691 54.1792 27.4449 56.4104 27.3498 58.8447C27.2577 61.2048 27.3203 63.5713 27.3272 65.9348C27.3284 66.4048 27.8482 66.8773 28.3095 66.8773C29.8771 66.8775 31.4448 66.8773 33.0122 66.8773ZM33.0114 19.5623C31.2183 19.5623 29.4252 19.5659 27.6323 19.5578C27.3746 19.5566 27.2515 19.6001 27.2525 19.9024C27.2621 23.5011 27.2616 27.0998 27.253 30.6985C27.2523 30.9886 27.3606 31.0656 27.6279 31.0654C31.2139 31.0605 34.7999 31.0595 38.386 31.0669C38.6861 31.0674 38.7684 30.9547 38.7677 30.6676C38.7605 27.0927 38.7588 23.5178 38.7699 19.9429C38.7711 19.6126 38.6515 19.5542 38.355 19.5561C36.5739 19.5684 34.7928 19.5623 33.0114 19.5623ZM51.5773 66.8632C51.7213 66.8701 51.837 66.8807 51.9531 66.8807C54.2808 66.8802 56.6089 66.8708 58.9366 66.8856C59.2881 66.8878 59.3487 66.7518 59.3483 66.449C59.3424 62.0063 59.3414 57.5636 59.35 53.121C59.3505 52.796 59.2534 52.7018 58.9255 52.7037C56.5976 52.7178 54.27 52.7109 51.9418 52.7121C51.8266 52.7121 51.7114 52.7249 51.5773 52.7325V66.8632ZM14.4475 52.732C14.3461 52.7227 14.2876 52.7128 14.2292 52.7128C11.819 52.7119 9.40881 52.7173 6.99839 52.7045C6.6744 52.7028 6.66506 52.865 6.66531 53.1016C6.66777 57.5548 6.66973 62.0078 6.66113 66.461C6.6604 66.7862 6.75644 66.8861 7.08658 66.8844C9.41348 66.8723 11.7406 66.8802 14.0678 66.8804C14.1928 66.8804 14.3178 66.8681 14.4475 66.8615V52.732ZM63.0487 47.4053C63.0473 48.8223 63.0461 50.2393 63.0448 51.6564C62.4273 51.6534 61.8095 51.6441 61.192 51.6546C61.1026 51.6563 60.9596 51.7339 60.9343 51.808C60.7666 52.305 60.3998 52.5808 59.9066 52.7921V53.2255C59.9066 57.6579 59.9095 62.0902 59.9007 66.5226C59.8999 66.8475 59.9675 67.1199 60.1633 67.3803C60.4079 67.7057 60.6236 68.053 60.8518 68.3907C60.8808 68.3806 60.9098 68.3703 60.9385 68.3602V64.6209H63.0335V65.0214C63.0335 66.1265 63.0338 67.2316 63.0335 68.3367C63.0333 68.7961 63.0325 68.7892 62.5575 68.7998C62.0085 68.8115 61.46 68.8373 60.8626 68.8587C60.8626 69.4872 60.8486 70.0315 60.8685 70.5743C60.8795 70.8799 60.7899 70.9824 60.4686 70.9775C59.2222 70.9584 57.9752 70.9697 56.6649 70.9697C56.6649 70.4467 56.6671 69.9417 56.6642 69.4366C56.6605 68.8307 56.7212 68.9053 56.1309 68.9033C54.9664 68.8999 53.802 68.9112 52.638 68.8962C52.3533 68.8925 52.2658 68.9819 52.2749 69.2606C52.2934 69.8155 52.2806 70.3714 52.2806 70.9478H48.1274V68.8778C48.6022 68.8778 49.0731 68.8668 49.543 68.8827C49.7621 68.8903 49.8923 68.8162 49.9974 68.6268C50.2018 68.2584 50.4268 67.9013 50.6945 67.4539C49.4752 67.5548 48.3234 67.2326 47.2576 67.8466C46.9717 68.0113 46.6479 68.1089 46.349 68.2525C45.5949 68.6145 44.8305 68.9208 43.9653 68.8084C43.8992 68.7998 43.8275 68.8304 43.7288 68.8484V70.9393H39.5191V68.8854H40.8674C40.8735 68.8528 40.8799 68.8201 40.886 68.7875C40.3852 68.5634 39.8829 68.3418 39.3837 68.1143C38.9236 67.9048 38.469 67.6834 38.0064 67.4799C37.9143 67.4395 37.7964 67.4485 37.6906 67.4485C34.5666 67.4468 31.4426 67.4419 28.3186 67.4579C28.0801 67.4591 27.8362 67.5975 27.6055 67.6966C26.7809 68.05 25.9612 68.414 25.1521 68.8562H26.5537V70.9888L26.5647 70.9775H22.3202V68.8636C22.2108 68.8378 22.1408 68.8005 22.0777 68.8096C21.1183 68.95 20.2779 68.5774 19.47 68.1553C18.4222 67.6076 17.3342 67.3474 16.1554 67.4667C15.9132 67.4912 15.6666 67.4704 15.3306 67.4704C15.6244 67.9568 15.8641 68.3745 16.1304 68.7742C16.1783 68.8464 16.3355 68.8709 16.4431 68.8734C16.9162 68.8837 17.3895 68.8778 17.8926 68.8778V70.9415H13.7406C13.7406 70.3886 13.7264 69.8457 13.7465 69.3038C13.7578 69.002 13.6789 68.8896 13.3522 68.8947C12.142 68.9139 10.931 68.9019 9.72003 68.9033C9.61589 68.9033 9.51174 68.9161 9.3646 68.9257V70.9952L9.3759 70.9844C7.95244 70.9832 6.52898 70.982 5.10552 70.9805L5.11658 70.9918V68.9585C4.56193 68.6913 3.97585 68.8138 3.40646 68.8057C3.09549 68.8012 2.97439 68.734 2.98053 68.3892C3.00313 67.1442 2.98937 65.8988 2.98937 64.6253H5.06647V68.3445C5.09914 68.3588 5.13181 68.373 5.16448 68.3875C5.35067 68.1143 5.52016 67.8274 5.72723 67.5715C6.03427 67.1916 6.12565 66.7766 6.12417 66.2897C6.10894 61.9435 6.11533 57.5973 6.11533 53.2508V52.785C5.55062 52.582 5.20967 52.2289 5.00923 51.6598H2.982V47.3926L2.97046 47.4036H5.08047V48.3958C5.08047 49.1087 5.09029 49.8219 5.07531 50.5346C5.07015 50.7903 5.13795 50.8919 5.41036 50.8948C6.11533 50.9022 6.11533 50.914 6.11533 50.2163C6.11533 47.5784 6.11435 44.9404 6.11681 42.3025C6.11705 42.0097 6.16495 41.7457 5.75155 41.6313C5.52286 41.5678 5.35337 41.2909 5.09521 41.0536V43.0041H3.02081V38.8793H5.07433V39.8955C5.37081 39.8955 5.62799 39.9012 5.88517 39.8938C6.13597 39.8869 6.10723 39.6936 6.10747 39.5299C6.10944 38.6385 6.1087 37.7474 6.1087 36.8561V36.406C6.59015 36.5967 7.00797 36.7849 7.44176 36.9231C7.62624 36.9818 7.88366 37.0088 8.04013 36.9241C8.79841 36.5152 9.51984 36.5047 10.2695 36.9494C10.4164 37.0365 10.7031 37.0304 10.8549 36.9435C11.6109 36.5113 12.3321 36.5135 13.0818 36.958C13.2211 37.0407 13.4694 37.0127 13.6401 36.9553C14.097 36.8016 14.5387 36.6043 15.0501 36.3989V39.9024C15.3237 39.9024 15.546 39.9122 15.7673 39.8997C16.0022 39.8864 16.0481 39.9917 16.0756 40.2128C16.1699 40.9697 15.8408 41.4473 15.1665 41.7341C15.1233 41.7526 15.0933 41.8144 15.0697 41.862C15.055 41.8912 15.0619 41.9322 15.0631 41.9678C15.0776 42.4157 15.0926 42.8638 15.1078 43.3119C15.6202 43.5281 16.1306 43.75 16.6477 43.9544C16.7206 43.9833 16.8319 43.9401 16.9172 43.908C17.3048 43.7612 17.6909 43.6103 18.0751 43.4537C18.4317 43.3082 18.4917 43.146 18.2998 42.8005C18.0014 42.2625 17.6902 41.7317 17.3519 41.1417C17.6069 41.0291 17.8309 40.899 18.0724 40.832C18.3544 40.7537 18.4738 40.6298 18.4637 40.3154C18.4386 39.5201 18.4556 38.7234 18.4556 37.9276V37.4657C18.7661 37.5845 19.0304 37.6716 19.2816 37.7865C19.4745 37.8746 19.6054 37.8473 19.7427 37.6827C20.0166 37.3545 20.318 37.0495 20.5887 36.7189C20.7252 36.5523 20.8323 36.557 21.0065 36.6595C21.6041 37.0124 21.6073 37.0048 22.1313 36.5601C22.3484 36.3758 22.5692 36.1957 22.7898 36.0153C22.8166 35.9935 22.8527 35.9834 22.8994 35.9609C23.2221 36.234 23.5596 36.4973 23.8689 36.7903C24.0573 36.969 24.213 36.9938 24.4235 36.8421C24.5847 36.7258 24.7682 36.6404 24.9602 36.5305C25.31 36.9246 25.651 37.3018 25.9833 37.6866C26.1066 37.8294 26.2206 37.8812 26.412 37.797C26.593 37.7178 26.7094 37.6397 26.7082 37.4176C26.7013 36.1461 26.7084 34.8747 26.6981 33.6034C26.6974 33.4915 26.6136 33.3747 26.5505 33.2709C26.5087 33.2019 26.4436 33.1396 26.3754 33.0954C25.7325 32.6777 25.6333 32.062 25.704 31.3614C25.7279 31.126 25.8072 31.0575 26.028 31.06C26.749 31.0686 26.7001 31.1523 26.7003 30.3559C26.7011 26.9221 26.6976 23.4879 26.7065 20.0541C26.7072 19.7723 26.6615 19.5434 26.4233 19.3767C26.3945 19.3566 26.3763 19.3205 26.3469 19.3026C25.635 18.8717 25.6603 18.1811 25.7234 17.488C25.7308 17.4049 25.8676 17.2718 25.9504 17.2672C26.5534 17.2333 26.9072 16.9523 27.1216 16.3682C27.7042 14.7821 28.4321 13.2658 29.4959 11.9332C30.1373 11.1295 30.869 10.4205 31.7133 9.83393C31.9127 9.69527 31.9906 9.53993 31.9864 9.30212C31.9751 8.66062 31.983 8.01887 31.983 7.37712C31.983 7.21736 31.9756 7.06152 32.2099 7.06152C33.5383 7.06447 34.8667 7.063 36.2202 7.063V9.66852H34.1988C34.2784 9.77135 34.3023 9.82191 34.3421 9.85062C36.2634 11.2311 37.5334 13.1065 38.4474 15.2524C38.6235 15.6664 38.8139 16.0772 38.9517 16.5044C39.116 17.0129 39.4854 17.2257 39.9654 17.2429C40.2707 17.2539 40.2764 17.3887 40.3164 17.6311C40.4451 18.4096 40.1432 18.9693 39.5505 19.4398C39.4201 19.5434 39.3243 19.7728 39.3238 19.9446C39.3108 23.5092 39.3176 27.074 39.3076 30.6386C39.3068 30.967 39.41 31.1022 39.7347 31.0637C39.805 31.0553 39.8779 31.0698 39.9482 31.0615C40.2255 31.0283 40.2855 31.1481 40.3184 31.4217C40.4053 32.1452 40.2132 32.7246 39.5991 33.1345C39.3373 33.3094 39.3039 33.5492 39.3066 33.8371C39.3177 35.0013 39.3152 36.166 39.3078 37.3302C39.3068 37.5546 39.3525 37.6964 39.5871 37.7955C39.8404 37.9023 39.9566 37.7803 40.0934 37.6206C40.3483 37.3229 40.623 37.0409 40.8634 36.7324C41.0066 36.5489 41.1191 36.5528 41.3058 36.6625C41.8841 37.0024 41.8885 36.9953 42.3996 36.567C42.6362 36.3692 42.8713 36.1697 43.1402 35.9424C43.4866 36.2293 43.8415 36.5013 44.169 36.8034C44.3628 36.9823 44.5128 36.9727 44.7253 36.8416C45.25 36.5184 45.2537 36.5295 45.6587 36.9796C45.9198 37.2704 46.1439 37.7003 46.4664 37.7992C46.7602 37.889 47.165 37.6162 47.569 37.488V38.8852C47.5693 39.4079 47.5558 39.9314 47.5806 40.4529C47.586 40.5655 47.7073 40.7152 47.8152 40.7716C48.0723 40.9064 48.3534 40.9959 48.6724 41.1228C48.3534 41.6841 48.063 42.1938 47.7732 42.7038C47.4899 43.2022 47.5526 43.2358 48.0547 43.5141C48.9242 43.9961 49.7355 43.9657 50.5854 43.4851C50.8412 43.3409 50.9952 43.2287 50.9694 42.9104C50.9392 42.5344 50.9625 42.154 50.9625 41.9106C50.5931 41.5776 50.2126 41.37 50.0534 41.0517C49.9058 40.7572 49.9908 40.3439 49.9878 39.9829C49.9876 39.9576 50.1045 39.9152 50.1693 39.9088C50.299 39.896 50.4317 39.8909 50.5609 39.9036C50.8603 39.9333 50.9794 39.8334 50.9713 39.5075C50.949 38.6169 50.963 37.7254 50.9625 36.8343C50.9622 36.7094 50.9625 36.5847 50.9625 36.3962C51.4872 36.6082 51.9389 36.809 52.4051 36.9685C52.5645 37.0232 52.7999 37.0407 52.9318 36.9612C53.6932 36.5015 54.4267 36.517 55.1899 36.9585C55.3306 37.0399 55.6021 37.0345 55.7443 36.9513C56.4913 36.5135 57.2139 36.5035 57.9732 36.9226C58.1282 37.0083 58.3868 36.9823 58.5711 36.9236C58.9977 36.7881 59.4079 36.6009 59.8805 36.4127C59.8921 36.5673 59.909 36.6883 59.9093 36.8095C59.9115 37.7126 59.9208 38.6157 59.9046 39.5186C59.8995 39.8207 60.0115 39.9309 60.2981 39.9024C60.3804 39.8941 60.4652 39.8931 60.5472 39.9029C60.8513 39.9385 60.9876 39.8256 60.9493 39.5041C60.9255 39.307 60.9446 39.1051 60.9446 38.8805H63.0041C63.0149 38.974 63.0321 39.0538 63.0321 39.1338C63.034 40.3221 63.0264 41.5101 63.0392 42.6984C63.0419 42.9639 62.963 43.053 62.696 43.0451C62.1291 43.0282 61.5612 43.04 60.9542 43.04V41.0256C60.7992 41.1611 60.7145 41.2315 60.6337 41.3064C60.5118 41.4193 60.4069 41.6095 60.2696 41.636C59.8462 41.7182 59.9049 42.0105 59.9051 42.3023C59.9076 45.0114 59.9046 47.7207 59.912 50.4298C59.9125 50.576 59.9773 50.8396 60.04 50.8482C60.3148 50.886 60.6012 50.86 60.88 50.8286C60.9122 50.8249 60.9414 50.6413 60.9422 50.541C60.9468 49.6499 60.9446 48.7585 60.9449 47.8675V47.4053H63.0487Z" fill="white"/>
<path fill-rule="evenodd" clip-rule="evenodd" d="M48.5058 27.1601C48.4773 27.2264 48.4488 27.2924 48.4198 27.3584C48.5709 27.4252 48.722 27.4919 48.8728 27.5587C48.9018 27.489 48.9605 27.3609 48.9553 27.3584C48.8094 27.2848 48.6571 27.2234 48.5058 27.1601ZM49.7806 27.1071C49.6824 27.2512 49.5844 27.3334 49.5841 27.4161C49.5839 27.4752 49.7234 27.5906 49.7853 27.581C49.8745 27.5675 49.9499 27.4632 50.0312 27.3977C49.9646 27.3204 49.8981 27.2431 49.7806 27.1071ZM49.3375 27.169L49.1447 27.0531C49.1091 27.1631 49.0344 27.2794 49.0511 27.3808C49.0644 27.4617 49.1865 27.5766 49.2651 27.5803C49.3466 27.5844 49.4338 27.473 49.5186 27.4122C49.4581 27.3309 49.3979 27.25 49.3375 27.169ZM49.3223 27.1432C49.3771 27.1442 49.4321 27.1452 49.4866 27.1461C49.5505 27.0647 49.6586 26.9891 49.6699 26.901C49.7079 26.6001 49.4092 26.7748 49.3031 26.6656C49.2464 26.7356 49.1339 26.8161 49.1447 26.8728C49.1636 26.9707 49.2589 27.0539 49.3223 27.1432ZM54.4092 19.6454C54.3527 19.4869 54.3229 19.3433 54.2517 19.2248C54.1974 19.1347 54.0901 19.0765 54.0068 19.0041C53.9444 19.1219 53.8184 19.2491 53.8341 19.3548C53.857 19.505 53.9749 19.6466 54.0719 19.7767C54.1021 19.8172 54.2109 19.8381 54.2601 19.8157C54.322 19.7875 54.3595 19.7058 54.4092 19.6454ZM53.7919 19.1011C53.8783 18.903 54.1608 18.7435 53.924 18.4976C53.7737 18.342 53.5465 18.2556 53.3433 18.1602C53.2905 18.1354 53.1844 18.1751 53.1311 18.2196C53.1046 18.2421 53.1186 18.3612 53.154 18.4022C53.3507 18.6311 53.5595 18.8493 53.7919 19.1011ZM54.5089 16.6538C54.3794 16.6538 54.3075 16.6323 54.2642 16.658C54.1441 16.7297 54.0363 16.8212 53.9235 16.9047C54.0321 16.9925 54.1286 17.1152 54.2527 17.1582C54.3785 17.2016 54.5418 17.1977 54.669 17.1555C54.7732 17.1211 54.8484 16.9996 54.9363 16.9167C54.8525 16.8325 54.7793 16.7312 54.6811 16.6703C54.6197 16.6323 54.5204 16.6546 54.5089 16.6538ZM51.0462 16.2227C50.789 16.34 50.5168 16.7709 50.6364 16.9236C50.7661 17.089 51.0083 17.1668 51.2014 17.2826C51.2331 17.2176 51.3033 17.1432 51.2903 17.0882C51.223 16.8055 51.1343 16.5275 51.0462 16.2227ZM48.4188 16.0678C48.2973 16.4509 48.1894 16.792 48.0811 17.1331L48.1899 17.2227C48.3985 17.0755 48.6937 16.9714 48.7947 16.7702C48.9288 16.5024 48.6839 16.2843 48.4188 16.0678ZM52.3542 24.7247C52.394 24.7188 52.434 24.7129 52.4738 24.707C52.4949 24.6442 52.5313 24.5821 52.5347 24.518C52.5846 23.6083 52.6227 22.6976 52.6806 21.7883C52.701 21.47 52.5141 21.4914 52.3001 21.4897C52.0525 21.4875 51.9088 21.5699 51.9373 21.8404C52.0076 22.5106 52.068 23.182 52.1547 23.85C52.1933 24.1453 52.2861 24.4334 52.3542 24.7247ZM53.7771 15.9662C53.5868 16.0266 53.4497 15.9017 53.403 15.7115C53.3397 15.455 53.476 15.2695 53.7224 15.1968C54.1721 15.0643 54.5639 15.4442 54.4507 15.9049C54.4015 16.1049 54.3092 16.2941 54.1866 16.6212C54.4576 16.5542 54.7481 16.5613 54.7951 16.458C55.1294 15.7183 54.9284 14.9517 54.0871 14.7438C53.7162 14.6523 53.3775 14.7701 53.1262 15.0626C52.8963 15.3299 52.8764 15.6418 53.0164 15.9603C53.1493 16.2624 53.4976 16.4141 53.8582 16.3225C54.1402 16.2511 54.2863 16.0523 54.2335 15.7699C54.2102 15.6445 54.096 15.5088 53.9849 15.4383C53.9245 15.4003 53.7012 15.4778 53.6948 15.5235C53.6774 15.6472 53.7364 15.7819 53.7771 15.9662ZM47.6191 23.851C47.5815 23.8549 47.5441 23.8589 47.5068 23.863C47.4857 23.889 47.4506 23.9126 47.4451 23.9416C47.2624 24.8928 47.0767 25.8437 46.9146 26.7986C46.9018 26.8752 47.0541 27.0553 47.1369 27.06C47.5947 27.0858 48.0548 27.0723 48.5387 27.0723C48.4523 26.8769 48.4058 26.672 48.2879 26.5235C47.9602 26.1103 47.7642 25.6644 47.7458 25.1289C47.7313 24.7018 47.6633 24.2768 47.6191 23.851ZM47.9438 17.4755C48.5051 18.6841 50.0172 18.8949 50.9607 17.9494C51.085 17.8247 51.2869 17.6966 51.071 17.4821C50.8511 17.2637 50.5171 17.2276 50.3633 17.4333C49.9885 17.9356 49.1901 17.9469 48.8934 17.3248C48.8622 17.2595 48.7212 17.1901 48.6551 17.2085C48.4211 17.2738 48.1978 17.3766 47.9438 17.4755ZM46.7068 25.5824L46.8067 25.592C46.8387 25.5085 46.8841 25.4275 46.9006 25.3409C47.044 24.5752 47.1926 23.8103 47.3182 23.0416C47.3864 22.622 47.4257 22.1962 47.4535 21.7716C47.479 21.3783 47.3368 21.2887 46.8667 21.2693C46.4955 21.2541 46.5041 21.4754 46.5142 21.7297C46.5609 22.9023 46.6036 24.0753 46.6517 25.2479C46.6564 25.36 46.6879 25.471 46.7068 25.5824ZM52.0196 21.2558C52.9236 21.4418 53.098 21.379 53.5909 20.7409C53.6489 20.6658 53.7022 20.5858 53.7683 20.5181C53.9933 20.2872 54.0714 20.0808 53.8024 19.7995C53.6477 19.6378 53.5937 19.3801 53.489 19.1683C53.4212 19.0309 53.363 18.8822 53.266 18.7678C53.0871 18.5568 52.9093 18.5882 52.8287 18.8525C52.7602 19.0761 52.7081 19.3166 52.7138 19.548C52.7229 19.9355 52.6074 20.266 52.3991 20.5824C52.2657 20.7844 52.1599 21.0042 52.0196 21.2558ZM51.7035 23.0907C51.6728 23.0924 51.6423 23.0942 51.6116 23.0956C51.5733 23.4026 51.5161 23.7087 51.5001 24.0169C51.4497 24.9863 51.2481 25.9122 50.7652 26.764C50.6328 26.9977 50.7165 27.098 50.9656 27.0868C51.3441 27.0696 51.7234 27.0558 52.0992 27.0139C52.169 27.006 52.2861 26.8642 52.2778 26.7972C52.1324 25.6258 51.9717 24.4562 51.8086 23.2871C51.799 23.2181 51.7396 23.156 51.7035 23.0907ZM47.043 21.0519C47.0634 21.0055 47.0836 20.9593 47.104 20.913C46.9332 20.6602 46.7493 20.4153 46.5943 20.1532C46.2838 19.6282 46.1293 19.0981 46.5397 18.5337C46.6031 18.4468 46.5294 18.2502 46.4923 18.1113C46.4867 18.0902 46.313 18.0745 46.2555 18.1133C45.8588 18.381 45.4454 18.5919 44.9549 18.6186C44.7242 18.6311 44.6886 18.756 44.7648 18.9614C44.8756 19.2601 45.0003 19.5607 45.0546 19.8719C45.1659 20.5127 45.4373 20.9304 46.1646 20.923C46.457 20.9203 46.7502 21.0062 47.043 21.0519ZM50.3736 26.403C50.4107 26.4126 50.4473 26.4222 50.4844 26.4317C50.5497 26.325 50.6445 26.2263 50.676 26.1105C50.8516 25.4631 51.0489 24.8184 51.1668 24.1597C51.2768 23.5447 51.2088 22.888 51.3785 22.2956C51.6045 21.5071 51.9815 20.7618 52.3016 20.001C52.393 19.7833 52.5411 19.5858 52.6052 19.3624C52.6364 19.2547 52.5701 19.0576 52.4812 18.9936C52.3883 18.9264 52.1763 18.9129 52.084 18.9752C51.6831 19.2471 51.306 19.5553 50.9209 19.8506C50.6079 20.0906 50.3685 20.364 50.4092 20.8018C50.4308 21.0364 50.4129 21.2747 50.41 21.5113C50.3903 23.0183 50.3692 24.5256 50.351 26.0327C50.3495 26.1562 50.3658 26.2796 50.3736 26.403ZM48.7215 26.5559C48.759 26.4207 48.7929 26.3549 48.7937 26.2884C48.8178 24.3453 48.8448 22.4021 48.848 20.4589C48.8482 20.2901 48.7175 20.0921 48.5935 19.9576C48.1467 19.4721 47.6795 19.0054 47.2115 18.5401C47.1469 18.4755 47.0249 18.413 46.9477 18.4306C46.8541 18.452 46.7286 18.5462 46.7065 18.6319C46.5933 19.0734 46.538 19.5148 46.8642 19.9109C47.0374 20.121 47.2142 20.3355 47.3422 20.5735C47.5181 20.9017 47.7453 21.2435 47.7834 21.5974C47.9173 22.8436 47.973 24.0979 48.072 25.3483C48.1091 25.8138 48.2373 26.2472 48.7215 26.5559ZM51.7445 17.7253C51.6939 17.6976 51.6431 17.6701 51.5922 17.6424C51.4279 17.8588 51.292 18.1067 51.0936 18.2856C50.4893 18.8314 49.7848 19.1043 49.0116 18.7087C48.6114 18.5042 48.2786 18.1587 47.9367 17.8537C47.7726 17.7074 47.6606 17.5643 47.4402 17.7722C47.1234 18.0706 47.1003 18.155 47.3928 18.4939C47.4739 18.3329 47.54 18.2012 47.6321 18.0183C47.7433 18.154 47.8681 18.3064 48.0381 18.5143C47.9489 18.4719 47.9229 18.4498 47.8956 18.4478C47.7763 18.4395 47.6566 18.437 47.5373 18.4323C47.5621 18.5423 47.5574 18.6748 47.6191 18.7573C47.7163 18.8878 47.8546 18.9899 47.9828 19.0949C48.3707 19.4125 48.9187 19.6525 49.1086 20.0604C49.3039 20.4793 49.1506 21.0607 49.1494 21.5709C49.1457 23.1018 49.1476 24.6329 49.1329 26.1638C49.1302 26.4418 49.21 26.5677 49.4962 26.5275C49.566 26.5176 49.6392 26.5191 49.7094 26.5272C49.9514 26.5549 50.0415 26.4632 50.0437 26.2092C50.0521 25.2364 50.085 24.2638 50.1024 23.291C50.1206 22.2826 50.1368 21.2742 50.142 20.2656C50.1432 20.0319 50.2483 19.9127 50.4389 19.7931C50.9806 19.4535 51.5112 19.0952 52.0299 18.7212C52.1238 18.6535 52.2154 18.4417 52.1761 18.3575C52.0702 18.1293 51.8934 17.9337 51.7445 17.7253ZM48.777 14.7546C49.2614 14.387 50.071 14.3568 50.5812 14.6783C50.7001 14.7529 50.8369 14.7988 50.9654 14.8579C50.9882 14.7104 51.0327 14.562 51.0277 14.4152C51.0236 14.2915 50.9914 14.1482 50.9204 14.051C50.6976 13.7457 50.4561 13.453 50.2105 13.1651C50.0531 12.9805 49.831 12.9145 49.6431 13.078C49.2958 13.3803 48.9563 13.6989 48.6574 14.0483C48.4267 14.3183 48.5173 14.6564 48.7868 14.7465C48.7355 14.95 48.6807 15.1527 48.6338 15.3573C48.6134 15.4469 48.6257 15.5458 48.5952 15.6307C48.4653 15.9912 48.5456 16.1463 48.9118 16.216C48.8286 16.5979 48.9217 17.033 49.1683 17.3462C49.3557 17.584 49.5871 17.6792 49.887 17.5432C50.2776 17.3663 50.3225 17.2009 50.1877 16.6055C50.1336 16.3667 50.0641 16.2141 49.7834 16.2192C49.5463 16.2236 49.3193 16.1971 49.3309 16.5402C49.3316 16.5601 49.2665 16.5822 49.2319 16.603C49.2479 16.4143 49.2982 16.2074 49.4203 16.1481C49.8104 15.9588 50.1651 16.166 50.2749 16.5905C50.2918 16.657 50.3552 16.7115 50.3972 16.7714C50.4451 16.7022 50.5448 16.62 50.5313 16.5657C50.4822 16.3665 50.4119 16.1677 50.3161 15.9863C50.2643 15.8877 50.1454 15.8246 50.0567 15.7456C50.0921 15.7159 50.1277 15.6864 50.1629 15.6567C50.3377 15.8671 50.5126 16.0774 50.6851 16.2852C51.2392 15.8538 51.1233 15.0351 50.467 14.7161C49.9008 14.441 49.3358 14.5752 48.777 14.7546ZM54.2829 18.1621C54.4612 17.9057 54.6401 17.6492 54.8277 17.3795C54.5293 17.3081 54.1621 17.1074 53.8702 17.1859C53.6295 17.2507 53.4676 17.6404 53.3075 17.9079C53.2954 17.928 53.5664 18.141 53.7238 18.2328C53.8882 18.3285 54.0751 18.4799 54.251 18.236C54.1232 18.5747 54.1279 18.8864 54.3193 19.2206C54.4345 19.4216 54.5904 19.6702 54.3782 19.9419C54.2807 20.067 54.2043 20.2494 54.2058 20.405C54.2237 22.1241 54.2571 23.8427 54.292 25.5613C54.2957 25.7544 54.3345 25.9468 54.3591 26.1559C54.7363 25.9515 54.8073 25.8457 54.8041 25.4663C54.7842 23.1423 54.7612 20.8182 54.7376 18.4942C54.7366 18.4127 54.7469 18.3033 54.7012 18.2556C54.5917 18.1415 54.491 17.8686 54.2829 18.1621ZM45.3224 18.2574C45.5778 18.1396 45.8488 18.0453 46.0826 17.8944C46.2047 17.8156 46.2619 17.6367 46.3484 17.503C46.2145 17.476 46.0789 17.4188 45.947 17.4264C45.1561 17.4716 45.1566 17.4767 45.3258 18.266C45.2578 18.1467 45.1897 18.0274 45.0632 17.8053C44.9203 18.0176 44.8146 18.1747 44.7088 18.3317C44.8851 18.328 45.0615 18.3271 45.2371 18.318C45.2666 18.3163 45.2941 18.2785 45.3224 18.2574ZM45.9573 15.3318C46.0291 15.5183 46.1008 15.7044 46.1725 15.8906C45.9102 15.7529 45.6476 15.615 45.385 15.4771L45.3231 15.5645L45.4562 16.029C45.3319 15.9591 45.2074 15.8891 45.0829 15.8192C45.1035 15.9534 45.12 16.0887 45.1475 16.2214C45.1563 16.2636 45.1954 16.2997 45.2209 16.3385C45.1376 16.2894 45.0541 16.2403 44.8726 16.1336C44.9237 16.4882 44.9608 16.7378 44.9957 16.9879C45.0215 17.1744 45.0657 17.3655 45.3061 17.329C45.6768 17.2725 46.1077 17.4262 46.3928 17.0431C46.3992 17.0347 46.3946 17.0188 46.3997 17.0087C46.597 16.6116 46.3931 16.2806 46.2251 15.9436C46.2931 15.9971 46.3614 16.0506 46.5076 16.1655C46.4535 15.8087 46.4356 15.537 46.3621 15.2818C46.3314 15.1752 46.1823 15.1029 46.0868 15.0147C46.046 15.1244 46.005 15.2339 45.9635 15.3421C45.9436 15.2523 45.9409 15.1532 45.8994 15.0744C45.847 14.9757 45.7633 14.8935 45.693 14.8042C45.6311 14.9014 45.5388 14.9919 45.5159 15.0977C45.4963 15.1895 45.5353 15.3095 45.5852 15.3959C45.6326 15.4781 45.7269 15.5333 45.8009 15.6003C45.8529 15.5107 45.9053 15.4214 45.9573 15.3318ZM51.2417 27.3562C51.0255 27.3518 50.8091 27.3471 50.593 27.3427C50.4716 27.2988 50.351 27.2286 50.2284 27.2247C50.1793 27.223 50.126 27.3682 50.0747 27.4465C50.1577 27.4819 50.2395 27.5393 50.3242 27.5447C50.3802 27.5484 50.4407 27.4765 50.4991 27.4382C50.5974 27.7197 50.8337 27.5876 51.0056 27.5813C51.0842 27.5783 51.1577 27.4311 51.2333 27.3493C51.3699 27.3741 51.5065 27.3989 51.6431 27.4237C51.6431 27.3464 51.6571 27.205 51.6416 27.2016C51.4664 27.1645 51.2869 27.1483 51.1086 27.1265C51.1012 27.1611 51.0941 27.196 51.0869 27.2306C51.1385 27.2725 51.1901 27.3142 51.2417 27.3562ZM47.7195 27.3565C47.7645 27.3027 47.8097 27.2487 47.9133 27.125C47.7016 27.125 47.567 27.0961 47.4555 27.1346C47.3737 27.1628 47.3226 27.2794 47.2577 27.3565C47.3432 27.3923 47.4282 27.4544 47.5144 27.4559C47.5852 27.4571 47.6571 27.3866 47.7286 27.3479C47.8296 27.6379 48.0823 27.6929 48.455 27.4941C48.2619 27.1454 47.9733 27.3363 47.7195 27.3565ZM42.768 12.7783H56.8196C56.8311 12.8934 56.8503 12.9958 56.8503 13.0981C56.8505 15.8548 56.9073 18.613 56.8319 21.3675C56.7501 24.3362 55.2529 26.4605 52.548 27.6242C48.6291 29.3102 44.173 27.113 43.0411 22.9977C42.8798 22.4104 42.7862 21.7859 42.7798 21.1773C42.752 18.504 42.768 15.8302 42.768 13.1567V12.7783Z" fill="white"/>
<path fill-rule="evenodd" clip-rule="evenodd" d="M19.6419 25.0021C20.0216 24.9998 20.4019 24.9859 20.7809 24.9998C21.0096 25.0084 21.1747 24.9439 21.268 24.7311C21.5478 24.0948 21.8406 23.4633 22.0978 22.8179C22.1941 22.5759 22.2056 22.3003 22.2609 22.0139H19.6424C19.6424 21.0374 19.6421 20.0607 19.6421 19.084H22.2645V16.0951H19.6414V13.1899H17.0138V16.0954H14.3472V13.1897H11.6659V16.0949H9.01324V13.3529C9.00293 13.3529 8.99261 13.3531 8.98229 13.3531V21.114H9.03216V19.0842H11.6661C11.6587 20.0624 11.6514 21.0404 11.6438 22.0186L11.6558 22.0078H9.06385C9.11617 22.8469 9.49199 23.8651 10.0159 24.6982C10.1515 24.9139 10.3006 25.0153 10.5603 25.0006C10.9211 24.9802 11.2839 24.9954 11.661 24.9954C11.661 25.4418 11.6425 25.8227 11.6708 26.1999C11.6813 26.3408 11.7658 26.5371 11.8774 26.5989C12.4236 26.902 12.9847 27.1811 13.5531 27.4414C13.7904 27.5504 14.0586 27.5926 14.3728 27.6822V25.0028H17.0126V27.6547C17.9512 27.4574 18.7836 27.0903 19.535 26.5408C19.5996 26.4937 19.6581 26.3901 19.6588 26.3123C19.6635 25.8757 19.6495 25.4389 19.6419 25.0021ZM8.56152 12.7656H22.716V13.1745C22.716 15.6929 22.6829 18.212 22.7283 20.7297C22.7558 22.2338 22.4564 23.6206 21.6608 24.899C20.1504 27.3256 17.1757 28.6486 14.4261 28.1126C11.4242 27.5273 9.1567 25.2617 8.67132 22.3482C8.605 21.9516 8.55513 21.5469 8.55366 21.1459C8.54334 18.4373 8.54826 15.7287 8.5485 13.0201C8.5485 12.9499 8.55538 12.8795 8.56152 12.7656Z" fill="white"/>
<path fill-rule="evenodd" clip-rule="evenodd" d="M5.10548 70.9802V73.0876H0.87146V68.8805C1.50078 68.8805 2.11413 68.8724 2.7265 68.893C2.78914 68.8952 2.89329 69.0694 2.89722 69.1674C2.91564 69.6292 2.90385 70.0926 2.90778 70.5552C2.90876 70.6953 2.92448 70.8352 2.93455 70.9917C3.67858 70.9917 4.39756 70.9917 5.11653 70.9915L5.10548 70.9802Z" fill="white"/>
<path fill-rule="evenodd" clip-rule="evenodd" d="M35.1887 70.9788L30.8378 70.978L30.8493 70.9898V68.9043H35.1769V70.9903L35.1887 70.9788Z" fill="white"/>
<path fill-rule="evenodd" clip-rule="evenodd" d="M30.8377 70.9788V73.0888H26.5646V70.9775L26.5536 70.9888C27.3109 70.9984 28.0682 71.0151 28.8255 71.0161C29.5 71.0168 30.1747 70.9999 30.8493 70.9908C30.8493 70.9905 30.8377 70.9788 30.8377 70.9788Z" fill="white"/>
<path fill-rule="evenodd" clip-rule="evenodd" d="M9.36462 70.9952C10.6328 71.0028 11.9011 71.0106 13.1693 71.018C13.309 71.019 13.4488 71.0182 13.6129 71.0182V73.0812C13.5272 73.0912 13.4481 73.1082 13.369 73.1082C12.1592 73.1101 10.9492 73.1037 9.73922 73.1145C9.49285 73.1167 9.40786 73.0436 9.40933 72.7928C9.41252 72.1901 9.38919 71.5871 9.37617 70.9844C9.37592 70.9844 9.36462 70.9952 9.36462 70.9952Z" fill="white"/>
<path fill-rule="evenodd" clip-rule="evenodd" d="M26.5602 2.31543V4.42596H22.31C22.31 3.78888 22.3009 3.16381 22.3238 2.53974C22.3262 2.47666 22.5195 2.36991 22.6252 2.36868C23.7521 2.35617 24.8796 2.3623 26.0068 2.35936C26.195 2.35887 26.3831 2.3385 26.5713 2.32721C26.5713 2.32696 26.5602 2.31543 26.5602 2.31543Z" fill="white"/>
<path fill-rule="evenodd" clip-rule="evenodd" d="M2.98195 47.3923H0.873413V43.1394C1.50936 43.1394 2.13426 43.1305 2.75793 43.1534C2.82057 43.1558 2.92619 43.3514 2.92742 43.4582C2.9397 44.6325 2.93405 45.8072 2.93651 46.9815C2.937 47.1221 2.95837 47.2628 2.9704 47.4034L2.98195 47.3923Z" fill="white"/>
<path fill-rule="evenodd" clip-rule="evenodd" d="M2.95406 25.9336C2.94792 27.2146 2.93048 28.4957 2.94251 29.7767C2.94546 30.1009 2.8617 30.2121 2.52764 30.1947C1.98601 30.1667 1.44168 30.1873 0.875 30.1873V25.9454H2.9656L2.95406 25.9336Z" fill="white"/>
<path fill-rule="evenodd" clip-rule="evenodd" d="M63.0758 25.9311H60.9663V21.7002H63.0336V22.1002C63.0336 23.2517 63.0326 24.4031 63.035 25.5546C63.0353 25.6839 63.054 25.813 63.0643 25.9424L63.0758 25.9311Z" fill="white"/>
<path fill-rule="evenodd" clip-rule="evenodd" d="M2.96552 25.9453C2.97338 24.6753 2.98149 23.4056 2.98935 22.1358C2.99009 21.9967 2.98935 21.8575 2.98935 21.6982H5.05957V25.9333C4.346 25.9333 3.65011 25.9333 2.95398 25.9335L2.96552 25.9453Z" fill="white"/>
<path fill-rule="evenodd" clip-rule="evenodd" d="M35.177 70.991C36.3617 71.0001 37.5464 71.0109 38.7311 71.0173C39.4294 71.0212 39.4297 71.018 39.4294 71.7123C39.4294 72.0919 39.4275 72.4716 39.43 72.851C39.4309 73.0189 39.3825 73.1131 39.1865 73.1121C37.8827 73.1065 36.5788 73.1092 35.1888 73.1092V70.9795L35.177 70.991Z" fill="white"/>
<path fill-rule="evenodd" clip-rule="evenodd" d="M32.9835 4.4496C32.3785 4.4496 31.7738 4.44273 31.169 4.45353C30.957 4.45721 30.8679 4.38997 30.8716 4.17155C30.8802 3.66183 30.8792 3.15138 30.8721 2.64166C30.8694 2.43233 30.9421 2.35011 31.1626 2.35159C32.3842 2.35993 33.6055 2.35993 34.827 2.35159C35.041 2.35011 35.1255 2.41736 35.1218 2.63405C35.1132 3.13199 35.1105 3.63042 35.1235 4.12836C35.1297 4.37181 35.0498 4.46138 34.7978 4.45476C34.1933 4.43905 33.5883 4.4496 32.9835 4.4496Z" fill="white"/>
<path fill-rule="evenodd" clip-rule="evenodd" d="M39.5024 4.44719V2.3882C39.6184 2.37838 39.7208 2.36194 39.8235 2.36194C40.9974 2.36022 42.1715 2.36783 43.3457 2.35556C43.6186 2.35261 43.7298 2.42133 43.7166 2.71337C43.695 3.19879 43.7225 3.68618 43.7006 4.1716C43.6964 4.26657 43.5638 4.43443 43.4889 4.43541C42.1742 4.45186 40.8591 4.44719 39.5024 4.44719Z" fill="white"/>
<path fill-rule="evenodd" clip-rule="evenodd" d="M0.85134 55.9016V54.3244C0.85134 53.5523 0.859201 52.7802 0.846428 52.0084C0.842743 51.7704 0.927979 51.6965 1.15544 51.7014C1.65408 51.7124 2.1537 51.6933 2.65136 51.7151C2.74863 51.7196 2.92131 51.854 2.92205 51.9299C2.93507 53.2239 2.92672 54.5182 2.9218 55.8125C2.9218 55.8336 2.90264 55.8545 2.87955 55.9016H0.85134Z" fill="white"/>
<path fill-rule="evenodd" clip-rule="evenodd" d="M52.4065 73.1084V71.0182H53.3765C54.3264 71.0182 55.2767 71.0266 56.2264 71.0128C56.4838 71.0092 56.5904 71.0735 56.5806 71.3478C56.5626 71.846 56.5848 72.3457 56.5661 72.8436C56.5624 72.9344 56.444 73.0964 56.3769 73.0971C55.0626 73.1123 53.7474 73.1084 52.4065 73.1084Z" fill="white"/>
<path fill-rule="evenodd" clip-rule="evenodd" d="M9.36047 4.44782H6.46664C6.12226 4.44782 5.77788 4.43874 5.43423 4.45076C5.2306 4.45812 5.15863 4.37272 5.15986 4.18007C5.16428 3.65784 5.14979 3.13511 5.17337 2.61386C5.17754 2.52625 5.33229 2.37311 5.419 2.37213C6.65308 2.35618 7.88715 2.35716 9.12098 2.37066C9.20179 2.37164 9.34745 2.50564 9.34991 2.58147C9.36882 3.18469 9.36047 3.78864 9.36047 4.44782Z" fill="white"/>
<path fill-rule="evenodd" clip-rule="evenodd" d="M17.923 4.42975H13.7489C13.7489 3.78236 13.7433 3.14724 13.759 2.51285C13.7605 2.46058 13.9044 2.36806 13.9828 2.36757C15.2149 2.35824 16.4467 2.35677 17.6788 2.37027C17.7611 2.37125 17.9097 2.50352 17.9122 2.57837C17.9313 3.1811 17.923 3.78457 17.923 4.42975Z" fill="white"/>
<path fill-rule="evenodd" clip-rule="evenodd" d="M47.985 71.0182V73.076C47.8929 73.088 47.8141 73.1074 47.735 73.1074C46.536 73.1093 45.3368 73.1027 44.1376 73.114C43.8903 73.1162 43.8019 73.0411 43.809 72.792C43.8235 72.2938 43.8024 71.7942 43.824 71.2965C43.8279 71.2008 43.9598 71.031 44.0345 71.03C45.3381 71.0135 46.6419 71.0182 47.985 71.0182Z" fill="white"/>
<path fill-rule="evenodd" clip-rule="evenodd" d="M0.869751 64.49V60.3146C1.51258 60.3146 2.13772 60.3087 2.76237 60.3239C2.82133 60.3254 2.92621 60.4594 2.9267 60.5325C2.93702 61.7792 2.93776 63.0261 2.92498 64.2728C2.92425 64.346 2.79603 64.4785 2.7243 64.4804C2.12004 64.4971 1.51528 64.49 0.869751 64.49Z" fill="white"/>
<path fill-rule="evenodd" clip-rule="evenodd" d="M63.0313 60.196H60.9709V56.035C61.6098 56.035 62.2345 56.0304 62.8589 56.0427C62.9174 56.0439 63.0237 56.1524 63.024 56.2115C63.0335 57.5254 63.0313 58.8394 63.0313 60.196Z" fill="white"/>
<path fill-rule="evenodd" clip-rule="evenodd" d="M3.00916 60.1783H5.05432V56.0586H3.00916V60.1783Z" fill="white"/>
<path fill-rule="evenodd" clip-rule="evenodd" d="M52.2776 4.42865H48.0969C48.0969 3.78715 48.09 3.16331 48.1077 2.54021C48.1094 2.47837 48.2617 2.36941 48.345 2.36867C49.5776 2.35763 50.8099 2.35689 52.0425 2.37063C52.1216 2.37162 52.2648 2.50855 52.2673 2.58561C52.286 3.18785 52.2776 3.79083 52.2776 4.42865Z" fill="white"/>
<path fill-rule="evenodd" clip-rule="evenodd" d="M60.8452 4.42932H56.6669C56.6669 3.78267 56.6615 3.14754 56.677 2.51267C56.6782 2.46039 56.8222 2.36812 56.9 2.36738C58.1326 2.3583 59.3652 2.35683 60.5976 2.37008C60.6809 2.37106 60.8317 2.50285 60.8341 2.5777C60.8538 3.18043 60.8452 3.78389 60.8452 4.42932Z" fill="white"/>
<path fill-rule="evenodd" clip-rule="evenodd" d="M5.03984 8.70713H2.98928V7.30534C2.98928 6.48542 2.99664 5.66526 2.9851 4.84559C2.98166 4.61416 3.05511 4.52729 3.28797 4.53244C3.78661 4.54349 4.28599 4.53661 4.78487 4.53563C4.95141 4.53514 5.08479 4.54594 5.08333 4.77712C5.07546 6.04859 5.07816 7.32006 5.0757 8.59154C5.0757 8.62418 5.05581 8.65657 5.03984 8.70713Z" fill="white"/>
<path fill-rule="evenodd" clip-rule="evenodd" d="M0.876221 34.5766C1.51242 34.5766 2.12749 34.5695 2.74182 34.5869C2.8079 34.5887 2.92556 34.7317 2.9263 34.81C2.93809 36.0449 2.93809 37.2803 2.9263 38.5152C2.92556 38.5955 2.8106 38.7422 2.74526 38.744C2.13068 38.7616 1.51561 38.7545 0.876221 38.7545V34.5766Z" fill="white"/>
<path fill-rule="evenodd" clip-rule="evenodd" d="M62.9923 34.4514H60.9449V33.914C60.9449 32.8104 60.9516 31.707 60.94 30.6039C60.9373 30.3548 61.0159 30.2699 61.263 30.2767C61.7607 30.2907 62.2593 30.2848 62.7572 30.2794C62.9442 30.2777 63.038 30.3315 63.0368 30.5423C63.0286 31.7998 63.0313 33.0573 63.0289 34.3147C63.0289 34.3484 63.0115 34.3817 62.9923 34.4514Z" fill="white"/>
<path fill-rule="evenodd" clip-rule="evenodd" d="M5.06692 30.2811V34.4403H3.01905C3.00947 34.3539 2.99105 34.2636 2.9908 34.173C2.98884 32.9855 2.99522 31.7977 2.98466 30.6099C2.9827 30.3677 3.0473 30.2705 3.30178 30.2766C3.88 30.2909 4.45848 30.2811 5.06692 30.2811Z" fill="white"/>
<path fill-rule="evenodd" clip-rule="evenodd" d="M3.00867 17.2594H5.05506V13.1387H3.00867V17.2594Z" fill="white"/>
<path fill-rule="evenodd" clip-rule="evenodd" d="M63.0326 8.71266H60.9781C60.966 8.6221 60.9466 8.54332 60.9464 8.4643C60.9444 7.26571 60.9503 6.06688 60.9402 4.86805C60.9383 4.62779 61.0011 4.52448 61.2566 4.53159C61.7548 4.54583 62.2539 4.52472 62.7511 4.54632C62.8481 4.55074 63.0195 4.68375 63.0205 4.75909C63.0375 6.06247 63.0326 7.36609 63.0326 8.71266Z" fill="white"/>
<path fill-rule="evenodd" clip-rule="evenodd" d="M0.875977 8.83249C1.51291 8.83249 2.12774 8.82538 2.74207 8.8428C2.80815 8.84476 2.92531 8.98857 2.9263 9.0676C2.93809 10.3025 2.93809 11.5377 2.9263 12.7726C2.92556 12.8521 2.81011 12.9971 2.74477 12.9991C2.13019 13.0165 1.51537 13.0094 0.875977 13.0094V8.83249Z" fill="white"/>
<path fill-rule="evenodd" clip-rule="evenodd" d="M18.048 73.0779H22.1815V71.043H18.048V73.0779Z" fill="white"/>
<path fill-rule="evenodd" clip-rule="evenodd" d="M0.896205 17.3985C1.51472 17.3985 2.13961 17.3928 2.76402 17.4081C2.82248 17.4093 2.92638 17.543 2.92712 17.6159C2.93719 18.8614 2.93916 20.1068 2.9227 21.3521C2.92172 21.4345 2.7596 21.5813 2.66724 21.5852C2.14649 21.6078 1.62378 21.6075 1.10303 21.5847C1.01583 21.5808 0.86329 21.4289 0.862308 21.344C0.847815 20.0749 0.853219 18.8057 0.855921 17.5364C0.855921 17.5038 0.874344 17.4709 0.896205 17.3985Z" fill="white"/>
<path fill-rule="evenodd" clip-rule="evenodd" d="M60.9745 17.2721H63.0081V13.1377H60.9745V17.2721Z" fill="white"/>
<path fill-rule="evenodd" clip-rule="evenodd" d="M8.61999 66.1694C8.61999 65.2101 8.61335 64.2746 8.62318 63.3394C8.6276 62.9143 8.61532 62.4797 8.69785 62.0669C8.88896 61.113 9.80739 60.5085 10.8373 60.606C11.7292 60.6904 12.4902 61.5184 12.5008 62.447C12.5138 63.5983 12.5057 64.75 12.5052 65.9014C12.5052 65.9824 12.4912 66.0634 12.4814 66.1694H8.61999Z" fill="white"/>
<path fill-rule="evenodd" clip-rule="evenodd" d="M13.3314 57.5494H11.2118C11.2 57.4591 11.1809 57.3801 11.1806 57.3011C11.1787 56.3994 11.1745 55.498 11.1816 54.5964C11.1865 53.9681 11.6392 53.5249 12.259 53.5225C12.8772 53.52 13.3471 53.9669 13.353 54.5849C13.3611 55.4863 13.356 56.3879 13.3545 57.2895C13.3545 57.3695 13.3407 57.4495 13.3314 57.5494Z" fill="white"/>
<path fill-rule="evenodd" clip-rule="evenodd" d="M9.99909 57.5698C9.30443 57.5698 8.65423 57.5779 8.00526 57.5582C7.93673 57.556 7.81686 57.3921 7.81563 57.302C7.80335 56.3884 7.79549 55.4742 7.81735 54.5608C7.83234 53.9406 8.2902 53.5239 8.89496 53.5234C9.4894 53.5232 9.9787 53.9546 9.99295 54.5561C10.0158 55.5397 9.99909 56.5241 9.99909 57.5698Z" fill="white"/>
<path fill-rule="evenodd" clip-rule="evenodd" d="M57.4027 66.1764H53.5617C53.5617 64.7854 53.4671 63.4054 53.5936 62.0461C53.6835 61.0816 54.6673 60.5216 55.6965 60.606C56.5712 60.6777 57.3602 61.4954 57.3928 62.4697C57.4339 63.6901 57.4027 64.913 57.4027 66.1764Z" fill="white"/>
<path fill-rule="evenodd" clip-rule="evenodd" d="M54.8431 57.5511H52.6859C52.6786 57.4083 52.6673 57.2817 52.667 57.1553C52.6658 56.301 52.6609 55.447 52.669 54.5929C52.6751 53.9627 53.1281 53.523 53.75 53.5225C54.3646 53.5217 54.8357 53.9723 54.8409 54.5893C54.849 55.5613 54.8431 56.5334 54.8431 57.5511Z" fill="white"/>
<path fill-rule="evenodd" clip-rule="evenodd" d="M56.0284 57.5469C56.0284 56.5012 56.0029 55.4822 56.0385 54.4655C56.0584 53.8949 56.5853 53.5022 57.1765 53.5243C57.7469 53.5457 58.191 53.9693 58.1983 54.5413C58.2116 55.5347 58.2023 56.5284 58.2023 57.5469H56.0284Z" fill="white"/>
<path fill-rule="evenodd" clip-rule="evenodd" d="M34.3942 25.4077C34.3942 26.5474 34.3969 27.687 34.3917 28.8265C34.3907 29.0405 34.4116 29.1983 34.687 29.1939C35.2802 29.1845 35.8739 29.1872 36.4671 29.1929C36.6855 29.1951 36.7533 29.0928 36.753 28.8878C36.7491 26.5967 36.753 24.3055 36.7471 22.0146C36.7459 21.5447 36.5619 21.1601 36.1291 20.9299C35.3158 20.497 34.4116 21.06 34.3983 22.0244C34.3824 23.1521 34.3947 24.28 34.3942 25.4077ZM37.2873 29.7468H33.8717C33.8624 29.6329 33.8449 29.52 33.8449 29.4071C33.8435 26.9118 33.8403 24.4165 33.8464 21.9214C33.8481 21.0514 34.4723 20.3353 35.2821 20.243C36.2595 20.1316 37.0377 20.629 37.2679 21.5169C37.2946 21.6185 37.3059 21.727 37.3059 21.8325C37.3086 24.3873 37.3089 26.9417 37.3086 29.4965C37.3086 29.5664 37.2968 29.6361 37.2873 29.7468Z" fill="white"/>
<path fill-rule="evenodd" clip-rule="evenodd" d="M31.6208 25.4573C31.6208 24.3652 31.6318 23.2729 31.6129 22.1811C31.608 21.9052 31.5577 21.6063 31.4383 21.3619C31.2199 20.9155 30.6567 20.6981 30.1981 20.8161C29.6017 20.9695 29.2678 21.3857 29.2656 22.0351C29.2588 24.3022 29.2676 26.5695 29.2568 28.8369C29.2553 29.1345 29.3803 29.1998 29.6383 29.1952C30.1723 29.1856 30.7068 29.1802 31.2403 29.1974C31.537 29.2069 31.6291 29.0958 31.6259 28.8047C31.6129 27.6891 31.6205 26.5732 31.6208 25.4573ZM32.1548 29.7464H28.7395C28.7299 29.6322 28.713 29.5193 28.713 29.4065C28.7117 26.9114 28.709 24.416 28.7144 21.9207C28.7161 21.0654 29.3246 20.3503 30.1143 20.2458C31.0956 20.1157 31.8726 20.5923 32.1229 21.4834C32.1543 21.5955 32.1732 21.7155 32.1732 21.8321C32.1767 24.3866 32.1769 26.9413 32.1764 29.496C32.1764 29.5657 32.1646 29.6357 32.1548 29.7464Z" fill="white"/>
<path fill-rule="evenodd" clip-rule="evenodd" d="M29.6837 62.0738C29.6837 63.0709 29.6916 64.0682 29.6786 65.0653C29.6751 65.3468 29.7429 65.4619 30.0527 65.4597C32.0227 65.4472 33.9934 65.4474 35.9634 65.4597C36.2709 65.4617 36.3466 65.349 36.3412 65.0661C36.3267 64.3424 36.3422 63.6179 36.335 62.8937C36.3213 61.5062 36.3611 60.1142 36.2667 58.7315C36.1393 56.8608 34.1756 55.4808 32.3548 55.8997C30.7476 56.2696 29.698 57.5717 29.6852 59.2246C29.6781 60.1743 29.684 61.124 29.6837 62.0738ZM32.9485 55.3407C33.1369 55.3068 33.2666 55.2543 33.3908 55.2651C35.0029 55.4065 36.4603 56.6843 36.7954 58.2616C36.8612 58.5718 36.8821 58.8967 36.883 59.2147C36.8904 61.365 36.8872 63.5156 36.886 65.6659C36.886 65.7812 36.8732 65.8966 36.8649 66.0298H29.1701C29.1563 65.9329 29.132 65.8426 29.132 65.7522C29.1337 63.4594 29.1158 61.1663 29.1487 58.8736C29.173 57.1788 30.5835 55.6087 32.2614 55.3287C32.4478 55.2977 32.6365 55.2676 32.8239 55.2661C32.8924 55.2654 32.9615 55.3493 32.9485 55.3407Z" fill="white"/>
<path fill-rule="evenodd" clip-rule="evenodd" d="M58.2055 46.6037C58.2055 47.0541 58.1972 47.5046 58.209 47.9545C58.2148 48.1859 58.1245 48.272 57.8972 48.2686C57.3763 48.2603 56.8548 48.2612 56.3335 48.2686C56.1139 48.2715 56.0167 48.2038 56.0199 47.9623C56.0316 47.0619 56.0169 46.161 56.0277 45.2606C56.0348 44.6613 56.5288 44.2024 57.1343 44.2041C57.7282 44.2058 58.1849 44.6468 58.2006 45.253C58.2124 45.7028 58.2031 46.1534 58.2031 46.6037H58.2055Z" fill="white"/>
<path fill-rule="evenodd" clip-rule="evenodd" d="M54.8437 46.6141C54.8439 47.0524 54.8336 47.4909 54.8481 47.9288C54.8559 48.167 54.7867 48.2758 54.5317 48.2699C54.011 48.2578 53.4895 48.2601 52.9685 48.2686C52.7378 48.2726 52.6602 48.1801 52.6629 47.9518C52.6725 47.0517 52.6607 46.1512 52.67 45.2508C52.6767 44.6572 53.1473 44.2078 53.7408 44.2041C54.3453 44.2002 54.823 44.6594 54.8429 45.2636C54.8437 45.2872 54.8437 45.311 54.8437 45.3348V46.6141Z" fill="white"/>
<path fill-rule="evenodd" clip-rule="evenodd" d="M7.81165 46.5741C7.81165 46.1353 7.79642 45.696 7.81558 45.2585C7.84333 44.6192 8.29506 44.1976 8.91332 44.2042C9.50457 44.2106 9.98798 44.6815 9.99682 45.2936C10.0093 46.1827 9.99559 47.072 10.0039 47.9612C10.0059 48.1668 9.95113 48.2704 9.72883 48.2677C9.18352 48.2608 8.63821 48.2616 8.09315 48.267C7.87551 48.2692 7.80231 48.1656 7.80526 47.9612C7.81116 47.4991 7.80698 47.0365 7.80698 46.5741H7.81165Z" fill="white"/>
<path fill-rule="evenodd" clip-rule="evenodd" d="M11.1797 46.5447C11.1802 46.1181 11.1746 45.6916 11.1817 45.2651C11.1918 44.6695 11.6538 44.2106 12.2389 44.2042C12.8528 44.1975 13.3448 44.6471 13.3519 45.2484C13.3627 46.1486 13.3497 47.0492 13.3595 47.9494C13.362 48.1754 13.2922 48.2728 13.0581 48.2687C12.5371 48.2596 12.0156 48.2581 11.4946 48.2697C11.2436 48.2751 11.1672 48.172 11.1748 47.9305C11.1896 47.4691 11.1792 47.0068 11.1797 46.5447Z" fill="white"/>
<path fill-rule="evenodd" clip-rule="evenodd" d="M21.8721 64.3041C21.8721 63.8184 21.8637 63.3322 21.8743 62.8468C21.8866 62.2838 22.299 61.8038 22.7976 61.7503C23.2648 61.7003 23.7242 62.0995 23.8418 62.6738C23.8792 62.8574 23.8951 63.0483 23.8966 63.236C23.9022 64.0893 23.8909 64.9424 23.904 65.7954C23.9079 66.0465 23.8256 66.1275 23.5783 66.1194C23.1052 66.1039 22.6306 66.1071 22.157 66.1184C21.9431 66.1233 21.8615 66.0507 21.8664 65.8325C21.8772 65.3233 21.8696 64.8135 21.8696 64.3041H21.8721Z" fill="white"/>
<path fill-rule="evenodd" clip-rule="evenodd" d="M42.1298 66.1147C42.1298 64.9785 42.094 63.9004 42.1419 62.8258C42.176 62.0505 42.8677 61.5697 43.4757 61.8282C43.8945 62.0061 44.132 62.3538 44.1421 62.7978C44.1654 63.8165 44.1558 64.8362 44.1433 65.8551C44.1421 65.9425 44.0207 66.101 43.9512 66.1035C43.3619 66.1233 42.7714 66.1147 42.1298 66.1147Z" fill="white"/>
<path fill-rule="evenodd" clip-rule="evenodd" d="M21.9402 53.0982C21.9402 52.695 21.9267 52.2913 21.9439 51.8891C21.9641 51.4103 22.3138 51.0645 22.7754 51.0348C23.2782 51.0026 23.7203 51.2743 23.7545 51.7526C23.8176 52.6368 23.8076 53.5264 23.809 54.4141C23.8093 54.4752 23.657 54.5869 23.5725 54.5901C23.1107 54.6072 22.6479 54.5935 22.1856 54.5996C21.9739 54.6026 21.9284 54.4892 21.9311 54.3076C21.9368 53.9046 21.9329 53.5014 21.9329 53.0982H21.9402Z" fill="white"/>
<path fill-rule="evenodd" clip-rule="evenodd" d="M44.0853 53.1246C44.0855 53.5163 44.0779 53.908 44.0885 54.2994C44.0941 54.507 44.0295 54.6054 43.8077 54.6008C43.357 54.5914 42.906 54.5932 42.455 54.6C42.2526 54.603 42.1922 54.5154 42.1944 54.3205C42.2025 53.561 42.188 52.8012 42.201 52.0419C42.2116 51.4276 42.6046 51.0401 43.16 51.0266C43.6562 51.0143 44.1347 51.4627 44.0905 52.0568C44.0637 52.4107 44.0853 52.7685 44.0853 53.1246Z" fill="white"/>
<path fill-rule="evenodd" clip-rule="evenodd" d="M21.9321 46.5871C21.9321 46.3469 21.9314 46.1488 21.9321 45.9508C21.935 45.2496 21.9262 44.5485 21.9456 43.8478C21.9581 43.386 22.3369 43.0235 22.7881 42.9943C23.2526 42.9644 23.71 43.2547 23.7525 43.706C23.8176 44.401 23.8119 45.1034 23.8205 45.8025C23.8306 46.5871 23.823 46.5871 23.0411 46.5871H21.9321Z" fill="white"/>
<path fill-rule="evenodd" clip-rule="evenodd" d="M44.082 46.5712H42.1977C42.1977 45.7309 42.1953 44.9056 42.2004 44.0805C42.2012 43.9524 42.2245 43.8214 42.2574 43.6972C42.3817 43.2316 42.801 42.9452 43.2699 42.996C43.715 43.0441 44.0722 43.4177 44.0783 43.8857C44.0904 44.7713 44.082 45.657 44.082 46.5712Z" fill="white"/>
<path fill-rule="evenodd" clip-rule="evenodd" d="M39.9258 55.0954C39.9258 54.0276 39.9143 52.9768 39.9388 51.9266C39.9423 51.7747 40.1194 51.6272 40.2161 51.4775C40.2928 51.6366 40.4313 51.7936 40.4362 51.9549C40.465 52.8671 40.4618 53.7802 40.4699 54.6929C40.4736 55.1155 40.1267 55.0119 39.9258 55.0954Z" fill="white"/>
<path fill-rule="evenodd" clip-rule="evenodd" d="M26.104 55.0721C25.5533 55.0276 25.5153 54.9948 25.5229 54.473C25.5359 53.6224 25.5568 52.7718 25.5779 51.9212C25.5799 51.8403 25.5907 51.7514 25.627 51.6815C25.6668 51.6047 25.7408 51.5455 25.7997 51.4785C25.8643 51.5379 25.9491 51.586 25.9891 51.6589C26.0451 51.76 26.0984 51.8795 26.0991 51.9917C26.1075 53.0182 26.104 54.045 26.104 55.0721Z" fill="white"/>
<path fill-rule="evenodd" clip-rule="evenodd" d="M19.6591 55.074C19.6591 54.0185 19.6584 52.9596 19.6611 51.9009C19.6611 51.8439 19.6751 51.7779 19.7066 51.7325C19.7692 51.6422 19.8483 51.5632 19.9203 51.4795C19.9881 51.5659 20.0875 51.6432 20.1165 51.7411C20.1659 51.9082 20.19 52.0881 20.1917 52.2631C20.1995 52.9971 20.1954 53.7309 20.1954 54.4652C20.1954 55.0068 20.1932 55.009 19.6591 55.074Z" fill="white"/>
<path fill-rule="evenodd" clip-rule="evenodd" d="M46.4311 55.0782C45.8448 55.0303 45.829 55.0139 45.829 54.4789C45.8293 53.7083 45.8106 52.937 45.8418 52.1679C45.8512 51.935 45.999 51.7082 46.0835 51.4785C46.1919 51.6842 46.3631 51.8807 46.3952 52.0977C46.4517 52.481 46.4277 52.8769 46.4301 53.2676C46.4338 53.8703 46.4311 54.4733 46.4311 55.0782Z" fill="white"/>
<path fill-rule="evenodd" clip-rule="evenodd" d="M26.0855 47.0546C25.5215 46.9635 25.5146 46.9635 25.523 46.4275C25.5363 45.5742 25.5532 44.7212 25.5849 43.8686C25.5905 43.717 25.6755 43.5685 25.7239 43.4188C25.7726 43.4119 25.8212 43.4051 25.8698 43.3984C25.9494 43.6019 26.0919 43.8034 26.0983 44.009C26.1277 44.9931 26.1206 45.978 26.1241 46.9628C26.1241 46.9937 26.0985 47.0249 26.0855 47.0546Z" fill="white"/>
<path fill-rule="evenodd" clip-rule="evenodd" d="M40.2684 43.373C40.3352 43.5858 40.4355 43.7633 40.4399 43.9431C40.4637 44.8573 40.4612 45.7722 40.4703 46.6868C40.4743 47.0692 40.1328 46.9681 39.9466 47.0922C39.6649 46.4554 39.8621 43.752 40.2684 43.373Z" fill="white"/>
<path fill-rule="evenodd" clip-rule="evenodd" d="M19.6446 47.1099C19.4024 45.8218 19.5728 43.7316 20.0059 43.3711C20.0752 43.6369 20.18 43.8629 20.1854 44.0909C20.2061 44.9577 20.1913 45.8254 20.1967 46.6927C20.1992 47.0832 19.8536 46.9575 19.6446 47.1099Z" fill="white"/>
<path fill-rule="evenodd" clip-rule="evenodd" d="M46.1912 43.4092C46.2694 43.6698 46.4074 43.9287 46.4153 44.1916C46.4425 45.1172 46.4258 46.0446 46.4234 46.9713C46.4234 47.002 46.3976 47.0324 46.3846 47.0611C45.8292 46.9674 45.8289 46.9674 45.8289 46.4665C45.8292 45.6942 45.8174 44.9214 45.8373 44.1496C45.8437 43.9044 45.935 43.6615 45.9876 43.4175C46.0554 43.4148 46.1234 43.4119 46.1912 43.4092Z" fill="white"/>
<path fill-rule="evenodd" clip-rule="evenodd" d="M49.2412 19.3931C49.3466 19.4375 49.4517 19.4817 49.5856 19.5381C49.6077 19.3754 49.6259 19.2404 49.6443 19.1055C49.6802 19.106 49.7165 19.1062 49.7524 19.1065C49.7649 19.2333 49.7777 19.3605 49.7944 19.529C49.9494 19.504 50.1022 19.479 50.2549 19.4542C50.2665 19.479 50.2778 19.5038 50.2893 19.5283C50.2387 19.5563 50.1879 19.6088 50.1378 19.6078C49.7119 19.6012 49.6725 19.6456 49.7322 20.0663C49.7546 20.2226 49.7597 20.3814 49.7728 20.5392C49.7173 20.5401 49.662 20.5411 49.6067 20.5423C49.6239 20.3443 49.6404 20.1465 49.6585 19.9487C49.678 19.7359 49.6735 19.5558 49.368 19.6122C49.3075 19.6233 49.2304 19.545 49.1611 19.5079C49.1877 19.4697 49.2147 19.4314 49.2412 19.3931Z" fill="white"/>
<path fill-rule="evenodd" clip-rule="evenodd" d="M51.7578 18.4864C51.5844 18.5676 51.4336 18.6383 51.3125 18.695C51.3751 18.5799 51.4567 18.4317 51.538 18.2832C51.5992 18.3195 51.6667 18.3482 51.7185 18.3946C51.7487 18.4216 51.7542 18.4768 51.7578 18.4864Z" fill="white"/>
<path fill-rule="evenodd" clip-rule="evenodd" d="M50.4075 14.944C50.3316 14.9676 50.2557 14.9912 50.1198 15.0331C50.2407 15.0952 50.3046 15.1281 50.3871 15.1703C50.2982 15.2299 50.2265 15.2773 50.1098 15.3551C50.0626 15.2292 49.9624 15.0481 49.9914 15.0243C50.0931 14.9406 50.239 14.9111 50.3684 14.8613C50.3814 14.8888 50.3942 14.9163 50.4075 14.944Z" fill="white"/>
<path fill-rule="evenodd" clip-rule="evenodd" d="M49.2876 14.8867C49.3345 14.9191 49.4487 14.9579 49.4804 15.032C49.5079 15.0958 49.46 15.2141 49.4092 15.2806C49.3819 15.3164 49.2785 15.2946 49.2092 15.2985C49.2181 15.2379 49.2247 15.1768 49.236 15.1167C49.2473 15.0556 49.263 14.9952 49.2876 14.8867Z" fill="white"/>
<path fill-rule="evenodd" clip-rule="evenodd" d="M45.2339 16.4252C45.3164 16.4444 45.3992 16.4635 45.482 16.4827C45.493 16.4058 45.5174 16.328 45.5115 16.2525C45.5051 16.1717 45.4704 16.0932 45.4481 16.0137C45.5225 16.1533 45.5969 16.2929 45.7222 16.5288C45.7883 16.3182 45.8251 16.2002 45.8622 16.0821C45.8843 16.0834 45.9064 16.0846 45.9288 16.0858C45.905 16.3145 45.8814 16.5433 45.8637 16.7104C45.7097 16.6591 45.5734 16.6228 45.4444 16.5678C45.368 16.5352 45.3036 16.4738 45.2339 16.4252Z" fill="white"/>
<path fill-rule="evenodd" clip-rule="evenodd" d="M19.6504 19.0915C18.7685 19.0915 17.887 19.0917 17.0051 19.092V16.0879C17.887 16.0881 18.7688 16.0881 19.6504 16.0884V19.0915Z" fill="white"/>
<path fill-rule="evenodd" clip-rule="evenodd" d="M11.6582 19.0922H14.3066V16.0879H11.6582V19.0922Z" fill="white"/>
<path fill-rule="evenodd" clip-rule="evenodd" d="M19.6501 25.009C18.7685 25.009 17.8872 25.0092 17.0056 25.0092C17.0054 24.0082 17.0054 23.0069 17.0054 22.0059C17.887 22.0059 18.7688 22.0059 19.6504 22.0061C19.6504 23.0069 19.6501 24.0079 19.6501 25.009Z" fill="white"/>
<path fill-rule="evenodd" clip-rule="evenodd" d="M11.6439 22.0196H14.3002C14.3128 22.1602 14.3307 22.2731 14.3312 22.3862C14.3339 23.1325 14.3243 23.8791 14.3373 24.6251C14.3415 24.8798 14.2747 24.9839 13.9998 24.9778C13.2442 24.9616 12.4879 24.9721 11.6564 24.9721C11.6564 23.9615 11.6564 22.985 11.6562 22.0088C11.656 22.0088 11.6439 22.0196 11.6439 22.0196Z" fill="white"/>
<path fill-rule="evenodd" clip-rule="evenodd" d="M17.0135 19.084C17.0135 20.0607 17.0135 21.0377 17.0133 22.0147H14.3914V19.084H17.0135Z" fill="white"/>
</g>
</svg>
