<svg width="130" height="30" viewBox="0 0 130 30" fill="none" xmlns="http://www.w3.org/2000/svg">
<g clip-path="url(#clip0_2004_2200)">
<path fill-rule="evenodd" clip-rule="evenodd" d="M128.451 16.3544L125.403 24.4238L121.951 16.3544H120.39L124.705 26.0006C124.423 26.6867 124.135 27.1614 123.842 27.4246C123.542 27.6891 123.156 27.8292 122.759 27.8178C122.491 27.8216 122.222 27.7933 121.96 27.7332C121.72 27.6717 121.489 27.5805 121.271 27.4617L120.794 28.601C121.098 28.7576 121.419 28.8799 121.75 28.9655C122.098 29.0508 122.456 29.0919 122.814 29.088C123.523 29.088 124.126 28.8816 124.622 28.4689C125.119 28.0563 125.568 27.351 125.972 26.3528L129.956 16.3506L128.451 16.3544Z" fill="white"/>
<path fill-rule="evenodd" clip-rule="evenodd" d="M40.2889 18.1159H35.074V12.9268H32.2469V26.0382H35.074V20.775H40.2889V26.0382H43.1159V12.9268H40.2889V18.1159Z" fill="white"/>
<path fill-rule="evenodd" clip-rule="evenodd" d="M53.4332 17.441C53.4332 18.003 53.2471 18.4527 52.8748 18.7901C52.5026 19.1274 51.9673 19.2961 51.2687 19.2961H48.4081V15.5309H51.2166C51.9145 15.5309 52.4592 15.6869 52.8506 15.9991C53.2421 16.311 53.4381 16.7793 53.4388 17.404L53.4332 17.441ZM55.5372 19.8856C56.0453 19.2173 56.2993 18.3525 56.2993 17.291V17.254C56.2993 15.8926 55.8738 14.8313 55.0226 14.0699C54.1715 13.3085 52.9813 12.9288 51.452 12.9307H45.5764V26.0384H48.4081V21.8432H50.6294L53.3839 26.0384H56.6883L53.5448 21.3561C54.332 21.0682 55.0229 20.5583 55.5372 19.8856Z" fill="white"/>
<path fill-rule="evenodd" clip-rule="evenodd" d="M71.9319 18.3489C71.7645 18.707 71.5188 19.0211 71.2135 19.2669C70.8793 19.5345 70.4981 19.7348 70.0903 19.8565C69.6212 19.9991 69.1337 20.0688 68.6442 20.0634H65.4608V14.2933H68.7177C69.7612 14.2933 70.5987 14.5338 71.2303 15.0148C71.8618 15.4957 72.1779 16.2107 72.1785 17.1594C72.1847 17.5697 72.1005 17.9762 71.9319 18.3489ZM72.3181 14.0408C71.8667 13.6692 71.3495 13.3894 70.7948 13.2167C70.1556 13.0163 69.4897 12.9183 68.821 12.9262H64.01V26.0377H65.4608V21.4115H68.5819C69.2398 21.4155 69.8949 21.3241 70.5277 21.1399C71.1101 20.9753 71.6566 20.6988 72.1376 20.3253C72.5954 19.9641 72.9687 19.5032 73.23 18.9763C73.5093 18.3939 73.6478 17.7517 73.6339 17.1034C73.6432 16.5016 73.5275 15.9046 73.2943 15.3518C73.0736 14.843 72.7394 14.3941 72.3181 14.0408Z" fill="white"/>
<path fill-rule="evenodd" clip-rule="evenodd" d="M78.4654 16.9075C78.1324 17.1532 77.8356 17.4465 77.5842 17.7781C77.3257 18.1181 77.1098 18.4896 76.9411 18.8841V16.3551H75.5258V26.0384H76.9393V22.1802C76.9278 21.5278 77.0273 20.8784 77.2333 20.2606C77.4061 19.744 77.6809 19.2689 78.041 18.8651C78.3753 18.4958 78.7865 18.2077 79.2443 18.0221C79.7082 17.8326 80.2037 17.7359 80.7034 17.7372H80.8132V16.186C80.3848 16.1707 79.9568 16.2279 79.5467 16.3551C79.1593 16.4782 78.7941 16.6648 78.4654 16.9075Z" fill="white"/>
<path fill-rule="evenodd" clip-rule="evenodd" d="M89.7903 22.6866C89.628 23.1253 89.3848 23.5281 89.0738 23.8733C88.764 24.2124 88.3888 24.4826 87.972 24.667C87.5265 24.8619 87.0459 24.9591 86.5613 24.9518C86.0803 24.9565 85.604 24.8544 85.1654 24.6527C84.7454 24.4619 84.366 24.189 84.0487 23.8496C83.7299 23.5034 83.4804 23.0971 83.3145 22.6534C83.1347 22.183 83.044 21.6821 83.0475 21.1772C83.0435 20.6765 83.1309 20.1795 83.3052 19.7114C83.4673 19.2721 83.7067 18.8667 84.0114 18.5153C84.3148 18.1705 84.6874 17.8965 85.104 17.7121C85.5502 17.5147 86.0322 17.4157 86.5185 17.4215C86.9996 17.4172 87.4758 17.5195 87.9143 17.7215C88.3346 17.9159 88.714 18.1919 89.031 18.5343C89.3531 18.8831 89.6059 19.292 89.7754 19.7389C89.9544 20.2096 90.0446 20.7104 90.0416 21.2151C90.0473 21.7156 89.9621 22.213 89.7903 22.6819V22.6866ZM90.1021 17.6418C89.6524 17.1798 89.1192 16.811 88.5321 16.5557C86.0527 15.4283 83.1467 16.5648 82.0415 19.0943C82.0159 19.1529 81.9914 19.2121 81.9679 19.2718C81.7227 19.894 81.5982 20.5588 81.6013 21.2294C81.5976 21.8969 81.7222 22.5587 81.9679 23.1774C82.2041 23.7752 82.5534 24.3194 82.9963 24.779C83.4439 25.2391 83.9736 25.6078 84.5568 25.865C85.1772 26.1378 85.8467 26.2749 86.5222 26.2676C87.2029 26.2736 87.8776 26.1366 88.5043 25.865C89.0978 25.6109 89.6356 25.2385 90.0862 24.7695C91.4698 23.2977 91.8794 21.1352 91.1331 19.2433C90.8964 18.6453 90.5459 18.101 90.1021 17.6418Z" fill="white"/>
<path fill-rule="evenodd" clip-rule="evenodd" d="M101.089 22.7275C100.913 23.1714 100.651 23.5741 100.318 23.9113C99.9997 24.2302 99.6264 24.4864 99.217 24.667C98.8144 24.8454 98.3801 24.9371 97.9412 24.9367C97.5 24.9392 97.0628 24.8507 96.656 24.6764C96.2533 24.5031 95.8905 24.2461 95.5905 23.9217C95.2759 23.5787 95.0298 23.1767 94.8656 22.7378C94.6819 22.2438 94.5918 21.7188 94.5995 21.1905C94.5913 20.6531 94.6816 20.1189 94.8656 19.6155C95.0246 19.1794 95.2679 18.7804 95.5812 18.442C95.8794 18.1267 96.2392 17.879 96.6374 17.7148C97.0513 17.5451 97.494 17.4596 97.9402 17.4633C98.3792 17.4631 98.8135 17.5552 99.216 17.7338C99.6259 17.9137 99.9995 18.1696 100.318 18.4886C100.65 18.8231 100.912 19.2225 101.089 19.663C101.283 20.1476 101.38 20.667 101.373 21.1905C101.378 21.7159 101.282 22.2373 101.089 22.7246V22.7275ZM101.318 18.2114C101.13 17.9311 100.918 17.6677 100.685 17.4244C100.445 17.1744 100.177 16.9545 99.8859 16.7693C99.5767 16.5751 99.2434 16.4239 98.895 16.3194C98.5018 16.2037 98.0943 16.1473 97.6852 16.1512C97.1097 16.1508 96.54 16.2687 96.0102 16.4979C95.4708 16.7304 94.9799 17.0662 94.5641 17.4871C94.1235 17.9405 93.7755 18.4788 93.5405 19.0705C93.0264 20.4463 93.0264 21.9669 93.5405 23.3426C93.7755 23.9344 94.1235 24.4727 94.5641 24.9262C94.9797 25.3479 95.4727 25.6816 96.0149 25.9087C96.5461 26.1325 97.1152 26.2474 97.6899 26.2466C98.0967 26.2512 98.5017 26.1943 98.8922 26.0777C99.2404 25.9715 99.5714 25.8138 99.8749 25.6096C100.167 25.4113 100.435 25.1786 100.673 24.9167C100.909 24.6576 101.126 24.3824 101.325 24.0926V26.0397H102.739V12.3691H101.325L101.318 18.2114Z" fill="white"/>
<mask id="mask0_2004_2200" style="mask-type:alpha" maskUnits="userSpaceOnUse" x="0" y="0" width="130" height="30">
<path d="M0 29.0884H129.956V0.4375H0V29.0884Z" fill="white"/>
</mask>
<g mask="url(#mask0_2004_2200)">
<path fill-rule="evenodd" clip-rule="evenodd" d="M105.534 26.0388H106.947V16.3545H105.534V26.0388Z" fill="white"/>
<path fill-rule="evenodd" clip-rule="evenodd" d="M105.442 14.2376H107.057V12.6455H105.442V14.2376Z" fill="white"/>
<path fill-rule="evenodd" clip-rule="evenodd" d="M117.057 22.0771C116.867 22.4733 116.602 22.8265 116.276 23.1157C115.949 23.4048 115.572 23.63 115.165 23.7803C114.748 23.937 114.307 24.0164 113.862 24.0148C113.432 24.017 113.006 23.9376 112.604 23.7803C112.214 23.6297 111.858 23.4003 111.557 23.1062C110.917 22.4777 110.561 21.6055 110.575 20.6987C110.569 20.233 110.657 19.771 110.832 19.3412C110.995 18.9484 111.236 18.5943 111.54 18.3016C111.841 18.013 112.197 17.7899 112.585 17.6456C112.995 17.4937 113.427 17.4175 113.862 17.4206C114.307 17.4194 114.748 17.4988 115.165 17.6551C115.572 17.8057 115.948 18.031 116.276 18.3196C116.603 18.6105 116.868 18.9657 117.057 19.3639C117.448 20.2253 117.448 21.2185 117.057 22.08V22.0771ZM117.295 18.0965C117.095 17.8293 116.874 17.5787 116.634 17.3476C116.387 17.1086 116.113 16.9009 115.817 16.7285C115.499 16.5462 115.16 16.4047 114.808 16.3071C113.857 16.0505 112.852 16.1062 111.934 16.4665C111.404 16.6735 110.918 16.9818 110.502 17.3751C110.076 17.7817 109.736 18.2723 109.502 18.8171C109.245 19.4229 109.118 20.0776 109.129 20.7377C109.117 21.3943 109.244 22.0458 109.502 22.6478C109.969 23.7249 110.84 24.5655 111.921 24.9802C112.452 25.1859 113.015 25.2905 113.583 25.2888C114.452 25.2888 115.186 25.0891 115.786 24.6898C116.372 24.3033 116.888 23.8153 117.31 23.2477V24.3869C117.31 25.5261 116.998 26.3847 116.374 26.9625C115.75 27.5403 114.912 27.8308 113.861 27.8341C113.205 27.839 112.554 27.7313 111.933 27.515C111.318 27.2945 110.737 26.9853 110.207 26.597L109.565 27.721C110.188 28.1648 110.876 28.5063 111.603 28.733C112.341 28.9603 113.108 29.0738 113.879 29.07C114.554 29.0789 115.227 28.9777 115.871 28.77C116.436 28.5876 116.955 28.2844 117.396 27.8805C117.827 27.4734 118.159 26.9702 118.368 26.4101C118.607 25.7511 118.722 25.0523 118.708 24.3499V16.3546H117.294L117.295 18.0965Z" fill="white"/>
<path fill-rule="evenodd" clip-rule="evenodd" d="M13.2123 1.78516C13.9421 1.78516 14.5337 2.38866 14.5337 3.13323C14.5337 3.87771 13.9421 4.4813 13.2123 4.4813C12.4825 4.4813 11.8909 3.87771 11.8909 3.13323C11.8909 2.38866 12.4825 1.78516 13.2123 1.78516Z" fill="white"/>
<path fill-rule="evenodd" clip-rule="evenodd" d="M2.33924 1.83165C3.04712 1.63808 3.77482 2.06661 3.96456 2.78878C4.15431 3.51095 3.73425 4.25334 3.02637 4.44691C2.31849 4.64048 1.59078 4.21195 1.40104 3.48978C1.2113 2.76761 1.63136 2.02522 2.33924 1.83165Z" fill="white"/>
<path fill-rule="evenodd" clip-rule="evenodd" d="M1.83399 23.6332C2.41141 23.1778 3.24129 23.2861 3.68759 23.8751C4.13407 24.4642 4.02789 25.3108 3.45057 25.7662C2.87316 26.2216 2.04328 26.1133 1.59688 25.5243C1.15049 24.9352 1.25667 24.0886 1.83399 23.6332Z" fill="white"/>
<path fill-rule="evenodd" clip-rule="evenodd" d="M13.2123 23.3545C13.9421 23.3545 14.5337 23.958 14.5337 24.7026C14.5337 25.4471 13.9421 26.0506 13.2123 26.0506C12.4825 26.0506 11.8909 25.4471 11.8909 24.7026C11.8909 23.958 12.4825 23.3545 13.2123 23.3545Z" fill="white"/>
<path fill-rule="evenodd" clip-rule="evenodd" d="M13.2123 12.5693C13.9421 12.5693 14.5337 13.1729 14.5337 13.9174C14.5337 14.6619 13.9421 15.2655 13.2123 15.2655C12.4825 15.2655 11.8909 14.6619 11.8909 13.9174C11.8909 13.1729 12.4825 12.5693 13.2123 12.5693Z" fill="white"/>
<path fill-rule="evenodd" clip-rule="evenodd" d="M23.7834 26.053C23.0537 26.053 22.462 25.4495 22.462 24.705C22.462 23.9605 23.0537 23.357 23.7834 23.357C24.5133 23.357 25.1048 23.9605 25.1048 24.705C25.1033 25.4484 24.5122 26.0503 23.7834 26.0503V26.053ZM13.2122 16.6166C11.7526 16.6166 10.5694 15.4095 10.5694 13.9204C10.5694 12.4314 11.7526 11.2242 13.2122 11.2242C14.6718 11.2242 15.855 12.4314 15.855 13.9204C15.853 15.4081 14.6705 16.6131 13.2122 16.6137V16.6166ZM2.64099 15.2684C1.91124 15.2684 1.31958 14.6649 1.31958 13.9204C1.31958 13.1759 1.91124 12.5723 2.64099 12.5723C3.37083 12.5723 3.96239 13.1759 3.96239 13.9204C3.96239 14.6649 3.37083 15.2684 2.64099 15.2684ZM23.7834 1.7877C24.5133 1.7877 25.1048 2.39129 25.1048 3.13586C25.1048 3.88034 24.5132 4.48384 23.7834 4.48384C23.0537 4.48384 22.462 3.88034 22.462 3.13586C22.4615 2.39186 23.0523 1.78827 23.7816 1.7877H23.7834ZM23.8458 22.0088C23.5204 22.0004 23.1963 22.0538 22.8901 22.1665C22.6478 22.2576 22.3756 22.1973 22.1922 22.0117L16.8554 16.5671C16.6517 16.3632 16.6019 16.0476 16.7325 15.7888C17.3384 14.599 17.3287 13.1807 16.7065 11.9998C16.5648 11.7375 16.6095 11.4112 16.8163 11.1986L22.1121 5.79404C22.3004 5.60417 22.581 5.54607 22.8268 5.64594C24.1869 6.1846 25.7177 5.49651 26.2457 4.10895C26.7739 2.72128 26.0993 1.1597 24.7392 0.620948C23.379 0.0821935 21.8483 0.770375 21.3202 2.15794C21.0814 2.78546 21.0814 3.48143 21.3202 4.10895C21.4183 4.35976 21.3614 4.64609 21.1751 4.83795L15.8792 10.2369C15.6708 10.4476 15.3513 10.4936 15.0938 10.3499C13.1646 9.28953 10.758 10.0255 9.71859 11.9937C9.5911 12.2351 9.48799 12.4891 9.41085 12.7518C9.32859 13.0387 9.07119 13.2364 8.77806 13.2378H5.66719C5.4057 13.2376 5.16905 13.0796 5.06418 12.8353C4.47857 11.4713 2.91997 10.85 1.58303 11.4475C0.246083 12.0449 -0.362879 13.6349 0.222726 14.9989C0.80833 16.3628 2.36684 16.9842 3.70379 16.3867C4.3121 16.1148 4.79776 15.6194 5.06418 14.9989C5.16859 14.7514 5.40691 14.5908 5.67091 14.5896H8.78086C9.07408 14.5908 9.33156 14.7886 9.41364 15.0757C10.0406 17.2191 12.252 18.4381 14.3528 17.7985C14.6323 17.7135 14.9017 17.5973 15.1562 17.4519C15.4146 17.3016 15.7396 17.3455 15.9509 17.5592L21.2076 22.9222C21.3979 23.1188 21.4525 23.4134 21.3454 23.6673C21.2024 24.0151 21.1333 24.3897 21.1425 24.7666C21.1763 26.2553 22.3866 27.4342 23.8458 27.3998C25.305 27.3652 26.4605 26.1304 26.4267 24.6418C26.394 23.2017 25.2574 22.0422 23.8458 22.0088Z" fill="white"/>
<path fill-rule="evenodd" clip-rule="evenodd" d="M23.7834 12.5693C24.5133 12.5693 25.1048 13.1729 25.1048 13.9174C25.1048 14.6619 24.5133 15.2655 23.7834 15.2655C23.0537 15.2655 22.462 14.6619 22.462 13.9174C22.462 13.1729 23.0537 12.5693 23.7834 12.5693Z" fill="white"/>
</g>
</g>
<defs>
<clipPath id="clip0_2004_2200">
<rect width="130" height="29" fill="white" transform="translate(0 0.4375)"/>
</clipPath>
</defs>
</svg>
