<svg width="119" height="31" viewBox="0 0 119 31" fill="none" xmlns="http://www.w3.org/2000/svg">
<g clip-path="url(#clip0_2004_2108)">
<mask id="mask0_2004_2108" style="mask-type:alpha" maskUnits="userSpaceOnUse" x="0" y="0" width="38" height="30">
<path d="M0 0.613281H37.6627V29.9761H0V0.613281Z" fill="white"/>
</mask>
<g mask="url(#mask0_2004_2108)">
<path fill-rule="evenodd" clip-rule="evenodd" d="M10.8964 16.9343H10.9027C10.9027 18.4462 10.8946 19.9582 10.9066 21.4699C10.9117 22.1168 11.1923 22.559 11.8677 22.5793C12.5493 22.6 12.8277 22.1493 12.889 21.5201C12.9263 21.1365 12.9096 20.7475 12.9173 20.361C12.9818 17.1457 12.3682 17.5915 15.792 17.544C16.5519 17.5333 16.8038 17.8926 16.7813 18.6365C16.7525 19.5849 16.7718 20.535 16.7888 21.484C16.8006 22.1362 17.0899 22.5654 17.763 22.5789C18.4477 22.5924 18.7633 22.1282 18.7687 21.5064C18.7955 18.4831 18.8079 15.4593 18.7703 12.4364C18.7598 11.6007 18.0137 11.1789 17.3341 11.5163C16.7192 11.8218 16.7855 12.4219 16.7766 12.981C16.7277 16.0312 16.7298 16.0123 13.8498 15.8525C13.1418 15.8133 12.8924 15.5034 12.9143 14.8103C12.9366 14.1079 12.9151 13.4042 12.9137 12.701C12.9123 11.9849 12.7042 11.4266 11.8989 11.4306C11.0901 11.4346 10.8973 12.0058 10.8966 12.7149C10.8958 14.1214 10.8964 15.5278 10.8964 16.9343ZM20.2078 16.8801C20.2078 18.3188 20.2058 19.7573 20.2086 21.196C20.2098 21.8651 20.2812 22.5394 21.1125 22.5586C21.9399 22.5778 22.0596 21.9288 22.0644 21.2454C22.0687 20.684 22.0403 20.1206 22.0764 19.5615C22.1096 19.0448 21.8553 18.3308 22.6436 18.1954C23.349 18.0738 24.0681 18.0458 24.4751 18.8942C24.957 19.8983 25.4796 20.881 25.9699 21.8809C26.2547 22.4618 26.6812 22.7759 27.2796 22.4987C27.885 22.2183 27.7949 21.6343 27.5901 21.1336C27.2737 20.3599 26.9336 19.5894 26.5246 18.8659C26.1176 18.1462 26.1587 17.6613 26.8069 17.0746C27.8671 16.1146 27.9927 14.8096 27.5278 13.499C27.0638 12.19 26.047 11.5089 24.7321 11.4251C23.5895 11.3526 22.4392 11.4178 21.2928 11.4017C20.5199 11.391 20.1975 11.7807 20.2054 12.5641C20.2202 14.0024 20.2096 15.4413 20.2078 16.8801ZM18.5375 29.9692C15.6308 29.9694 12.7241 29.9768 9.81735 29.9677C4.27889 29.9504 0.121086 25.8551 0.00244819 20.1008C-0.0535245 17.3847 0.80229 14.8953 2.80555 12.9962C3.43159 12.4027 3.77006 11.7712 3.91243 10.8679C4.75749 5.50057 9.58433 2.17349 14.6914 3.40018C15.3615 3.56095 15.8068 3.41685 16.3339 2.97356C22.2476 -2.00262 30.8416 1.29303 32.2683 9.08401C32.4171 9.89716 32.7049 10.4576 33.3896 10.9365C38.085 14.2205 39.0657 21.3127 35.5583 25.949C33.5044 28.6644 30.8268 29.9375 27.5617 29.9639C24.5538 29.9882 21.5455 29.969 18.5375 29.9692Z" fill="white"/>
</g>
<path fill-rule="evenodd" clip-rule="evenodd" d="M58.7355 14.4225C58.736 16.319 58.736 16.319 60.278 16.3184C62.0707 16.3175 62.7844 15.7925 62.7834 14.4762C62.7826 13.1197 61.8644 12.4527 60.0046 12.4578C58.7398 12.4613 58.7351 12.4688 58.7355 14.4225ZM56.2952 16.7086C56.295 14.958 56.3172 13.2069 56.2851 11.457C56.2704 10.6513 56.5225 10.2525 57.3337 10.3002C59.0193 10.3989 60.7227 10.0941 62.3935 10.512C64.0197 10.9187 65.0516 12.0724 65.2219 13.6166C65.4371 15.5704 64.8118 16.9387 63.1748 17.7412C62.4327 18.1049 62.507 18.432 62.878 19.0203C63.5531 20.0903 64.1611 21.207 64.8259 22.2844C65.225 22.9309 65.061 23.1138 64.3692 23.1831C63.166 23.3037 62.2977 22.9968 61.7656 21.72C61.3602 20.747 60.7357 19.8765 60.2146 18.9568C59.9794 18.5421 59.7294 18.1401 59.1883 18.2882C58.6438 18.4374 58.7506 18.9429 58.7425 19.3515C58.7244 20.2444 58.6914 21.1407 58.7455 22.0301C58.8084 23.0622 58.2675 23.1857 57.4811 23.1842C56.7202 23.1827 56.2586 23.0258 56.2826 22.0674C56.3274 20.2824 56.2954 18.4951 56.2952 16.7086Z" fill="white"/>
<mask id="mask1_2004_2108" style="mask-type:alpha" maskUnits="userSpaceOnUse" x="109" y="10" width="10" height="14">
<path d="M109.056 10.2949H118.519V23.7433H109.056V10.2949Z" fill="white"/>
</mask>
<g mask="url(#mask1_2004_2108)">
<path fill-rule="evenodd" clip-rule="evenodd" d="M116.162 18.6971C116.173 16.9062 115.315 15.8289 113.855 15.8014C112.389 15.7739 111.473 16.8464 111.459 18.6053C111.446 20.3433 112.373 21.4774 113.807 21.4774C115.134 21.4776 116.152 20.2754 116.162 18.6971ZM116.168 15.2002C116.168 13.7588 116.191 12.5642 116.162 11.3711C116.136 10.3189 116.761 10.3164 117.462 10.2961C118.196 10.2745 118.524 10.5506 118.519 11.3929C118.494 14.9863 118.51 18.5799 118.508 22.1735C118.508 22.8733 118.635 23.6429 117.595 23.6234C116.757 23.6076 115.91 23.7044 116.165 22.3933C115.952 22.2171 115.86 22.3324 115.777 22.4297C114.656 23.7446 113.296 24.0279 111.769 23.4775C110.301 22.9478 109.462 21.7778 109.211 20.1718C109.006 18.852 108.938 17.5017 109.431 16.2151C110.514 13.3947 113.667 12.678 115.708 14.7801C115.796 14.8712 115.895 14.9514 116.168 15.2002Z" fill="white"/>
</g>
<path fill-rule="evenodd" clip-rule="evenodd" d="M53.8715 16.799C53.8718 18.5536 53.835 20.3098 53.8855 22.063C53.9158 23.1076 53.405 23.2049 52.6628 23.2073C51.9292 23.2094 51.4842 23.0373 51.523 22.0815C51.5691 20.9377 51.5148 19.7896 51.5362 18.644C51.5494 17.9316 51.3108 17.5817 50.631 17.5998C49.5948 17.6274 48.5574 17.6213 47.521 17.6035C46.8974 17.5925 46.6481 17.9133 46.6559 18.5829C46.6695 19.7644 46.6234 20.9478 46.664 22.1278C46.6981 23.1229 46.1762 23.2021 45.4812 23.204C44.7767 23.206 44.299 23.0969 44.307 22.1142C44.3366 18.5332 44.3368 14.9516 44.307 11.3706C44.2988 10.3827 44.7857 10.2853 45.4851 10.2842C46.1822 10.2833 46.7041 10.3696 46.664 11.3635C46.6224 12.3999 46.6699 13.4402 46.6564 14.4786C46.6479 15.1467 46.9006 15.4718 47.5219 15.4628C48.5586 15.4477 49.5959 15.4417 50.6322 15.4665C51.3116 15.4826 51.5496 15.1239 51.5356 14.4149C51.5152 13.377 51.5611 12.3369 51.5274 11.2996C51.4932 10.2506 52.1175 10.3051 52.7609 10.2891C53.4255 10.2726 53.8975 10.3911 53.8808 11.3198C53.8477 13.1455 53.8711 14.9724 53.8715 16.799Z" fill="white"/>
<path fill-rule="evenodd" clip-rule="evenodd" d="M75.6696 10.8994C78.3582 10.905 80.2846 12.0832 81.1811 14.2709C81.5673 15.2133 81.4563 15.3619 80.4516 15.4219C79.5623 15.4752 78.888 15.324 78.296 14.4779C77.4933 13.331 76.1979 13.0674 74.8701 13.3299C73.5882 13.5833 72.764 14.4417 72.342 15.675C71.9604 16.7891 71.9585 17.9236 72.3549 19.0329C72.7881 20.2451 73.5444 21.1614 74.8775 21.3582C76.3251 21.5717 77.6148 21.2801 78.5219 19.9717C78.954 19.3485 80.5785 18.9847 81.1804 19.3406C81.5751 19.574 81.4102 19.8894 81.2912 20.1794C80.8789 21.1833 80.3093 22.0617 79.4086 22.7058C77.5151 24.0596 74.2863 24.2099 72.3725 23.0062C70.2765 21.6882 69.0935 18.8316 69.5524 16.1968C70.1471 12.7826 72.3295 10.8926 75.6696 10.8994Z" fill="white"/>
<path fill-rule="evenodd" clip-rule="evenodd" d="M94.4426 18.8545C94.433 17.1663 93.57 16.1541 92.1452 16.1592C90.7002 16.1645 89.8277 17.2357 89.8462 18.9818C89.8635 20.6285 90.7938 21.6757 92.2069 21.6387C93.6033 21.6022 94.4523 20.545 94.4426 18.8545ZM92.255 13.9768C94.9465 13.9983 97.0326 16.1832 96.9958 18.9417C96.9589 21.7122 94.8829 23.8859 92.1651 23.8213C89.2337 23.7517 87.3037 21.7751 87.4215 18.7525C87.5333 15.8845 89.4036 13.9538 92.255 13.9768Z" fill="white"/>
<path fill-rule="evenodd" clip-rule="evenodd" d="M104.699 22.2726C103.611 23.5842 102.384 24.0697 100.881 23.7053C99.5284 23.3772 98.7447 22.4355 98.458 21.0578C98.02 18.9521 98.2528 16.8051 98.2778 14.6774C98.289 13.7062 99.1111 14.0596 99.6333 14.0044C100.197 13.9446 100.568 14.1578 100.565 14.8578C100.558 16.3719 100.521 17.8892 100.593 19.4001C100.683 21.2702 101.964 22.1858 103.513 21.5706C104.529 21.1674 104.772 20.2417 104.804 19.2432C104.848 17.8677 104.86 16.4882 104.808 15.1137C104.771 14.1419 105.225 13.9831 105.996 13.9767C106.791 13.9703 107.181 14.1886 107.163 15.1348C107.118 17.4745 107.167 19.8162 107.137 22.1562C107.129 22.767 107.446 23.6166 106.379 23.7078C105.12 23.8155 104.945 23.7039 104.699 22.2726Z" fill="white"/>
<path fill-rule="evenodd" clip-rule="evenodd" d="M83.2411 16.6583C83.2413 14.8827 83.2721 13.1064 83.2288 11.3319C83.2057 10.3978 83.6876 10.2756 84.4092 10.2846C85.0998 10.293 85.6275 10.3336 85.6194 11.2979C85.5888 14.9171 85.5884 18.5369 85.62 22.1559C85.628 23.0872 85.1638 23.1963 84.4412 23.2067C83.6587 23.2182 83.1988 23.0548 83.2263 22.0868C83.2772 20.2788 83.2409 18.468 83.2411 16.6583Z" fill="white"/>
<path fill-rule="evenodd" clip-rule="evenodd" d="M23.9321 15.8203C23.3748 15.7017 22.6374 16.0583 22.3586 15.4758C22.0283 14.7852 22.1612 13.9936 22.3113 13.2461C22.3287 13.1593 22.4129 13.0711 22.49 13.0099C23.2932 12.372 25.8402 12.9734 26.2429 13.8923C26.5711 14.6405 26.0778 15.5077 25.1589 15.7156C24.7548 15.807 24.3226 15.7901 23.9321 15.8203Z" fill="white"/>
</g>
<defs>
<clipPath id="clip0_2004_2108">
<rect width="119" height="30" fill="white" transform="translate(0 0.4375)"/>
</clipPath>
</defs>
</svg>
