<svg width="99" height="32" viewBox="0 0 99 32" fill="none" xmlns="http://www.w3.org/2000/svg">
<g clip-path="url(#clip0_2004_2128)">
<path fill-rule="evenodd" clip-rule="evenodd" d="M13.167 12.8035H17.3415C17.82 12.8035 18.1995 13.1848 18.1995 13.6655V17.8593C18.1995 18.3399 17.82 18.7213 17.3415 18.7213H13.167C12.6885 18.7213 12.309 18.3399 12.309 17.8593V13.6655C12.309 13.1848 12.6885 12.8035 13.167 12.8035ZM0 15.7707C0 7.30013 6.831 0.4375 15.2625 0.4375C23.6115 0.4375 30.4095 7.1841 30.525 15.5552C30.6405 24.1252 23.595 31.2033 15.0645 31.0873C6.7155 30.9712 0 24.1583 0 15.7707ZM6.534 24.5893C8.2005 26.2635 11.4675 27.2747 15.2625 27.2747C19.0575 27.2747 22.3245 26.2801 23.991 24.5893C25.6575 22.9151 26.664 19.633 26.664 15.8204C26.664 12.0078 25.674 8.7257 23.991 7.05149C22.3245 5.37727 19.0575 4.36611 15.2625 4.36611C11.4675 4.36611 8.2005 5.36069 6.534 7.05149C4.8675 8.74228 3.861 12.0078 3.861 15.8204C3.8775 19.633 4.8675 22.9151 6.534 24.5893ZM8.1015 8.57651C9.2895 7.38301 12.0945 6.6205 15.2625 6.6205C18.4305 6.6205 21.2355 7.38301 22.4235 8.57651C23.6115 9.77002 24.3705 12.588 24.3705 15.7707C24.3705 18.9533 23.6115 21.7713 22.4235 22.9648C21.2355 24.1583 18.4305 24.9209 15.2625 24.9209C12.0945 24.9209 9.2895 24.1416 8.1015 22.9648C6.9135 21.7879 6.1545 18.9533 6.1545 15.7707C6.1545 12.588 6.9135 9.77002 8.1015 8.57651ZM10.824 20.1468C11.0715 20.3955 11.814 21.1414 15.2295 21.1414C18.645 21.1414 19.3875 20.3955 19.635 20.1468C19.8825 19.8982 20.625 19.1523 20.625 15.7209C20.625 12.2896 19.8825 11.5437 19.635 11.295C19.3875 11.0464 18.645 10.3005 15.2295 10.3005C11.814 10.3005 11.0715 11.0464 10.824 11.295C10.5765 11.5437 9.834 12.2896 9.834 15.7209C9.834 19.1523 10.5765 19.8982 10.824 20.1468Z" fill="white"/>
<mask id="mask0_2004_2128" style="mask-type:alpha" maskUnits="userSpaceOnUse" x="0" y="0" width="99" height="32">
<path d="M0 31.0886H98.9835V0.4375H0V31.0886Z" fill="white"/>
</mask>
<g mask="url(#mask0_2004_2128)">
<path fill-rule="evenodd" clip-rule="evenodd" d="M37.6365 20.6439H40.9695V11.2451H37.6365V20.6439Z" fill="white"/>
<path fill-rule="evenodd" clip-rule="evenodd" d="M42.7515 20.6446V11.2457H45.3915L45.804 12.2735C46.5795 11.4447 47.6025 11.0137 48.873 11.0137C49.995 11.0137 50.8695 11.3618 51.579 12.058C52.272 12.7376 52.6185 13.6162 52.6185 14.6936V20.6446H49.2855V15.2572C49.2855 14.3953 48.6585 13.7488 47.817 13.7488C46.7775 13.7488 46.0845 14.4947 46.0845 15.6053V20.628L42.7515 20.6446Z" fill="white"/>
<path fill-rule="evenodd" clip-rule="evenodd" d="M53.3774 13.7652V11.2456H54.9449V10.367C54.9449 9.35585 55.2749 8.56019 55.9019 7.94686C56.5619 7.33353 57.4199 7.03516 58.4594 7.03516C59.2514 7.03516 60.0269 7.13461 60.7858 7.33353L60.3733 9.80342C60.0104 9.73711 59.6474 9.70396 59.2844 9.68738C58.6739 9.68738 58.2779 10.0686 58.2779 10.6985V11.229H60.2083V13.7652H58.2779V20.6444H54.9449V13.7652H53.3774Z" fill="white"/>
<path fill-rule="evenodd" clip-rule="evenodd" d="M62.1389 12.3895C63.1456 11.4612 64.416 10.9971 65.9834 10.9971C67.5509 10.9971 68.8381 11.4612 69.8281 12.3895C70.8344 13.3012 71.3294 14.4781 71.3294 15.9368C71.3294 17.379 70.8344 18.5559 69.8281 19.4842C68.8381 20.3959 67.5509 20.86 65.9834 20.86C64.416 20.86 63.1456 20.3959 62.1389 19.4842C61.1324 18.5559 60.6375 17.379 60.6375 15.9368C60.6375 14.5113 61.1324 13.3343 62.1389 12.3895ZM65.9669 18.2907C67.1056 18.2907 67.9139 17.3293 67.9139 15.9534C67.9139 14.561 67.1056 13.5996 65.9669 13.5996C64.8284 13.5996 64.0364 14.561 64.0364 15.9534C64.0531 17.3127 64.8449 18.2907 65.9669 18.2907Z" fill="white"/>
<path fill-rule="evenodd" clip-rule="evenodd" d="M72.2864 20.6438V7.2666H75.6194V11.908C76.3289 11.3278 77.2199 10.9963 78.1274 11.0129C79.398 11.0129 80.4374 11.477 81.2459 12.4053C82.0544 13.317 82.4669 14.4939 82.4669 15.9526C82.4669 17.3948 82.0544 18.5717 81.2459 19.5C80.4374 20.4117 79.398 20.8758 78.1274 20.8758C76.9889 20.8758 76.0649 20.5112 75.3555 19.7818L74.943 20.6603L72.2864 20.6438ZM75.5534 16.4499C75.5534 17.4942 76.2299 18.2568 77.2364 18.2568C78.3089 18.2568 79.0844 17.3119 79.0844 15.9526C79.0844 14.5934 78.3089 13.6319 77.2364 13.6319C76.2299 13.6319 75.5534 14.3945 75.5534 15.4553V16.4499Z" fill="white"/>
<path fill-rule="evenodd" clip-rule="evenodd" d="M85.3545 6.85254C86.493 6.85254 87.2685 7.64821 87.2685 8.7754C87.2685 9.85287 86.493 10.6817 85.3545 10.6817C84.282 10.6817 83.457 9.86945 83.457 8.7754C83.457 7.64821 84.282 6.85254 85.3545 6.85254ZM83.688 20.6441H87.0209V11.2453H83.688V20.6441Z" fill="white"/>
<path fill-rule="evenodd" clip-rule="evenodd" d="M88.8196 24.5897V11.2292H91.4596L91.8721 12.1077C92.5981 11.3618 93.5221 11.0137 94.6441 11.0137C95.9146 11.0137 96.9541 11.4778 97.7626 12.4061C98.5711 13.3178 98.9836 14.4947 98.9836 15.9534C98.9836 17.3958 98.5711 18.5725 97.7626 19.5008C96.9541 20.4125 95.9146 20.8768 94.6441 20.8768C93.7201 20.8768 92.8456 20.5617 92.1361 19.9815V24.5897H88.8196ZM92.0866 16.4507C92.0866 17.495 92.7631 18.2576 93.7696 18.2576C94.8421 18.2576 95.6176 17.3129 95.6176 15.9534C95.6176 14.5942 94.8421 13.6327 93.7696 13.6327C92.7631 13.6327 92.0866 14.3953 92.0866 15.4561V16.4507Z" fill="white"/>
<path fill-rule="evenodd" clip-rule="evenodd" d="M37.6365 10.2508H40.9695V6.90234H37.6365V10.2508Z" fill="white"/>
</g>
</g>
<defs>
<clipPath id="clip0_2004_2128">
<rect width="99" height="31" fill="white" transform="translate(0 0.4375)"/>
</clipPath>
</defs>
</svg>
