<svg width="97" height="19" viewBox="0 0 97 19" fill="none" xmlns="http://www.w3.org/2000/svg">
<g clip-path="url(#clip0_2004_2144)">
<path fill-rule="evenodd" clip-rule="evenodd" d="M0 6.54249C0.6014 6.37548 1.3774 6.22005 2.32695 6.07568C3.2765 5.93131 4.27377 5.85938 5.31875 5.85938C6.37893 5.85938 7.26189 5.99268 7.96606 6.25777C8.67023 6.52337 9.22811 6.89964 9.6397 7.38506C10.0513 7.87149 10.3439 8.44796 10.5185 9.11648C10.692 9.78501 10.7796 10.529 10.7796 11.3489V18.1142H7.24197V11.7584C7.24197 10.6653 7.09149 9.89065 6.79105 9.4349C6.49009 8.97916 5.92801 8.75179 5.10535 8.75179C4.8521 8.75179 4.58312 8.76336 4.29789 8.78599C4.01318 8.80863 3.75941 8.83529 3.53814 8.86547V18.1137H0V6.54249Z" fill="white"/>
<path fill-rule="evenodd" clip-rule="evenodd" d="M20.8461 10.9157C20.8299 10.6275 20.7785 10.3463 20.6915 10.0731C20.6044 9.79998 20.4697 9.55701 20.2877 9.34423C20.1058 9.13195 19.8756 8.9569 19.5988 8.82008C19.3219 8.68325 18.9775 8.61534 18.5659 8.61534C18.17 8.61534 17.8297 8.68023 17.545 8.80901C17.2603 8.93829 17.0228 9.10881 16.833 9.3216C16.6432 9.53438 16.4964 9.78086 16.3936 10.0621C16.2903 10.3432 16.2153 10.628 16.1681 10.9162H20.8461V10.9157ZM12.5361 12.2141C12.5361 11.1512 12.706 10.221 13.0463 9.42371C13.3866 8.62641 13.8333 7.96241 14.388 7.43071C14.9417 6.89951 15.5788 6.49709 16.2992 6.22344C17.0196 5.9503 17.7595 5.81348 18.5192 5.81348C20.2919 5.81348 21.6924 6.33361 22.7217 7.37387C23.7504 8.41413 24.2647 9.94434 24.2647 11.9635C24.2647 12.1612 24.2569 12.3775 24.2411 12.6129C24.2254 12.8483 24.2092 13.0571 24.194 13.2392H16.1687C16.2473 13.9374 16.5876 14.4923 17.1895 14.9017C17.7909 15.3117 18.5984 15.5169 19.6108 15.5169C20.26 15.5169 20.897 15.4601 21.5225 15.3459C22.1475 15.2322 22.6582 15.0919 23.0536 14.9243L23.5286 17.6804C23.3388 17.7715 23.0855 17.8626 22.7688 17.9536C22.4522 18.0446 22.0998 18.1246 21.7123 18.193C21.3243 18.2614 20.9085 18.3183 20.466 18.364C20.0224 18.4093 19.5794 18.4325 19.1363 18.4325C18.0122 18.4325 17.0354 18.273 16.2043 17.9541C15.3733 17.6351 14.6848 17.199 14.139 16.6447C13.5926 16.0903 13.1894 15.4339 12.9283 14.6743C12.6667 13.9147 12.5361 13.0948 12.5361 12.2141Z" fill="white"/>
<path fill-rule="evenodd" clip-rule="evenodd" d="M26.0216 3.14835L29.5593 2.60156V6.53474H33.8089V9.35924H29.5593V13.1707C29.5593 13.8845 29.6898 14.4539 29.9509 14.879C30.212 15.3045 30.7379 15.5168 31.5297 15.5168C31.9093 15.5168 32.3015 15.4826 32.7047 15.4142C33.1084 15.3458 33.4765 15.2512 33.8089 15.1295L34.3075 17.7714C33.8802 17.9389 33.4052 18.0828 32.8829 18.204C32.3607 18.3252 31.7195 18.386 30.9597 18.386C29.9939 18.386 29.1949 18.2608 28.5615 18.0103C27.9281 17.7598 27.4221 17.4107 27.042 16.9625C26.6624 16.5148 26.3971 15.9715 26.2466 15.3337C26.0961 14.6959 26.0211 13.9896 26.0211 13.2154V3.14835H26.0216Z" fill="white"/>
<path fill-rule="evenodd" clip-rule="evenodd" d="M42.9474 11.7579C42.9474 10.6649 42.8006 9.89017 42.508 9.43443C42.2149 8.97868 41.7126 8.75131 41.0006 8.75131C40.7788 8.75131 40.5497 8.76288 40.3121 8.78552C40.0746 8.80816 39.845 8.83482 39.6232 8.865V18.1132H36.0856V6.54201C36.386 6.46606 36.7384 6.38658 37.1421 6.30257C37.5458 6.21957 37.9731 6.14311 38.4241 6.0747C38.875 6.00629 39.338 5.95347 39.813 5.91524C40.288 5.87751 40.7547 5.8584 41.214 5.8584C42.1164 5.8584 42.8483 5.96856 43.4104 6.18889C43.9719 6.40921 44.4349 6.67129 44.7993 6.97462C45.3058 6.62552 45.8873 6.35237 46.5443 6.15468C47.2007 5.95749 47.8063 5.8584 48.3605 5.8584C49.3578 5.8584 50.1768 5.9917 50.818 6.2568C51.4592 6.5224 51.9694 6.89866 52.3491 7.38408C52.7287 7.87051 52.9903 8.44698 53.1324 9.11551C53.275 9.78403 53.3463 10.528 53.3463 11.348V18.1132H49.8087V11.7579C49.8087 10.6649 49.6619 9.89017 49.3693 9.43443C49.0762 8.97868 48.5739 8.75131 47.8619 8.75131C47.6721 8.75131 47.4068 8.79709 47.0665 8.88814C46.7257 8.97919 46.4452 9.09337 46.2234 9.22969C46.334 9.5793 46.4053 9.94701 46.4368 10.3343C46.4688 10.7217 46.4845 11.1357 46.4845 11.5758V18.1132H42.9474V11.7579Z" fill="white"/>
<path fill-rule="evenodd" clip-rule="evenodd" d="M63.1543 10.9157C63.1386 10.6275 63.0872 10.3463 63.0002 10.0731C62.9131 9.79998 62.7784 9.55701 62.5964 9.34423C62.4145 9.13195 62.1849 8.9569 61.908 8.82008C61.6312 8.68325 61.2867 8.61534 60.8751 8.61534C60.4792 8.61534 60.139 8.68023 59.8542 8.80901C59.5695 8.93829 59.332 9.10881 59.1417 9.3216C58.9519 9.53438 58.8056 9.78086 58.7028 10.0621C58.5995 10.3432 58.5246 10.628 58.4768 10.9162H63.1543V10.9157ZM54.8448 12.2141C54.8448 11.1512 55.0147 10.221 55.3555 9.42371C55.6958 8.62641 56.1426 7.96241 56.6968 7.43071C57.2504 6.89951 57.8875 6.49709 58.6084 6.22344C59.3283 5.9503 60.0686 5.81348 60.8284 5.81348C62.6006 5.81348 64.0016 6.33361 65.0309 7.37387C66.059 8.41413 66.574 9.94434 66.574 11.9635C66.574 12.1612 66.5661 12.3775 66.5504 12.6129C66.5347 12.8483 66.5184 13.0571 66.5026 13.2392H58.4779C58.557 13.9374 58.8974 14.4923 59.4987 14.9017C60.1002 15.3117 60.9076 15.5169 61.9206 15.5169C62.5697 15.5169 63.2068 15.4601 63.8323 15.3459C64.4573 15.2322 64.968 15.0919 65.3633 14.9243L65.8383 17.6804C65.6485 17.7715 65.3947 17.8626 65.0786 17.9536C64.7619 18.0446 64.4095 18.1246 64.0221 18.193C63.634 18.2614 63.2183 18.3183 62.7753 18.364C62.3321 18.4093 61.8886 18.4325 61.4455 18.4325C60.3214 18.4325 59.3446 18.273 58.5135 17.9541C57.6825 17.6351 56.9941 17.199 56.4482 16.6447C55.9019 16.0903 55.4981 15.4339 55.2376 14.6743C54.9754 13.9147 54.8448 13.0948 54.8448 12.2141Z" fill="white"/>
<path fill-rule="evenodd" clip-rule="evenodd" d="M71.4644 12.0318C71.4644 13.0796 71.7097 13.9222 72.2005 14.56C72.6907 15.1978 73.419 15.5167 74.3848 15.5167C74.7015 15.5167 74.9941 15.5052 75.2636 15.4826C75.5326 15.4594 75.7538 15.4333 75.9284 15.4026V9.22993C75.7067 9.09311 75.4177 8.97943 75.0617 8.88838C74.7057 8.79733 74.3455 8.75155 73.9811 8.75155C72.3033 8.75155 71.4644 9.84509 71.4644 12.0318ZM79.466 17.7266C79.1493 17.8176 78.7849 17.9052 78.3739 17.9887C77.9623 18.0722 77.5307 18.1441 77.0799 18.205C76.6289 18.2658 76.1696 18.3151 75.703 18.3534C75.2358 18.3911 74.789 18.4102 74.3612 18.4102C73.3319 18.4102 72.4144 18.2658 71.6074 17.9776C70.8 17.6894 70.1195 17.2754 69.5657 16.7366C69.0116 16.1978 68.5879 15.5444 68.2953 14.7778C68.0022 14.0112 67.856 13.149 67.856 12.1922C67.856 11.2204 67.9828 10.3436 68.2361 9.56143C68.4888 8.77972 68.8532 8.11522 69.3283 7.56843C69.8032 7.02164 70.3847 6.60413 71.0732 6.31539C71.7616 6.02715 72.5491 5.88278 73.4353 5.88278C73.9255 5.88278 74.3649 5.92856 74.7529 6.01961C75.1403 6.11065 75.5326 6.23993 75.9284 6.40694V0.984292L79.466 0.4375V17.7266Z" fill="white"/>
<path fill-rule="evenodd" clip-rule="evenodd" d="M85.2137 2.44207C85.2137 3.06482 85.0039 3.55477 84.5845 3.91141C84.165 4.26856 83.6706 4.44664 83.1006 4.44664C82.5307 4.44664 82.0357 4.26806 81.6167 3.91141C81.1973 3.55477 80.9875 3.06482 80.9875 2.44207C80.9875 1.81932 81.1973 1.32987 81.6167 0.972722C82.0357 0.616075 82.5307 0.4375 83.1006 0.4375C83.6706 0.4375 84.165 0.616075 84.5845 0.972722C85.0039 1.32987 85.2137 1.81932 85.2137 2.44207Z" fill="white"/>
<path fill-rule="evenodd" clip-rule="evenodd" d="M84.8814 18.1131H81.3438V7.05499L84.8814 6.52832V18.1131Z" fill="white"/>
<path fill-rule="evenodd" clip-rule="evenodd" d="M91.827 15.7448C92.1746 15.7448 92.5075 15.7373 92.8243 15.7216C93.1404 15.7065 93.3942 15.6839 93.584 15.6537V13.0798C93.4414 13.0495 93.228 13.0189 92.9427 12.9887C92.658 12.9585 92.3964 12.9429 92.1589 12.9429C91.8264 12.9429 91.5139 12.9625 91.2208 12.9998C90.9278 13.0375 90.6708 13.1099 90.4491 13.216C90.2272 13.3227 90.0532 13.4666 89.9268 13.6486C89.7999 13.8307 89.7371 14.0586 89.7371 14.3323C89.7371 14.864 89.9227 15.2322 90.2949 15.4369C90.6672 15.6421 91.1778 15.7448 91.827 15.7448ZM91.5418 5.81348C92.5862 5.81348 93.4566 5.92766 94.1534 6.15503C94.8497 6.3829 95.4076 6.70937 95.827 7.13443C96.246 7.55949 96.5427 8.0761 96.7174 8.68325C96.8914 9.29091 96.9784 9.96648 96.9784 10.7105V17.772C96.4719 17.8781 95.7678 18.0039 94.8654 18.1478C93.9636 18.2922 92.8709 18.3645 91.5889 18.3645C90.782 18.3645 90.0496 18.2961 89.3931 18.1598C88.7361 18.023 88.1703 17.7991 87.6953 17.4878C87.2203 17.1769 86.8558 16.7705 86.6031 16.2689C86.3499 15.7679 86.2235 15.1527 86.2235 14.4238C86.2235 13.7256 86.3698 13.1335 86.6629 12.6471C86.9555 12.1612 87.3472 11.7739 87.8379 11.4856C88.3282 11.1974 88.8902 10.9886 89.5236 10.8594C90.1565 10.7306 90.8134 10.6657 91.494 10.6657C91.9528 10.6657 92.3608 10.6848 92.7168 10.7225C93.0727 10.7608 93.3617 10.8101 93.5834 10.8705V10.5515C93.5834 9.97453 93.4015 9.51174 93.0371 9.16214C92.6727 8.81304 92.0399 8.63798 91.138 8.63798C90.5361 8.63798 89.9426 8.68024 89.3569 8.76324C88.7713 8.84674 88.2648 8.96495 87.8374 9.11636L87.3865 6.3829C87.592 6.32254 87.8495 6.25765 88.1583 6.18924C88.4671 6.12083 88.8027 6.06046 89.1671 6.00714C89.5309 5.95432 89.9148 5.90855 90.319 5.87032C90.7227 5.83259 91.1301 5.81348 91.5418 5.81348Z" fill="white"/>
</g>
<defs>
<clipPath id="clip0_2004_2144">
<rect width="97" height="18" fill="white" transform="translate(0 0.4375)"/>
</clipPath>
</defs>
</svg>
