<svg width="136" height="21" viewBox="0 0 136 21" fill="none" xmlns="http://www.w3.org/2000/svg">
<path fill-rule="evenodd" clip-rule="evenodd" d="M55.4542 15.9482L56.5032 6.8879H52.9292L53.1611 4.90527H62.2278L61.9959 6.8879H58.4272L57.3782 15.9482H55.4542Z" fill="white"/>
<path fill-rule="evenodd" clip-rule="evenodd" d="M87.0612 10.217H90.3769C91.282 10.1942 92.0426 9.50866 92.1849 8.58742C92.2387 8.15776 92.1122 7.72485 91.837 7.39785C91.5592 7.0828 91.1634 6.90681 90.7511 6.91387H87.4455L87.0612 10.217ZM91.3257 15.9476L91.4417 14.9584C91.583 13.9264 91.2155 12.8889 90.4607 12.1942H86.8293L86.3965 15.9421H84.4783L85.7539 4.89866H90.9936C91.8987 4.88779 92.7627 5.28432 93.3599 5.98502C93.9508 6.69171 94.2197 7.62544 94.0984 8.5494C93.9593 9.66619 93.3889 10.6787 92.517 11.3577V11.3897C93.2281 12.4201 93.5333 13.6901 93.371 14.9421L93.255 15.9421L91.3257 15.9476Z" fill="white"/>
<path fill-rule="evenodd" clip-rule="evenodd" d="M80.1344 15.9478L80.2451 14.9592C80.4285 13.6577 79.7944 12.3796 78.6637 11.7707C77.9273 12.0461 77.1498 12.1917 76.3659 12.1998H76.1756L76.1335 12.2378L75.7012 15.9532H73.7825L75.0581 4.91028H76.9827L76.3659 10.2112H76.6184C78.9984 10.152 80.9847 8.32311 81.3099 5.89344L81.4259 4.89941H83.3504L83.2339 5.88258C82.9915 7.72561 82.0706 9.40187 80.6615 10.5648L80.6252 10.5969L80.6615 10.63C81.8339 11.7175 82.4048 13.334 82.1855 14.9424L82.0748 15.9424L80.1344 15.9478Z" fill="white"/>
<path fill-rule="evenodd" clip-rule="evenodd" d="M117.034 15.9482L118.315 4.90527H120.233L118.958 15.9482H117.034Z" fill="white"/>
<path fill-rule="evenodd" clip-rule="evenodd" d="M122.753 4.9054L121.499 15.7691C121.273 17.4236 119.92 18.6686 118.299 18.7132L118.062 20.6958C120.781 20.6235 123.049 18.5344 123.423 15.7577L124.677 4.89453L122.753 4.9054Z" fill="white"/>
<path fill-rule="evenodd" clip-rule="evenodd" d="M101.183 6.88762C99.7514 6.92401 98.5558 8.02288 98.3576 9.48404L98.1573 11.2331H103.213L103.412 9.49491C103.503 8.83005 103.311 8.1565 102.885 7.64808C102.453 7.15052 101.831 6.87295 101.183 6.88762ZM102.669 15.9479L102.986 13.232H97.9301L97.6139 15.9479H95.6798L96.4278 9.49491C96.7736 6.91424 98.8821 4.97126 101.41 4.905C102.543 4.88327 103.629 5.36888 104.388 6.2358C105.146 7.12988 105.489 8.31946 105.326 9.49491L104.577 15.9588L102.669 15.9479Z" fill="white"/>
<path fill-rule="evenodd" clip-rule="evenodd" d="M131.292 6.88762C129.862 6.92401 128.668 8.02342 128.472 9.48405L128.272 11.2331H133.322L133.522 9.49491C133.703 8.25482 132.874 7.09838 131.671 6.91206C131.545 6.89305 131.419 6.8849 131.292 6.88762ZM132.779 15.9479L133.096 13.232H128.04L127.724 15.9479H125.8L126.548 9.49491C126.895 6.9175 129 4.97561 131.524 4.905C132.656 4.88327 133.741 5.36888 134.497 6.2358C135.256 7.12988 135.598 8.31946 135.436 9.49491L134.687 15.9479H132.779Z" fill="white"/>
<path fill-rule="evenodd" clip-rule="evenodd" d="M111.025 15.9482C109.888 15.9726 108.797 15.4865 108.036 14.6174C107.284 13.72 106.947 12.531 107.113 11.3583L107.329 9.48427C107.668 6.89979 109.781 4.95356 112.31 4.89435C113.449 4.871 114.541 5.36095 115.299 6.23602L115.901 6.9313L114.372 8.33815L113.776 7.63744C113.342 7.14205 112.721 6.86503 112.073 6.87698C110.642 6.9112 109.447 8.01169 109.253 9.4734L109.032 11.3583C108.943 12.0215 109.135 12.6923 109.559 13.1991C109.99 13.6988 110.613 13.9791 111.261 13.9655C111.955 13.9563 112.62 13.6858 113.133 13.2051L113.892 12.5044L115.089 13.8998L114.33 14.6174C113.425 15.4653 112.248 15.9389 111.025 15.9482Z" fill="white"/>
<path fill-rule="evenodd" clip-rule="evenodd" d="M68.0842 6.88782C67.391 6.89597 66.7247 7.16702 66.2129 7.64828C65.69 8.12085 65.3505 8.77322 65.2588 9.48425L65.0374 11.3582C64.9509 12.0215 65.1428 12.6912 65.5645 13.1996C65.9973 13.6983 66.6188 13.9775 67.2671 13.9655C67.9603 13.9568 68.6266 13.6863 69.1385 13.2051C69.6614 12.7325 69.9987 12.0796 70.0873 11.3691L70.3034 9.49511C70.49 8.26208 69.6714 7.10618 68.4753 6.9139C68.3441 6.89271 68.2112 6.88402 68.0789 6.88782H68.0842ZM67.0299 15.9481C65.8971 15.9693 64.8112 15.4843 64.0516 14.6173C63.2984 13.7211 62.9599 12.5315 63.1239 11.3582L63.34 9.48425C63.495 8.22297 64.0933 7.06327 65.0216 6.22514C65.9266 5.3756 67.1027 4.8976 68.3267 4.88347C69.4637 4.86229 70.5528 5.3517 71.3102 6.22514C72.0656 7.12031 72.4046 8.31043 72.238 9.48425L72.0113 11.3582C71.859 12.6206 71.2602 13.7808 70.3298 14.6173C69.4268 15.4658 68.2513 15.9395 67.0299 15.9481Z" fill="white"/>
<path fill-rule="evenodd" clip-rule="evenodd" d="M42.5078 15.9482L43.7835 4.90527H51.079L50.847 6.8879H45.4756L45.1804 9.43544H49.9667L49.7401 11.4121H44.9537L44.6585 13.9656H50.03L49.798 15.9482H42.5078Z" fill="white"/>
<path fill-rule="evenodd" clip-rule="evenodd" d="M33.0354 8.61523L32.1867 15.9482H30.2679L31.5594 4.90527H33.2199L38.4807 12.2383L39.3293 4.90527H41.2323L39.9566 15.9482H38.2962L33.0354 8.61523Z" fill="white"/>
<path fill-rule="evenodd" clip-rule="evenodd" d="M19.1981 9.36451C17.6853 9.13637 15.8719 8.19123 14.1219 7.28411C13.1519 6.77895 12.1715 6.27379 11.1857 5.8501C10.9433 4.91691 10.0129 4.36286 9.10673 4.61273C8.85845 4.68117 8.62862 4.80719 8.43411 4.981C8.22326 4.94841 8.0124 4.91039 7.80155 4.8941C5.89333 4.73657 4.87597 4.98644 3.52647 5.98047C3.52647 5.98047 3.46853 1.80337 7.84372 1.95003C9.65178 2.00978 11.8078 3.21565 13.8899 4.37807C16.1829 5.65455 18.3705 6.88215 20.3947 6.84413C21.4058 6.82512 22.3815 6.45358 23.1622 5.79035C23.1727 5.75776 22.9355 9.92399 19.1981 9.36451ZM18.7501 13.8729C18.4143 13.8376 18.0812 13.7779 17.7538 13.6937C17.4507 12.773 16.4802 12.2803 15.5873 12.5927C15.4576 12.6383 15.3337 12.7002 15.2183 12.7757C14.5752 12.4933 13.9216 12.1782 13.2732 11.8632C11.3386 10.9289 9.3355 9.96201 7.47473 9.69042C5.90546 9.40362 4.29033 9.7757 2.98884 10.7225C2.98884 10.679 3.03101 6.37699 7.42202 6.75722C7.5907 6.75722 7.75938 6.80067 7.94915 6.83327C8.2222 7.76048 9.17262 8.28411 10.0724 8.00274C10.2675 7.94191 10.4493 7.84576 10.6112 7.71866C11.4493 8.09345 12.3085 8.53343 13.1519 8.97341C15.018 9.94028 16.9473 10.9452 18.7237 11.2168C20.0242 11.4932 21.3784 11.2146 22.4769 10.4454L22.6719 10.2934C22.635 10.2716 22.635 14.226 18.7501 13.8729ZM18.2967 18.3814C16.5309 18.3271 14.396 17.3651 12.3296 16.4368C9.16682 15.0028 6.1569 13.5742 3.39473 14.8452C3.04471 15.0093 2.7142 15.2135 2.40899 15.4536C2.40899 15.4047 2.55659 10.9827 6.96341 11.5753C8.59225 11.7974 10.4794 12.7105 12.3033 13.5905C13.0149 13.9381 13.7371 14.2803 14.454 14.5954C14.6079 15.4303 15.3163 16.0337 16.1408 16.0348C16.5646 16.0332 16.9726 15.8691 17.2847 15.5731C17.632 15.6557 17.9842 15.7154 18.3389 15.7524C19.6647 15.9609 21.0167 15.6231 22.1026 14.8127C22.0868 14.9207 22.1185 18.5063 18.2967 18.3814ZM23.8685 0L23.6682 1.6893C23.4616 2.96416 22.7215 4.0804 21.644 4.742C20.0205 5.53505 17.427 4.09561 14.96 2.71049C12.7091 1.45574 10.3845 0.152092 8.17054 0.0814777C6.54065 -0.0309615 4.93132 0.505705 3.67411 1.58067C2.58453 2.58121 1.90136 3.96797 1.76062 5.46444L0 20.2282H1.8186L1.9662 19.0006C2.22028 17.9055 2.95774 16.9968 3.95876 16.5454C5.83535 15.6817 8.66605 16.9528 11.4019 18.175C13.6105 19.169 15.893 20.1951 17.9857 20.2608H18.3916C19.7126 20.2901 20.9993 19.8295 22.0183 18.9626C23.1284 17.9099 23.8069 16.4607 23.916 14.9104L25.6819 0.0162955L23.8685 0Z" fill="white"/>
</svg>
