<svg width="64" height="64" viewBox="0 0 64 64" fill="none" xmlns="http://www.w3.org/2000/svg">
<path fill-rule="evenodd" clip-rule="evenodd" d="M58.8797 20.48C58.0624 20.4853 57.2586 20.6885 56.537 21.0724L35.7946 5.56493C35.7995 5.5097 35.8069 5.45533 35.8144 5.40092C35.827 5.30879 35.8397 5.21657 35.8397 5.12C35.8397 2.2923 33.5474 0 30.7197 0C27.892 0 25.5997 2.2923 25.5997 5.12C25.6077 5.33276 25.6291 5.5448 25.6637 5.75488L7.55169 21.12C6.80768 20.7057 5.97125 20.4856 5.11969 20.48C2.47612 20.4782 0.266534 22.4908 0.0221664 25.123C-0.222201 27.7552 1.57914 30.1402 4.17786 30.625L12.8709 55.4624L12.8842 55.4798C12.4312 58.1497 14.144 60.7081 16.785 61.3067C19.4261 61.9053 22.0745 60.3354 22.817 57.7311L41.0744 58.7448C41.5623 61.4445 43.7182 63.5318 46.4322 63.9324C49.1461 64.3331 51.8131 62.9576 53.0603 60.5141C54.3074 58.0706 53.8567 55.1038 51.94 53.141L59.8207 30.6248C62.4187 30.1393 64.2192 27.755 63.9751 25.1234C63.731 22.4918 61.5226 20.4793 58.8797 20.48ZM30.7197 2.55993C32.1335 2.55993 33.2797 3.70609 33.2797 5.11994C33.2797 6.53378 32.1335 7.67993 30.7197 7.67993C29.3058 7.67993 28.1597 6.53378 28.1597 5.11994C28.1614 3.70679 29.3065 2.56163 30.7197 2.55993ZM30.8261 10.239C29.2066 10.2706 27.6691 9.52812 26.6869 8.2401L9.4392 22.8738C9.96008 23.6878 10.2378 24.6336 10.2397 25.6C10.2397 25.6387 10.2344 25.6763 10.229 25.7142L10.229 25.7142C10.2243 25.7472 10.2197 25.7804 10.2185 25.8145L28.962 31.5182C30.0361 29.5095 32.1034 28.2295 34.3803 28.1634C36.6572 28.0973 38.7952 29.2552 39.9841 31.1982L53.8109 26.1038C53.8052 26.0467 53.7975 25.9903 53.7898 25.934L53.7898 25.934C53.7747 25.8239 53.7597 25.7141 53.7597 25.6C53.7603 24.6101 54.0497 23.6419 54.5922 22.8139L34.8841 8.0801C33.9529 9.40546 32.4456 10.2074 30.8261 10.239ZM38.3997 34.56C38.3997 36.6808 36.6805 38.4 34.5597 38.4C32.4389 38.4 30.7197 36.6808 30.7197 34.56C30.7197 32.4393 32.4389 30.72 34.5597 30.72C36.6795 30.7224 38.3973 32.4403 38.3997 34.56ZM5.11966 23.04C3.70582 23.04 2.55966 24.1862 2.55966 25.6C2.56136 27.0132 3.70652 28.1583 5.11966 28.16C6.53351 28.16 7.67966 27.0139 7.67966 25.6C7.67966 24.1862 6.53351 23.04 5.11966 23.04ZM17.9197 58.8801C16.5058 58.8801 15.3597 57.7339 15.3597 56.3201C15.3597 54.9062 16.5058 53.7601 17.9197 53.7601C19.3335 53.7601 20.4797 54.9062 20.4797 56.3201C20.4797 57.7339 19.3335 58.8801 17.9197 58.8801ZM43.5197 57.6001C43.5197 59.7208 45.2389 61.4401 47.3597 61.4401C49.4805 61.4401 51.1997 59.7208 51.1997 57.6001C51.1997 55.4793 49.4805 53.7601 47.3597 53.7601C45.2389 53.7601 43.5197 55.4793 43.5197 57.6001ZM49.7428 51.6688C48.0065 50.963 46.0475 51.0579 44.3875 51.9281C42.7276 52.7984 41.5352 54.3556 41.1281 56.1851L22.9009 55.1726C22.5061 53.4124 21.2083 51.9931 19.4903 51.4427C17.7723 50.8923 15.8913 51.2933 14.5471 52.4964L6.81593 30.4103C7.92184 30.021 8.86019 29.2632 9.47346 28.264L28.2193 33.9689C28.2128 34.0391 28.2033 34.1086 28.1939 34.1781L28.1939 34.1781L28.1939 34.1782C28.1768 34.304 28.1597 34.4299 28.1597 34.5603C28.1597 38.0949 31.025 40.9603 34.5597 40.9603C38.0943 40.9603 40.9597 38.0949 40.9597 34.5603C40.9518 34.2392 40.9196 33.9191 40.8632 33.6029L54.6759 28.5128C55.2923 29.393 56.17 30.0568 57.1847 30.4103L49.7428 51.6688ZM56.3197 25.6C56.3197 27.0139 57.4658 28.16 58.8797 28.16C60.2928 28.1583 61.438 27.0132 61.4397 25.6C61.4397 24.1862 60.2935 23.04 58.8797 23.04C57.4658 23.04 56.3197 24.1862 56.3197 25.6Z" fill="#30CEC2" fill-opacity="0.4"/>
</svg>
