<svg width="115" height="29" viewBox="0 0 115 29" fill="none" xmlns="http://www.w3.org/2000/svg">
<g clip-path="url(#clip0_2004_2224)">
<path fill-rule="evenodd" clip-rule="evenodd" d="M45.9673 13.7625C46.6771 9.87696 45.1668 8.78161 43.0963 8.78161C42.2617 8.78723 41.4327 8.92348 40.6362 9.18587L38.6137 19.2575C39.3795 19.5691 40.1941 19.7255 41.0151 19.718C43.638 19.718 45.3056 17.4452 45.9059 14.0772L45.9673 13.7625ZM38.1228 21.6732L37.0848 26.7668C36.9461 27.5169 36.5912 27.8315 35.9081 27.8315H34.9849C34.2752 27.8315 34.0271 27.5169 34.1658 26.7668L37.8773 8.39393C38.0961 7.35729 38.6778 7.18593 39.134 7.01175C40.0626 6.63811 42.0317 6.35156 43.5873 6.35156C47.4428 6.35156 50.2311 8.36584 49.0811 13.7454L49.0011 14.1193C47.9071 19.2123 45.4737 22.1792 41.402 22.1792C40.2928 22.1601 39.1906 21.9901 38.1228 21.6732Z" fill="white"/>
<path fill-rule="evenodd" clip-rule="evenodd" d="M60.6157 8.00565C60.3702 8.55066 60.4532 9.01138 59.6608 8.98329C59.1541 8.89957 58.6418 8.86109 58.1292 8.86811C57.2001 8.88637 56.2793 9.05128 55.3967 9.35693L53.0727 20.8105C52.9369 21.5577 52.582 21.8752 51.896 21.8752H50.9675C50.258 21.8752 50.0122 21.5577 50.1486 20.8105L52.6887 8.26411C52.8275 7.63202 53.1557 7.25838 53.9185 7.02802C55.314 6.46615 56.8722 6.33693 58.292 6.33693C59.0081 6.32232 59.7237 6.38918 60.4263 6.53639C61.056 6.65157 60.9735 6.99711 60.728 7.77529L60.6157 8.00565Z" fill="white"/>
<path fill-rule="evenodd" clip-rule="evenodd" d="M70.128 13.9895C70.8378 10.7391 70.0453 8.78101 67.7773 8.78101C65.4267 8.78101 64.0872 10.6242 63.3481 13.9895L63.2414 14.4811C62.5292 17.7905 63.3775 19.7176 65.5627 19.7176C67.748 19.7176 69.2529 17.9899 70.0186 14.4811L70.128 13.9895ZM60.2877 13.9895C61.4083 8.84001 64.0872 6.33691 68.2683 6.33691C72.3133 6.33691 74.2824 8.95519 73.1885 13.9895L73.0791 14.4811C71.9584 19.6305 69.2529 22.1645 65.0744 22.1645C61.0294 22.1645 59.087 19.5154 60.1809 14.4811L60.2877 13.9895Z" fill="white"/>
<path fill-rule="evenodd" clip-rule="evenodd" d="M75.7578 7.68854C75.9206 6.94127 76.2755 6.62382 76.9615 6.62382H77.8897L78.1566 5.24164C78.8129 1.99127 81.3824 0.437726 85.2649 0.437726C86.468 0.43014 87.6653 0.613869 88.8161 0.982731C89.4724 1.15691 89.7179 1.41536 89.3631 2.16264L89.2537 2.393C88.9257 3.08409 88.6242 3.28636 87.8875 3.23579C87.0294 3.01189 86.1489 2.89671 85.2649 2.89306C82.4206 2.89306 81.3557 3.75552 81.0545 5.25007L80.7877 6.63224H87.618C88.3305 6.63224 88.5759 6.9497 88.4185 7.69697L86.3613 17.9453C86.1428 19.01 86.2789 19.4399 86.9083 19.4399C87.1399 19.4326 87.3696 19.3938 87.5916 19.3247C87.9195 19.2685 87.9756 19.4115 87.9756 19.8865L87.9465 20.2908C87.9195 20.9229 87.8929 21.3555 86.9913 21.614C86.5353 21.7879 86.0539 21.8753 85.5691 21.8728C83.7654 21.8728 82.7806 21.0971 83.4105 17.9594L85.2407 9.00892H80.3207L77.9193 20.808C77.7833 21.555 77.4284 21.8728 76.7451 21.8728H75.8085C75.1257 21.8728 74.88 21.555 75.0081 20.808L77.4095 9.00892H76.4783C75.8779 9.00892 75.523 8.72799 75.6778 7.94419L75.7578 7.68854Z" fill="white"/>
<path fill-rule="evenodd" clip-rule="evenodd" d="M101.477 8.09283C101.231 8.78111 101.066 8.95529 100.575 8.93563C99.8227 8.83955 99.0652 8.79067 98.3071 8.78954C95.4359 8.78954 94.0166 10.6044 93.2775 14.0286L93.1679 14.5177C92.4024 18.0293 93.4963 19.7262 96.2016 19.7262C96.9882 19.7197 97.7732 19.6616 98.5526 19.552C98.9341 19.5239 99.07 19.7262 99.0169 20.4173L98.9902 20.878C98.9902 21.4179 98.5745 21.8556 98.0616 21.8556C97.0496 22.0419 96.0255 22.143 94.9985 22.159C90.7294 22.159 88.9604 19.5969 90.1344 14.3604L90.2171 14.012C91.3084 9.14913 93.4697 6.32859 98.1147 6.32859C99.1143 6.30949 100.113 6.4036 101.093 6.60952C101.586 6.7247 101.893 6.89045 101.639 7.61806L101.477 8.09283Z" fill="white"/>
<path fill-rule="evenodd" clip-rule="evenodd" d="M111.589 13.9895C112.299 10.7391 111.507 8.78101 109.239 8.78101C106.888 8.78101 105.548 10.6242 104.812 13.9895L104.703 14.4811C103.99 17.7905 104.839 19.7176 107.024 19.7176C109.209 19.7176 110.714 17.9899 111.48 14.4811L111.589 13.9895ZM101.752 13.9895C102.87 8.84001 105.548 6.33691 109.732 6.33691C113.775 6.33691 115.744 8.95519 114.65 13.9895L114.541 14.4811C113.43 19.6305 110.714 22.1589 106.533 22.1589C102.488 22.1589 100.548 19.5097 101.642 14.4755L101.752 13.9895Z" fill="white"/>
<path fill-rule="evenodd" clip-rule="evenodd" d="M16.7611 9.79797C16.6146 10.4489 16.0751 10.9183 15.4404 10.947H13.682C13.2079 10.9672 12.8079 10.579 12.7887 10.0797C12.785 9.98479 12.7956 9.88955 12.8202 9.79797L13.1884 7.94664C13.3354 7.296 13.8747 6.82713 14.5092 6.79763H16.2675C16.7416 6.7774 17.1416 7.16565 17.1608 7.66486C17.1643 7.75982 17.1539 7.85505 17.1293 7.94664L16.7611 9.79797Z" fill="white"/>
<path fill-rule="evenodd" clip-rule="evenodd" d="M22.0681 9.79832C21.9214 10.4549 21.3744 10.926 20.734 10.9473H18.9757C18.4999 10.967 18.0992 10.5771 18.0805 10.0764C18.077 9.98261 18.0874 9.88878 18.1112 9.79832L18.4821 7.94698C18.6288 7.29045 19.1761 6.81933 19.8162 6.79798H21.5745C22.0484 6.77354 22.4516 7.15813 22.4748 7.65706C22.4793 7.75399 22.4692 7.85091 22.4443 7.94418L22.0681 9.79832Z" fill="white"/>
<path fill-rule="evenodd" clip-rule="evenodd" d="M27.3726 9.79793C27.2272 10.4494 26.6871 10.9194 26.0518 10.9469H24.2935C23.8193 10.9672 23.4194 10.5789 23.4001 10.0797C23.3964 9.98475 23.4071 9.88951 23.4316 9.79793L23.7998 7.94659C23.9469 7.29596 24.4861 6.82709 25.1206 6.79759H26.879C27.3544 6.77792 27.7552 7.16785 27.7739 7.66847C27.7776 7.7623 27.7672 7.85613 27.7435 7.94659L27.3726 9.79793Z" fill="white"/>
<path fill-rule="evenodd" clip-rule="evenodd" d="M15.6458 15.3835C15.4991 16.04 14.9518 16.5111 14.3117 16.5325H12.572C12.0979 16.5527 11.6979 16.1645 11.6787 15.6653C11.675 15.5703 11.6856 15.4751 11.7102 15.3835L12.0784 13.5293C12.2262 12.8734 12.7724 12.4028 13.4125 12.3806H15.1682C15.6439 12.3607 16.0447 12.7506 16.0634 13.2512C16.0669 13.345 16.0564 13.4389 16.0327 13.5293L15.6458 15.3835Z" fill="white"/>
<path fill-rule="evenodd" clip-rule="evenodd" d="M20.9554 15.3835C20.8092 16.0344 20.2697 16.5039 19.6347 16.5325H17.8737C17.3995 16.5528 16.9996 16.1645 16.9803 15.6653C16.9766 15.5703 16.9873 15.4751 17.0118 15.3835L17.38 13.5294C17.5271 12.8787 18.0663 12.4099 18.7008 12.3807H20.4618C20.936 12.3602 21.3359 12.7484 21.3551 13.2476C21.3589 13.3426 21.3482 13.4378 21.3237 13.5294L20.9554 15.3835Z" fill="white"/>
<path fill-rule="evenodd" clip-rule="evenodd" d="M26.2599 15.3835C26.1131 16.0401 25.5661 16.5112 24.9258 16.5325H23.1674C22.6933 16.5528 22.2933 16.1645 22.2741 15.6653C22.2706 15.5703 22.281 15.4751 22.3056 15.3835L22.6738 13.5294C22.8216 12.8734 23.3681 12.4029 24.0079 12.3807H25.7662C26.2404 12.3602 26.6403 12.7484 26.6596 13.2476C26.6633 13.3426 26.6526 13.4378 26.6281 13.5294L26.2599 15.3835Z" fill="white"/>
<path fill-rule="evenodd" clip-rule="evenodd" d="M14.5332 20.9679C14.3878 21.6194 13.8477 22.0894 13.2124 22.1169H11.4568C10.981 22.1366 10.5805 21.7466 10.5616 21.246C10.5581 21.1522 10.5685 21.0583 10.5922 20.9679L10.9605 19.1166C11.1091 18.4611 11.655 17.9909 12.2946 17.9676H14.0503C14.5244 17.9473 14.9244 18.3356 14.9436 18.8348C14.947 18.9297 14.9366 19.025 14.9121 19.1166L14.5332 20.9679Z" fill="white"/>
<path fill-rule="evenodd" clip-rule="evenodd" d="M19.8402 20.9678C19.6951 21.6185 19.1564 22.0879 18.5221 22.1169H16.7611C16.287 22.1371 15.887 21.7488 15.8678 21.2496C15.8641 21.1547 15.8747 21.0594 15.8993 20.9678L16.2675 19.1165C16.4142 18.46 16.9612 17.9889 17.6016 17.9675H19.36C19.8354 17.9478 20.2362 18.3378 20.2551 18.8387C20.2586 18.9322 20.2482 19.0261 20.2245 19.1165L19.8402 20.9678Z" fill="white"/>
<path fill-rule="evenodd" clip-rule="evenodd" d="M6.20288 9.79797C6.05666 10.4489 5.51715 10.9183 4.88212 10.947H3.1211C2.64695 10.9672 2.24699 10.579 2.22778 10.0797C2.22404 9.98479 2.23472 9.88955 2.25926 9.79797L2.62748 7.94664C2.7761 7.29123 3.32201 6.82095 3.96158 6.79763H5.7226C6.19675 6.7774 6.59671 7.16565 6.61592 7.66486C6.61966 7.75982 6.60899 7.85505 6.58444 7.94664L6.20288 9.79797Z" fill="white"/>
<path fill-rule="evenodd" clip-rule="evenodd" d="M17.7803 4.52244C17.6336 5.17897 17.0863 5.65009 16.4462 5.67144H14.7065C14.2324 5.69167 13.8324 5.30342 13.8132 4.80421C13.8095 4.70925 13.8202 4.61402 13.8447 4.52244L14.2129 2.66829C14.3621 2.01344 14.9077 1.54345 15.547 1.51929H17.3054C17.7809 1.49934 18.1816 1.88927 18.2006 2.39017C18.204 2.484 18.1936 2.57783 18.1699 2.66829L17.7803 4.52244Z" fill="white"/>
<path fill-rule="evenodd" clip-rule="evenodd" d="M10.3946 15.3835C10.2471 16.0395 9.70036 16.5103 9.06053 16.5325H7.31551C6.84004 16.5522 6.43927 16.1623 6.42033 15.6616C6.41686 15.5678 6.42727 15.474 6.45101 15.3835L6.8219 13.5294C6.96971 12.8734 7.51616 12.4029 8.156 12.3807H9.90368C10.3778 12.3602 10.7778 12.7484 10.797 13.2476C10.8007 13.3426 10.7901 13.4378 10.7655 13.5294L10.3946 15.3835Z" fill="white"/>
<path fill-rule="evenodd" clip-rule="evenodd" d="M3.97496 20.9679C3.8282 21.6244 3.28122 22.0955 2.64085 22.1169H0.895837C0.420361 22.1366 0.0195957 21.7466 0.000651423 21.246C-0.00281725 21.1522 0.00758878 21.0583 0.0313359 20.9679L0.402218 19.1166C0.549236 18.46 1.09595 17.9889 1.73632 17.9676H3.49468C3.96882 17.9473 4.36878 18.3356 4.38799 18.8348C4.39173 18.9297 4.38106 19.025 4.35651 19.1166L3.97496 20.9679Z" fill="white"/>
<path fill-rule="evenodd" clip-rule="evenodd" d="M9.28212 20.9678C9.1335 21.6233 8.58758 22.0935 7.94801 22.1169H6.18966C5.71392 22.1365 5.31315 21.7466 5.29447 21.246C5.29101 21.1521 5.30141 21.0583 5.32516 20.9678L5.69337 19.1165C5.84173 18.4611 6.38791 17.9908 7.02748 17.9675H8.78583C9.26131 17.9478 9.66207 18.3378 9.68102 18.8387C9.68449 18.9322 9.67408 19.0261 9.65033 19.1165L9.28212 20.9678Z" fill="white"/>
<path fill-rule="evenodd" clip-rule="evenodd" d="M7.70783 26.6993C7.56108 27.3559 7.01383 27.827 6.37373 27.8483H4.61537C4.14097 27.8607 3.74687 27.466 3.73513 26.9665C3.733 26.8763 3.74367 26.7864 3.76688 26.6993L4.1351 24.848C4.28185 24.1915 4.82883 23.7203 5.4692 23.699H7.22756C7.7017 23.6788 8.10166 24.067 8.12087 24.566C8.12461 24.6612 8.11394 24.7564 8.08939 24.848L7.70783 26.6993Z" fill="white"/>
</g>
<defs>
<clipPath id="clip0_2004_2224">
<rect width="115" height="28" fill="white" transform="translate(0 0.4375)"/>
</clipPath>
</defs>
</svg>
