<svg width="64" height="62" viewBox="0 0 64 62" fill="none" xmlns="http://www.w3.org/2000/svg">
<path fill-rule="evenodd" clip-rule="evenodd" d="M48.64 5.67957H61.44C62.8538 5.67957 64 6.82572 64 8.23957V59.4396C64 60.8534 62.8538 61.9996 61.44 61.9996H2.56C1.14615 61.9996 0 60.8534 0 59.4396V8.23957C0 6.82572 1.14615 5.67957 2.56 5.67957H15.36V1.83957C15.36 1.13265 15.9331 0.55957 16.64 0.55957C17.3469 0.55957 17.92 1.13265 17.92 1.83957V5.67957H46.08V1.83957C46.08 1.13265 46.6531 0.55957 47.36 0.55957C48.0669 0.55957 48.64 1.13265 48.64 1.83957V5.67957ZM2.56004 59.4397H61.44V21.0397H2.56004V59.4397ZM61.44 18.4796H2.56004V8.23958H61.44V18.4796ZM46.08 40.2395C46.08 48.0157 39.7761 54.3195 32 54.3195C24.2238 54.3195 17.92 48.0157 17.92 40.2395C17.92 32.4634 24.2238 26.1595 32 26.1595C39.7761 26.1595 46.08 32.4634 46.08 40.2395ZM32 28.7197C38.3623 28.7197 43.52 33.8773 43.52 40.2397C43.52 46.602 38.3623 51.7597 32 51.7597C25.6377 51.7597 20.48 46.602 20.48 40.2397C20.487 33.8803 25.6406 28.7267 32 28.7197ZM30.72 41.5195C30.72 41.9224 30.9097 42.3018 31.232 42.5435L36.352 46.3835C36.7179 46.6579 37.2023 46.7163 37.6228 46.5366C38.0434 46.357 38.3361 45.9667 38.3908 45.5126C38.4455 45.0586 38.2539 44.6099 37.888 44.3355L33.28 40.8795V35.1195C33.28 34.4126 32.707 33.8395 32 33.8395C31.2931 33.8395 30.72 34.4126 30.72 35.1195V41.5195Z" fill="#30CEC2" fill-opacity="0.4"/>
</svg>
