<svg width="146" height="15" viewBox="0 0 146 15" fill="none" xmlns="http://www.w3.org/2000/svg">
<path fill-rule="evenodd" clip-rule="evenodd" d="M145.805 1.3L141.036 9.705V14C141.036 14.55 140.842 14.95 140.306 14.95H138.652C138.116 14.95 137.922 14.65 137.922 14V9.67L133.346 1.3C133.055 0.75 133.152 0.25 133.736 0.25H135.391C136.121 0.25 136.412 0.65 136.705 1.2L139.673 6.9L142.545 1.2C142.836 0.65 143.178 0.25 143.762 0.25H145.416C146.048 0.25 146.146 0.8 145.805 1.3Z" fill="white"/>
<path fill-rule="evenodd" clip-rule="evenodd" d="M132.519 1V2.25C132.519 2.8 132.227 3 131.595 3H128.334V14C128.334 14.55 128.139 14.95 127.604 14.95H125.949C125.414 14.95 125.219 14.55 125.219 14V3H121.521C120.888 3 120.596 2.8 120.596 2.25V1C120.596 0.45 120.985 0.25 121.521 0.25H131.595C132.13 0.25 132.519 0.45 132.519 1Z" fill="white"/>
<path fill-rule="evenodd" clip-rule="evenodd" d="M119.331 1.2V13.95C119.331 14.5 119.136 14.9 118.601 14.9H116.946C116.411 14.9 116.216 14.5 116.216 13.95V1.2C116.216 0.65 116.411 0.25 116.946 0.25H118.601C119.087 0.25 119.331 0.65 119.331 1.2Z" fill="white"/>
<path fill-rule="evenodd" clip-rule="evenodd" d="M107.213 6.6502V8.5502C107.213 10.3502 107.845 12.1502 109.695 12.1502H113.296C113.832 12.1502 114.221 12.3502 114.221 12.9002V14.1502C114.221 14.7007 113.929 14.9002 113.296 14.9002H109.695C106.191 14.9002 104.147 12.2502 104.147 8.7007V6.4002C104.147 2.8002 106.191 0.200195 109.695 0.200195H113.393C113.929 0.200195 114.318 0.400195 114.318 0.950195V2.2002C114.318 2.7502 114.026 2.9502 113.393 2.9502H109.695C107.845 2.9502 107.213 4.7502 107.213 6.6502Z" fill="white"/>
<path fill-rule="evenodd" clip-rule="evenodd" d="M80.6893 6.4998V8.39981C80.6893 10.2498 81.322 11.9998 83.1718 11.9998H86.7726C87.3084 11.9998 87.6973 12.1998 87.6973 12.7498V13.9998C87.6973 14.5498 87.4053 14.7498 86.7726 14.7498H83.1718C79.6673 14.7498 77.6233 12.0998 77.6233 8.54981V6.2498C77.6233 2.6498 79.6673 0.0498047 83.1718 0.0498047H86.87C87.4053 0.0498047 87.7951 0.249805 87.7951 0.799805V2.0498C87.7951 2.5998 87.5026 2.7998 86.87 2.7998H83.1718C81.322 2.7998 80.6893 4.5998 80.6893 6.4998Z" fill="white"/>
<path fill-rule="evenodd" clip-rule="evenodd" d="M64.8241 0.8V2.05C64.8241 2.6 64.5321 2.8 63.8994 2.8H60.1035V13.85C60.1035 14.4 59.9088 14.8 59.3734 14.8H57.7188C57.1834 14.8 56.9888 14.4 56.9888 13.85V2.75H54.3121C53.6795 2.75 53.3875 2.55 53.3875 2V0.75C53.3875 0.2 53.7768 0 54.3121 0H63.8994V0.05C64.4348 0.05 64.8241 0.25 64.8241 0.8Z" fill="white"/>
<path fill-rule="evenodd" clip-rule="evenodd" d="M101.811 1.10039V13.8504C101.811 14.4004 101.616 14.7999 101.081 14.7999H99.4261C98.8908 14.7999 98.6961 14.4004 98.6961 13.8504V8.75039H92.5641V13.8504C92.5641 14.4004 92.3695 14.7999 91.8341 14.7999H90.1795C89.6441 14.7999 89.4495 14.4004 89.4495 13.8504V1.10039C89.4495 0.550391 89.6441 0.150391 90.1795 0.150391H91.8341C92.3695 0.150391 92.5641 0.550391 92.5641 1.10039V6.00039H98.6961V1.10039C98.6961 0.550391 98.8908 0.150391 99.4261 0.150391H101.081C101.567 0.150391 101.811 0.550391 101.811 1.10039Z" fill="white"/>
<path fill-rule="evenodd" clip-rule="evenodd" d="M69.4475 2.7998V5.89981H74.265C74.8008 5.89981 75.1901 6.0998 75.1901 6.64981V7.89981C75.1901 8.44981 74.8981 8.64981 74.265 8.64981H69.4475V11.9998H75.3848C76.0175 11.9998 76.3095 12.1998 76.3095 12.7498V13.9998C76.3095 14.5498 75.9201 14.7498 75.3848 14.7498H67.4035C66.6735 14.7498 66.3815 14.4498 66.3815 13.7998V0.999805C66.3815 0.349805 66.6735 0.0498047 67.4035 0.0498047H75.3848C75.9201 0.0498047 76.3095 0.249805 76.3095 0.799805V2.0498C76.3095 2.5998 76.0175 2.7998 75.3848 2.7998H69.4475Z" fill="white"/>
<path fill-rule="evenodd" clip-rule="evenodd" d="M33.3854 14.7498H26.718C25.988 14.7498 25.696 14.4498 25.696 13.7998V0.999805C25.696 0.449805 25.8907 0.0498047 26.426 0.0498047H28.0807C28.616 0.0498047 28.8107 0.449805 28.8107 0.999805V11.9998H33.434C34.0667 11.9998 34.3587 12.1998 34.3587 12.7498V13.9998C34.31 14.5498 33.9207 14.7498 33.3854 14.7498Z" fill="white"/>
<path fill-rule="evenodd" clip-rule="evenodd" d="M38.9334 13.7998C38.9334 14.3503 38.7387 14.7498 38.2034 14.7498H36.5487C36.0134 14.7498 35.8187 14.3503 35.8187 13.7998V0.999805C35.8187 0.449805 36.0134 0.0498047 36.5487 0.0498047H38.2034C38.6901 0.0498047 38.9334 0.449805 38.9334 0.999805V13.7998Z" fill="white"/>
<path fill-rule="evenodd" clip-rule="evenodd" d="M50.9053 0.05C51.4407 0.05 51.83 0.25 51.83 0.8V2.05C51.83 2.6 51.538 2.8 50.9053 2.8H48.1313V13.85C48.1313 14.4 47.9367 14.8 47.4013 14.8H45.7467C45.2114 14.8 45.0167 14.4 45.0167 13.85V2.75H41.3667C40.734 2.75 40.442 2.55 40.442 2V0.75C40.442 0.2 40.8313 0 41.3667 0H50.9053V0.05Z" fill="white"/>
<path fill-rule="evenodd" clip-rule="evenodd" d="M7.78667 10.7498C7.78667 10.0998 7.154 9.59981 5.84 9.04981C3.504 8.14981 0 6.94981 0 4.3498C0 1.9498 1.41133 0.0498047 4.818 0.0498047H9.10067C9.636 0.0498047 10.0253 0.249805 10.0253 0.799805V2.0498C10.0253 2.5998 9.636 2.7998 9.10067 2.7998H5.01267C4.088 2.7498 2.96867 2.9998 2.96867 3.8998C2.96867 4.64981 3.69867 5.04981 4.72067 5.4998C7.3 6.54981 10.7553 7.79981 10.7553 10.4498C10.7553 13.2998 8.906 14.7498 5.93733 14.7498H1.11933C0.584 14.7498 0.194667 14.5498 0.194667 13.9998V12.7498C0.194667 12.1998 0.584 11.9998 1.11933 11.9998H5.74267C6.66733 11.9998 7.78667 11.6998 7.78667 10.7498Z" fill="white"/>
<path fill-rule="evenodd" clip-rule="evenodd" d="M20.8779 5.1998C20.8779 6.44981 19.7586 6.89981 18.5419 7.19981L15.7679 7.84981V2.7498H18.5419C19.7586 2.7498 20.8779 3.14981 20.8779 4.44981V5.1998ZM18.3472 0.0498047H13.7239C13.0912 0.0498047 12.7019 0.449805 12.7019 1.2998V13.7998C12.7019 14.3498 12.8966 14.7498 13.4319 14.7498H15.0866C15.6219 14.7498 15.8166 14.3498 15.8166 13.7998V10.4498L18.6879 9.79981C21.4619 9.14981 24.1386 8.19981 24.1386 5.29981V4.04981C24.0899 0.999805 21.3159 0.0498047 18.3472 0.0498047Z" fill="white"/>
</svg>
