<svg width="73" height="72" viewBox="0 0 73 72" fill="none" xmlns="http://www.w3.org/2000/svg">
<mask id="mask0_2004_1416" style="mask-type:alpha" maskUnits="userSpaceOnUse" x="0" y="0" width="73" height="72">
<path d="M0.489746 0H72.1447V71.7555H0.489746V0Z" fill="white"/>
</mask>
<g mask="url(#mask0_2004_1416)">
<path fill-rule="evenodd" clip-rule="evenodd" d="M36.2709 71.0646C16.7427 71.0207 1.0993 55.2213 1.177 35.621C1.25479 16.2544 17.0831 0.620493 36.5406 0.688404C55.838 0.759191 71.5036 16.5805 71.4527 35.952C71.3988 55.3989 55.6609 71.1058 36.2709 71.0646ZM36.3584 1.10325e-06C16.5438 -0.00486439 0.494362 16.0841 0.489746 35.9593C0.487074 55.6252 16.6188 71.7628 36.2782 71.7555C56.0518 71.7507 72.1423 55.669 72.1447 35.9179C72.1471 16.1206 56.0882 0.0048688 36.3584 1.10325e-06Z" fill="white"/>
</g>
<path fill-rule="evenodd" clip-rule="evenodd" d="M38.9939 17.5244C38.833 17.7146 38.6721 17.8974 38.5186 18.0875C38.9135 18.1022 39.0744 17.9193 38.9939 17.5244ZM38.9939 17.5244C38.833 17.7146 38.6721 17.8974 38.5186 18.0875C38.9135 18.1022 39.0744 17.9193 38.9939 17.5244ZM38.9939 17.5244C38.833 17.7146 38.6721 17.8974 38.5186 18.0875C38.9135 18.1022 39.0744 17.9193 38.9939 17.5244ZM38.9939 17.5244C38.833 17.7146 38.6721 17.8974 38.5186 18.0875C38.9135 18.1022 39.0744 17.9193 38.9939 17.5244ZM38.9939 17.5244C38.833 17.7146 38.6721 17.8974 38.5186 18.0875C38.9135 18.1022 39.0744 17.9193 38.9939 17.5244ZM38.9939 17.5244C38.833 17.7146 38.6721 17.8974 38.5186 18.0875C38.9135 18.1022 39.0744 17.9193 38.9939 17.5244ZM38.9939 17.5244C38.833 17.7146 38.6721 17.8974 38.5186 18.0875C38.9135 18.1022 39.0744 17.9193 38.9939 17.5244ZM38.9939 17.5244C38.833 17.7146 38.6721 17.8974 38.5186 18.0875C38.9135 18.1022 39.0744 17.9193 38.9939 17.5244ZM38.9939 17.5244C38.833 17.7146 38.6721 17.8974 38.5186 18.0875C38.9135 18.1022 39.0744 17.9193 38.9939 17.5244ZM38.9939 17.5244C38.833 17.7146 38.6721 17.8974 38.5186 18.0875C38.9135 18.1022 39.0744 17.9193 38.9939 17.5244ZM38.9939 17.5244C38.833 17.7146 38.6721 17.8974 38.5186 18.0875C38.9135 18.1022 39.0744 17.9193 38.9939 17.5244ZM38.9939 17.5244C38.833 17.7146 38.6721 17.8974 38.5186 18.0875C38.9135 18.1022 39.0744 17.9193 38.9939 17.5244ZM38.9939 17.5244C38.833 17.7146 38.6721 17.8974 38.5186 18.0875C38.9135 18.1022 39.0744 17.9193 38.9939 17.5244ZM38.9939 17.5244C38.833 17.7146 38.6721 17.8974 38.5186 18.0875C38.9135 18.1022 39.0744 17.9193 38.9939 17.5244ZM38.9939 17.5244C38.833 17.7146 38.6721 17.8974 38.5186 18.0875C38.9135 18.1022 39.0744 17.9193 38.9939 17.5244ZM38.9939 17.5244C38.833 17.7146 38.6721 17.8974 38.5186 18.0875C38.9135 18.1022 39.0744 17.9193 38.9939 17.5244ZM38.9939 17.5244C38.833 17.7146 38.6721 17.8974 38.5186 18.0875C38.9135 18.1022 39.0744 17.9193 38.9939 17.5244ZM38.9939 17.5244C38.833 17.7146 38.6721 17.8974 38.5186 18.0875C38.9135 18.1022 39.0744 17.9193 38.9939 17.5244ZM38.9939 17.5244C38.833 17.7146 38.6721 17.8974 38.5186 18.0875C38.9135 18.1022 39.0744 17.9193 38.9939 17.5244ZM38.9939 17.5244C38.833 17.7146 38.6721 17.8974 38.5186 18.0875C38.9135 18.1022 39.0744 17.9193 38.9939 17.5244ZM38.9939 17.5244C38.833 17.7146 38.6721 17.8974 38.5186 18.0875C38.9135 18.1022 39.0744 17.9193 38.9939 17.5244ZM38.9939 17.5244C38.833 17.7146 38.6721 17.8974 38.5186 18.0875C38.9135 18.1022 39.0744 17.9193 38.9939 17.5244ZM38.9939 17.5244C38.833 17.7146 38.6721 17.8974 38.5186 18.0875C38.9135 18.1022 39.0744 17.9193 38.9939 17.5244ZM38.9939 17.5244C38.833 17.7146 38.6721 17.8974 38.5186 18.0875C38.9135 18.1022 39.0744 17.9193 38.9939 17.5244ZM38.9939 17.5244C38.833 17.7146 38.6721 17.8974 38.5186 18.0875C38.9135 18.1022 39.0744 17.9193 38.9939 17.5244ZM38.9939 17.5244C38.833 17.7146 38.6721 17.8974 38.5186 18.0875C38.9135 18.1022 39.0744 17.9193 38.9939 17.5244ZM38.9939 17.5244C38.833 17.7146 38.6721 17.8974 38.5186 18.0875C38.9135 18.1022 39.0744 17.9193 38.9939 17.5244Z" fill="white"/>
<path fill-rule="evenodd" clip-rule="evenodd" d="M49.744 8.29549C49.7837 7.2185 48.7853 7.11572 48.0689 6.8021C47.3376 6.48181 47.4958 7.29484 47.2583 7.59214C47.1057 7.78344 46.9399 8.05981 47.3229 8.25157C47.5848 8.3824 47.8209 8.42885 48.0538 8.19938C48.2478 8.00808 48.3745 7.58064 48.7586 7.93243C49.0752 8.22237 48.7881 8.49392 48.6798 8.75765C48.5058 9.18164 48.3285 9.60563 48.1186 10.0121C48.0296 10.1844 47.9912 10.4934 47.6528 10.3729C47.3832 10.277 47.3319 10.1122 47.431 9.84131C47.5938 9.39731 47.3944 9.00597 46.9746 8.95976C46.3489 8.89078 46.4305 9.5716 46.2116 9.92063C46.0493 10.1798 45.8001 10.5357 46.3256 10.758C47.2011 11.1289 48.0887 11.7297 48.8111 10.524C48.9439 10.3028 49.1249 10.1784 49.3787 10.2915C49.752 10.4577 49.5617 10.7265 49.4755 10.9684C49.4499 11.0402 49.4044 11.1041 49.3755 11.1744C48.7738 12.6349 48.7724 12.6384 47.3349 12.0008C46.2523 11.5207 45.1734 11.0328 44.0954 10.5433C43.8634 10.438 43.5345 10.3784 43.669 10.0004C43.7625 9.73692 43.9713 9.70151 44.2267 9.79601C44.5446 9.9135 44.743 9.73807 44.8623 9.46997C45.2966 8.49346 45.7187 7.51166 46.1511 6.53446C46.2525 6.30522 46.284 6.10242 46.0608 5.92423C45.8314 5.74167 45.4798 5.58508 45.8173 5.21766C46.0785 4.93323 46.3197 5.21076 46.5358 5.30365C47.7981 5.84789 49.0534 6.40938 50.3026 6.98328C50.5877 7.11434 51.0845 7.17068 50.9174 7.64387C50.7167 8.21088 50.6114 9.03678 50.0955 9.2136C49.4757 9.42605 49.5911 8.79421 49.744 8.29549Z" fill="white"/>
<path fill-rule="evenodd" clip-rule="evenodd" d="M10.0589 45.9477C9.92701 45.978 9.72269 46.0063 9.53169 46.0739C9.2872 46.1608 9.0543 46.2419 8.90741 45.9377C8.72725 45.5647 9.00329 45.4168 9.2527 45.2656C9.35794 45.2018 9.4718 45.153 9.57999 45.0939C10.9742 44.3309 10.9742 44.3306 11.6833 45.7395C12.2792 46.9233 12.8801 48.1048 13.4656 49.2941C13.582 49.5302 13.825 49.7928 13.4612 50.0468C13.1635 50.2546 13.0646 49.9933 12.8724 49.8503C12.2568 49.3932 8.71197 51.145 8.73218 51.9213C8.74032 52.2337 8.85443 52.4995 8.49189 52.6067C8.08302 52.7271 8.04482 52.3216 7.92824 52.0958C7.18862 50.6609 6.47464 49.2122 5.7402 47.7744C5.56374 47.4294 5.50853 47.1348 5.94081 46.9846C6.52738 46.7806 7.02695 46.0879 7.6845 46.4073C8.10889 46.6136 7.70421 46.9305 7.47895 47.1738C6.87612 47.8252 7.01931 49.4233 7.7328 49.9019C8.22251 50.2306 8.5466 49.7114 8.94019 49.566C9.16669 49.4824 9.41857 49.3414 9.25196 49.0202C9.06515 48.661 8.80513 48.4182 8.36028 48.6135C8.05541 48.7474 7.90926 48.5702 7.80551 48.3133C7.6909 48.0287 7.91764 47.9536 8.08671 47.8622C8.6649 47.5506 9.24679 47.2459 9.83212 46.9483C10.0032 46.8614 10.188 46.7155 10.363 46.9668C10.5284 47.2044 10.5636 47.4046 10.2866 47.5871C9.83532 47.8843 9.61376 48.3789 10.063 48.7051C10.5574 49.0646 10.9927 48.4362 11.4612 48.2663C11.9815 48.0775 11.8464 47.7241 11.6384 47.3683C11.2739 46.745 11.0854 45.9287 10.0589 45.9477Z" fill="white"/>
<path fill-rule="evenodd" clip-rule="evenodd" d="M22.5855 59.21C23.4503 59.293 24.1782 59.6579 24.7698 60.3151C24.9225 60.4848 25.045 60.6995 25.2261 60.8227C25.495 61.0059 26.1802 60.5995 26.0749 61.2017C25.9672 61.8181 25.6204 62.5195 25.1604 62.902C24.7225 63.2662 24.5736 62.7137 24.6052 62.2821C24.6741 61.3318 24.2145 60.7295 23.4346 60.3288C23.0634 60.1381 22.6889 60.0853 22.4162 60.4617C22.168 60.8041 22.3362 61.147 22.5807 61.4141C23.0475 61.9253 23.5512 62.4008 24.0161 62.9143C24.5586 63.5133 24.767 64.1842 24.2693 64.928C23.7898 65.6457 23.1321 65.9392 22.3053 65.7214C21.7117 65.565 21.174 65.283 20.7499 64.8086C20.6222 64.6658 20.5292 64.389 20.394 64.3697C18.6861 64.1231 19.9347 63.2747 20.082 62.6814C20.1388 62.4529 20.2454 62.1214 20.624 62.2514C20.9485 62.3628 20.9649 62.6158 20.9208 62.9131C20.7935 63.7714 21.174 64.3369 21.891 64.7111C22.2589 64.903 22.6344 64.9835 22.9153 64.6144C23.1782 64.2687 22.9637 63.9236 22.733 63.6657C22.2464 63.1213 21.7001 62.6335 21.224 62.0798C20.7692 61.5512 20.5754 60.9492 20.9363 60.2474C21.2947 59.5505 21.8471 59.2376 22.5855 59.21Z" fill="white"/>
<path fill-rule="evenodd" clip-rule="evenodd" d="M28.1948 4.70747C28.4329 4.72431 28.671 4.75411 28.9094 4.75502C29.2526 4.75684 29.546 4.1069 29.7983 4.47339C30.1045 4.91813 30.1307 5.5378 30.2694 6.08378C30.3134 6.25735 30.1998 6.36313 30.0462 6.4357C29.6854 6.60655 29.5647 6.34471 29.3957 6.12973C28.8105 5.38516 28.0484 5.24753 27.1722 5.59832C26.8674 5.72048 26.5942 5.93022 26.6413 6.27441C26.6885 6.61838 27.0044 6.76374 27.3362 6.79673C28.1276 6.87498 28.9219 6.9248 29.7145 6.99077C30.4166 7.04924 30.9502 7.3634 31.1228 8.02516C31.3163 8.76518 31.1922 9.46016 30.4972 9.95973C29.8014 10.46 29.0064 10.6656 28.1417 10.6097C27.7375 10.5835 27.3551 10.3139 26.978 10.7969C26.7567 11.0803 26.3976 10.9306 26.2973 10.5321C26.2327 10.2757 26.116 10.0202 26.1124 9.7634C26.1079 9.42035 25.6283 9.02634 26.1266 8.74221C26.6405 8.44943 26.7846 8.98426 27.0484 9.22062C27.3117 9.45698 27.5791 9.69993 27.9509 9.74134C28.6799 9.82232 29.6379 9.87965 29.7896 9.11688C29.9689 8.21398 28.9317 8.36526 28.3251 8.25015C27.9396 8.1769 27.5299 8.22262 27.1319 8.20261C26.3201 8.16211 25.6024 7.93826 25.4115 7.08564C25.2065 6.17 25.5539 5.45909 26.4569 5.01572C27.0066 4.74592 27.5877 4.66584 28.1948 4.70747Z" fill="white"/>
<path fill-rule="evenodd" clip-rule="evenodd" d="M62.1201 24.0615C62.0276 23.4176 61.9181 22.7945 61.854 22.1673C61.783 21.4776 62.0215 20.9253 62.7388 20.6238C63.4639 20.3194 64.1161 20.4132 64.6998 20.9215C65.2716 21.4192 65.6291 22.0134 65.6847 22.7636C65.7048 23.0367 65.5546 23.3527 65.9134 23.5645C66.6565 24.0033 66.2132 24.2764 65.7171 24.4431C65.2664 24.5943 64.8034 25.1838 64.353 24.7846C63.8337 24.3243 64.6567 24.0727 64.7899 23.6887C64.8914 23.3968 64.9766 23.1103 64.9148 22.8184C64.7968 22.2635 64.6115 21.561 63.9162 21.6402C63.1109 21.7316 63.3151 22.4426 63.4196 22.994C63.5166 23.5053 63.6409 24.015 63.6901 24.5305C63.7556 25.2174 63.4854 25.7788 62.8052 26.0964C62.1054 26.4225 61.4217 26.3621 60.8208 25.889C60.1245 25.3411 59.7403 24.6265 59.6814 23.7638C59.6665 23.5435 59.6987 23.2999 59.6088 23.1092C59.4787 22.8329 58.6648 22.786 59.1465 22.3422C59.6031 21.9211 60.2753 21.5368 60.9254 21.5811C61.4444 21.6162 61.3588 22.0635 61.0122 22.4015C60.4307 22.9682 60.3044 23.6245 60.6718 24.3469C60.8811 24.7582 61.1253 25.218 61.6959 25.0821C62.2457 24.9512 62.1002 24.4381 62.1201 24.0615Z" fill="white"/>
<path fill-rule="evenodd" clip-rule="evenodd" d="M53.8762 14.94C53.8779 14.3925 54.112 13.963 54.4823 13.5826C55.0553 12.9941 55.6215 12.3991 56.1798 11.7973C56.3814 11.5799 56.7272 11.3683 56.4736 11.0163C56.2738 10.739 56.067 10.5108 56.4809 10.2738C56.8424 10.0666 56.9637 10.4332 57.1456 10.5905C57.6491 11.0261 58.1293 11.4878 58.6095 11.9486C58.7676 12.1001 59.0139 12.2423 58.8187 12.5229C58.6463 12.7713 58.4428 12.7653 58.2243 12.5791C58.1946 12.5536 58.1637 12.507 58.1338 12.5073C56.7666 12.514 56.4987 13.8674 55.6334 14.496C55.2194 14.7965 54.9539 15.2735 55.2422 15.8313C55.6618 16.6435 56.5097 16.8083 57.1839 16.1685C57.836 15.549 58.4406 14.8808 59.0576 14.2264C59.2077 14.0674 59.4713 13.919 59.3062 13.6474C59.1362 13.3673 58.709 13.0794 59.2291 12.8147C59.6345 12.6084 59.7981 13.1011 60.0598 13.2904C60.3132 13.4736 60.5554 13.6803 60.7661 13.9092C60.9337 14.0914 61.3023 14.1989 61.1558 14.5412C60.9857 14.9389 60.7307 14.8377 60.4032 14.6624C60.0287 14.462 59.8553 14.8596 59.6508 15.061C59.0935 15.6101 58.5594 16.182 58.0184 16.7472C57.3667 17.4278 56.6225 17.7813 55.6956 17.3091C54.7093 16.8064 53.9399 16.1256 53.8762 14.94Z" fill="white"/>
<path fill-rule="evenodd" clip-rule="evenodd" d="M49.7768 58.4829C50.4869 58.4415 51.0047 58.7776 51.3446 59.4314C51.7272 60.1678 52.0819 60.9213 52.4738 61.6519C52.6812 62.0386 52.7889 62.6319 53.4404 62.3302C53.6751 62.2214 53.772 62.4452 53.8463 62.6234C53.9526 62.8779 53.7548 62.9837 53.5999 63.0736C52.9418 63.4549 52.2758 63.8208 51.6155 64.1979C51.4425 64.2967 51.272 64.3877 51.125 64.1756C51.0025 63.9988 50.9691 63.7659 51.1495 63.6426C51.7799 63.2113 51.4236 62.7556 51.2038 62.3045C50.8745 61.6284 50.5302 60.9608 50.2 60.2852C49.8626 59.5951 49.412 59.3718 48.7359 59.7869C48.1044 60.1743 47.9084 60.6768 48.2568 61.3863C48.6406 62.1679 49.0205 62.952 49.4088 63.731C49.5669 64.0477 49.7027 64.4209 50.1628 64.1884C50.2554 64.1419 50.3914 64.1141 50.479 64.1526C50.6671 64.2352 50.7579 64.4097 50.6842 64.6342C50.618 64.8359 48.8111 65.8643 48.6377 65.7888C48.3974 65.6839 48.2323 65.4183 48.4406 65.2347C49.0692 64.6819 48.5863 64.2378 48.3737 63.7702C48.144 63.2653 47.8845 62.7765 47.6415 62.2786C46.7037 60.3586 47.7496 58.5003 49.7768 58.4829Z" fill="white"/>
<path fill-rule="evenodd" clip-rule="evenodd" d="M7.79647 37.7607C6.82616 37.8573 5.96144 37.9317 5.10101 38.0352C4.79136 38.0723 4.45913 38.1467 4.42274 38.5219C4.39682 38.7896 4.35354 39.0652 3.9628 38.9938C3.59441 38.9263 3.68716 38.6061 3.65054 38.3704C3.61201 38.1209 3.58799 37.8694 3.5604 37.6186C3.5233 37.2773 3.21818 36.8635 3.62081 36.617C4.11167 36.3171 4.08718 36.9733 4.3747 37.0581C4.62537 37.1321 4.91432 37.1408 5.18068 37.1195C5.92696 37.0605 6.66849 36.9457 7.41525 36.8989C9.04503 36.7965 9.81867 37.4593 9.98276 39.0583C10.1121 40.3159 9.33755 41.097 7.82905 41.2413C7.12296 41.3088 6.41877 41.3917 5.71316 41.4635C5.35809 41.4997 4.96474 41.4987 4.88768 41.9174C4.83726 42.1904 4.79018 42.4501 4.41109 42.3772C4.03747 42.3052 4.14925 41.9788 4.115 41.7475C4.02511 41.1413 3.94829 40.5333 3.88051 39.9249C3.86125 39.7509 3.85934 39.5558 4.11001 39.4914C4.32761 39.4349 4.52881 39.4862 4.56686 39.6966C4.67412 40.2916 5.15618 40.1861 5.57356 40.1525C6.35908 40.0894 7.14294 40.0037 7.9249 39.9084C8.63812 39.8218 9.1385 39.5083 9.03552 38.7777C8.93825 38.0879 8.57343 37.6203 7.79647 37.7607Z" fill="white"/>
<path fill-rule="evenodd" clip-rule="evenodd" d="M66.1802 32.8097C65.4306 32.8073 65.3345 32.149 65.2778 31.5988C65.195 30.7735 65.9034 31.098 66.1148 30.9781C66.9194 30.7664 66.9826 31.1991 66.9889 31.7234C66.9977 32.3394 66.8603 32.812 66.1802 32.8097ZM67.377 29.3252C67.3641 29.2099 67.3617 29.0924 67.3466 28.9772C67.3116 28.7397 67.2638 28.4905 66.9826 28.4952C66.7949 28.4975 66.6402 28.601 66.6533 28.8573C66.686 29.4991 66.2456 29.4733 65.8469 29.5297C65.1668 29.6238 64.4865 29.7272 63.8108 29.8448C63.292 29.9341 62.7296 30.2398 62.4833 29.3886C62.4397 29.2358 62.2522 29.2147 62.1064 29.2805C61.8948 29.3769 61.9122 29.5908 61.932 29.7766C62.0125 30.5501 62.104 31.3213 62.1977 32.0925C62.2241 32.2994 62.3176 32.4711 62.5443 32.4382C62.7495 32.4099 62.8364 32.2571 62.8517 32.0337C62.9129 31.0368 63.7216 31.3495 64.1879 31.272C64.783 31.1709 64.5303 31.895 64.6805 32.236C64.783 32.4734 64.757 32.7744 64.8331 33.033C65.0729 33.8442 65.5025 34.4414 66.3873 34.333C67.3466 34.218 67.7432 33.5503 67.7715 32.5251C67.6429 31.4859 67.5101 30.4067 67.377 29.3252Z" fill="white"/>
<path fill-rule="evenodd" clip-rule="evenodd" d="M15.4928 55.563C14.8151 55.9192 14.1375 56.2758 13.4595 56.6316C13.0606 56.8408 12.5968 57.0165 13.1058 57.6055C13.227 57.746 13.1494 57.8873 13.0339 57.9959C12.8752 58.145 12.7194 58.1517 12.5646 57.9807C12.4389 57.8424 12.3051 57.7125 12.1746 57.5794C11.1706 56.5567 11.1952 56.6217 12.43 56.09C13.5655 55.6011 14.6424 54.9566 15.7413 54.372C16.1556 54.1515 16.4907 53.8679 16.9758 54.3734C17.4588 54.8769 17.3446 55.2622 17.0946 55.7853C16.6034 56.8128 16.15 57.8611 15.7015 58.9106C15.5851 59.1831 15.4911 59.4901 15.4824 59.7846C15.4739 60.0789 15.9115 60.437 15.4086 60.6441C15.0776 60.7805 14.9191 60.3965 14.718 60.2005C14.2911 59.7848 13.8821 59.3484 13.4637 58.9229C13.3206 58.7772 13.2352 58.617 13.3735 58.4259C13.4858 58.271 13.632 58.1226 13.8172 58.3059C14.3054 58.7881 14.48 58.4048 14.6648 57.9832C14.9955 57.2285 15.3389 56.4797 15.677 55.7287C15.6155 55.6734 15.5541 55.6182 15.4928 55.563Z" fill="white"/>
<path fill-rule="evenodd" clip-rule="evenodd" d="M8.36408 30.5858C9.08567 30.6222 9.65954 30.3678 9.931 29.6307C10.1935 28.9183 9.90268 28.3743 9.34363 27.9723C9.0604 27.7689 8.71703 27.5522 8.98436 27.1871C9.24123 26.8356 9.57086 27.1705 9.82141 27.3276C10.7007 27.8789 10.8317 28.7519 10.6665 29.7055C10.4432 30.9966 9.50616 32.0057 8.38108 32.1258C7.1451 32.2576 6.05641 31.8916 5.3479 30.7695C4.65703 29.6753 4.75573 28.5529 5.4564 27.4813C5.51718 27.3883 5.62307 27.3185 5.66011 27.2187C6.01175 26.2707 6.52004 26.0722 7.41112 26.5528C7.56189 26.634 7.7754 26.6779 7.72202 26.9379C7.6839 27.1232 7.63292 27.3401 7.4133 27.3406C6.32897 27.3428 5.62699 27.805 5.73876 29.0244C5.82089 29.9231 7.04837 30.6008 8.36408 30.5858Z" fill="white"/>
<path fill-rule="evenodd" clip-rule="evenodd" d="M57.8601 59.2107C57.4126 58.7054 56.8728 58.2157 56.5022 57.6216C56.3446 57.3695 56.6676 57.0342 57.0744 57.1956C57.3667 57.3117 57.619 57.5359 57.9151 57.6304C58.2982 57.7529 58.6568 57.5633 58.8416 57.2527C59.0346 56.9287 58.6351 56.793 58.4602 56.6245C57.7447 55.9349 57.0007 55.2741 56.2715 54.5984C55.9689 54.3181 55.6827 54.0177 55.2816 54.4687C55.0759 54.7004 54.8665 54.6514 54.6841 54.43C54.5075 54.2163 54.675 54.0697 54.804 53.93C55.3705 53.3166 55.942 52.7082 56.5121 52.0981C56.6531 51.9474 56.8084 51.8087 57.0184 51.9687C57.2174 52.1201 57.3859 52.302 57.1304 52.5446C56.614 53.0351 57.0747 53.3092 57.3763 53.5979C58.0367 54.2309 58.6962 54.8668 59.3905 55.4616C59.6135 55.6529 59.7887 56.1961 60.2225 55.8167C60.5462 55.5332 60.5691 55.1065 60.3768 54.7168C60.2735 54.5072 60.0956 54.3348 59.9644 54.1368C59.7781 53.8567 59.9882 53.6041 60.1785 53.5723C60.8531 53.4604 61.0238 54.1564 61.4393 54.4663C61.6777 54.644 62.1658 54.8766 61.7734 55.3049C60.6457 56.5359 59.4917 57.7431 58.3422 58.9543C58.2682 59.0321 58.1441 59.0627 57.8601 59.2107Z" fill="white"/>
<path fill-rule="evenodd" clip-rule="evenodd" d="M36.8174 3.74672C37.8593 3.8285 38.9012 3.90961 39.9431 3.99183C40.2904 4.01932 40.7449 3.94551 40.6922 4.46123C40.6343 5.02925 40.8948 5.67019 40.4193 6.14247C40.2128 6.34725 39.8844 6.20762 39.8024 5.87674C39.732 5.59306 39.7274 5.28412 39.5975 5.02704C39.4555 4.74646 39.1455 4.60152 38.7902 4.66823C38.4673 4.72895 38.5319 4.99978 38.5125 5.20478C38.4262 6.12274 38.3469 7.04137 38.2733 7.96044C38.2431 8.33809 38.2262 8.71307 38.787 8.80438C39.0424 8.84627 39.2519 8.96373 39.1283 9.25539C39.0417 9.45884 38.8424 9.49164 38.631 9.47767C37.8288 9.42493 37.0263 9.37107 36.2243 9.31567C35.9796 9.29882 35.7218 9.28508 35.7263 8.97126C35.73 8.74277 35.8993 8.64459 36.1179 8.64149C36.6461 8.63462 36.79 8.34939 36.8171 7.9241C36.8759 7.00436 36.9709 6.08662 37.0258 5.16666C37.0399 4.93528 37.1843 4.61881 36.8048 4.50334C36.4599 4.39807 36.1457 4.52595 35.9588 4.78613C35.7868 5.02571 35.7118 5.32179 35.5728 5.58353C35.4071 5.89558 35.002 5.92239 34.9507 5.66154C34.8395 5.09574 34.8247 4.47985 34.9519 3.91892C35.0782 3.36242 35.6226 3.78927 35.9718 3.74273C36.2454 3.70616 36.5332 3.7609 36.8145 3.77509C36.8154 3.76556 36.8164 3.75603 36.8174 3.74672Z" fill="white"/>
<path fill-rule="evenodd" clip-rule="evenodd" d="M13.3856 12.8174C12.5174 13.7633 13.7314 14.0157 14.1486 14.5171C14.4633 14.8953 14.8558 15.2445 15.285 15.5133C15.6379 15.7346 15.8018 16.5463 16.4707 16.001C17.0828 15.5023 17.8808 14.9914 17.1765 14.0577C16.9994 13.8232 16.4888 13.5986 16.9456 13.243C17.4616 12.8411 17.6499 13.3983 17.8994 13.6039C19.0657 14.5641 19.0542 14.5761 17.9216 15.6499C17.1068 16.4227 16.2946 17.1981 15.4719 17.9645C15.2865 18.1367 15.108 18.4073 14.7685 18.1497C14.5071 17.9512 14.6059 17.7658 14.7928 17.592C15.1532 17.2565 14.8238 17.0686 14.6018 16.8706C13.8475 16.1983 13.0847 15.5341 12.3261 14.8659C12.0865 14.655 11.8439 14.4165 11.5037 14.7134C11.2364 14.9466 11.0163 14.9351 10.8057 14.6663C10.5949 14.3968 10.8632 14.2702 11.0192 14.1238C11.5563 13.6198 12.0997 13.1216 12.6467 12.6269C12.7822 12.5044 12.9094 12.3212 13.1544 12.4483C13.298 12.5228 13.4225 12.6161 13.3856 12.8174Z" fill="white"/>
<path fill-rule="evenodd" clip-rule="evenodd" d="M62.1658 41.8612C62.0914 42.5214 62.5485 42.7943 63.0534 43.0216C63.3038 43.1342 63.578 43.2347 63.4567 43.5992C63.3331 43.971 63.0291 43.8364 62.7839 43.7924C62.4877 43.7392 62.2008 43.6205 61.9038 43.5836C61.2844 43.5062 61.0798 43.2156 61.2436 42.5587C61.5652 41.2666 61.8333 39.96 62.1196 38.6585C62.1774 38.3952 62.1536 38.0426 62.4857 38.0057C62.857 37.964 62.8574 38.2812 62.8615 38.5733C62.8676 38.9808 63.1673 39.0596 63.4753 39.1334C64.3565 39.3439 65.233 39.5759 66.116 39.7784C66.4839 39.8626 66.8845 39.9487 67.085 39.4577C67.1932 39.1918 67.3617 39.0861 67.6096 39.2349C67.8031 39.351 67.7888 39.5487 67.7405 39.7538C67.5695 40.4783 67.415 41.2068 67.2367 41.9291C67.1843 42.142 67.1585 42.4215 66.8396 42.4026C66.5365 42.3844 66.4723 42.2051 66.5408 41.9211C66.6592 41.4298 66.3401 41.3191 65.9817 41.2349C65.1738 41.0445 64.3672 40.8463 63.5606 40.6483C62.4482 40.3749 62.1681 40.6102 62.1658 41.8612Z" fill="white"/>
<path fill-rule="evenodd" clip-rule="evenodd" d="M22.0219 11.9504C21.6107 11.2361 21.2894 10.4936 20.7958 9.87651C20.3709 9.34595 20.4982 8.16024 19.173 8.51331C18.9024 8.58549 18.5464 8.15499 18.9648 7.8896C19.7193 7.41097 20.5434 7.03194 21.3396 6.61263C21.4978 6.52901 21.6514 6.52806 21.7859 6.66171C21.9535 6.828 22.0044 7.03241 21.7974 7.16726C21.1795 7.5694 21.5181 7.97465 21.756 8.38918C22.1727 9.11581 22.5731 9.85102 23.0087 10.5669C23.2419 10.95 23.398 11.5177 24.104 11.138C24.3299 11.0165 24.4792 11.199 24.5783 11.385C24.7141 11.6392 24.5157 11.7426 24.3374 11.8394C23.6551 12.2101 22.9735 12.5829 22.2805 12.935C22.085 13.0346 21.8761 13.2748 21.6229 13.0303C21.3411 12.7583 21.4756 12.5553 21.7435 12.3521C21.8608 12.2632 21.9195 12.1038 22.0219 11.9504Z" fill="white"/>
<path fill-rule="evenodd" clip-rule="evenodd" d="M13.6535 21.4145C13.1501 22.3034 12.7274 23.1926 12.1662 23.9732C11.929 24.3029 11.48 23.9576 11.6228 23.6218C11.9616 22.8255 11.3747 22.7089 10.974 22.4531C10.2713 22.0051 9.5531 21.583 8.83707 21.1577C8.47337 20.942 8.10376 20.5872 7.73888 21.1736C7.61125 21.3784 7.42775 21.3893 7.23643 21.2436C6.9781 21.0459 7.06997 20.8346 7.19688 20.607C7.57195 19.9346 7.93683 19.2557 8.31189 18.5833C8.43336 18.3653 8.57637 18.1568 8.86667 18.3067C9.06367 18.4084 9.16265 18.5588 9.04733 18.7948C8.75467 19.393 9.18277 19.582 9.56731 19.8101C10.2495 20.2144 10.9212 20.6382 11.6036 21.0424C12.0594 21.3124 12.4712 21.7705 13.0267 21.1003C13.3075 20.7614 13.5398 21.0875 13.6535 21.4145Z" fill="white"/>
<path fill-rule="evenodd" clip-rule="evenodd" d="M65.5775 49.0405C65.1564 49.9404 64.7845 50.8375 64.3241 51.6782C64.069 52.1436 63.5963 51.7592 63.6662 51.5241C64.0255 50.3165 63.0503 50.3212 62.5253 49.9651C61.961 49.5826 61.3382 49.3001 60.7373 48.9824C60.3597 48.783 59.9666 48.4355 59.657 49.1007C59.5493 49.3318 59.3619 49.3482 59.1646 49.2029C58.9641 49.0552 58.9589 48.8687 59.0611 48.6531C59.4197 47.8942 59.7769 47.1345 60.1338 46.3749C60.2272 46.1763 60.3428 46.0034 60.5797 46.0566C60.8094 46.1086 60.9408 46.3018 60.8507 46.5228C60.5823 47.1806 61.041 47.3344 61.4181 47.5469C62.151 47.9603 62.8862 48.3691 63.6241 48.7717C64.0666 49.0135 64.472 49.3899 64.9557 48.7331C65.1994 48.402 65.5033 48.6194 65.5775 49.0405Z" fill="white"/>
<path fill-rule="evenodd" clip-rule="evenodd" d="M2.68873 27.0322C3.06868 27.5468 4.42729 27.6593 4.09396 28.4438C3.77695 29.1906 2.63245 29.0293 1.95215 29.2262C2.19623 28.4994 2.43566 27.7855 2.68873 27.0322Z" fill="white"/>
<path fill-rule="evenodd" clip-rule="evenodd" d="M26.8171 2.00544C28.1849 2.28792 28.1849 2.28792 29.0111 1.43555C28.852 2.20146 28.979 3.28339 28.3167 3.57049C27.5359 3.90929 27.3128 2.70981 26.8171 2.00544Z" fill="white"/>
<path fill-rule="evenodd" clip-rule="evenodd" d="M38.4358 17.6184C38.487 17.555 38.5409 17.4941 38.5943 17.4307C38.6214 17.5623 38.5675 17.6233 38.4358 17.6184Z" fill="white"/>
<path fill-rule="evenodd" clip-rule="evenodd" d="M38.4358 17.6184C38.487 17.555 38.5409 17.4941 38.5943 17.4307C38.6214 17.5623 38.5675 17.6233 38.4358 17.6184Z" fill="white"/>
<path fill-rule="evenodd" clip-rule="evenodd" d="M55.1421 43.041C55.0061 43.7766 54.6346 44.5048 53.9183 44.759C51.6698 45.5581 49.635 47.1491 47.3307 46.719H46.3133C44.6573 46.7165 43.572 45.5679 43.6909 43.9159C43.7349 43.3074 44.2009 43.1803 44.7132 43.0874C46.9325 42.6817 49.1591 42.452 51.4197 42.5864C51.7694 42.606 52.3206 42.777 52.3109 42.1099C52.2941 40.9051 53.1049 41.0859 53.809 41.2203C54.7706 41.406 55.3315 42.0097 55.1421 43.041ZM44.6476 51.2743C44.5699 51.5333 44.3028 51.5798 44.0503 51.5798H41.0248V51.592C40.0172 51.592 39.007 51.5969 37.9994 51.5896C37.5769 51.5896 37.2782 51.3525 37.6861 51.0372C38.4049 50.4776 38.8662 49.395 40.0706 49.6785C40.1458 49.6956 40.2503 49.7005 40.3085 49.6614C42.0932 48.4761 43.1422 49.8764 44.3247 50.81C44.4825 50.937 44.7108 51.0592 44.6476 51.2743ZM36.8776 47.413C36.7319 48.1388 36.9868 48.9917 36.0131 49.6076C36.1297 48.9306 36.2608 48.459 36.2827 47.9849C36.2997 47.5694 36.5036 46.9853 35.9403 46.8167C35.4862 46.6823 35.2604 47.1711 35.0492 47.5034C34.7068 48.046 34.396 48.6105 34.0585 49.1921C33.5801 47.7845 33.6336 47.6354 35.5299 45.0623C34.4834 45.2551 33.6797 45.6999 32.9367 46.3011C32.5288 46.6285 32.0965 46.9291 31.6549 47.2126C31.2906 47.445 30.8995 47.4692 30.511 47.2248C30.0715 46.9487 30.1783 46.5235 30.2244 46.13C30.5741 43.0923 30.6615 43.0605 33.6506 43.669C35.2483 43.9916 36.88 43.9599 38.4729 43.6348C39.2596 43.4738 39.517 43.6519 39.4878 44.4315C39.466 44.9741 39.7501 45.4457 39.9516 45.932C40.0463 46.1642 40.1507 46.4159 39.9106 46.5968C39.6724 46.7776 39.432 46.6163 39.2547 46.4599C38.6574 45.932 38.0746 45.3846 37.385 44.9032C38.1621 46.0958 39.1503 47.1955 38.7764 48.916C38.1839 48.4297 38.1378 47.7991 37.8998 47.2786C37.7638 46.9853 37.6181 46.609 37.2515 46.6383C36.812 46.6725 36.9334 47.132 36.8776 47.413ZM31.7323 48.0142C32.082 48.0606 32.2252 48.2855 32.2155 48.5958C32.2058 48.9013 32.2738 49.3339 31.8319 49.3412C31.5114 49.3461 31.4288 48.9917 31.4312 48.696C31.4312 48.4297 31.3632 48.1144 31.7323 48.0142ZM27.4734 51.4918C28.3162 50.4703 28.9594 49.874 30.4187 49.7518C32.4923 49.5758 34.0026 50.3847 35.6149 51.2865C35.6416 51.3012 35.6465 51.3525 35.7096 51.4918H27.4734ZM26.9926 44.0847C26.8663 43.8792 26.7473 43.6422 26.9634 43.4247C27.1334 43.256 27.3374 43.3562 27.527 43.4149C27.8352 43.5077 28.1387 43.647 28.4543 43.6813C29.6223 43.8108 30.1346 44.2898 29.5761 45.5117C29.4572 45.7756 29.496 46.1667 29.581 46.4648C29.768 47.1295 29.5179 47.2859 28.7651 47.1198C28.0051 47.0904 27.3811 46.7654 27.5146 45.6681C27.5877 45.0743 27.2912 44.5735 26.9926 44.0847ZM43.2636 46.7067C43.3874 47.0733 43.3243 47.435 42.9334 47.6379C42.5958 47.8162 42.2656 47.892 41.9354 47.5914C40.9326 46.6823 40.3595 45.4677 40.2575 44.2042C40.1774 43.1974 41.3429 43.5493 41.9572 43.3856C42.4283 43.2585 43.0548 43.2927 43.1058 44.0649C43.1279 44.4266 43.1082 44.7908 43.1082 44.8299C43.0693 45.6803 43.0936 46.196 43.2636 46.7067ZM20.8979 41.9168C20.1064 41.9241 19.8563 41.7531 19.8538 40.9319C19.8441 38.1948 19.8126 38.1948 22.4787 38.1948C31.7275 38.1948 40.9763 38.2119 50.2251 38.1728C51.3007 38.1679 51.6892 38.4001 51.6455 39.5585C51.5533 41.8924 51.6213 41.8948 49.249 41.8948H35.6805C30.7538 41.8948 25.8246 41.8753 20.8979 41.9168ZM25.8805 47.0293C23.4621 46.4208 20.9319 46.2742 18.6131 45.26C17.7802 44.8959 17.0736 44.302 16.7385 43.4344C16.4399 42.6597 16.4933 41.7873 17.3699 41.4647C18.074 41.2081 19.0307 40.9637 19.2905 42.1759C19.4143 42.7453 19.8368 42.5473 20.1549 42.5669C21.5657 42.6524 22.9667 42.7722 24.3265 43.2169C25.7324 43.6739 26.3737 44.7052 26.6138 46.0811C26.7158 46.6579 26.5944 47.0635 25.8805 47.0293ZM27.1577 29.3945C27.2791 29.1966 27.352 28.8862 27.6603 28.984C27.8934 29.0597 28.0197 29.3041 28.027 29.5632C28.0343 29.8442 28.0658 30.1424 27.9881 30.4038C27.6822 31.4596 27.7016 32.4738 28.2018 33.4709C28.3086 33.6835 28.3451 33.9352 28.3961 34.1723C28.5393 34.8468 28.2164 35.1351 27.5802 35.228C26.6041 35.3673 27.1164 34.6759 27.0387 34.2896C27.1164 33.6859 27.0387 33.0188 26.7449 32.53C26.014 31.3203 26.5652 30.3745 27.1577 29.3945ZM30.2196 35.6312C30.0569 36.1078 30.0472 36.8703 29.479 36.9069C28.5612 36.9656 27.7526 37.2295 26.9465 37.6059C26.8299 37.6596 26.6065 37.6205 26.5045 37.535C26.303 37.3688 26.4633 37.166 26.5482 36.9949C26.8736 36.3522 27.3155 35.8683 28.0755 35.7461C28.6704 35.6508 29.2532 35.5017 29.8432 35.3746C30.086 35.2744 30.2876 35.4308 30.2196 35.6312ZM27.2621 25.9854C27.9031 25.6603 28.5199 25.3744 29.0492 26.198C29.241 26.4961 29.5373 26.7405 29.8238 26.9605C30.2876 27.3148 30.3823 27.6936 30.103 28.2215C29.1172 30.1008 28.9157 31.9997 30.069 33.8937C30.2414 34.1723 30.3046 34.4315 29.9938 34.6244C29.6781 34.8174 29.4695 34.6024 29.2799 34.3704C28.8768 33.8741 28.7069 33.2925 28.7411 32.6668C28.8283 31.0466 28.6024 29.441 28.5077 27.6154C27.67 28.1115 27.1698 27.828 26.8323 27.0582C26.5919 26.5181 26.8129 26.2151 27.2621 25.9854ZM32.0019 25.5919C33.2086 26.8652 34.7359 26.4668 36.1953 25.978C36.6785 25.817 37.1082 25.4697 37.7736 25.5333C37.1107 27.0362 35.8068 27.415 34.4737 27.6325C32.1791 28.0064 30.3944 27.1022 28.9812 25.1496C30.1832 24.5924 31.0767 24.6144 32.0019 25.5919ZM33.3956 24.9321C35.1487 24.9247 36.7464 24.502 38.0576 23.2654C38.4389 22.9061 38.9293 22.8233 39.2571 23.1481C39.6165 23.5024 39.1406 23.8837 38.9051 24.023C37.0354 25.1202 35.0686 25.9218 32.8347 25.6774C32.621 25.6554 32.4268 25.4551 32.1451 25.2889C32.5895 24.8221 33.0144 24.9321 33.3956 24.9321ZM30.3944 18.1846C30.3531 18.1015 30.3653 17.9402 30.4211 17.8669C30.545 17.7032 30.7174 17.7569 30.8339 17.8865C31.6376 18.7711 32.1548 19.9051 33.1552 20.6238C33.1771 20.6407 33.1674 20.6993 33.1771 20.7531C33.1261 21.0219 32.9343 21.0659 32.757 20.9095C31.8489 20.1079 30.9577 19.2868 30.3944 18.1846ZM29.8189 17.6445C29.7048 17.0289 30.1322 16.7892 30.2706 16.418C30.4187 16.0169 30.7635 16.0707 31.0354 16.3713C31.9946 17.4343 32.9513 18.4999 33.9055 19.5678C34.0706 19.7511 34.2455 19.9833 34.0124 20.1983C33.7744 20.4183 33.551 20.1886 33.3956 20.0297C32.9464 19.5654 32.3466 19.1475 32.1257 18.5854C31.6716 17.4246 30.9772 17.1511 29.8189 17.6445ZM31.5235 15.8923C31.7105 14.4504 33.5631 12.7226 35.19 12.5613C35.1026 13.0501 34.7432 13.1188 34.4761 13.2627C33.3325 13.8761 32.5992 14.7684 32.4389 16.1027C32.4073 16.3664 32.5336 16.8723 32.0067 16.7574C31.6255 16.6719 31.4652 16.3224 31.5235 15.8923ZM37.2248 14.7046C36.2657 14.7073 35.5737 14.9612 35.7533 16.0976C35.8043 16.4104 35.9379 16.9871 35.4255 16.9554C34.9375 16.9285 35.0929 16.3957 35.1757 16.056C35.2847 15.6088 35.4425 15.1371 34.9545 14.8536C34.481 14.5775 34.0561 14.7632 33.6918 15.1274C33.9808 15.5626 34.5733 14.8808 34.7092 15.5135C34.7311 15.6064 34.566 15.807 34.4446 15.8532C34.0318 16.0218 33.6408 15.9069 33.3228 15.6112C33.0362 15.3424 33.1139 15.0394 33.2985 14.729C34.2163 13.1674 35.9549 13.109 37.2248 14.7046ZM36.3897 15.4524C36.4356 15.0834 36.7756 15.1371 37.0427 15.1567C37.2345 15.1713 37.4846 15.2056 37.47 15.4524C37.4482 15.8019 37.1447 15.8385 36.8679 15.8654C36.625 15.819 36.3531 15.7285 36.3897 15.4524ZM38.3684 16.232C38.247 16.579 39.0095 16.8845 38.7108 17.4124C39.2936 17.0849 39.5607 16.3224 40.6242 16.1416C38.5166 18.7247 36.5692 21.0415 33.3786 21.8211C33.3859 21.1172 34.0148 20.7164 34.6293 20.5894C36.4381 20.2154 37.5453 18.9911 38.553 17.6005C38.3053 17.6176 38.1645 16.8209 37.8051 17.5419C37.538 18.0771 37.0233 18.4437 36.6979 18.9715C36.0569 20.0102 34.4834 19.8855 33.9444 18.7956C33.7501 18.4021 33.6894 17.9231 33.313 17.6421C32.791 17.2535 32.4486 16.623 32.9343 16.2295C33.381 15.8681 34.1629 16.254 34.549 16.6743C34.9035 17.058 35.6732 17.6176 34.7092 18.2653C34.5465 18.373 34.1338 18.8102 34.8404 18.8567C35.2364 17.818 35.6441 17.8718 36.0641 18.8396C36.6299 18.8762 36.4089 18.5952 36.2683 18.341C35.7169 17.3464 36.0059 16.6059 37.0694 16.2735C38.1135 15.9485 38.3005 15.3204 37.6886 14.3795C37.1714 13.5804 36.1661 13.3776 35.5469 12.6053C37.6619 12.642 38.99 14.448 38.3684 16.232ZM39.0823 14.6068C39.5534 15.0272 39.7476 15.3351 39.5463 15.7628C39.5145 15.8312 39.3057 15.8996 39.2644 15.8654C38.9075 15.5672 38.9293 15.1909 39.0823 14.6068ZM36.1588 23.913C35.0346 24.5606 33.8157 24.563 32.5773 24.3529C33.4247 23.9179 34.3329 23.7101 35.037 23.0503C35.2216 22.8792 35.5591 22.7986 35.8213 22.8059C36.2683 22.8181 36.9456 22.5371 37.0888 23.1288C37.2126 23.6344 36.5182 23.7028 36.1588 23.913ZM39.9297 18.7223C39 19.6827 38.1742 20.7067 37.47 21.8626C37.1471 22.3905 36.2657 22.1192 35.7023 22.2536C35.3843 22.1876 35.0079 22.4222 34.8889 22.0825C34.7481 21.6744 35.1633 21.4471 35.4304 21.4251C37.1349 21.281 38.0115 20.0884 38.8711 18.8322C39.0265 18.605 39.2741 18.4314 39.5072 18.2775C39.6214 18.1993 39.8399 18.1455 39.9395 18.2042C40.1823 18.3459 40.0536 18.5952 39.9297 18.7223ZM40.0487 24.0107C40.2748 23.9887 40.5902 24.1305 40.4858 24.4238C40.2794 25.0078 39.7379 25.2107 39.2596 25.3842C38.9682 25.35 38.7715 25.2376 38.8346 25.0054C39.0022 24.4018 39.4393 24.0669 40.0487 24.0107ZM42.1806 24.8563C41.3988 25.9463 40.0463 25.9365 39.0483 26.8627C40.9131 27.2268 41.9184 25.9194 43.2636 25.1716C43.2612 25.9096 42.9358 26.2713 42.5546 26.5426C41.1438 27.5445 39.5097 27.7889 37.8415 27.8476C37.5914 27.8574 37.2126 27.7156 37.1058 27.525C36.948 27.2415 37.3268 27.0582 37.4992 26.848C37.8877 26.3691 38.315 26.0049 38.9731 25.8754C39.5947 25.7559 40.209 25.5115 40.6703 24.9981C41.0831 24.5411 41.5712 24.6413 42.1806 24.8563ZM36.1443 36.924C36.3045 36.9094 36.4842 36.8703 36.6226 36.924C37.7371 37.359 38.4656 37.2759 38.4364 35.7901C38.4267 35.3502 38.1766 34.5926 38.9633 34.5168C39.7233 34.446 40.3962 34.8443 40.8014 35.4822C41.4838 36.5599 41.071 37.3273 39.7962 37.4714C39.0799 37.5521 38.3612 37.6181 37.6424 37.6889C37.6424 37.6743 37.64 37.6572 37.64 37.6425C37.1182 37.6425 36.5959 37.6523 36.0763 37.6376C35.865 37.6303 35.6465 37.513 35.6368 37.3004C35.6198 36.9827 35.9014 36.946 36.1443 36.924ZM36.3434 35.8707C36.6906 35.9294 37.0135 35.9465 37.3098 36.0467C37.6084 36.1469 37.9799 36.3399 37.8877 36.6968C37.7638 37.1809 37.3996 36.858 37.1204 36.8018C36.8509 36.7481 36.574 36.7187 36.2997 36.6921C35.9452 36.6552 35.411 36.6699 35.4207 36.274C35.4328 35.6777 36.035 36.0027 36.3434 35.8707ZM30.324 36.5159C30.5352 35.7779 30.8242 35.052 31.7469 34.9689C31.9484 34.9518 32.1427 35.0545 32.031 35.4162C31.3924 35.7901 31.9217 37.0193 30.8922 37.2002C30.4576 37.2759 30.2002 36.9436 30.324 36.5159ZM37.9629 35.3991C37.9241 35.7436 37.6351 35.7583 37.4336 35.6288C36.8824 35.2695 36.188 35.6239 35.4207 35.1889C36.256 34.8052 36.8873 34.9641 37.5065 34.9814C37.7541 34.9885 37.9994 35.0863 37.9629 35.3991ZM38.2203 31.2739C38.1159 31.3056 38.0212 31.3032 37.9848 31.3496C37.6473 31.7577 37.8804 32.7548 37.1665 32.6277C36.5838 32.5227 36.8897 31.6282 36.7343 31.1003C36.6275 30.5627 36.7052 29.9493 36.0423 29.4312C36.1637 30.3381 36.2584 31.0735 36.3555 31.8091C35.6538 32.9381 35.6538 32.9381 34.7214 31.225C34.2552 31.4303 34.3547 31.9117 34.2212 32.2734C33.772 33.4709 32.8493 33.8863 31.7178 33.3804C29.9136 32.574 29.3795 29.4507 30.805 28.0797C31.0719 27.8256 31.3123 27.9453 31.5769 28.0602C32.8541 28.6198 34.1653 28.5783 35.4765 28.2239C36.1224 28.048 36.7562 28.1091 37.3923 28.2264C38.2349 28.383 39.1017 28.5001 39.9006 28.1873C40.8476 27.8134 41.1778 28.2899 41.4862 29.0451C41.9572 30.2108 41.9378 31.3472 41.3769 32.4542C41.0078 33.1801 40.4591 33.7495 39.551 33.5246C38.672 33.3071 38.1596 32.745 38.2689 31.7577C38.2859 31.6038 38.2398 31.4425 38.2203 31.2739ZM34.8501 36.2764C35.1924 37.5545 34.6048 37.6718 33.7914 37.6401C33.0071 37.6401 32.2641 37.6767 31.9873 36.9729C31.7129 36.2789 32.2811 35.7757 32.7157 35.2964C33.4223 34.5193 34.3741 34.3507 35.343 34.2651C35.8626 34.2187 36.3897 34.2456 36.9116 34.226C37.2564 34.2138 37.7905 33.7201 37.8707 34.3775C37.9192 34.7734 37.3025 34.6512 36.9674 34.6928C36.7294 34.7197 36.4842 34.7001 36.2438 34.7026C34.9788 34.705 34.5295 35.0814 34.8501 36.2764ZM42.0301 37.3468C41.3067 37.1733 41.5712 36.445 41.3793 36.0149C41.4206 35.7094 41.2895 35.2378 41.6659 35.3209C42.3506 35.4702 42.4234 36.1738 42.557 36.7432C42.6493 37.1318 42.3725 37.4275 42.0301 37.3468ZM44.3757 25.9805C44.6039 26.0929 44.7593 26.2713 44.8006 26.5328C44.7593 26.8896 44.4534 26.9531 44.2033 27.068C43.7662 27.2684 43.31 27.4346 42.8751 27.6472C42.5208 27.8231 42.3457 28.048 42.5279 28.5196C43.3024 30.5431 42.9528 32.4933 42.0301 34.38C41.8941 34.661 41.7703 35.0716 41.3575 34.9152C40.9617 34.7661 41.0394 34.3751 41.2021 34.0867C42.2899 32.1536 42.7658 30.1888 41.5833 28.114C41.5639 28.0775 41.5299 28.0431 41.525 28.0064C41.4935 27.6056 44.0212 25.807 44.3757 25.9805ZM44.7957 34.2578C44.7885 34.7441 44.524 35.1229 44.1159 35.1036C43.5671 35.074 43.9289 34.5266 43.7905 34.182C44.2081 32.2612 44.1766 30.2914 43.8973 28.3168C43.8609 28.0626 43.8658 27.7889 44.1547 27.7278C44.5068 27.6545 44.4704 27.9722 44.5214 28.1997C44.9827 30.201 44.8249 32.2321 44.7957 34.2578ZM45.648 36.9387C45.6116 37.3835 45.0507 37.1 44.8346 37.1464C44.1474 37.1904 43.5914 37.1611 43.2077 36.6234C42.9746 36.296 42.6056 35.9074 42.8095 35.5481C43.0839 35.0667 43.4044 35.6654 43.7249 35.6874C44.0867 35.7119 44.4607 35.6728 44.8055 35.7608C45.3834 35.9074 45.6893 36.4477 45.648 36.9387ZM56.9389 40.8171C56.0988 39.798 54.926 39.7344 53.7143 40.0179C53.5176 40.0644 53.3185 40.0986 53.1194 40.1304C52.5707 40.2183 52.3424 40.0399 52.306 39.4265C52.1894 37.3957 52.1603 37.3981 50.1352 37.3981C49.8536 37.4006 49.5695 37.4152 49.2878 37.3981C48.1296 37.3297 47.0029 37.7918 46.2453 36.0638C45.6942 34.815 45.3178 33.6664 45.4659 32.4154C45.5898 31.3569 45.835 30.4209 45.2085 29.397C44.8467 28.808 44.9317 27.9649 45.2498 27.2733C45.556 26.6112 45.3834 26.2273 44.8322 25.7263C43.3291 24.3529 41.2021 24.1354 39.7088 22.6764C38.8856 21.8748 38.7788 21.4398 39.432 20.6114C40.0609 19.8171 40.6363 18.9764 41.1948 18.1308C41.8771 17.0995 41.6003 16.0365 40.8573 15.274C39.5582 13.9372 38.0455 12.8277 36.3919 11.943C35.6586 11.552 34.9569 11.596 34.2163 12.0261C32.5433 12.9966 31.2224 14.3747 29.9136 15.753C28.94 16.7794 29.0152 17.701 29.9574 18.7638C30.6275 19.5214 31.4579 20.135 31.9776 21.0268C32.6526 22.1827 32.5603 22.6935 31.322 23.2092C29.7485 23.8641 28.4033 24.9272 26.8396 25.5944C26.269 25.8363 25.9339 26.2542 26.2156 26.9531C26.5919 27.8842 26.439 28.8227 26.0068 29.6682C25.526 30.6091 25.5163 31.5207 25.7955 32.4982C25.9533 33.0432 26.0043 33.6151 26.1355 34.1674C26.4171 35.3673 25.594 36.274 25.1982 37.242C25.0088 37.7012 23.9234 37.359 23.246 37.3932C22.6414 37.4226 22.0319 37.3981 21.4249 37.3981C19.4216 37.3981 19.4022 37.3981 19.3245 39.3557C19.2954 40.0839 19.157 40.3552 18.3217 40.145C17.4694 39.9324 16.5783 40.0008 15.76 40.5336C14.5241 41.3354 14.2764 42.518 14.4221 43.8328C14.5972 45.4091 15.2719 46.7263 16.7774 47.4155C18.2173 48.0753 19.6839 48.696 20.677 50.0035C21.4661 51.0421 22.5321 51.548 23.734 51.8266C24.3993 51.9806 25.0841 52.0905 25.7639 52.137C26.541 52.1907 26.893 52.462 26.8372 53.3247C26.7571 54.5393 26.8105 55.7636 26.8202 56.9856C26.825 57.3277 26.7206 57.7871 27.3131 57.7456C27.7744 57.7114 27.7453 57.3426 27.7453 57.0198C27.7526 55.92 27.8109 54.8179 27.7307 53.7255C27.653 52.6648 27.9129 52.2323 29.0905 52.2836C31.4728 52.3862 33.8618 52.3154 36.2462 52.3154C38.8347 52.3154 41.4231 52.3349 44.0115 52.3007C44.7302 52.2909 45.0264 52.4816 44.99 53.2514C44.9341 54.4293 44.9584 55.6121 44.9876 56.7927C44.9949 57.1395 44.7593 57.7383 45.4125 57.7138C45.954 57.6943 45.7524 57.1566 45.7573 56.8365C45.7816 55.5364 45.8301 54.2289 45.7452 52.9312C45.6796 51.9537 46.0244 51.7704 46.9155 51.8901C49.0377 52.1785 50.8054 51.6726 51.9345 49.6003C52.6435 48.3026 53.7143 47.3104 55.0547 46.6163C56.0211 46.1153 56.6937 45.2844 57.1064 44.2824C57.5848 43.1167 57.8203 41.8853 56.9389 40.8171Z" fill="white"/>
</svg>
