<svg width="91" height="45" viewBox="0 0 91 45" fill="none" xmlns="http://www.w3.org/2000/svg">
<path fill-rule="evenodd" clip-rule="evenodd" d="M45.948 7.75172H12.432V17.4272H44.352C49.336 17.4272 52.752 18.1769 54.474 19.6481C56.196 21.1192 57.106 23.8917 57.106 27.9656V34.133C57.106 38.1928 56.238 41.0219 54.432 42.4364C52.626 43.851 49.294 44.6855 44.31 44.6855H12.768C7.7742 44.7138 4.396 43.9641 2.632 42.4364C0.882 40.9228 0 38.1928 0 34.0906V32.8599L10.5 30.9361V36.2407H46.62V26.056H14.756C9.7902 26.056 6.4358 25.302 4.69 23.7927C2.954 22.2933 2.072 19.549 2.072 15.4469V10.5525C2.072 6.49277 2.954 3.70611 4.69 2.20669C6.426 0.707274 9.786 0 14.756 0H43.764C48.5716 0 51.884 0.717175 53.7054 2.15011C55.524 3.58305 56.4564 6.13913 56.5054 9.81696V10.7506L46.018 12.9007L45.948 7.75172Z" fill="white"/>
<path fill-rule="evenodd" clip-rule="evenodd" d="M63.7986 21.0203V18.7429L80.4712 3.86183H65.4632V0.113281H89.4326V2.19266L72.4772 17.0737H89.4326V21.0203H63.7986Z" fill="white"/>
<path fill-rule="evenodd" clip-rule="evenodd" d="M79.7155 27.4429V44.6013H74.1155V27.4429H63.2095V23.6943H90.7069V27.4429H79.7155Z" fill="white"/>
</svg>
