<svg width="131" height="15" viewBox="0 0 131 15" fill="none" xmlns="http://www.w3.org/2000/svg">
<path fill-rule="evenodd" clip-rule="evenodd" d="M0.833597 9.21439C0.833597 8.90155 0.773846 8.64788 0.65143 8.45839C0.529013 8.26891 0.314785 8.17081 0 8.17081V6.81039C0.136795 6.81486 0.272765 6.7878 0.397367 6.73115C0.500109 6.68373 0.587938 6.6091 0.65143 6.51543C0.718273 6.41529 0.765442 6.30335 0.790362 6.18553C0.820384 6.04783 0.834908 5.90718 0.833597 5.76623C0.833597 5.53233 0.819169 5.29868 0.790362 5.06658C0.760244 4.8305 0.727697 4.59481 0.693207 4.35771C0.658716 4.12061 0.622769 3.88448 0.596051 3.64398C0.567438 3.4044 0.553011 3.16331 0.552816 2.92199C0.547813 2.52732 0.610576 2.13474 0.738384 1.76126C0.853854 1.42256 1.04933 1.11671 1.3082 0.869702C1.59073 0.609182 1.92757 0.414497 2.29433 0.299833C2.69122 0.166658 3.16874 0.0996094 3.72301 0.0996094H4.13058V1.15247C4.13378 1.22652 4.11557 1.29988 4.07811 1.36382C4.04304 1.42033 3.99772 1.46974 3.94453 1.50958C3.89337 1.54476 3.83722 1.57197 3.7779 1.59024C3.73001 1.60739 3.67963 1.61691 3.62877 1.61842C3.29795 1.61842 3.05604 1.71996 2.9001 1.92402C2.74417 2.12809 2.66693 2.40989 2.66693 2.77331C2.66693 3.06191 2.68101 3.33351 2.70385 3.59102C2.72668 3.84853 2.75242 4.09486 2.77866 4.33439C2.80489 4.57392 2.82966 4.80665 2.85395 5.037C2.87824 5.26725 2.89038 5.50143 2.89038 5.73756C2.89106 5.93127 2.86372 6.12406 2.80926 6.30991C2.75869 6.49099 2.67805 6.6623 2.57074 6.81666C2.46202 6.97379 2.32829 7.11202 2.17483 7.22576C2.01137 7.34766 1.82745 7.4393 1.63173 7.49638C1.82624 7.55498 2.00972 7.64525 2.17483 7.76366C2.32819 7.87584 2.46193 8.01261 2.57074 8.16838C2.67839 8.32395 2.75903 8.49658 2.80926 8.67897C2.86308 8.86419 2.89038 9.05605 2.89038 9.24889C2.89038 9.48502 2.87533 9.71872 2.85395 9.94951C2.83258 10.1803 2.80537 10.4159 2.77866 10.6516C2.75194 10.8873 2.72619 11.1374 2.70385 11.3949C2.6815 11.6525 2.66693 11.925 2.66693 12.2117C2.66693 12.5727 2.74757 12.8564 2.9001 13.0605C3.05264 13.2645 3.29698 13.3671 3.62877 13.3671C3.67963 13.3684 3.72996 13.3778 3.7779 13.3948C3.83702 13.4142 3.89308 13.4418 3.94453 13.4769C3.99806 13.5152 4.04348 13.5637 4.07811 13.6197C4.11571 13.6834 4.13393 13.7567 4.13058 13.8306V14.8839H3.72155C3.16874 14.8839 2.68976 14.8169 2.29288 14.6847C1.92582 14.568 1.58908 14.3716 1.30675 14.1095C1.04797 13.8618 0.851959 13.556 0.734984 13.2175C0.606835 12.8461 0.544024 12.4553 0.549416 12.0625C0.549999 11.8215 0.564912 11.5807 0.594108 11.3415C0.622283 11.0989 0.654684 10.86 0.691263 10.6249C0.72624 10.3897 0.758787 10.1531 0.788419 9.91647C0.818003 9.68359 0.833111 9.44911 0.833597 9.21439Z" fill="white"/>
<path fill-rule="evenodd" clip-rule="evenodd" d="M16.8919 1.72852V3.83376H13.6721V13.1764H11.0144V3.83376H7.79565V1.72852H16.8919Z" fill="white"/>
<path fill-rule="evenodd" clip-rule="evenodd" d="M22.2195 7.1109H23.2882C23.6511 7.1109 23.9566 7.0662 24.2112 6.97292C24.4449 6.89411 24.658 6.76395 24.8349 6.592C24.9954 6.43259 25.1161 6.23771 25.1876 6.02306C25.2635 5.79553 25.3011 5.55697 25.2988 5.3171C25.2988 4.81472 25.1366 4.42165 24.8087 4.1384C24.4808 3.85514 23.9751 3.71375 23.2887 3.71375H22.22L22.2195 7.1109ZM22.2195 8.94115V13.1764H19.5647V1.72852H23.2887C24.1145 1.72852 24.8237 1.8116 25.4072 1.98359C25.9906 2.15559 26.4676 2.38977 26.8373 2.69393C27.1914 2.98024 27.4681 3.35071 27.6422 3.77157C27.8106 4.2018 27.8954 4.66026 27.8919 5.12227C27.8934 5.47913 27.8429 5.83435 27.7418 6.17659C27.6431 6.50314 27.4932 6.8119 27.2978 7.09147C27.0974 7.37745 26.8545 7.63107 26.5774 7.84359C26.2766 8.0716 25.944 8.25428 25.5903 8.38581C25.7683 8.47555 25.9353 8.58574 26.0877 8.71425C26.2478 8.85078 26.3842 9.01281 26.4914 9.1938L28.93 13.1779H26.5249C26.0809 13.1779 25.7616 13.0111 25.567 12.6774L23.6671 9.34976C23.5973 9.22115 23.4954 9.1128 23.3713 9.03541C23.2581 8.97273 23.0987 8.93823 22.8952 8.93823L22.2195 8.94115Z" fill="white"/>
<path fill-rule="evenodd" clip-rule="evenodd" d="M34.8871 8.79928H38.0136L36.9609 5.664C36.8915 5.4648 36.8128 5.23061 36.7214 4.96096C36.6301 4.69131 36.5393 4.39979 36.4465 4.08641C36.3663 4.40611 36.2769 4.702 36.1895 4.97262C36.1021 5.2433 36.018 5.48181 35.9374 5.68198L34.8871 8.79928ZM42.2399 13.1759H40.1792C39.9524 13.1759 39.761 13.124 39.6094 13.0152C39.465 12.9151 39.3568 12.7711 39.3009 12.6046L38.6257 10.6086H34.2721L33.5984 12.6046C33.4564 12.9566 33.1117 13.1842 32.7322 13.1764H30.6541L35.0882 1.72852H37.8062L42.2399 13.1759Z" fill="white"/>
<path fill-rule="evenodd" clip-rule="evenodd" d="M42.2258 1.72852H44.3608C44.593 1.72852 44.7801 1.7805 44.9272 1.88448C45.0735 1.98733 45.1837 2.13348 45.2425 2.30232L47.4572 8.43143C47.5543 8.69968 47.6583 8.99017 47.7589 9.30598C47.8594 9.62179 47.9575 9.95077 48.045 10.2957C48.1193 9.95077 48.2058 9.61844 48.302 9.30598C48.3981 8.99362 48.4963 8.70162 48.589 8.43143L50.7891 2.30475C50.9278 1.95065 51.2733 1.72132 51.6533 1.73094H53.8053L49.2162 13.1788H46.814L42.2258 1.72852Z" fill="white"/>
<path fill-rule="evenodd" clip-rule="evenodd" d="M63.6903 1.72852V3.77157H58.9904V6.44381H62.5915V8.40767H58.9904V11.1368H63.6903V13.1774H56.321V1.72852H63.6903Z" fill="white"/>
<path fill-rule="evenodd" clip-rule="evenodd" d="M69.4265 11.0566H73.6698V13.1764H66.7717V1.72852H69.4275L69.4265 11.0566Z" fill="white"/>
<path fill-rule="evenodd" clip-rule="evenodd" d="M83.0464 3.20094C83.0063 3.27178 82.953 3.33426 82.8895 3.38508C82.8278 3.42896 82.7533 3.45102 82.6776 3.44776C82.5805 3.44776 82.4731 3.39917 82.3508 3.30638C82.1996 3.19472 82.0425 3.09158 81.88 2.99737C81.6621 2.87284 81.4329 2.7692 81.1955 2.68787C80.8817 2.58735 80.5534 2.53973 80.224 2.54697C79.9023 2.54202 79.5821 2.59128 79.2767 2.69273C79.023 2.7763 78.7882 2.90923 78.586 3.08385C78.4053 3.24452 78.263 3.44378 78.1696 3.66689C78.0743 3.89573 78.0261 4.14143 78.0278 4.38936C78.0278 4.71844 78.1087 4.99212 78.2707 5.21047C78.444 5.43834 78.6622 5.62822 78.9119 5.76824C79.201 5.93067 79.5055 6.06408 79.8208 6.16665C80.1609 6.27986 80.5068 6.39743 80.8633 6.51793C81.2198 6.63842 81.5628 6.77592 81.9004 6.92703C82.2297 7.0723 82.5358 7.26533 82.8088 7.49986C83.0796 7.73545 83.2985 8.02464 83.452 8.34914C83.6138 8.68925 83.6949 9.09927 83.6949 9.58761C83.6986 10.0857 83.6087 10.5802 83.4301 11.0452C83.2599 11.4902 82.997 11.8941 82.6592 12.2302C82.304 12.5758 81.8815 12.8447 81.418 13.0202C80.925 13.2146 80.3658 13.3117 79.7373 13.3117C78.973 13.3117 78.2766 13.1726 77.6484 12.8944C77.0398 12.6322 76.4909 12.2488 76.0352 11.7676L76.4971 11.0082C76.542 10.9485 76.5963 10.8965 76.6579 10.8543C76.721 10.8145 76.7941 10.7934 76.8687 10.7935C76.9853 10.7935 77.115 10.8543 77.2661 10.9796C77.4432 11.1252 77.6281 11.2612 77.8199 11.3867C78.0748 11.5517 78.3466 11.689 78.6307 11.7963C78.9469 11.9212 79.3321 11.9819 79.7883 11.9819C80.1335 11.9877 80.4772 11.9351 80.805 11.8264C81.084 11.732 81.3406 11.5811 81.5589 11.3834C81.7654 11.1943 81.9276 10.962 82.034 10.7031C82.1475 10.4229 82.2037 10.1227 82.1992 9.82029C82.1992 9.46274 82.1195 9.16977 81.9563 8.9419C81.7861 8.70727 81.568 8.51152 81.3165 8.36761C81.0302 8.20407 80.7267 8.07274 80.4115 7.97595L79.3729 7.64557C79.0194 7.53387 78.6723 7.40317 78.3329 7.25401C78.003 7.11092 77.698 6.91624 77.4293 6.67729C77.1564 6.42936 76.9388 6.12671 76.7905 5.78913C76.6249 5.43445 76.5477 4.99669 76.5477 4.47196C76.55 3.62471 76.8917 2.81381 77.4963 2.22047C77.8252 1.90422 78.2135 1.65648 78.6389 1.49168C79.0926 1.31094 79.6105 1.21814 80.2021 1.21814C80.8189 1.2107 81.4318 1.3174 82.0097 1.53298C82.5424 1.735 83.028 2.04386 83.437 2.44057L83.0464 3.20094Z" fill="white"/>
<path fill-rule="evenodd" clip-rule="evenodd" d="M96.7304 7.2687C96.7304 6.53991 96.6298 5.89031 96.4336 5.31213C96.2572 4.77093 95.9703 4.27229 95.5912 3.84774C95.2259 3.44535 94.7751 3.12988 94.2718 2.9246C93.7559 2.70937 93.1774 2.60199 92.54 2.60199C91.9027 2.60199 91.3309 2.70937 90.8155 2.9246C90.3108 3.13003 89.858 3.4454 89.4903 3.84774C89.1098 4.272 88.8215 4.77064 88.6436 5.31213C88.4449 5.89031 88.3477 6.54137 88.3477 7.2687C88.3477 7.99604 88.4449 8.6437 88.6436 9.21944C88.8219 9.75982 89.1103 10.2574 89.4903 10.6809C89.8584 11.081 90.3111 11.394 90.8155 11.5968C91.3308 11.8086 91.9056 11.9144 92.54 11.914C93.1774 11.914 93.7545 11.8086 94.2718 11.5968C94.7746 11.3941 95.2255 11.0811 95.5912 10.6809C95.9699 10.2571 96.2567 9.75953 96.4336 9.21944C96.6279 8.6437 96.7284 7.99313 96.7284 7.2687H96.7304ZM98.3718 7.2687C98.3718 8.15297 98.2309 8.96922 97.9531 9.70676C97.6901 10.4183 97.2846 11.0685 96.7615 11.6177C96.2429 12.1586 95.6144 12.5821 94.9184 12.8595C94.2019 13.1539 93.4067 13.3007 92.5381 13.3007C91.6695 13.3007 90.8757 13.1549 90.1578 12.8595C89.464 12.5794 88.837 12.1562 88.3177 11.6177C87.7971 11.067 87.393 10.4171 87.1294 9.70676C86.8511 8.96723 86.7107 8.152 86.7107 7.2687C86.7107 6.38541 86.8511 5.56818 87.1294 4.82967C87.3938 4.11822 87.7978 3.46683 88.3177 2.91392C88.837 2.3733 89.4638 1.94744 90.1578 1.66379C90.8745 1.36707 91.6679 1.21806 92.5381 1.2168C93.4047 1.2168 94.2 1.36693 94.9184 1.66379C95.6146 1.94472 96.2429 2.37092 96.7615 2.91392C97.2834 3.46586 97.6881 4.11788 97.9511 4.83064C98.229 5.56945 98.3692 6.38215 98.3718 7.2687Z" fill="white"/>
<path fill-rule="evenodd" clip-rule="evenodd" d="M109.496 1.35156V2.65465H103.817V6.78982H108.67V8.09437H103.819V13.1765H102.208V1.35156H109.496Z" fill="white"/>
<path fill-rule="evenodd" clip-rule="evenodd" d="M121.252 1.35156V2.69352H117.432V13.1765H115.833V2.69352H111.993V1.35156H121.252Z" fill="white"/>
<path fill-rule="evenodd" clip-rule="evenodd" d="M129.876 9.2144C129.877 9.44829 129.892 9.68199 129.921 9.91404C129.949 10.1507 129.983 10.3873 130.018 10.6224C130.053 10.8576 130.086 11.0966 130.116 11.3391C130.145 11.5783 130.159 11.8191 130.158 12.0601C130.163 12.4529 130.1 12.8436 129.972 13.215C129.856 13.5535 129.661 13.8593 129.402 14.107C129.119 14.3694 128.782 14.5658 128.414 14.6823C128.018 14.8145 127.54 14.8815 126.987 14.8815H126.578V13.8281C126.574 13.7542 126.593 13.6807 126.631 13.6173C126.665 13.5603 126.712 13.5116 126.767 13.4745C126.817 13.4389 126.871 13.4112 126.929 13.3923C126.977 13.3757 127.027 13.3664 127.078 13.3646C127.407 13.3646 127.65 13.2625 127.807 13.0581C127.96 12.854 128.037 12.5722 128.037 12.2093C128.037 11.9226 128.026 11.6491 128.001 11.3925C127.977 11.136 127.953 10.8887 127.928 10.6491C127.903 10.4097 127.876 10.1764 127.851 9.94708C127.827 9.71775 127.819 9.48264 127.819 9.24646C127.818 9.05387 127.844 8.8621 127.896 8.67659C127.948 8.49469 128.029 8.32225 128.135 8.1659C128.36 7.84169 128.689 7.60444 129.068 7.49396C128.873 7.4376 128.69 7.34586 128.528 7.22333C128.376 7.10842 128.244 6.97039 128.135 6.81423C128.029 6.65915 127.948 6.48807 127.896 6.30748C127.844 6.1212 127.818 5.9286 127.819 5.73513C127.819 5.499 127.829 5.26482 127.851 5.03452C127.873 4.80422 127.9 4.56955 127.928 4.33196C127.956 4.09437 127.977 3.8461 128.001 3.58859C128.026 3.33108 128.037 3.05949 128.037 2.77088C128.037 2.4094 127.96 2.12809 127.807 1.92159C127.653 1.7151 127.406 1.61599 127.078 1.61599C127.027 1.61409 126.977 1.60457 126.929 1.58781C126.871 1.57007 126.816 1.54282 126.767 1.50715C126.712 1.46853 126.666 1.41887 126.631 1.3614C126.593 1.29775 126.574 1.22424 126.578 1.15004V0.0996094H126.987C127.539 0.0996094 128.018 0.166658 128.414 0.299833C128.782 0.414303 129.119 0.608939 129.402 0.869702C129.661 1.11662 129.857 1.42252 129.972 1.76126C130.1 2.13479 130.162 2.52732 130.158 2.92199C130.159 3.16331 130.145 3.40445 130.116 3.64398C130.087 3.88691 130.055 4.12304 130.018 4.35771C129.982 4.59238 129.948 4.8305 129.921 5.06658C129.892 5.29868 129.877 5.53233 129.876 5.76623C129.876 5.90727 129.891 6.04788 129.921 6.18553C129.945 6.30325 129.991 6.41529 130.057 6.51543C130.122 6.60896 130.211 6.68339 130.314 6.73115C130.438 6.78761 130.573 6.81472 130.709 6.81039V8.17081C130.394 8.17081 130.174 8.26798 130.057 8.45839C129.939 8.64885 129.876 8.90155 129.876 9.2144Z" fill="white"/>
</svg>
