<svg width="130" height="14" viewBox="0 0 130 14" fill="none" xmlns="http://www.w3.org/2000/svg">
<path fill-rule="evenodd" clip-rule="evenodd" d="M52.862 8.81279C53.9776 8.18787 54.5784 8.03271 56.8182 7.95556H58.6462V5.461H56.8182C55.4597 5.36585 54.0995 5.61445 52.862 6.18108V3.08646H60.3711V0.557617H50.4161V13.4161H60.783V10.8444H52.862V8.81279Z" fill="white"/>
<path fill-rule="evenodd" clip-rule="evenodd" d="M21.633 5.6153L18.2775 0.557617H15.1279L20.4058 8.23844V13.399H22.8945V8.23844L28.1295 0.557617H25.0829L21.633 5.6153Z" fill="white"/>
<path fill-rule="evenodd" clip-rule="evenodd" d="M0.452637 3.13789H5.02678V13.399H7.55843V3.13789H12.287V0.557617H0.452637V3.13789Z" fill="white"/>
<path fill-rule="evenodd" clip-rule="evenodd" d="M40.4699 6.23306H39.3542C37.9931 6.13791 36.6303 6.38565 35.3894 6.95314V3.13844H40.4699C41.4825 3.13844 42.4437 3.39561 42.4437 4.63003C42.4437 6.02732 41.6885 6.23306 40.4699 6.23306ZM40.9247 0.558163H32.9006V13.4167H35.3894V9.52484C36.4535 8.95907 37.0114 8.80477 39.3542 8.80477H40.4699C43.3105 8.80477 45.0354 7.20174 45.0354 4.67289C45.177 2.54181 43.5628 0.700464 41.431 0.558163C41.262 0.547019 41.0938 0.547019 40.9247 0.558163Z" fill="white"/>
<path fill-rule="evenodd" clip-rule="evenodd" d="M107.726 5.23815C105.289 5.23815 104.988 4.71523 104.988 3.94372C104.988 3.17221 106.301 2.555 107.563 2.555C108.911 2.47099 110.245 2.87218 111.322 3.68655L113.038 1.72348C111.413 0.601361 109.469 0.0304426 107.494 0.0947352C104.705 0.0947352 102.268 1.63776 102.268 3.96087C102.268 6.74688 104.448 7.77556 107.494 7.77556C110.138 7.77556 111.408 7.9813 111.408 9.17286C111.408 10.5101 109.786 11.2302 107.494 11.2302C105.203 11.2302 104.353 9.94437 103.59 9.12142L101.762 10.973C103.191 12.6635 105.278 13.6596 107.494 13.7076C111.099 13.7076 113.896 12.2675 113.896 9.17286C113.896 7.10692 113.081 5.23815 107.726 5.23815Z" fill="white"/>
<path fill-rule="evenodd" clip-rule="evenodd" d="M76.7711 9.52464C76.0519 8.80713 75.1354 8.32022 74.1373 8.12734L72.8664 10.3819C73.4147 10.4659 73.9348 10.6768 74.3862 10.9991H74.4368C73.9185 11.1877 73.3675 11.276 72.8157 11.2563C70.3785 11.2563 67.9404 9.9704 67.9404 7.03008C67.9404 4.08977 70.3261 2.80391 72.7634 2.80391C75.2006 2.80391 77.7409 4.03833 77.7409 6.92721C77.7606 7.88475 77.4139 8.81399 76.7711 9.52464ZM72.8157 0.146484C69.0045 0.146484 65.3486 2.66676 65.3486 6.95293C65.3486 11.2391 68.9539 13.8108 72.7634 13.8108C74.2034 13.8005 75.616 13.4293 76.8741 12.7307C77.4714 13.2125 78.1957 13.5091 78.9603 13.5879L80.2639 11.3848C79.7979 11.3505 79.3457 11.21 78.9423 10.9734C79.8245 9.78095 80.2888 8.33137 80.2639 6.85006C80.2639 2.41816 76.5746 0.146484 72.8157 0.146484Z" fill="white"/>
<path fill-rule="evenodd" clip-rule="evenodd" d="M117.346 0.557617V3.13789H121.921V13.3981H124.409V3.13789H129.181V0.557617H117.346Z" fill="white"/>
<path fill-rule="evenodd" clip-rule="evenodd" d="M93.1368 9.12173C91.375 9.07115 89.6294 9.46034 88.0564 10.2524L91.0429 4.38122L93.4801 9.1303L93.1368 9.12173ZM88.8459 0.300781L89.7041 1.90381L83.6968 13.4508H86.2713L86.3228 13.2965C86.7262 12.7307 89.9787 11.4877 93.0768 11.4877H94.5958L95.617 13.3985H98.3546L91.5492 0.300781H88.8459Z" fill="white"/>
</svg>
