<svg width="35" height="24" viewBox="0 0 35 24" fill="none" xmlns="http://www.w3.org/2000/svg">
<path fill-rule="evenodd" clip-rule="evenodd" d="M31.1949 0.734103C32.694 1.12953 33.8761 2.28704 34.2796 3.75551C35.0295 6.43772 35.0006 12.0286 35.0006 12.0286C35.0006 12.0286 35.0006 17.591 34.2799 20.2735C33.8761 21.7417 32.6943 22.8995 31.1949 23.2946C28.4559 24.0007 17.5003 24.0007 17.5003 24.0007C17.5003 24.0007 6.5733 24.0007 3.80576 23.2666C2.30637 22.8712 1.12448 21.7134 0.720724 20.2452C0 17.591 0 12.0004 0 12.0004C0 12.0004 0 6.43772 0.720724 3.75551C1.12421 2.2873 2.33521 1.10129 3.8055 0.70612C6.54446 0 17.5 0 17.5 0C17.5 0 28.4559 0 31.1949 0.734103ZM23.0593 12.0004L14.0003 17.1434V6.85736L23.0593 12.0004Z" fill="white"/>
</svg>
