<svg width="64" height="64" viewBox="0 0 64 64" fill="none" xmlns="http://www.w3.org/2000/svg">
<path fill-rule="evenodd" clip-rule="evenodd" d="M52.7336 20.282H61.2405C62.6543 20.282 63.8005 21.4281 63.8005 22.842V30.522C63.8005 31.9358 62.6543 33.082 61.2405 33.082H52.7336C51.6868 33.0819 50.7455 32.4445 50.3569 31.4725L48.9525 27.962H24.1205C22.5673 27.962 21.1671 28.8976 20.5728 30.3325C19.9784 31.7674 20.3069 33.4191 21.4052 34.5173C22.5034 35.6155 24.155 35.9441 25.59 35.3497C27.0249 34.7553 27.9605 33.3551 27.9605 31.802C27.9561 31.365 27.8764 30.932 27.7249 30.522H30.3925C30.9331 33.1729 29.7482 35.8773 27.4328 37.2768C25.1175 38.6763 22.1722 38.4684 20.0764 36.7576C17.9806 35.0467 17.1873 32.2026 18.0949 29.654C19.0026 27.1054 21.415 25.403 24.1205 25.402H33.6091C31.503 22.2142 27.9411 20.2922 24.1205 20.282C17.7581 20.282 12.6004 25.4397 12.6004 31.802C12.6004 38.1643 17.7581 43.322 24.1205 43.322C30.4828 43.322 35.6405 38.1643 35.6405 31.802C35.6217 31.3732 35.5785 30.9459 35.5112 30.522H38.1362C38.1749 30.9444 38.2005 31.3701 38.2005 31.802C38.2364 38.897 32.9625 44.8987 25.9217 45.7751C18.881 46.6514 12.2967 42.1258 10.5922 35.2385C8.88773 28.3512 12.6013 21.277 19.2381 18.7685C25.875 16.26 33.3393 19.1092 36.6166 25.402H42.2043C38.847 15.9755 28.8311 10.6894 19.1543 13.237C9.47753 15.7846 3.36286 25.3173 5.08243 35.1749C6.80199 45.0325 15.7831 51.9319 25.7509 51.0527C35.7187 50.1735 43.3533 41.8084 43.3207 31.802C43.3207 31.449 43.2963 31.1019 43.2718 30.7548C43.2663 30.6772 43.2609 30.5996 43.2557 30.522H45.8157C45.8225 30.6392 45.8305 30.7561 45.8385 30.8729C45.8595 31.1808 45.8805 31.4885 45.8805 31.802C45.9333 43.1339 37.2422 52.591 25.9461 53.4933C14.65 54.3956 4.56792 46.438 2.82125 35.2414C1.07457 24.0447 8.25382 13.3944 19.288 10.8131C30.3221 8.2319 41.4808 14.5924 44.8821 25.402H48.9525L50.3566 21.8915C50.7453 20.9194 51.6867 20.282 52.7336 20.282ZM52.7336 30.5219H61.2404V22.8419H52.7336L51.1976 26.6819L52.7336 30.5219Z" fill="#30CEC2" fill-opacity="0.4"/>
</svg>
