<svg width="64" height="64" viewBox="0 0 64 64" fill="none" xmlns="http://www.w3.org/2000/svg">
<path fill-rule="evenodd" clip-rule="evenodd" d="M60.1601 7.68H51.2001V1.28C51.2001 0.573075 50.627 0 49.9201 0H14.0801C13.3731 0 12.8001 0.573075 12.8001 1.28V7.68H3.84006C3.13313 7.68 2.56006 8.25308 2.56006 8.96V15.36C2.56643 21.5688 7.03459 26.8747 13.1518 27.9375C14.5002 34.9494 19.6258 40.6351 26.4607 42.7008L24.572 51.2H20.9946C19.9479 51.1999 19.0066 51.837 18.6177 52.8087L15.5457 60.4887C15.2299 61.2775 15.3261 62.1715 15.8024 62.8751C16.2787 63.5787 17.073 64.0001 17.9226 64H46.0775C46.9271 64.0001 47.7214 63.5787 48.1977 62.8751C48.674 62.1715 48.7702 61.2775 48.4545 60.4887L45.3825 52.8087C44.9935 51.837 44.0522 51.1999 43.0055 51.2H39.4266L37.5381 42.7008C44.3736 40.635 49.4998 34.9492 50.8488 27.937C56.9656 26.874 61.4335 21.5685 61.4401 15.36V8.96C61.4401 8.25308 60.867 7.68 60.1601 7.68ZM12.8001 24.3199V25.2761C8.2824 24.1027 5.12626 20.0275 5.1201 15.3599V10.2399H12.8001V24.3199ZM46.0775 61.4401L43.0055 53.7601H20.9947L17.9227 61.4401H46.0775ZM27.1955 51.1999L28.9619 43.2562C29.966 43.4246 30.9819 43.5128 32.0001 43.5199C33.018 43.5127 34.0337 43.4249 35.0378 43.2575L36.8032 51.1999H27.1955ZM48.64 24.3199V7.67993V2.55993H15.36V24.3199C15.36 33.51 22.81 40.9599 32 40.9599C41.1901 40.9599 48.64 33.51 48.64 24.3199ZM58.88 15.3599C58.8739 20.0275 55.7177 24.1027 51.2 25.2761V10.2399H58.88V15.3599ZM24.32 56.32C23.6131 56.32 23.04 56.8931 23.04 57.6C23.04 58.3069 23.6131 58.88 24.32 58.88H39.68C40.387 58.88 40.96 58.3069 40.96 57.6C40.96 56.8931 40.387 56.32 39.68 56.32H24.32Z" fill="#30CEC2" fill-opacity="0.4"/>
</svg>
