<svg width="64" height="64" viewBox="0 0 64 64" fill="none" xmlns="http://www.w3.org/2000/svg">
<path fill-rule="evenodd" clip-rule="evenodd" d="M64 49.9201V29.4401C64 28.7331 63.4269 28.1601 62.72 28.1601C62.0131 28.1601 61.44 28.7331 61.44 29.4401V40.9601H2.56V6.40006C2.56 5.69313 3.13308 5.12006 3.84 5.12006H37.12C37.8269 5.12006 38.4 4.54698 38.4 3.84006C38.4 3.13313 37.8269 2.56006 37.12 2.56006H3.84C1.72016 2.56232 0.00225755 4.28022 0 6.40006V49.9201C0.00225755 52.0399 1.72016 53.7578 3.84 53.7601H25.088L23.552 61.4401H19.2C18.4931 61.4401 17.92 62.0131 17.92 62.7201C17.92 63.427 18.4931 64.0001 19.2 64.0001H44.8C45.5069 64.0001 46.08 63.427 46.08 62.7201C46.08 62.0131 45.5069 61.4401 44.8 61.4401H40.448L38.912 53.7601H60.16C62.2798 53.7578 63.9977 52.0399 64 49.9201ZM56.4078 9.20051C53.3141 6.29182 49.1322 4.83121 44.9004 5.18131C44.2044 5.21237 43.6033 4.69903 43.5251 4.00678C43.4982 3.66827 43.6069 3.33293 43.8273 3.07458C44.0476 2.81622 44.3616 2.65602 44.7002 2.62925C49.6431 2.227 54.526 3.93119 58.1453 7.32173C61.841 10.7034 63.9623 15.4709 64.0003 20.4801C64.0003 20.9145 63.9696 21.3417 63.9391 21.7678L63.9327 21.8577C63.8817 22.5243 63.3264 23.0394 62.6578 23.0401C62.6227 23.0401 62.5902 23.0401 62.5577 23.0363C61.8528 22.9822 61.3249 22.3675 61.3778 21.6626C61.4103 21.2714 61.4403 20.8803 61.4403 20.4801C61.4033 16.1843 59.58 12.0976 56.4078 9.20051ZM46.08 17.9201C44.6662 17.9201 43.52 19.0662 43.52 20.4801C43.52 21.8939 44.6662 23.0401 46.08 23.0401C47.4938 23.0401 48.64 21.8939 48.64 20.4801C48.64 19.0662 47.4938 17.9201 46.08 17.9201ZM44.8668 12.8513C47.2875 12.5722 49.7139 13.3248 51.5517 14.9249C53.0189 16.4007 53.8171 18.4136 53.76 20.4939C53.7475 20.8644 53.7091 21.2336 53.645 21.5988C53.5958 21.9322 53.6829 22.2714 53.8865 22.5399C54.0902 22.8084 54.3933 22.9837 54.7276 23.0262C54.7861 23.035 54.8451 23.0397 54.9043 23.0401C55.5545 23.0205 56.0965 22.5365 56.1894 21.8927C56.2672 21.4302 56.3108 20.9627 56.32 20.4939C56.3827 17.7031 55.2952 15.0093 53.3125 13.0443C50.9725 10.9488 47.8568 9.93844 44.7324 10.2618C44.0223 10.3045 43.4809 10.9141 43.5223 11.6242C43.5655 12.3292 44.1608 12.8725 44.8668 12.8513ZM37.8371 61.4401L36.3011 53.7601H27.6995L26.1635 61.4401H37.8371ZM2.56 43.5201H61.44V49.9201C61.44 50.627 60.8669 51.2001 60.16 51.2001H3.84C3.13308 51.2001 2.56 50.627 2.56 49.9201V43.5201Z" fill="#30CEC2" fill-opacity="0.4"/>
</svg>
