<svg width="64" height="64" viewBox="0 0 64 64" fill="none" xmlns="http://www.w3.org/2000/svg">
<path fill-rule="evenodd" clip-rule="evenodd" d="M55.9043 20.7495L61.4899 41.2295C61.805 42.3842 61.5635 43.6198 60.837 44.571C60.1105 45.5222 58.982 46.0802 57.7851 46.0802H32.0927V58.8802H35.9327C36.6396 58.8802 37.2127 59.4533 37.2127 60.1602C37.2127 60.8671 36.6396 61.4402 35.9327 61.4402H25.6927C24.9858 61.4402 24.4127 60.8671 24.4127 60.1602C24.4127 59.4533 24.9858 58.8802 25.6927 58.8802H29.5327V46.0802H3.84026C2.64334 46.0802 1.51484 45.5222 0.788329 44.571C0.0618195 43.6198 -0.179602 42.3842 0.135427 41.2295L5.72109 20.7495C6.17685 19.0789 7.69431 17.9201 9.42592 17.9202H14.1727V8.96017C14.1749 6.84034 15.8928 5.12243 18.0127 5.12017H24.6477C25.2711 3.35691 27.0741 2.29922 28.9174 2.61548C30.7607 2.93173 32.1081 4.52996 32.1081 6.40017C32.1081 8.27039 30.7607 9.86862 28.9174 10.1849C27.0741 10.5011 25.2711 9.44343 24.6477 7.68017H18.0127C17.3058 7.68017 16.7327 8.25325 16.7327 8.96017V17.9202H52.1994C53.931 17.9201 55.4485 19.0789 55.9043 20.7495ZM57.7851 43.5201C58.1848 43.5236 58.5623 43.3367 58.8019 43.0168L58.8024 43.0171C59.0478 42.7014 59.1285 42.288 59.02 41.9032L53.4344 21.4232C53.2817 20.8669 52.7763 20.4809 52.1994 20.4801H16.7327V24.3201C16.7327 25.027 16.1596 25.6001 15.4527 25.6001C14.7458 25.6001 14.1727 25.027 14.1727 24.3201V20.4801H9.42593C8.84902 20.4809 8.34367 20.8669 8.19098 21.4232L2.60532 41.9032C2.50031 42.2881 2.58078 42.7 2.82295 43.017C3.06512 43.3341 3.44129 43.5201 3.84026 43.5201H57.7851ZM24.4127 26.8802C24.4127 26.1733 24.9858 25.6002 25.6927 25.6002H35.9327C36.6396 25.6002 37.2127 26.1733 37.2127 26.8802C37.2127 27.5871 36.6396 28.1602 35.9327 28.1602H25.6927C24.9858 28.1602 24.4127 27.5871 24.4127 26.8802ZM41.0527 35.8402C41.7596 35.8402 42.3327 35.2671 42.3327 34.5602C42.3327 33.8533 41.7596 33.2802 41.0527 33.2802H20.5727C19.8658 33.2802 19.2927 33.8533 19.2927 34.5602C19.2927 35.2671 19.8658 35.8402 20.5727 35.8402H41.0527Z" fill="#30CEC2" fill-opacity="0.4"/>
</svg>
