<svg width="64" height="64" viewBox="0 0 64 64" fill="none" xmlns="http://www.w3.org/2000/svg">
<path fill-rule="evenodd" clip-rule="evenodd" d="M12.8 17.9201C17.0415 17.9201 20.48 14.4816 20.48 10.2401C20.48 5.99851 17.0415 2.56006 12.8 2.56006C8.55845 2.56006 5.12 5.99851 5.12 10.2401C5.12 14.4816 8.55845 17.9201 12.8 17.9201ZM12.8 5.1201C15.6277 5.1201 17.92 7.4124 17.92 10.2401C17.92 13.0678 15.6277 15.3601 12.8 15.3601C9.97231 15.3601 7.68001 13.0678 7.68001 10.2401C7.68325 7.41374 9.97366 5.12334 12.8 5.1201ZM25.6 33.28V42.24C25.6 44.3608 23.8808 46.08 21.76 46.08H20.48V60.16C20.48 62.2808 18.7608 64 16.64 64H8.96C6.83923 64 5.12 62.2808 5.12 60.16V46.08H3.84C1.71923 46.08 0 44.3608 0 42.24V33.28C0 26.2108 5.73075 20.48 12.8 20.48C19.8692 20.48 25.6 26.2108 25.6 33.28ZM23.04 42.24C23.0392 42.9466 22.4666 43.5192 21.76 43.52H20.48C19.0662 43.52 17.92 44.6662 17.92 46.08V60.16C17.9192 60.8666 17.3466 61.4392 16.64 61.44H8.96001C8.25344 61.4392 7.68086 60.8666 7.68001 60.16V46.08C7.68001 44.6662 6.53386 43.52 5.12001 43.52H3.84001C3.13344 43.5192 2.56086 42.9466 2.56001 42.24V33.28C2.56001 27.6247 7.14461 23.04 12.8 23.04C18.4554 23.04 23.04 27.6247 23.04 33.28V42.24ZM53.76 42.24C53.76 42.9469 54.3331 43.52 55.04 43.52C55.7469 43.52 56.32 42.9469 56.32 42.24V21.76C56.32 21.0531 55.7469 20.48 55.04 20.48C54.3331 20.48 53.76 21.0531 53.76 21.76V42.24ZM32 43.5201C31.2931 43.5201 30.72 42.947 30.72 42.2401V34.5601C30.72 33.8532 31.2931 33.2801 32 33.2801C32.7069 33.2801 33.28 33.8532 33.28 34.5601V42.2401C33.28 42.947 32.7069 43.5201 32 43.5201ZM46.08 42.24C46.08 42.9469 46.6531 43.52 47.36 43.52C48.0669 43.52 48.64 42.9469 48.64 42.24V29.44C48.64 28.7331 48.0669 28.16 47.36 28.16C46.6531 28.16 46.08 28.7331 46.08 29.44V42.24ZM39.68 43.5201C38.9731 43.5201 38.4 42.947 38.4 42.2401V19.2001C38.4 18.4931 38.9731 17.9201 39.68 17.9201C40.3869 17.9201 40.96 18.4931 40.96 19.2001V42.2401C40.96 42.947 40.3869 43.5201 39.68 43.5201ZM64 47.36V11.52C64 9.39926 62.2808 7.68003 60.16 7.68003H24.32C23.6131 7.68003 23.04 8.25311 23.04 8.96003C23.04 9.66695 23.6131 10.24 24.32 10.24H60.16C60.8665 10.241 61.439 10.8135 61.44 11.52V47.36C61.439 48.0665 60.8665 48.639 60.16 48.64H24.32C23.6131 48.64 23.04 49.2131 23.04 49.92C23.04 50.627 23.6131 51.2 24.32 51.2H60.16C62.2808 51.2 64 49.4808 64 47.36Z" fill="#30CEC2" fill-opacity="0.4"/>
</svg>
