<svg width="64" height="64" viewBox="0 0 64 64" fill="none" xmlns="http://www.w3.org/2000/svg">
<path fill-rule="evenodd" clip-rule="evenodd" d="M60.16 2.55981H3.84C1.72016 2.56207 0.00225755 4.27998 0 6.39981V49.9198C0.00225755 52.0396 1.72016 53.7576 3.84 53.7598H25.088L23.552 61.4398H19.2C18.4931 61.4398 17.92 62.0129 17.92 62.7198C17.92 63.4267 18.4931 63.9998 19.2 63.9998H44.8C45.5069 63.9998 46.08 63.4267 46.08 62.7198C46.08 62.0129 45.5069 61.4398 44.8 61.4398H40.448L38.912 53.7598H60.16C62.2798 53.7576 63.9977 52.0396 64 49.9198V6.39981C63.9977 4.27998 62.2798 2.56207 60.16 2.55981ZM26.1632 61.4397L27.6992 53.7597H36.3008L37.8368 61.4397H26.1632ZM60.16 51.1998C60.8669 51.1998 61.44 50.6267 61.44 49.9198V43.5198H2.56V49.9198C2.56 50.6267 3.13307 51.1998 3.84 51.1998H60.16ZM61.44 40.9597H2.56V6.39975C2.56 5.69282 3.13307 5.11975 3.84 5.11975H60.16C60.8669 5.11975 61.44 5.69282 61.44 6.39975V40.9597ZM12.8 34.5598V26.8798C12.8 26.1729 12.2269 25.5998 11.52 25.5998C10.8131 25.5998 10.24 26.1729 10.24 26.8798V34.5598C10.24 35.2668 10.8131 35.8398 11.52 35.8398C12.2269 35.8398 12.8 35.2668 12.8 34.5598ZM23.04 14.0798V34.5598C23.04 35.2667 22.4669 35.8398 21.76 35.8398C21.0531 35.8398 20.48 35.2667 20.48 34.5598V14.0798C20.48 13.3728 21.0531 12.7998 21.76 12.7998C22.4669 12.7998 23.04 13.3728 23.04 14.0798ZM33.28 34.5598V29.4398C33.28 28.7328 32.7069 28.1598 32 28.1598C31.2931 28.1598 30.72 28.7328 30.72 29.4398V34.5598C30.72 35.2667 31.2931 35.8398 32 35.8398C32.7069 35.8398 33.28 35.2667 33.28 34.5598ZM43.52 19.1998V34.5598C43.52 35.2668 42.9469 35.8398 42.24 35.8398C41.5331 35.8398 40.96 35.2668 40.96 34.5598V19.1998C40.96 18.4929 41.5331 17.9198 42.24 17.9198C42.9469 17.9198 43.52 18.4929 43.52 19.1998ZM53.76 34.5599V24.3199C53.76 23.613 53.1869 23.0399 52.48 23.0399C51.7731 23.0399 51.2 23.613 51.2 24.3199V34.5599C51.2 35.2668 51.7731 35.8399 52.48 35.8399C53.1869 35.8399 53.76 35.2668 53.76 34.5599Z" fill="#30CEC2" fill-opacity="0.4"/>
</svg>
