<svg width="64" height="65" viewBox="0 0 64 65" fill="none" xmlns="http://www.w3.org/2000/svg">
<path fill-rule="evenodd" clip-rule="evenodd" d="M12.8 16.36C17.0416 16.36 20.48 12.9215 20.48 8.68C20.48 4.43845 17.0416 1 12.8 1C8.55849 1 5.12004 4.43845 5.12004 8.68C5.12004 12.9215 8.55849 16.36 12.8 16.36ZM48.64 16.36C52.8816 16.36 56.32 12.9215 56.32 8.68C56.32 4.43845 52.8816 1 48.64 1C44.3985 1 40.96 4.43845 40.96 8.68C40.96 12.9215 44.3985 16.36 48.64 16.36ZM38.4 11.24C38.4 15.4816 34.9616 18.92 30.72 18.92C26.4785 18.92 23.04 15.4816 23.04 11.24C23.04 6.99846 26.4785 3.56001 30.72 3.56001C34.9616 3.56001 38.4 6.99846 38.4 11.24ZM35.84 11.24C35.84 8.4123 33.5477 6.12 30.72 6.12C27.8937 6.12324 25.6033 8.41365 25.6 11.24C25.6 14.0677 27.8923 16.36 30.72 16.36C33.5477 16.36 35.84 14.0677 35.84 11.24ZM53.76 8.68001C53.76 5.85231 51.4677 3.56001 48.64 3.56001C45.8137 3.56325 43.5233 5.85366 43.52 8.68001C43.52 11.5077 45.8123 13.8 48.64 13.8C51.4677 13.8 53.76 11.5077 53.76 8.68001ZM17.92 8.68001C17.92 5.85231 15.6277 3.56001 12.8 3.56001C9.97367 3.56325 7.68327 5.85366 7.68003 8.68001C7.68003 11.5077 9.97233 13.8 12.8 13.8C15.6277 13.8 17.92 11.5077 17.92 8.68001ZM48.6401 18.92C44.6001 18.9273 40.8029 20.8502 38.4062 24.1025L38.409 24.1051C33.8801 20.6042 27.5582 20.6042 23.0293 24.1051L23.0337 24.1012C19.7555 19.6618 13.9957 17.8317 8.75628 19.5647C3.51688 21.2978 -0.0155801 26.2015 5.16709e-05 31.72V38.12C5.16709e-05 40.2408 1.71928 41.96 3.84005 41.96H5.12005V53.48C5.12005 55.6008 6.83928 57.32 8.96005 57.32H16.6401C18.7608 57.32 20.4801 55.6008 20.4801 53.48V46.845C20.89 46.9964 21.323 47.0759 21.7601 47.08H23.0401V61.16C23.0401 63.2808 24.7593 65 26.8801 65H34.5601C36.6808 65 38.4001 63.2808 38.4001 61.16V47.08H39.68C40.1171 47.0759 40.5501 46.9964 40.9601 46.845V53.48C40.9601 55.6008 42.6793 57.32 44.8001 57.32H52.4801C54.6008 57.32 56.3201 55.6008 56.3201 53.48V41.96H57.6001C59.7208 41.96 61.4401 40.2408 61.4401 38.12V31.72C61.4401 28.3253 60.0915 25.0695 57.691 22.6691C55.2906 20.2686 52.0348 18.92 48.6401 18.92ZM17.92 53.4801V34.2801C17.9294 31.1659 19.0829 28.1637 21.1612 25.8444C18.6017 22.1845 13.9627 20.6096 9.70401 21.9548C5.44532 23.3001 2.55274 27.254 2.56002 31.7201V38.1201C2.561 38.8266 3.1335 39.3991 3.84002 39.4001H5.12002C6.53387 39.4001 7.68002 40.5462 7.68002 41.9601V53.4801C7.681 54.1866 8.2535 54.7591 8.96002 54.7601H16.64C17.3465 54.7591 17.919 54.1866 17.92 53.4801ZM40.96 43.24C40.9592 43.9466 40.3866 44.5192 39.68 44.52H38.4C36.9862 44.52 35.84 45.6662 35.84 47.08V61.16C35.8392 61.8666 35.2666 62.4392 34.56 62.44H26.88C26.1734 62.4392 25.6009 61.8666 25.6 61.16V47.08C25.6 45.6662 24.4539 44.52 23.04 44.52H21.76C21.0534 44.5192 20.4809 43.9466 20.48 43.24V34.28C20.48 28.6246 25.0646 24.04 30.72 24.04C36.3754 24.04 40.96 28.6246 40.96 34.28V43.24ZM57.6 39.4001C58.3065 39.3991 58.879 38.8266 58.88 38.1201V31.7201C58.8873 27.254 55.9947 23.3001 51.736 21.9548C47.4773 20.6096 42.8383 22.1845 40.2788 25.8444C42.3571 28.1637 43.5106 31.1659 43.52 34.2801V53.4801C43.521 54.1866 44.0935 54.7591 44.8 54.7601H52.48C53.1865 54.7591 53.759 54.1866 53.76 53.4801V41.9601C53.76 40.5462 54.9061 39.4001 56.32 39.4001H57.6Z" fill="#30CEC2" fill-opacity="0.4"/>
</svg>
